<svg width="672" height="432" viewBox="0 0 504 324" xmlns="http://www.w3.org/2000/svg" xmlns:xlink="http://www.w3.org/1999/xlink" stroke-linejoin="round" overflow="hidden"><defs></defs><defs><clipPath id="pa53e375cd9"><rect x="63" y="38.88" width="390.6" height="249.48"/></clipPath></defs><g id="figure_1"><g id="patch_1"><path d="M0 324 504 324 504 0 0 0 0 324Z" fill="none"/></g><g id="axes_1"><g id="patch_2"><path d="M63 288.36 453.6 288.36 453.6 38.88 63 38.88 63 288.36Z" fill="none"/></g><g id="PathCollection_1"><defs><path d="M0 3C0.795609 3 1.55874 2.6839 2.12132 2.12132 2.6839 1.55874 3 0.795609 3 -0 3-0.795609 2.6839-1.55874 2.12132-2.12132 1.55874-2.6839 0.795609-3 0-3-0.795609-3-1.55874-2.6839-2.12132-2.12132-2.6839-1.55874-3-0.795609-3 0-3 0.795609-2.6839 1.55874-2.12132 2.12132-1.55874 2.6839-0.795609 3 0 3Z" id="C0_0_19efc79dc9"/></defs><g clip-path="url(#pa53e375cd9)"><use x="93.5754" y="104.282" width="100%" height="100%" xlink:href="#C0_0_19efc79dc9" stroke="#D62728" stroke-opacity="0.9" fill="none"></use></g><g clip-path="url(#pa53e375cd9)"><use x="111.334" y="98.7211" width="100%" height="100%" xlink:href="#C0_0_19efc79dc9" stroke="#D62728" stroke-opacity="0.9" fill="none"></use></g><g clip-path="url(#pa53e375cd9)"><use x="123.77" y="86.9611" width="100%" height="100%" xlink:href="#C0_0_19efc79dc9" stroke="#D62728" stroke-opacity="0.9" fill="none"></use></g><g clip-path="url(#pa53e375cd9)"><use x="139.405" y="96.6285" width="100%" height="100%" xlink:href="#C0_0_19efc79dc9" stroke="#D62728" stroke-opacity="0.9" fill="none"></use></g><g clip-path="url(#pa53e375cd9)"><use x="159.055" y="96.2406" width="100%" height="100%" xlink:href="#C0_0_19efc79dc9" stroke="#D62728" stroke-opacity="0.9" fill="none"></use></g><g clip-path="url(#pa53e375cd9)"><use x="183.748" y="97.205" width="100%" height="100%" xlink:href="#C0_0_19efc79dc9" stroke="#D62728" stroke-opacity="0.9" fill="none"></use></g><g clip-path="url(#pa53e375cd9)"><use x="214.817" y="94.1346" width="100%" height="100%" xlink:href="#C0_0_19efc79dc9" stroke="#D62728" stroke-opacity="0.9" fill="none"></use></g><g clip-path="url(#pa53e375cd9)"><use x="253.898" y="94.8694" width="100%" height="100%" xlink:href="#C0_0_19efc79dc9" stroke="#D62728" stroke-opacity="0.9" fill="none"></use></g><g clip-path="url(#pa53e375cd9)"><use x="303.048" y="105.974" width="100%" height="100%" xlink:href="#C0_0_19efc79dc9" stroke="#D62728" stroke-opacity="0.9" fill="none"></use></g><g clip-path="url(#pa53e375cd9)"><use x="364.81" y="143.334" width="100%" height="100%" xlink:href="#C0_0_19efc79dc9" stroke="#D62728" stroke-opacity="0.9" fill="none"></use></g><g clip-path="url(#pa53e375cd9)"><use x="442.461" y="150.517" width="100%" height="100%" xlink:href="#C0_0_19efc79dc9" stroke="#D62728" stroke-opacity="0.9" fill="none"></use></g></g><g id="PathCollection_2"><path d="M93.5754 110.94 96.5754 104.94 90.5754 104.94 93.5754 110.94Z" stroke="#1F77B4" stroke-opacity="0.9" fill="none" clip-path="url(#pa53e375cd9)"/><path d="M123.77 97.6781 126.77 91.6781 120.77 91.6781 123.77 97.6781Z" stroke="#1F77B4" stroke-opacity="0.9" fill="none" clip-path="url(#pa53e375cd9)"/><path d="M139.405 93.3033 142.405 87.3033 136.405 87.3033 139.405 93.3033Z" stroke="#1F77B4" stroke-opacity="0.9" fill="none" clip-path="url(#pa53e375cd9)"/><path d="M159.055 88.0527 162.055 82.0527 156.055 82.0527 159.055 88.0527Z" stroke="#1F77B4" stroke-opacity="0.9" fill="none" clip-path="url(#pa53e375cd9)"/><path d="M183.748 105.87 186.748 99.8702 180.748 99.8702 183.748 105.87Z" stroke="#1F77B4" stroke-opacity="0.9" fill="none" clip-path="url(#pa53e375cd9)"/><path d="M214.817 103.764 217.817 97.7643 211.817 97.7643 214.817 103.764Z" stroke="#1F77B4" stroke-opacity="0.9" fill="none" clip-path="url(#pa53e375cd9)"/><path d="M253.898 93.5137 256.898 87.5137 250.898 87.5137 253.898 93.5137Z" stroke="#1F77B4" stroke-opacity="0.9" fill="none" clip-path="url(#pa53e375cd9)"/><path d="M364.81 134.459 367.81 128.459 361.81 128.459 364.81 134.459Z" stroke="#1F77B4" stroke-opacity="0.9" fill="none" clip-path="url(#pa53e375cd9)"/><path d="M442.461 158.769 445.461 152.769 439.461 152.769 442.461 158.769Z" stroke="#1F77B4" stroke-opacity="0.9" fill="none" clip-path="url(#pa53e375cd9)"/></g><g id="PathCollection_3"><defs><path d="M-3 3 3 3 3-3-3-3Z" id="C1_0_fdf76d5015"/></defs><g clip-path="url(#pa53e375cd9)"><use x="93.5754" y="113.221" width="100%" height="100%" xlink:href="#C1_0_fdf76d5015" stroke="#FF7F0E" stroke-opacity="0.9" fill="none"></use></g><g clip-path="url(#pa53e375cd9)"><use x="111.334" y="108.453" width="100%" height="100%" xlink:href="#C1_0_fdf76d5015" stroke="#FF7F0E" stroke-opacity="0.9" fill="none"></use></g><g clip-path="url(#pa53e375cd9)"><use x="123.77" y="98.0172" width="100%" height="100%" xlink:href="#C1_0_fdf76d5015" stroke="#FF7F0E" stroke-opacity="0.9" fill="none"></use></g><g clip-path="url(#pa53e375cd9)"><use x="139.405" y="103.451" width="100%" height="100%" xlink:href="#C1_0_fdf76d5015" stroke="#FF7F0E" stroke-opacity="0.9" fill="none"></use></g><g clip-path="url(#pa53e375cd9)"><use x="159.055" y="93.4596" width="100%" height="100%" xlink:href="#C1_0_fdf76d5015" stroke="#FF7F0E" stroke-opacity="0.9" fill="none"></use></g><g clip-path="url(#pa53e375cd9)"><use x="183.748" y="98.672" width="100%" height="100%" xlink:href="#C1_0_fdf76d5015" stroke="#FF7F0E" stroke-opacity="0.9" fill="none"></use></g><g clip-path="url(#pa53e375cd9)"><use x="214.817" y="96.1013" width="100%" height="100%" xlink:href="#C1_0_fdf76d5015" stroke="#FF7F0E" stroke-opacity="0.9" fill="none"></use></g><g clip-path="url(#pa53e375cd9)"><use x="253.898" y="121.335" width="100%" height="100%" xlink:href="#C1_0_fdf76d5015" stroke="#FF7F0E" stroke-opacity="0.9" fill="none"></use></g><g clip-path="url(#pa53e375cd9)"><use x="303.048" y="117.211" width="100%" height="100%" xlink:href="#C1_0_fdf76d5015" stroke="#FF7F0E" stroke-opacity="0.9" fill="none"></use></g><g clip-path="url(#pa53e375cd9)"><use x="364.81" y="127.301" width="100%" height="100%" xlink:href="#C1_0_fdf76d5015" stroke="#FF7F0E" stroke-opacity="0.9" fill="none"></use></g><g clip-path="url(#pa53e375cd9)"><use x="442.461" y="159.303" width="100%" height="100%" xlink:href="#C1_0_fdf76d5015" stroke="#FF7F0E" stroke-opacity="0.9" fill="none"></use></g></g><g id="PathCollection_4"><path d="M93.5754 123.327 90.5754 129.327 96.5754 129.327 93.5754 123.327Z" stroke="#2CA02C" stroke-opacity="0.9" fill="none" clip-path="url(#pa53e375cd9)"/><path d="M123.77 116.141 120.77 122.141 126.77 122.141 123.77 116.141Z" stroke="#2CA02C" stroke-opacity="0.9" fill="none" clip-path="url(#pa53e375cd9)"/><path d="M139.405 115.024 136.405 121.024 142.405 121.024 139.405 115.024Z" stroke="#2CA02C" stroke-opacity="0.9" fill="none" clip-path="url(#pa53e375cd9)"/><path d="M159.055 110.251 156.055 116.251 162.055 116.251 159.055 110.251Z" stroke="#2CA02C" stroke-opacity="0.9" fill="none" clip-path="url(#pa53e375cd9)"/><path d="M183.748 104.52 180.748 110.52 186.748 110.52 183.748 104.52Z" stroke="#2CA02C" stroke-opacity="0.9" fill="none" clip-path="url(#pa53e375cd9)"/><path d="M214.817 110.097 211.817 116.097 217.817 116.097 214.817 110.097Z" stroke="#2CA02C" stroke-opacity="0.9" fill="none" clip-path="url(#pa53e375cd9)"/><path d="M253.898 102.841 250.898 108.841 256.898 108.841 253.898 102.841Z" stroke="#2CA02C" stroke-opacity="0.9" fill="none" clip-path="url(#pa53e375cd9)"/><path d="M364.81 141.422 361.81 147.422 367.81 147.422 364.81 141.422Z" stroke="#2CA02C" stroke-opacity="0.9" fill="none" clip-path="url(#pa53e375cd9)"/><path d="M442.461 165.459 439.461 171.459 445.461 171.459 442.461 165.459Z" stroke="#2CA02C" stroke-opacity="0.9" fill="none" clip-path="url(#pa53e375cd9)"/></g><g id="PathCollection_5"><defs><path d="M0 4.24264 4.24264 -0 0-4.24264-4.24264 0Z" id="C2_0_c36f823c6f"/></defs><g clip-path="url(#pa53e375cd9)"><use x="93.5754" y="139.673" width="100%" height="100%" xlink:href="#C2_0_c36f823c6f" stroke="#9467BD" stroke-opacity="0.9" fill="none"></use></g><g clip-path="url(#pa53e375cd9)"><use x="111.334" y="125.889" width="100%" height="100%" xlink:href="#C2_0_c36f823c6f" stroke="#9467BD" stroke-opacity="0.9" fill="none"></use></g><g clip-path="url(#pa53e375cd9)"><use x="123.77" y="122.973" width="100%" height="100%" xlink:href="#C2_0_c36f823c6f" stroke="#9467BD" stroke-opacity="0.9" fill="none"></use></g><g clip-path="url(#pa53e375cd9)"><use x="139.405" y="114.482" width="100%" height="100%" xlink:href="#C2_0_c36f823c6f" stroke="#9467BD" stroke-opacity="0.9" fill="none"></use></g><g clip-path="url(#pa53e375cd9)"><use x="159.055" y="115.173" width="100%" height="100%" xlink:href="#C2_0_c36f823c6f" stroke="#9467BD" stroke-opacity="0.9" fill="none"></use></g><g clip-path="url(#pa53e375cd9)"><use x="183.748" y="104.811" width="100%" height="100%" xlink:href="#C2_0_c36f823c6f" stroke="#9467BD" stroke-opacity="0.9" fill="none"></use></g><g clip-path="url(#pa53e375cd9)"><use x="214.817" y="121.302" width="100%" height="100%" xlink:href="#C2_0_c36f823c6f" stroke="#9467BD" stroke-opacity="0.9" fill="none"></use></g><g clip-path="url(#pa53e375cd9)"><use x="253.898" y="127.764" width="100%" height="100%" xlink:href="#C2_0_c36f823c6f" stroke="#9467BD" stroke-opacity="0.9" fill="none"></use></g><g clip-path="url(#pa53e375cd9)"><use x="303.048" y="145.868" width="100%" height="100%" xlink:href="#C2_0_c36f823c6f" stroke="#9467BD" stroke-opacity="0.9" fill="none"></use></g><g clip-path="url(#pa53e375cd9)"><use x="364.81" y="160.771" width="100%" height="100%" xlink:href="#C2_0_c36f823c6f" stroke="#9467BD" stroke-opacity="0.9" fill="none"></use></g><g clip-path="url(#pa53e375cd9)"><use x="442.461" y="201.702" width="100%" height="100%" xlink:href="#C2_0_c36f823c6f" stroke="#9467BD" stroke-opacity="0.9" fill="none"></use></g></g><g id="matplotlib.axis_1"><g id="xtick_1"><g id="line2d_1"><path d="M63 288.36 63 38.88" stroke="#808080" stroke-width="0.5" stroke-linecap="square" fill="none" clip-path="url(#pa53e375cd9)"/></g><g id="line2d_2"><defs><path d="M0 0 0 3.5" id="m7834e176d8" stroke="#000000" stroke-width="0.8"/></defs><g><use x="63" y="288.36" width="100%" height="100%" xlink:href="#m7834e176d8" stroke="#000000" stroke-width="0.8"></use></g></g><g id="text_1"><g transform="matrix(0.1 0 0 -0.1 59.8188 302.958)"><defs><path d="M2034 4250C1709.33 4250 1465 4090 1301 3770 1137.67 3450.67 1056 2970 1056 2328 1056 1688.67 1137.67 1209 1301 889 1465 569 1709.33 409 2034 409 2361.33 409 2606.67 569 2770 889 2934 1209 3016 1688.67 3016 2328 3016 2970 2934 3450.67 2770 3770 2606.67 4090 2361.33 4250 2034 4250ZM2034 4750C2557.33 4750 2957 4543 3233 4129 3509 3715.67 3647 3115.33 3647 2328 3647 1542.67 3509 943 3233 529 2957 115.667 2557.33-91 2034-91 1511.33-91 1112 115.667 836 529 560 943 422 1542.67 422 2328 422 3115.33 560 3715.67 836 4129 1112 4543 1511.33 4750 2034 4750Z" id="DejaVuSans-30" transform="scale(0.015625 0.015625)"/></defs><use width="100%" height="100%" xlink:href="#DejaVuSans-30"></use></g></g></g><g id="xtick_2"><g id="line2d_3"><path d="M141.12 288.36 141.12 38.88" stroke="#808080" stroke-width="0.5" stroke-linecap="square" fill="none" clip-path="url(#pa53e375cd9)"/></g><g id="line2d_4"><g><use x="141.12" y="288.36" width="100%" height="100%" xlink:href="#m7834e176d8" stroke="#000000" stroke-width="0.8"></use></g></g><g id="text_2"><g transform="matrix(0.1 0 0 -0.1 134.757 302.958)"><defs><path d="M794 531 1825 531 1825 4091 703 3866 703 4441 1819 4666 2450 4666 2450 531 3481 531 3481 0 794 0 794 531Z" id="DejaVuSans-31" transform="scale(0.015625 0.015625)"/></defs><use width="100%" height="100%" xlink:href="#DejaVuSans-31"></use><use x="63.623" width="100%" height="100%" xlink:href="#DejaVuSans-30"></use></g></g></g><g id="xtick_3"><g id="line2d_5"><path d="M219.24 288.36 219.24 38.88" stroke="#808080" stroke-width="0.5" stroke-linecap="square" fill="none" clip-path="url(#pa53e375cd9)"/></g><g id="line2d_6"><g><use x="219.24" y="288.36" width="100%" height="100%" xlink:href="#m7834e176d8" stroke="#000000" stroke-width="0.8"></use></g></g><g id="text_3"><g transform="matrix(0.1 0 0 -0.1 212.877 302.958)"><defs><path d="M1228 531 3431 531 3431 0 469 0 469 531C708.333 779 1034.67 1111.67 1448 1529 1862 1947 2122 2216.67 2228 2338 2430 2564.67 2571 2756.67 2651 2914 2731.67 3071.33 2772 3226 2772 3378 2772 3626 2685 3828 2511 3984 2337 4140.67 2110.33 4219 1831 4219 1633 4219 1424 4184.67 1204 4116 984.667 4047.33 750 3943 500 3803L500 4441C754 4543 991.333 4620 1212 4672 1433.33 4724 1635.67 4750 1819 4750 2302.33 4750 2687.67 4629 2975 4387 3262.33 4145.67 3406 3823 3406 3419 3406 3227 3370 3045 3298 2873 3226.67 2701.67 3096 2499.33 2906 2266 2854 2205.33 2688.33 2030.67 2409 1742 2130.33 1453.33 1736.67 1049.67 1228 531Z" id="DejaVuSans-32" transform="scale(0.015625 0.015625)"/></defs><use width="100%" height="100%" xlink:href="#DejaVuSans-32"></use><use x="63.623" width="100%" height="100%" xlink:href="#DejaVuSans-30"></use></g></g></g><g id="xtick_4"><g id="line2d_7"><path d="M297.36 288.36 297.36 38.88" stroke="#808080" stroke-width="0.5" stroke-linecap="square" fill="none" clip-path="url(#pa53e375cd9)"/></g><g id="line2d_8"><g><use x="297.36" y="288.36" width="100%" height="100%" xlink:href="#m7834e176d8" stroke="#000000" stroke-width="0.8"></use></g></g><g id="text_4"><g transform="matrix(0.1 0 0 -0.1 290.998 302.958)"><defs><path d="M2597 2516C2899 2451.33 3134.67 2316.67 3304 2112 3474 1908 3559 1656 3559 1356 3559 896 3400.67 539.667 3084 287 2767.33 35 2317.33-91 1734-91 1538.67-91 1337.33-71.6667 1130-33 922.667 5.66667 708.667 63.6667 488 141L488 750C662.667 648 854 571 1062 519 1270.67 467 1488.67 441 1716 441 2111.33 441 2412.67 519 2620 675 2827.33 831 2931 1058 2931 1356 2931 1631.33 2834.67 1846.33 2642 2001 2449.33 2156.33 2181.33 2234 1838 2234L1294 2234 1294 2753 1863 2753C2173 2753 2410.33 2815 2575 2939 2739.67 3063 2822 3241.67 2822 3475 2822 3714.33 2737 3898 2567 4026 2397.67 4154.67 2154.67 4219 1838 4219 1664.67 4219 1479 4200 1281 4162 1083 4124.67 865.333 4066.67 628 3988L628 4550C868 4616.67 1092.67 4666.67 1302 4700 1511.33 4733.33 1708.67 4750 1894 4750 2373.33 4750 2752.33 4641 3031 4423 3310.33 4205.67 3450 3911.67 3450 3541 3450 3282.33 3376 3064 3228 2886 3080 2708 2869.67 2584.67 2597 2516Z" id="DejaVuSans-33" transform="scale(0.015625 0.015625)"/></defs><use width="100%" height="100%" xlink:href="#DejaVuSans-33"></use><use x="63.623" width="100%" height="100%" xlink:href="#DejaVuSans-30"></use></g></g></g><g id="xtick_5"><g id="line2d_9"><path d="M375.48 288.36 375.48 38.88" stroke="#808080" stroke-width="0.5" stroke-linecap="square" fill="none" clip-path="url(#pa53e375cd9)"/></g><g id="line2d_10"><g><use x="375.48" y="288.36" width="100%" height="100%" xlink:href="#m7834e176d8" stroke="#000000" stroke-width="0.8"></use></g></g><g id="text_5"><g transform="matrix(0.1 0 0 -0.1 369.118 302.958)"><defs><path d="M2419 4116 825 1625 2419 1625 2419 4116ZM2253 4666 3047 4666 3047 1625 3713 1625 3713 1100 3047 1100 3047 0 2419 0 2419 1100 313 1100 313 1709 2253 4666Z" id="DejaVuSans-34" transform="scale(0.015625 0.015625)"/></defs><use width="100%" height="100%" xlink:href="#DejaVuSans-34"></use><use x="63.623" width="100%" height="100%" xlink:href="#DejaVuSans-30"></use></g></g></g><g id="xtick_6"><g id="line2d_11"><path d="M453.6 288.36 453.6 38.88" stroke="#808080" stroke-width="0.5" stroke-linecap="square" fill="none" clip-path="url(#pa53e375cd9)"/></g><g id="line2d_12"><g><use x="453.6" y="288.36" width="100%" height="100%" xlink:href="#m7834e176d8" stroke="#000000" stroke-width="0.8"></use></g></g><g id="text_6"><g transform="matrix(0.1 0 0 -0.1 447.238 302.958)"><defs><path d="M691 4666 3169 4666 3169 4134 1269 4134 1269 2991C1360.33 3022.33 1451.67 3045.67 1543 3061 1635 3076.33 1727 3084 1819 3084 2339.67 3084 2752 2941.33 3056 2656 3360.67 2370.67 3513 1984.33 3513 1497 3513 995 3356.67 604.667 3044 326 2731.33 48 2290.67-91 1722-91 1526-91 1326.33-74.3333 1123-41 920.333-7.66667 710.667 42.3333 494 109L494 744C681.333 642 875 566 1075 516 1275 466 1486.33 441 1709 441 2069.67 441 2355 535.667 2565 725 2775.67 914.333 2881 1171.67 2881 1497 2881 1821.67 2775.67 2078.67 2565 2268 2355 2458 2069.67 2553 1709 2553 1540.33 2553 1372 2534.33 1204 2497 1036.67 2459.67 865.667 2401.33 691 2322L691 4666Z" id="DejaVuSans-35" transform="scale(0.015625 0.015625)"/></defs><use width="100%" height="100%" xlink:href="#DejaVuSans-35"></use><use x="63.623" width="100%" height="100%" xlink:href="#DejaVuSans-30"></use></g></g></g><g id="text_7"><g transform="matrix(0.11 0 0 -0.11 236.63 319.048)"><defs><path d="M1984 4856C1705.33 4377.33 1498 3903.33 1362 3434 1226.67 2965.33 1159 2490.33 1159 2009 1159 1528.33 1227.33 1052 1364 580 1500.67 108 1707.33-366.667 1984-844L1484-844C1172-354 938.333 127.333 783 600 627.667 1072.67 550 1542.33 550 2009 550 2473.67 627 2941.33 781 3412 935.667 3883.33 1170 4364.67 1484 4856L1984 4856Z" id="DejaVuSans-28" transform="scale(0.015625 0.015625)"/><path d="M3175 2156C3175 2462.67 3108.33 2697 2975 2859 2841.67 3021.67 2650 3103 2400 3103 2229.33 3103 2066.33 3059.33 1911 2972 1755.67 2884.67 1617.67 2757.67 1497 2591 1378.33 2426.33 1283.33 2227.33 1212 1994 1141.33 1760.67 1106 1529.33 1106 1300 1106 1008.67 1172.67 784.333 1306 627 1439.33 469.667 1629 391 1875 391 2056.33 391 2224.67 433.667 2380 519 2535.33 604.333 2668 728.333 2778 891 2896.67 1061.67 2992.33 1262.67 3065 1494 3138.33 1725.33 3175 1946 3175 2156ZM1394 2969C1548 3171 1729.67 3324 1939 3428 2148.33 3532 2381.33 3584 2638 3584 2996 3584 3274 3466.67 3472 3232 3670 2998 3769 2669.67 3769 2247 3769 1901 3707.33 1571.33 3584 1258 3461.33 944.667 3284.33 664 3053 416 2899 251.333 2725 125.667 2531 39 2337.67-47.6667 2133.67-91 1919-91 1671-91 1462.67-39.3333 1294 64 1125.33 167.333 999.333 321 916 525L556-1331-19-1331 922 3500 1497 3500 1394 2969Z" id="DejaVuSans-Oblique-70" transform="scale(0.015625 0.015625)"/><path d="M1625 4666 2156 4666 531-594 0-594 1625 4666Z" id="DejaVuSans-2f" transform="scale(0.015625 0.015625)"/><path d="M3438 1997 3047 0 2472 0 2578 531C2409.33 323 2217 167.333 2001 64 1785.67-39.3333 1545.67-91 1281-91 983-91 738.667 0 548 182 358 364.667 263 598.667 263 884 263 1292.67 426 1615.67 752 1853 1078 2090.33 1527.33 2209 2100 2209L2900 2209 2931 2363C2935.67 2379.67 2939 2397.67 2941 2417 2943 2437 2944 2467.67 2944 2509 2944 2695 2868.33 2839.33 2717 2942 2566.33 3045.33 2354.33 3097 2081 3097 1893.67 3097 1701.33 3073 1504 3025 1307.33 2977 1105 2905 897 2809L997 3341C1213.67 3422.33 1425.67 3483 1633 3523 1840.33 3563.67 2040.67 3584 2234 3584 2646.67 3584 2960.67 3494.33 3176 3315 3392 3136.33 3500 2876 3500 2534 3500 2465.33 3494.67 2384.67 3484 2292 3474 2199.33 3458.67 2101 3438 1997ZM2816 1759 2241 1759C1769.67 1759 1421 1696 1195 1570 969 1444 856 1248.67 856 984 856 800.667 913.667 657 1029 553 1145 449 1305 397 1509 397 1821.67 397 2094.67 509 2328 733 2561.33 957 2715.67 1256.33 2791 1631L2816 1759Z" id="DejaVuSans-Oblique-61" transform="scale(0.015625 0.015625)"/><path d="M513 4856 1013 4856C1325 4364.67 1558.67 3883.33 1714 3412 1869.33 2941.33 1947 2473.67 1947 2009 1947 1542.33 1869.33 1072.67 1714 600 1558.67 127.333 1325-354 1013-844L513-844C789.667-366.667 996.333 108 1133 580 1269.67 1052 1338 1528.33 1338 2009 1338 2490.33 1269.67 2965.33 1133 3434 996.333 3903.33 789.667 4377.33 513 4856Z" id="DejaVuSans-29" transform="scale(0.015625 0.015625)"/><path d="M684 794 1344 794 1344 0 684 0 684 794Z" id="DejaVuSans-2e" transform="scale(0.015625 0.015625)"/><path d="M525 4666 3525 4666 3525 4397 1831 0 1172 0 2766 4134 525 4134 525 4666Z" id="DejaVuSans-37" transform="scale(0.015625 0.015625)"/></defs><use width="100%" height="100%" xlink:href="#DejaVuSans-28" transform="matrix(1 0 0 1 0 0.765625)"></use><use width="100%" height="100%" xlink:href="#DejaVuSans-Oblique-70" transform="translate(39.0137 0.765625)"></use><use width="100%" height="100%" xlink:href="#DejaVuSans-2f" transform="translate(102.49 0.765625)"></use><use width="100%" height="100%" xlink:href="#DejaVuSans-Oblique-70" transform="translate(136.182 0.765625)"></use><use width="100%" height="100%" xlink:href="#DejaVuSans-Oblique-61" transform="matrix(0.7 0 0 0.7 199.658 -15.6406)"></use><use width="100%" height="100%" xlink:href="#DejaVuSans-29" transform="translate(245.288 0.765625)"></use><use width="100%" height="100%" xlink:href="#DejaVuSans-30" transform="matrix(0.7 0 0 0.7 285.259 39.0469)"></use><use width="100%" height="100%" xlink:href="#DejaVuSans-2e" transform="matrix(0.7 0 0 0.7 329.795 39.0469)"></use><use width="100%" height="100%" xlink:href="#DejaVuSans-37" transform="matrix(0.7 0 0 0.7 346.621 39.0469)"></use></g></g></g><g id="matplotlib.axis_2"><g id="ytick_1"><g id="line2d_13"><path d="M63 288.36 453.6 288.36" stroke="#808080" stroke-width="0.5" stroke-linecap="square" fill="none" clip-path="url(#pa53e375cd9)"/></g><g id="line2d_14"><defs><path d="M0 0-3.5 0" id="m18709edef9" stroke="#000000" stroke-width="0.8"/></defs><g><use x="63" y="288.36" width="100%" height="100%" xlink:href="#m18709edef9" stroke="#000000" stroke-width="0.8"></use></g></g><g id="text_8"><g transform="matrix(0.1 0 0 -0.1 33.7344 292.159)"><defs><path d="M2034 2216C1734 2216 1498 2135.67 1326 1975 1154.67 1814.33 1069 1593.67 1069 1313 1069 1031.67 1154.67 810.667 1326 650 1498 489.333 1734 409 2034 409 2334 409 2570.33 489.667 2743 651 2916.33 813 3003 1033.67 3003 1313 3003 1593.67 2917 1814.33 2745 1975 2573.67 2135.67 2336.67 2216 2034 2216ZM1403 2484C1132.33 2550.67 921.333 2676.67 770 2862 619.333 3048 544 3274.33 544 3541 544 3913.67 676.667 4208.33 942 4425 1208 4641.67 1572 4750 2034 4750 2498.67 4750 2863.33 4641.67 3128 4425 3392.67 4208.33 3525 3913.67 3525 3541 3525 3274.33 3449.33 3048 3298 2862 3147.33 2676.67 2937.67 2550.67 2669 2484 2973 2413.33 3209.67 2274.67 3379 2068 3549 1862 3634 1610.33 3634 1313 3634 860.333 3496 513 3220 271 2944 29.6667 2548.67-91 2034-91 1520-91 1124.67 29.6667 848 271 572 513 434 860.333 434 1313 434 1610.33 519.333 1862 690 2068 861.333 2274.67 1099 2413.33 1403 2484ZM1172 3481C1172 3239.67 1247.33 3051.33 1398 2916 1549.33 2780.67 1761.33 2713 2034 2713 2305.33 2713 2517.33 2780.67 2670 2916 2823.33 3051.33 2900 3239.67 2900 3481 2900 3723 2823.33 3911.67 2670 4047 2517.33 4182.33 2305.33 4250 2034 4250 1761.33 4250 1549.33 4182.33 1398 4047 1247.33 3911.67 1172 3723 1172 3481Z" id="DejaVuSans-38" transform="scale(0.015625 0.015625)"/></defs><use width="100%" height="100%" xlink:href="#DejaVuSans-30"></use><use x="63.623" width="100%" height="100%" xlink:href="#DejaVuSans-2e"></use><use x="95.4102" width="100%" height="100%" xlink:href="#DejaVuSans-35"></use><use x="159.033" width="100%" height="100%" xlink:href="#DejaVuSans-38"></use></g></g></g><g id="ytick_2"><g id="line2d_15"><path d="M63 246.78 453.6 246.78" stroke="#808080" stroke-width="0.5" stroke-linecap="square" fill="none" clip-path="url(#pa53e375cd9)"/></g><g id="line2d_16"><g><use x="63" y="246.78" width="100%" height="100%" xlink:href="#m18709edef9" stroke="#000000" stroke-width="0.8"></use></g></g><g id="text_9"><g transform="matrix(0.1 0 0 -0.1 33.7344 250.579)"><defs><path d="M2113 2584C1829.67 2584 1605 2487 1439 2293 1273.67 2099.67 1191 1834.33 1191 1497 1191 1161.67 1273.67 896.333 1439 701 1605 506.333 1829.67 409 2113 409 2396.33 409 2620.67 506.333 2786 701 2951.33 896.333 3034 1161.67 3034 1497 3034 1834.33 2951.33 2099.67 2786 2293 2620.67 2487 2396.33 2584 2113 2584ZM3366 4563 3366 3988C3207.33 4062.67 3047.33 4119.67 2886 4159 2724.67 4199 2564.67 4219 2406 4219 1989.33 4219 1671 4078.33 1451 3797 1231.67 3515.67 1106.33 3090.67 1075 2522 1197.67 2703.33 1351.67 2842.33 1537 2939 1723 3035.67 1927.33 3084 2150 3084 2618.67 3084 2989 2941.67 3261 2657 3533 2373 3669 1986.33 3669 1497 3669 1017.67 3527.33 633 3244 343 2960.67 53.6667 2583.67-91 2113-91 1573-91 1160.33 115.667 875 529 589.667 943 447 1542.67 447 2328 447 3065.33 622 3653.33 972 4092 1322 4530.67 1791.67 4750 2381 4750 2539.67 4750 2699.67 4734.33 2861 4703 3022.33 4671.67 3190.67 4625 3366 4563Z" id="DejaVuSans-36" transform="scale(0.015625 0.015625)"/></defs><use width="100%" height="100%" xlink:href="#DejaVuSans-30"></use><use x="63.623" width="100%" height="100%" xlink:href="#DejaVuSans-2e"></use><use x="95.4102" width="100%" height="100%" xlink:href="#DejaVuSans-36"></use><use x="159.033" width="100%" height="100%" xlink:href="#DejaVuSans-30"></use></g></g></g><g id="ytick_3"><g id="line2d_17"><path d="M63 205.2 453.6 205.2" stroke="#808080" stroke-width="0.5" stroke-linecap="square" fill="none" clip-path="url(#pa53e375cd9)"/></g><g id="line2d_18"><g><use x="63" y="205.2" width="100%" height="100%" xlink:href="#m18709edef9" stroke="#000000" stroke-width="0.8"></use></g></g><g id="text_10"><g transform="matrix(0.1 0 0 -0.1 33.7344 208.999)"><use width="100%" height="100%" xlink:href="#DejaVuSans-30"></use><use x="63.623" width="100%" height="100%" xlink:href="#DejaVuSans-2e"></use><use x="95.4102" width="100%" height="100%" xlink:href="#DejaVuSans-36"></use><use x="159.033" width="100%" height="100%" xlink:href="#DejaVuSans-32"></use></g></g></g><g id="ytick_4"><g id="line2d_19"><path d="M63 163.62 453.6 163.62" stroke="#808080" stroke-width="0.5" stroke-linecap="square" fill="none" clip-path="url(#pa53e375cd9)"/></g><g id="line2d_20"><g><use x="63" y="163.62" width="100%" height="100%" xlink:href="#m18709edef9" stroke="#000000" stroke-width="0.8"></use></g></g><g id="text_11"><g transform="matrix(0.1 0 0 -0.1 33.7344 167.419)"><use width="100%" height="100%" xlink:href="#DejaVuSans-30"></use><use x="63.623" width="100%" height="100%" xlink:href="#DejaVuSans-2e"></use><use x="95.4102" width="100%" height="100%" xlink:href="#DejaVuSans-36"></use><use x="159.033" width="100%" height="100%" xlink:href="#DejaVuSans-34"></use></g></g></g><g id="ytick_5"><g id="line2d_21"><path d="M63 122.04 453.6 122.04" stroke="#808080" stroke-width="0.5" stroke-linecap="square" fill="none" clip-path="url(#pa53e375cd9)"/></g><g id="line2d_22"><g><use x="63" y="122.04" width="100%" height="100%" xlink:href="#m18709edef9" stroke="#000000" stroke-width="0.8"></use></g></g><g id="text_12"><g transform="matrix(0.1 0 0 -0.1 33.7344 125.839)"><use width="100%" height="100%" xlink:href="#DejaVuSans-30"></use><use x="63.623" width="100%" height="100%" xlink:href="#DejaVuSans-2e"></use><use x="95.4102" width="100%" height="100%" xlink:href="#DejaVuSans-36"></use><use x="159.033" width="100%" height="100%" xlink:href="#DejaVuSans-36"></use></g></g></g><g id="ytick_6"><g id="line2d_23"><path d="M63 80.46 453.6 80.46" stroke="#808080" stroke-width="0.5" stroke-linecap="square" fill="none" clip-path="url(#pa53e375cd9)"/></g><g id="line2d_24"><g><use x="63" y="80.46" width="100%" height="100%" xlink:href="#m18709edef9" stroke="#000000" stroke-width="0.8"></use></g></g><g id="text_13"><g transform="matrix(0.1 0 0 -0.1 33.7344 84.2592)"><use width="100%" height="100%" xlink:href="#DejaVuSans-30"></use><use x="63.623" width="100%" height="100%" xlink:href="#DejaVuSans-2e"></use><use x="95.4102" width="100%" height="100%" xlink:href="#DejaVuSans-36"></use><use x="159.033" width="100%" height="100%" xlink:href="#DejaVuSans-38"></use></g></g></g><g id="ytick_7"><g id="line2d_25"><path d="M63 38.88 453.6 38.88" stroke="#808080" stroke-width="0.5" stroke-linecap="square" fill="none" clip-path="url(#pa53e375cd9)"/></g><g id="line2d_26"><g><use x="63" y="38.88" width="100%" height="100%" xlink:href="#m18709edef9" stroke="#000000" stroke-width="0.8"></use></g></g><g id="text_14"><g transform="matrix(0.1 0 0 -0.1 33.7344 42.6792)"><use width="100%" height="100%" xlink:href="#DejaVuSans-30"></use><use x="63.623" width="100%" height="100%" xlink:href="#DejaVuSans-2e"></use><use x="95.4102" width="100%" height="100%" xlink:href="#DejaVuSans-37"></use><use x="159.033" width="100%" height="100%" xlink:href="#DejaVuSans-30"></use></g></g></g><g id="ytick_8"><g id="line2d_27"><path d="M63 277.965 453.6 277.965" stroke="#808080" stroke-width="0.5" stroke-dasharray="1.85 0.8" fill="none" clip-path="url(#pa53e375cd9)"/></g><g id="line2d_28"><defs><path d="M0 0-2 0" id="mcb6c2d7232" stroke="#000000" stroke-width="0.6"/></defs><g><use x="63" y="277.965" width="100%" height="100%" xlink:href="#mcb6c2d7232" stroke="#000000" stroke-width="0.6"></use></g></g></g><g id="ytick_9"><g id="line2d_29"><path d="M63 267.57 453.6 267.57" stroke="#808080" stroke-width="0.5" stroke-dasharray="1.85 0.8" fill="none" clip-path="url(#pa53e375cd9)"/></g><g id="line2d_30"><g><use x="63" y="267.57" width="100%" height="100%" xlink:href="#mcb6c2d7232" stroke="#000000" stroke-width="0.6"></use></g></g></g><g id="ytick_10"><g id="line2d_31"><path d="M63 257.175 453.6 257.175" stroke="#808080" stroke-width="0.5" stroke-dasharray="1.85 0.8" fill="none" clip-path="url(#pa53e375cd9)"/></g><g id="line2d_32"><g><use x="63" y="257.175" width="100%" height="100%" xlink:href="#mcb6c2d7232" stroke="#000000" stroke-width="0.6"></use></g></g></g><g id="ytick_11"><g id="line2d_33"><path d="M63 236.385 453.6 236.385" stroke="#808080" stroke-width="0.5" stroke-dasharray="1.85 0.8" fill="none" clip-path="url(#pa53e375cd9)"/></g><g id="line2d_34"><g><use x="63" y="236.385" width="100%" height="100%" xlink:href="#mcb6c2d7232" stroke="#000000" stroke-width="0.6"></use></g></g></g><g id="ytick_12"><g id="line2d_35"><path d="M63 225.99 453.6 225.99" stroke="#808080" stroke-width="0.5" stroke-dasharray="1.85 0.8" fill="none" clip-path="url(#pa53e375cd9)"/></g><g id="line2d_36"><g><use x="63" y="225.99" width="100%" height="100%" xlink:href="#mcb6c2d7232" stroke="#000000" stroke-width="0.6"></use></g></g></g><g id="ytick_13"><g id="line2d_37"><path d="M63 215.595 453.6 215.595" stroke="#808080" stroke-width="0.5" stroke-dasharray="1.85 0.8" fill="none" clip-path="url(#pa53e375cd9)"/></g><g id="line2d_38"><g><use x="63" y="215.595" width="100%" height="100%" xlink:href="#mcb6c2d7232" stroke="#000000" stroke-width="0.6"></use></g></g></g><g id="ytick_14"><g id="line2d_39"><path d="M63 194.805 453.6 194.805" stroke="#808080" stroke-width="0.5" stroke-dasharray="1.85 0.8" fill="none" clip-path="url(#pa53e375cd9)"/></g><g id="line2d_40"><g><use x="63" y="194.805" width="100%" height="100%" xlink:href="#mcb6c2d7232" stroke="#000000" stroke-width="0.6"></use></g></g></g><g id="ytick_15"><g id="line2d_41"><path d="M63 184.41 453.6 184.41" stroke="#808080" stroke-width="0.5" stroke-dasharray="1.85 0.8" fill="none" clip-path="url(#pa53e375cd9)"/></g><g id="line2d_42"><g><use x="63" y="184.41" width="100%" height="100%" xlink:href="#mcb6c2d7232" stroke="#000000" stroke-width="0.6"></use></g></g></g><g id="ytick_16"><g id="line2d_43"><path d="M63 174.015 453.6 174.015" stroke="#808080" stroke-width="0.5" stroke-dasharray="1.85 0.8" fill="none" clip-path="url(#pa53e375cd9)"/></g><g id="line2d_44"><g><use x="63" y="174.015" width="100%" height="100%" xlink:href="#mcb6c2d7232" stroke="#000000" stroke-width="0.6"></use></g></g></g><g id="ytick_17"><g id="line2d_45"><path d="M63 153.225 453.6 153.225" stroke="#808080" stroke-width="0.5" stroke-dasharray="1.85 0.8" fill="none" clip-path="url(#pa53e375cd9)"/></g><g id="line2d_46"><g><use x="63" y="153.225" width="100%" height="100%" xlink:href="#mcb6c2d7232" stroke="#000000" stroke-width="0.6"></use></g></g></g><g id="ytick_18"><g id="line2d_47"><path d="M63 142.83 453.6 142.83" stroke="#808080" stroke-width="0.5" stroke-dasharray="1.85 0.8" fill="none" clip-path="url(#pa53e375cd9)"/></g><g id="line2d_48"><g><use x="63" y="142.83" width="100%" height="100%" xlink:href="#mcb6c2d7232" stroke="#000000" stroke-width="0.6"></use></g></g></g><g id="ytick_19"><g id="line2d_49"><path d="M63 132.435 453.6 132.435" stroke="#808080" stroke-width="0.5" stroke-dasharray="1.85 0.8" fill="none" clip-path="url(#pa53e375cd9)"/></g><g id="line2d_50"><g><use x="63" y="132.435" width="100%" height="100%" xlink:href="#mcb6c2d7232" stroke="#000000" stroke-width="0.6"></use></g></g></g><g id="ytick_20"><g id="line2d_51"><path d="M63 111.645 453.6 111.645" stroke="#808080" stroke-width="0.5" stroke-dasharray="1.85 0.8" fill="none" clip-path="url(#pa53e375cd9)"/></g><g id="line2d_52"><g><use x="63" y="111.645" width="100%" height="100%" xlink:href="#mcb6c2d7232" stroke="#000000" stroke-width="0.6"></use></g></g></g><g id="ytick_21"><g id="line2d_53"><path d="M63 101.25 453.6 101.25" stroke="#808080" stroke-width="0.5" stroke-dasharray="1.85 0.8" fill="none" clip-path="url(#pa53e375cd9)"/></g><g id="line2d_54"><g><use x="63" y="101.25" width="100%" height="100%" xlink:href="#mcb6c2d7232" stroke="#000000" stroke-width="0.6"></use></g></g></g><g id="ytick_22"><g id="line2d_55"><path d="M63 90.855 453.6 90.855" stroke="#808080" stroke-width="0.5" stroke-dasharray="1.85 0.8" fill="none" clip-path="url(#pa53e375cd9)"/></g><g id="line2d_56"><g><use x="63" y="90.855" width="100%" height="100%" xlink:href="#mcb6c2d7232" stroke="#000000" stroke-width="0.6"></use></g></g></g><g id="ytick_23"><g id="line2d_57"><path d="M63 70.065 453.6 70.065" stroke="#808080" stroke-width="0.5" stroke-dasharray="1.85 0.8" fill="none" clip-path="url(#pa53e375cd9)"/></g><g id="line2d_58"><g><use x="63" y="70.065" width="100%" height="100%" xlink:href="#mcb6c2d7232" stroke="#000000" stroke-width="0.6"></use></g></g></g><g id="ytick_24"><g id="line2d_59"><path d="M63 59.67 453.6 59.67" stroke="#808080" stroke-width="0.5" stroke-dasharray="1.85 0.8" fill="none" clip-path="url(#pa53e375cd9)"/></g><g id="line2d_60"><g><use x="63" y="59.67" width="100%" height="100%" xlink:href="#mcb6c2d7232" stroke="#000000" stroke-width="0.6"></use></g></g></g><g id="ytick_25"><g id="line2d_61"><path d="M63 49.275 453.6 49.275" stroke="#808080" stroke-width="0.5" stroke-dasharray="1.85 0.8" fill="none" clip-path="url(#pa53e375cd9)"/></g><g id="line2d_62"><g><use x="63" y="49.275" width="100%" height="100%" xlink:href="#mcb6c2d7232" stroke="#000000" stroke-width="0.6"></use></g></g></g><g id="text_15"><g transform="matrix(6.73556e-18 -0.11 -0.11 -6.73556e-18 27.4467 197.005)"><defs><path d="M1319 0 500 4666 1119 4666 1797 653 4063 4666 4750 4666 2053 0 1319 0Z" id="DejaVuSans-Oblique-56" transform="scale(0.015625 0.015625)"/><path d="M1625-91C1214.33-91 889.667 35.6667 651 289 413 542.333 294 887.667 294 1325 294 1579 335 1837.67 417 2101 499.667 2365 606.667 2586.67 738 2766 944 3044.67 1174 3250.67 1428 3384 1682 3517.33 1969.67 3584 2291 3584 2689 3584 3010.33 3460 3255 3212 3499.67 2964.67 3622 2641 3622 2241 3622 1963.67 3581.33 1687.33 3500 1412 3418.67 1137.33 3312.33 909.333 3181 728 2977 448.667 2748 242.333 2494 109 2240-24.3333 1950.33-91 1625-91ZM891 1344C891 1027.33 957 790.333 1089 633 1221.67 475.667 1422.33 397 1691 397 2076.33 397 2395.33 565 2648 901 2901.33 1237.67 3028 1664.33 3028 2181 3028 2483 2960.33 2711 2825 2865 2689.67 3019.67 2490.67 3097 2228 3097 2011.33 3097 1818.67 3046.33 1650 2945 1481.33 2844.33 1330.33 2690.67 1197 2484 1099 2330 1023.33 2154 970 1956 917.333 1758 891 1554 891 1344Z" id="DejaVuSans-Oblique-6f" transform="scale(0.015625 0.015625)"/><path d="M1172 4863 1747 4863 1606 4134 1031 4134 1172 4863ZM909 3500 1484 3500 800 0 225 0 909 3500Z" id="DejaVuSans-Oblique-69" transform="scale(0.015625 0.015625)"/><path d="M2675 525C2521 323 2338.67 169.667 2128 65 1918-39 1684.67-91 1428-91 1078-91 801.333 28.3333 598 267 395.333 505.667 294 832.333 294 1247 294 1593 355.333 1922.67 478 2236 601.333 2549.33 779.667 2830 1013 3078 1167 3242.67 1340.67 3368 1534 3454 1728 3540.67 1931.33 3584 2144 3584 2368.67 3584 2567 3529.67 2739 3421 2911 3313 3044 3158 3138 2956L3513 4863 4091 4863 3144 0 2566 0 2675 525ZM891 1350C891 1048 959 812.667 1095 644 1231.67 475.333 1421 391 1663 391 1841.67 391 2007.67 434 2161 520 2314.33 606.667 2449.33 734.333 2566 903 2688.67 1078.33 2785.33 1280.33 2856 1509 2927.33 1738.33 2963 1964.67 2963 2188 2963 2477.33 2894.67 2703 2758 2865 2621.33 3027.67 2433.33 3109 2194 3109 2012.67 3109 1843.67 3066.33 1687 2981 1531 2895.67 1398 2773 1288 2613 1166.67 2439.67 1070 2238.33 998 2009 926.667 1780.33 891 1560.67 891 1350Z" id="DejaVuSans-Oblique-64" transform="scale(0.015625 0.015625)"/><path d="M1613 4147 1294 2491 2106 2491C2424.67 2491 2682.33 2579 2879 2755 3076.33 2931 3175 3160.67 3175 3444 3175 3670.67 3108.67 3844.33 2976 3965 2844 4086.33 2654 4147 2406 4147L1613 4147ZM2772 2241C2905.33 2209.67 3016.33 2132.33 3105 2009 3193.67 1886.33 3296.33 1641.67 3413 1275L3809 0 3144 0 2778 1197C2684.67 1505 2576.33 1711 2453 1815 2330.33 1919.67 2142 1972 1888 1972L1191 1972 806 0 172 0 1081 4666 2503 4666C2934.33 4666 3265 4568.33 3495 4373 3725.67 4178.33 3841 3897.67 3841 3531 3841 3206.33 3743 2925 3547 2687 3351 2449.67 3092.67 2301 2772 2241Z" id="DejaVuSans-Oblique-52" transform="scale(0.015625 0.015625)"/><path d="M2706 3500 2619 3053 1472 3053 1100 1153C1087.33 1082.33 1078 1023 1072 975 1066 927 1063 889.667 1063 863 1063 729.667 1103 632.667 1183 572 1263 511.333 1391.67 481 1569 481L2150 481 2053 0 1503 0C1161.67 0 907 66.6667 739 200 571.667 333.333 488 535.333 488 806 488 854 491 906.667 497 964 503 1021.33 512.333 1084.33 525 1153L897 3053 409 3053 500 3500 978 3500 1172 4494 1747 4494 1556 3500 2706 3500Z" id="DejaVuSans-Oblique-74" transform="scale(0.015625 0.015625)"/><path d="M3078 2063C3084.67 2096.33 3089.33 2130.67 3092 2166 3095.33 2201.33 3097 2236.67 3097 2272 3097 2526 3022.33 2727 2873 2875 2724.33 3023 2522 3097 2266 3097 1980.67 3097 1728.33 3006.67 1509 2826 1290.33 2646 1125 2390.33 1013 2059L3078 2063ZM3578 1613 903 1613C890.333 1533.67 882 1471 878 1425 874 1379 872 1339.33 872 1306 872 1016.67 961 792.667 1139 634 1317 476 1568.67 397 1894 397 2144 397 2380.33 425 2603 481 2826.33 537.667 3033.67 620 3225 728L3116 159C2909.33 75.6667 2696 13.3333 2476-28 2256.67-70 2033.33-91 1806-91 1320.67-91 947.333 25 686 257 424.667 489.667 294 819.667 294 1247 294 1611.67 359 1950.67 489 2264 619 2577.33 810.333 2857 1063 3103 1225 3257 1418 3375.67 1642 3459 1866 3542.33 2104 3584 2356 3584 2752 3584 3067 3465.33 3301 3228 3535.67 2990.67 3653 2672 3653 2272 3653 2176 3646.67 2073.33 3634 1964 3622 1854.67 3603.33 1737.67 3578 1613Z" id="DejaVuSans-Oblique-65" transform="scale(0.015625 0.015625)"/></defs><use width="100%" height="100%" xlink:href="#DejaVuSans-Oblique-56" transform="matrix(1 0 0 1 0 0.015625)"></use><use width="100%" height="100%" xlink:href="#DejaVuSans-Oblique-6f" transform="translate(68.4082 0.015625)"></use><use width="100%" height="100%" xlink:href="#DejaVuSans-Oblique-69" transform="translate(129.59 0.015625)"></use><use width="100%" height="100%" xlink:href="#DejaVuSans-Oblique-64" transform="translate(157.373 0.015625)"></use><use width="100%" height="100%" xlink:href="#DejaVuSans-Oblique-52" transform="translate(253.32 0.015625)"></use><use width="100%" height="100%" xlink:href="#DejaVuSans-Oblique-61" transform="translate(322.802 0.015625)"></use><use width="100%" height="100%" xlink:href="#DejaVuSans-Oblique-74" transform="translate(384.082 0.015625)"></use><use width="100%" height="100%" xlink:href="#DejaVuSans-Oblique-69" transform="translate(423.291 0.015625)"></use><use width="100%" height="100%" xlink:href="#DejaVuSans-Oblique-6f" transform="translate(451.074 0.015625)"></use><use width="100%" height="100%" xlink:href="#DejaVuSans-Oblique-65" transform="translate(544.726 0.015625)"></use></g></g></g><g id="line2d_63"><path d="M63 70.065 505 226.904" stroke="#7F7F7F" stroke-width="0.8" stroke-dasharray="2.96 1.28" fill="none" clip-path="url(#pa53e375cd9)"/></g><g id="line2d_64"><path d="M63 13.932 505 170.771" stroke="#7F7F7F" stroke-width="0.8" stroke-dasharray="2.96 1.28" fill="none" clip-path="url(#pa53e375cd9)"/></g><g id="patch_3"><path d="M63 288.36 63 38.88" stroke="#000000" stroke-width="0.8" stroke-linecap="square" stroke-linejoin="miter" fill="none"/></g><g id="patch_4"><path d="M453.6 288.36 453.6 38.88" stroke="#000000" stroke-width="0.8" stroke-linecap="square" stroke-linejoin="miter" fill="none"/></g><g id="patch_5"><path d="M63 288.36 453.6 288.36" stroke="#000000" stroke-width="0.8" stroke-linecap="square" stroke-linejoin="miter" fill="none"/></g><g id="patch_6"><path d="M63 38.88 453.6 38.88" stroke="#000000" stroke-width="0.8" stroke-linecap="square" stroke-linejoin="miter" fill="none"/></g><g id="legend_1"><g id="patch_7"><path d="M68 283.36 387.4 283.36 387.4 206.36 68 206.36Z" stroke="#CCCCCC" stroke-linejoin="miter" fill="#FFFFFF" opacity="0.5"/></g><g id="PathCollection_6"><path d="M82 218.435C82.7956 218.435 83.5587 218.119 84.1213 217.556 84.6839 216.994 85 216.231 85 215.435 85 214.639 84.6839 213.876 84.1213 213.314 83.5587 212.751 82.7956 212.435 82 212.435 81.2044 212.435 80.4413 212.751 79.8787 213.314 79.3161 213.876 79 214.639 79 215.435 79 216.231 79.3161 216.994 79.8787 217.556 80.4413 218.119 81.2044 218.435 82 218.435L82 218.435Z" stroke="#D62728" stroke-opacity="0.9" fill="none"/></g><g id="text_16"><g transform="matrix(0.1 0 0 -0.1 100 218.06)"><defs><path d="M3566 2113 3156 0 2578 0 2988 2091C3006.67 2189 3021 2275.33 3031 2350 3041.67 2425.33 3047 2484.67 3047 2528 3047 2703.33 2991.67 2839.67 2881 2937 2771 3035 2617 3084 2419 3084 2110.33 3084 1844.67 2981.33 1622 2776 1399.33 2571.33 1253.33 2293 1184 1941L800 0 225 0 903 3500 1478 3500 1363 2950C1523 3152 1715.33 3308 1940 3418 2165.33 3528.67 2402 3584 2650 3584 2958.67 3584 3197.67 3500.67 3367 3334 3537 3167.33 3622 2933 3622 2631 3622 2556.33 3617.33 2476.33 3608 2391 3598.67 2305.67 3584.67 2213 3566 2113Z" id="DejaVuSans-Oblique-6e" transform="scale(0.015625 0.015625)"/><path d="M3566 2113 3156 0 2578 0 2988 2091C3006.67 2189 3021 2275.33 3031 2350 3041.67 2425.33 3047 2484.67 3047 2528 3047 2703.33 2991.67 2839.67 2881 2937 2771 3035 2617 3084 2419 3084 2110.33 3084 1843 2979.67 1617 2771 1391 2563 1244.67 2286.33 1178 1941L800 0 225 0 1172 4863 1747 4863 1375 2950C1521 3146 1707.33 3300.67 1934 3414 2161.33 3527.33 2400 3584 2650 3584 2958.67 3584 3197.67 3500.67 3367 3334 3537 3167.33 3622 2933 3622 2631 3622 2556.33 3617.33 2476.33 3608 2391 3598.67 2305.67 3584.67 2213 3566 2113Z" id="DejaVuSans-Oblique-68" transform="scale(0.015625 0.015625)"/><path d="M4447 4306 4319 3641C4119 3843 3907 3993 3683 4091 3459 4189 3216.67 4238 2956 4238 2600 4238 2287 4152.33 2017 3981 1747.67 3810.33 1515 3550 1319 3200 1193.67 2975.33 1098 2737.33 1032 2486 966.667 2234.67 934 1982 934 1728 934 1303.33 1044 979.333 1264 756 1484 533.333 1803.33 422 2222 422 2511.33 422 2789.33 468.333 3056 561 3322.67 653.667 3582 792.667 3834 978L3688 231C3440 125 3189.33 45 2936-9 2682.67-63.6667 2429-91 2175-91 1577-91 1109.67 71.3333 773 396 437 721.333 269 1173.67 269 1753 269 2123.67 333 2488 461 2846 589 3204.67 773 3532 1013 3828 1267 4142.67 1557 4375 1883 4525 2209 4675 2588.67 4750 3022 4750 3288.67 4750 3541.33 4713 3780 4639 4018.67 4565 4241 4454 4447 4306Z" id="DejaVuSans-Oblique-43" transform="scale(0.015625 0.015625)"/><path d="M2853 2969C2795 3000.33 2728.33 3024.33 2653 3041 2578.33 3057.67 2498.33 3066 2413 3066 2106.33 3066 1838.33 2949.67 1609 2717 1380.33 2485 1228.33 2174 1153 1784L800 0 225 0 909 3500 1484 3500 1375 2956C1527 3158 1708.67 3313 1920 3421 2132 3529.67 2357.67 3584 2597 3584 2659.67 3584 2721 3580.33 2781 3573 2841.67 3566.33 2902.33 3554.67 2963 3538L2853 2969Z" id="DejaVuSans-Oblique-72" transform="scale(0.015625 0.015625)"/><path d="M3431 3366 3316 2797C3178 2897 3031.33 2972 2876 3022 2721.33 3072 2560.67 3097 2394 3097 2210.67 3097 2036 3064.67 1870 3000 1704.67 2935.33 1565.67 2843.67 1453 2725 1273.67 2543.67 1135 2331 1037 2087 939.667 1843.67 891 1591.67 891 1331 891 1016.33 969.667 782 1127 628 1284.33 474 1523.33 397 1844 397 2002 397 2170 421 2348 469 2526.67 517 2712.67 588.667 2906 684L2797 116C2630.33 47.3333 2459-4.33333 2283-39 2107-73.6667 1926.33-91 1741-91 1276.33-91 919 25 669 257 419 489.667 294 821.667 294 1253 294 1615.67 359 1949.67 489 2255 619 2560.33 812.333 2834.67 1069 3078 1243.67 3244.67 1448.67 3370.67 1684 3456 1920 3541.33 2177.33 3584 2456 3584 2618.67 3584 2780 3565.67 2940 3529 3100.67 3493 3264.33 3438.67 3431 3366Z" id="DejaVuSans-Oblique-63" transform="scale(0.015625 0.015625)"/><path d="M1172 4863 1747 4863 800 0 225 0 1172 4863Z" id="DejaVuSans-Oblique-6c" transform="scale(0.015625 0.015625)"/><path d="M3859 4513 3738 3897C3527.33 4009.67 3318.33 4094.67 3111 4152 2903.67 4209.33 2703 4238 2509 4238 2132.33 4238 1832.33 4155.67 1609 3991 1386.33 3826.33 1275 3607.33 1275 3334 1275 3184 1316 3069 1398 2989 1480.67 2909 1692.67 2823 2034 2731L2413 2638C2839.67 2527.33 3136.33 2387 3303 2217 3469.67 2047.67 3553 1809.67 3553 1503 3553 1032.33 3368 649 2998 353 2628.67 57 2142-91 1538-91 1290-91 1041-66.3333 791-17 541 31.6667 290 106 38 206L166 856C397.333 712.667 629 604.333 861 531 1093 458.333 1324.67 422 1556 422 1950 422 2265.67 509.333 2503 684 2740.33 859.333 2859 1087.67 2859 1369 2859 1556.33 2811.67 1698.33 2717 1795 2622.33 1892.33 2418.67 1980.33 2106 2059L1728 2156C1296.67 2268.67 1002.33 2398.33 845 2545 687.667 2692.33 609 2898.33 609 3163 609 3627 787.667 4007.33 1145 4304 1502.33 4601.33 1967.67 4750 2541 4750 2763.67 4750 2984.33 4730 3203 4690 3421.67 4650.67 3640.33 4591.67 3859 4513Z" id="DejaVuSans-Oblique-53" transform="scale(0.015625 0.015625)"/><path d="M750 794 1409 794 1409 256 897-744 494-744 750 256 750 794Z" id="DejaVuSans-2c" transform="scale(0.015625 0.015625)"/><path d="M1075 4666 1709 4666 909 525 3181 525 3078 0 172 0 1075 4666Z" id="DejaVuSans-Oblique-4c" transform="scale(0.015625 0.015625)"/><path d="M2356 4666 3072 4666 3938 0 3278 0 3084 1197 984 1197 325 0-341 0 2356 4666ZM2584 4044 1275 1722 2988 1722 2584 4044Z" id="DejaVuSans-Oblique-41" transform="scale(0.015625 0.015625)"/><path d="M3816 3500 3219 434C3104.33-159.333 2885-601.667 2561-893 2237-1185 1801-1331 1253-1331 1051-1331 863.333-1316 690-1286 517.333-1256 356-1209.67 206-1147L313-588C454.333-679.333 604-746.667 762-790 920.667-834 1089.67-856 1269-856 1633.67-856 1933-756.333 2167-557 2401.67-358.333 2556.33-72.6667 2631 300L2681 563C2521 379.667 2334.67 240 2122 144 1909.33 48 1680 0 1434 0 1080 0 801.333 117 598 351 395.333 585.667 294 908.333 294 1319 294 1641.67 355.333 1957.67 478 2267 601.333 2576.33 774.333 2851 997 3091 1145 3249 1317.33 3370.67 1514 3456 1710.67 3541.33 1916.33 3584 2131 3584 2366.33 3584 2571.33 3529.33 2746 3420 2921.33 3310.67 3052 3156 3138 2956L3238 3500 3816 3500ZM2950 2216C2950 2499.33 2883.33 2718 2750 2872 2616.67 3026 2427 3103 2181 3103 2029 3103 1884.33 3072.67 1747 3012 1609.67 2952 1492 2867.67 1394 2759 1235.33 2580.33 1111.67 2369.67 1023 2127 935 1884.33 891 1633.67 891 1375 891 1087.67 958 866.667 1092 712 1226.67 558 1420 481 1672 481 2036.67 481 2340.67 646 2584 976 2828 1306.67 2950 1720 2950 2216Z" id="DejaVuSans-Oblique-67" transform="scale(0.015625 0.015625)"/><path d="M2913 2219 925 2219C835.667 1595.67 836.667 1152 928 888 1042.67 562.667 1255.33 400 1566 400 1878 400 2153 563.667 2391 891 2599 1178.33 2773 1621 2913 2219ZM3009 2750C3065.67 3342 3057.33 3742 2984 3950 2870 4279.33 2659.67 4444 2353 4444 2034.33 4444 1758.33 4281.33 1525 3956 1341.67 3694 1178 3292 1034 2750L3009 2750ZM2444 4913C2944 4913 3294 4692 3494 4250 3694 3810.67 3718 3201.33 3566 2422 3416 1644.67 3154.33 1035.33 2781 594 2410.33 150 1975-72 1475-72 973-72 623 150 425 594 227 1035.33 203 1644.67 353 2422 505 3201.33 765.333 3810.67 1134 4250 1505.33 4692 1942 4913 2444 4913Z" id="DejaVuSans-Oblique-3b8" transform="scale(0.015625 0.015625)"/><path d="M678 2906 4684 2906 4684 2381 678 2381 678 2906ZM678 1631 4684 1631 4684 1100 678 1100 678 1631Z" id="DejaVuSans-3d" transform="scale(0.015625 0.015625)"/><path d="M1600 4347C1433.33 4347 1292.67 4289 1178 4173 1063.33 4057.67 1006 3916.67 1006 3750 1006 3585.33 1063.33 3446.33 1178 3333 1292.67 3219.67 1433.33 3163 1600 3163 1766.67 3163 1907.33 3219.67 2022 3333 2136.67 3446.33 2194 3585.33 2194 3750 2194 3914.67 2136 4055.33 2020 4172 1904.67 4288.67 1764.67 4347 1600 4347ZM1600 4750C1733.33 4750 1861.33 4724.33 1984 4673 2107.33 4622.33 2213.67 4549 2303 4453 2399 4359.67 2471 4253.33 2519 4134 2567 4015.33 2591 3887.33 2591 3750 2591 3475.33 2494.67 3242.67 2302 3052 2109.33 2861.33 1873.33 2766 1594 2766 1312.67 2766 1078 2859.67 890 3047 702.667 3234.33 609 3468.67 609 3750 609 4029.33 704.667 4265.67 896 4459 1088 4653 1322.67 4750 1600 4750Z" id="DejaVuSans-b0" transform="scale(0.015625 0.015625)"/></defs><use width="100%" height="100%" xlink:href="#DejaVuSans-Oblique-56" transform="matrix(1 0 0 1 0 0.234375)"></use><use width="100%" height="100%" xlink:href="#DejaVuSans-Oblique-6f" transform="translate(68.4082 0.234375)"></use><use width="100%" height="100%" xlink:href="#DejaVuSans-Oblique-69" transform="translate(129.59 0.234375)"></use><use width="100%" height="100%" xlink:href="#DejaVuSans-Oblique-64" transform="translate(157.373 0.234375)"></use><use width="100%" height="100%" xlink:href="#DejaVuSans-Oblique-52" transform="translate(253.32 0.234375)"></use><use width="100%" height="100%" xlink:href="#DejaVuSans-Oblique-61" transform="translate(322.802 0.234375)"></use><use width="100%" height="100%" xlink:href="#DejaVuSans-Oblique-74" transform="translate(384.082 0.234375)"></use><use width="100%" height="100%" xlink:href="#DejaVuSans-Oblique-69" transform="translate(423.291 0.234375)"></use><use width="100%" height="100%" xlink:href="#DejaVuSans-Oblique-6f" transform="translate(451.074 0.234375)"></use><use width="100%" height="100%" xlink:href="#DejaVuSans-Oblique-65" transform="translate(544.726 0.234375)"></use><use width="100%" height="100%" xlink:href="#DejaVuSans-Oblique-69" transform="translate(638.72 0.234375)"></use><use width="100%" height="100%" xlink:href="#DejaVuSans-Oblique-6e" transform="translate(666.503 0.234375)"></use><use width="100%" height="100%" xlink:href="#DejaVuSans-Oblique-74" transform="translate(762.352 0.234375)"></use><use width="100%" height="100%" xlink:href="#DejaVuSans-Oblique-68" transform="translate(801.561 0.234375)"></use><use width="100%" height="100%" xlink:href="#DejaVuSans-Oblique-65" transform="translate(864.94 0.234375)"></use><use width="100%" height="100%" xlink:href="#DejaVuSans-Oblique-43" transform="translate(958.934 0.234375)"></use><use width="100%" height="100%" xlink:href="#DejaVuSans-Oblique-72" transform="translate(1028.76 0.234375)"></use><use width="100%" height="100%" xlink:href="#DejaVuSans-Oblique-69" transform="translate(1069.87 0.234375)"></use><use width="100%" height="100%" xlink:href="#DejaVuSans-Oblique-74" transform="translate(1097.65 0.234375)"></use><use width="100%" height="100%" xlink:href="#DejaVuSans-Oblique-69" transform="translate(1136.86 0.234375)"></use><use width="100%" height="100%" xlink:href="#DejaVuSans-Oblique-63" transform="translate(1164.65 0.234375)"></use><use width="100%" height="100%" xlink:href="#DejaVuSans-Oblique-61" transform="translate(1219.63 0.234375)"></use><use width="100%" height="100%" xlink:href="#DejaVuSans-Oblique-6c" transform="translate(1280.91 0.234375)"></use><use width="100%" height="100%" xlink:href="#DejaVuSans-Oblique-53" transform="translate(1341.16 0.234375)"></use><use width="100%" height="100%" xlink:href="#DejaVuSans-Oblique-74" transform="translate(1404.64 0.234375)"></use><use width="100%" height="100%" xlink:href="#DejaVuSans-Oblique-61" transform="translate(1443.85 0.234375)"></use><use width="100%" height="100%" xlink:href="#DejaVuSans-Oblique-74" transform="translate(1505.13 0.234375)"></use><use width="100%" height="100%" xlink:href="#DejaVuSans-Oblique-65" transform="translate(1544.33 0.234375)"></use><use width="100%" height="100%" xlink:href="#DejaVuSans-2c" transform="translate(1605.86 0.234375)"></use><use width="100%" height="100%" xlink:href="#DejaVuSans-Oblique-4c" transform="translate(1689.6 0.234375)"></use><use width="100%" height="100%" xlink:href="#DejaVuSans-Oblique-6f" transform="translate(1745.31 0.234375)"></use><use width="100%" height="100%" xlink:href="#DejaVuSans-Oblique-64" transform="translate(1806.49 0.234375)"></use><use width="100%" height="100%" xlink:href="#DejaVuSans-Oblique-65" transform="translate(1869.97 0.234375)"></use><use width="100%" height="100%" xlink:href="#DejaVuSans-Oblique-41" transform="translate(1963.96 0.234375)"></use><use width="100%" height="100%" xlink:href="#DejaVuSans-Oblique-6e" transform="translate(2032.37 0.234375)"></use><use width="100%" height="100%" xlink:href="#DejaVuSans-Oblique-67" transform="translate(2095.75 0.234375)"></use><use width="100%" height="100%" xlink:href="#DejaVuSans-Oblique-6c" transform="translate(2159.23 0.234375)"></use><use width="100%" height="100%" xlink:href="#DejaVuSans-Oblique-65" transform="translate(2187.01 0.234375)"></use><use width="100%" height="100%" xlink:href="#DejaVuSans-Oblique-3b8" transform="translate(2281 0.234375)"></use><use width="100%" height="100%" xlink:href="#DejaVuSans-3d" transform="translate(2394.14 0.234375)"></use><use width="100%" height="100%" xlink:href="#DejaVuSans-36" transform="translate(2497.41 0.234375)"></use><use width="100%" height="100%" xlink:href="#DejaVuSans-30" transform="translate(2561.03 0.234375)"></use><use width="100%" height="100%" xlink:href="#DejaVuSans-2e" transform="translate(2624.65 0.234375)"></use><use width="100%" height="100%" xlink:href="#DejaVuSans-30" transform="translate(2656.44 0.234375)"></use><use width="100%" height="100%" xlink:href="#DejaVuSans-b0" transform="translate(2720.07 0.234375)"></use></g></g><g id="PathCollection_7"><path d="M82 233.235 85 227.235 79 227.235 82 233.235Z" stroke="#1F77B4" stroke-opacity="0.9" fill="none"/></g><g id="text_17"><g transform="matrix(0.1 0 0 -0.1 100 232.86)"><use width="100%" height="100%" xlink:href="#DejaVuSans-Oblique-56" transform="matrix(1 0 0 1 0 0.234375)"></use><use width="100%" height="100%" xlink:href="#DejaVuSans-Oblique-6f" transform="translate(68.4082 0.234375)"></use><use width="100%" height="100%" xlink:href="#DejaVuSans-Oblique-69" transform="translate(129.59 0.234375)"></use><use width="100%" height="100%" xlink:href="#DejaVuSans-Oblique-64" transform="translate(157.373 0.234375)"></use><use width="100%" height="100%" xlink:href="#DejaVuSans-Oblique-52" transform="translate(253.32 0.234375)"></use><use width="100%" height="100%" xlink:href="#DejaVuSans-Oblique-61" transform="translate(322.802 0.234375)"></use><use width="100%" height="100%" xlink:href="#DejaVuSans-Oblique-74" transform="translate(384.082 0.234375)"></use><use width="100%" height="100%" xlink:href="#DejaVuSans-Oblique-69" transform="translate(423.291 0.234375)"></use><use width="100%" height="100%" xlink:href="#DejaVuSans-Oblique-6f" transform="translate(451.074 0.234375)"></use><use width="100%" height="100%" xlink:href="#DejaVuSans-Oblique-65" transform="translate(544.726 0.234375)"></use><use width="100%" height="100%" xlink:href="#DejaVuSans-Oblique-69" transform="translate(638.72 0.234375)"></use><use width="100%" height="100%" xlink:href="#DejaVuSans-Oblique-6e" transform="translate(666.503 0.234375)"></use><use width="100%" height="100%" xlink:href="#DejaVuSans-Oblique-74" transform="translate(762.352 0.234375)"></use><use width="100%" height="100%" xlink:href="#DejaVuSans-Oblique-68" transform="translate(801.561 0.234375)"></use><use width="100%" height="100%" xlink:href="#DejaVuSans-Oblique-65" transform="translate(864.94 0.234375)"></use><use width="100%" height="100%" xlink:href="#DejaVuSans-Oblique-43" transform="translate(958.934 0.234375)"></use><use width="100%" height="100%" xlink:href="#DejaVuSans-Oblique-72" transform="translate(1028.76 0.234375)"></use><use width="100%" height="100%" xlink:href="#DejaVuSans-Oblique-69" transform="translate(1069.87 0.234375)"></use><use width="100%" height="100%" xlink:href="#DejaVuSans-Oblique-74" transform="translate(1097.65 0.234375)"></use><use width="100%" height="100%" xlink:href="#DejaVuSans-Oblique-69" transform="translate(1136.86 0.234375)"></use><use width="100%" height="100%" xlink:href="#DejaVuSans-Oblique-63" transform="translate(1164.65 0.234375)"></use><use width="100%" height="100%" xlink:href="#DejaVuSans-Oblique-61" transform="translate(1219.63 0.234375)"></use><use width="100%" height="100%" xlink:href="#DejaVuSans-Oblique-6c" transform="translate(1280.91 0.234375)"></use><use width="100%" height="100%" xlink:href="#DejaVuSans-Oblique-53" transform="translate(1341.16 0.234375)"></use><use width="100%" height="100%" xlink:href="#DejaVuSans-Oblique-74" transform="translate(1404.64 0.234375)"></use><use width="100%" height="100%" xlink:href="#DejaVuSans-Oblique-61" transform="translate(1443.85 0.234375)"></use><use width="100%" height="100%" xlink:href="#DejaVuSans-Oblique-74" transform="translate(1505.13 0.234375)"></use><use width="100%" height="100%" xlink:href="#DejaVuSans-Oblique-65" transform="translate(1544.33 0.234375)"></use><use width="100%" height="100%" xlink:href="#DejaVuSans-2c" transform="translate(1605.86 0.234375)"></use><use width="100%" height="100%" xlink:href="#DejaVuSans-Oblique-4c" transform="translate(1689.6 0.234375)"></use><use width="100%" height="100%" xlink:href="#DejaVuSans-Oblique-6f" transform="translate(1745.31 0.234375)"></use><use width="100%" height="100%" xlink:href="#DejaVuSans-Oblique-64" transform="translate(1806.49 0.234375)"></use><use width="100%" height="100%" xlink:href="#DejaVuSans-Oblique-65" transform="translate(1869.97 0.234375)"></use><use width="100%" height="100%" xlink:href="#DejaVuSans-Oblique-41" transform="translate(1963.96 0.234375)"></use><use width="100%" height="100%" xlink:href="#DejaVuSans-Oblique-6e" transform="translate(2032.37 0.234375)"></use><use width="100%" height="100%" xlink:href="#DejaVuSans-Oblique-67" transform="translate(2095.75 0.234375)"></use><use width="100%" height="100%" xlink:href="#DejaVuSans-Oblique-6c" transform="translate(2159.23 0.234375)"></use><use width="100%" height="100%" xlink:href="#DejaVuSans-Oblique-65" transform="translate(2187.01 0.234375)"></use><use width="100%" height="100%" xlink:href="#DejaVuSans-Oblique-3b8" transform="translate(2281 0.234375)"></use><use width="100%" height="100%" xlink:href="#DejaVuSans-3d" transform="translate(2394.14 0.234375)"></use><use width="100%" height="100%" xlink:href="#DejaVuSans-37" transform="translate(2497.41 0.234375)"></use><use width="100%" height="100%" xlink:href="#DejaVuSans-35" transform="translate(2561.03 0.234375)"></use><use width="100%" height="100%" xlink:href="#DejaVuSans-2e" transform="translate(2624.65 0.234375)"></use><use width="100%" height="100%" xlink:href="#DejaVuSans-30" transform="translate(2656.44 0.234375)"></use><use width="100%" height="100%" xlink:href="#DejaVuSans-b0" transform="translate(2720.07 0.234375)"></use></g></g><g id="PathCollection_8"><path d="M79 248.035 85 248.035 85 242.035 79 242.035 79 248.035Z" stroke="#FF7F0E" stroke-opacity="0.9" fill="none"/></g><g id="text_18"><g transform="matrix(0.1 0 0 -0.1 100 247.66)"><defs><path d="M703 97 703 672C861.667 596.667 1022 539.333 1184 500 1346.67 460.667 1506.33 441 1663 441 2079.67 441 2397.67 581 2617 861 2837 1141 2962.67 1566.67 2994 2138 2873.33 1958.67 2720 1821 2534 1725 2348.67 1629 2143.67 1581 1919 1581 1452.33 1581 1083 1722 811 2004 539 2286.67 403 2673 403 3163 403 3641.67 544.667 4025.67 828 4315 1111.33 4605 1488.33 4750 1959 4750 2499 4750 2911 4543 3195 4129 3479.67 3715.67 3622 3115.33 3622 2328 3622 1592.67 3447.33 1005.67 3098 567 2749.33 128.333 2280.33-91 1691-91 1532.33-91 1371.67-75.3333 1209-44 1047-12.6667 878.333 34.3333 703 97ZM1959 2075C2242.33 2075 2466.67 2171.67 2632 2365 2798 2559 2881 2825 2881 3163 2881 3498.33 2798 3763.33 2632 3958 2466.67 4152.67 2242.33 4250 1959 4250 1675.67 4250 1451.33 4152.67 1286 3958 1120.67 3763.33 1038 3498.33 1038 3163 1038 2825 1120.67 2559 1286 2365 1451.33 2171.67 1675.67 2075 1959 2075Z" id="DejaVuSans-39" transform="scale(0.015625 0.015625)"/></defs><use width="100%" height="100%" xlink:href="#DejaVuSans-Oblique-56" transform="matrix(1 0 0 1 0 0.234375)"></use><use width="100%" height="100%" xlink:href="#DejaVuSans-Oblique-6f" transform="translate(68.4082 0.234375)"></use><use width="100%" height="100%" xlink:href="#DejaVuSans-Oblique-69" transform="translate(129.59 0.234375)"></use><use width="100%" height="100%" xlink:href="#DejaVuSans-Oblique-64" transform="translate(157.373 0.234375)"></use><use width="100%" height="100%" xlink:href="#DejaVuSans-Oblique-52" transform="translate(253.32 0.234375)"></use><use width="100%" height="100%" xlink:href="#DejaVuSans-Oblique-61" transform="translate(322.802 0.234375)"></use><use width="100%" height="100%" xlink:href="#DejaVuSans-Oblique-74" transform="translate(384.082 0.234375)"></use><use width="100%" height="100%" xlink:href="#DejaVuSans-Oblique-69" transform="translate(423.291 0.234375)"></use><use width="100%" height="100%" xlink:href="#DejaVuSans-Oblique-6f" transform="translate(451.074 0.234375)"></use><use width="100%" height="100%" xlink:href="#DejaVuSans-Oblique-65" transform="translate(544.726 0.234375)"></use><use width="100%" height="100%" xlink:href="#DejaVuSans-Oblique-69" transform="translate(638.72 0.234375)"></use><use width="100%" height="100%" xlink:href="#DejaVuSans-Oblique-6e" transform="translate(666.503 0.234375)"></use><use width="100%" height="100%" xlink:href="#DejaVuSans-Oblique-74" transform="translate(762.352 0.234375)"></use><use width="100%" height="100%" xlink:href="#DejaVuSans-Oblique-68" transform="translate(801.561 0.234375)"></use><use width="100%" height="100%" xlink:href="#DejaVuSans-Oblique-65" transform="translate(864.94 0.234375)"></use><use width="100%" height="100%" xlink:href="#DejaVuSans-Oblique-43" transform="translate(958.934 0.234375)"></use><use width="100%" height="100%" xlink:href="#DejaVuSans-Oblique-72" transform="translate(1028.76 0.234375)"></use><use width="100%" height="100%" xlink:href="#DejaVuSans-Oblique-69" transform="translate(1069.87 0.234375)"></use><use width="100%" height="100%" xlink:href="#DejaVuSans-Oblique-74" transform="translate(1097.65 0.234375)"></use><use width="100%" height="100%" xlink:href="#DejaVuSans-Oblique-69" transform="translate(1136.86 0.234375)"></use><use width="100%" height="100%" xlink:href="#DejaVuSans-Oblique-63" transform="translate(1164.65 0.234375)"></use><use width="100%" height="100%" xlink:href="#DejaVuSans-Oblique-61" transform="translate(1219.63 0.234375)"></use><use width="100%" height="100%" xlink:href="#DejaVuSans-Oblique-6c" transform="translate(1280.91 0.234375)"></use><use width="100%" height="100%" xlink:href="#DejaVuSans-Oblique-53" transform="translate(1341.16 0.234375)"></use><use width="100%" height="100%" xlink:href="#DejaVuSans-Oblique-74" transform="translate(1404.64 0.234375)"></use><use width="100%" height="100%" xlink:href="#DejaVuSans-Oblique-61" transform="translate(1443.85 0.234375)"></use><use width="100%" height="100%" xlink:href="#DejaVuSans-Oblique-74" transform="translate(1505.13 0.234375)"></use><use width="100%" height="100%" xlink:href="#DejaVuSans-Oblique-65" transform="translate(1544.33 0.234375)"></use><use width="100%" height="100%" xlink:href="#DejaVuSans-2c" transform="translate(1605.86 0.234375)"></use><use width="100%" height="100%" xlink:href="#DejaVuSans-Oblique-4c" transform="translate(1689.6 0.234375)"></use><use width="100%" height="100%" xlink:href="#DejaVuSans-Oblique-6f" transform="translate(1745.31 0.234375)"></use><use width="100%" height="100%" xlink:href="#DejaVuSans-Oblique-64" transform="translate(1806.49 0.234375)"></use><use width="100%" height="100%" xlink:href="#DejaVuSans-Oblique-65" transform="translate(1869.97 0.234375)"></use><use width="100%" height="100%" xlink:href="#DejaVuSans-Oblique-41" transform="translate(1963.96 0.234375)"></use><use width="100%" height="100%" xlink:href="#DejaVuSans-Oblique-6e" transform="translate(2032.37 0.234375)"></use><use width="100%" height="100%" xlink:href="#DejaVuSans-Oblique-67" transform="translate(2095.75 0.234375)"></use><use width="100%" height="100%" xlink:href="#DejaVuSans-Oblique-6c" transform="translate(2159.23 0.234375)"></use><use width="100%" height="100%" xlink:href="#DejaVuSans-Oblique-65" transform="translate(2187.01 0.234375)"></use><use width="100%" height="100%" xlink:href="#DejaVuSans-Oblique-3b8" transform="translate(2281 0.234375)"></use><use width="100%" height="100%" xlink:href="#DejaVuSans-3d" transform="translate(2394.14 0.234375)"></use><use width="100%" height="100%" xlink:href="#DejaVuSans-39" transform="translate(2497.41 0.234375)"></use><use width="100%" height="100%" xlink:href="#DejaVuSans-30" transform="translate(2561.03 0.234375)"></use><use width="100%" height="100%" xlink:href="#DejaVuSans-2e" transform="translate(2624.65 0.234375)"></use><use width="100%" height="100%" xlink:href="#DejaVuSans-30" transform="translate(2656.44 0.234375)"></use><use width="100%" height="100%" xlink:href="#DejaVuSans-b0" transform="translate(2720.07 0.234375)"></use></g></g><g id="PathCollection_9"><path d="M82 256.835 79 262.835 85 262.835 82 256.835Z" stroke="#2CA02C" stroke-opacity="0.9" fill="none"/></g><g id="text_19"><g transform="matrix(0.1 0 0 -0.1 100 262.46)"><use width="100%" height="100%" xlink:href="#DejaVuSans-Oblique-56" transform="matrix(1 0 0 1 0 0.234375)"></use><use width="100%" height="100%" xlink:href="#DejaVuSans-Oblique-6f" transform="translate(68.4082 0.234375)"></use><use width="100%" height="100%" xlink:href="#DejaVuSans-Oblique-69" transform="translate(129.59 0.234375)"></use><use width="100%" height="100%" xlink:href="#DejaVuSans-Oblique-64" transform="translate(157.373 0.234375)"></use><use width="100%" height="100%" xlink:href="#DejaVuSans-Oblique-52" transform="translate(253.32 0.234375)"></use><use width="100%" height="100%" xlink:href="#DejaVuSans-Oblique-61" transform="translate(322.802 0.234375)"></use><use width="100%" height="100%" xlink:href="#DejaVuSans-Oblique-74" transform="translate(384.082 0.234375)"></use><use width="100%" height="100%" xlink:href="#DejaVuSans-Oblique-69" transform="translate(423.291 0.234375)"></use><use width="100%" height="100%" xlink:href="#DejaVuSans-Oblique-6f" transform="translate(451.074 0.234375)"></use><use width="100%" height="100%" xlink:href="#DejaVuSans-Oblique-65" transform="translate(544.726 0.234375)"></use><use width="100%" height="100%" xlink:href="#DejaVuSans-Oblique-69" transform="translate(638.72 0.234375)"></use><use width="100%" height="100%" xlink:href="#DejaVuSans-Oblique-6e" transform="translate(666.503 0.234375)"></use><use width="100%" height="100%" xlink:href="#DejaVuSans-Oblique-74" transform="translate(762.352 0.234375)"></use><use width="100%" height="100%" xlink:href="#DejaVuSans-Oblique-68" transform="translate(801.561 0.234375)"></use><use width="100%" height="100%" xlink:href="#DejaVuSans-Oblique-65" transform="translate(864.94 0.234375)"></use><use width="100%" height="100%" xlink:href="#DejaVuSans-Oblique-43" transform="translate(958.934 0.234375)"></use><use width="100%" height="100%" xlink:href="#DejaVuSans-Oblique-72" transform="translate(1028.76 0.234375)"></use><use width="100%" height="100%" xlink:href="#DejaVuSans-Oblique-69" transform="translate(1069.87 0.234375)"></use><use width="100%" height="100%" xlink:href="#DejaVuSans-Oblique-74" transform="translate(1097.65 0.234375)"></use><use width="100%" height="100%" xlink:href="#DejaVuSans-Oblique-69" transform="translate(1136.86 0.234375)"></use><use width="100%" height="100%" xlink:href="#DejaVuSans-Oblique-63" transform="translate(1164.65 0.234375)"></use><use width="100%" height="100%" xlink:href="#DejaVuSans-Oblique-61" transform="translate(1219.63 0.234375)"></use><use width="100%" height="100%" xlink:href="#DejaVuSans-Oblique-6c" transform="translate(1280.91 0.234375)"></use><use width="100%" height="100%" xlink:href="#DejaVuSans-Oblique-53" transform="translate(1341.16 0.234375)"></use><use width="100%" height="100%" xlink:href="#DejaVuSans-Oblique-74" transform="translate(1404.64 0.234375)"></use><use width="100%" height="100%" xlink:href="#DejaVuSans-Oblique-61" transform="translate(1443.85 0.234375)"></use><use width="100%" height="100%" xlink:href="#DejaVuSans-Oblique-74" transform="translate(1505.13 0.234375)"></use><use width="100%" height="100%" xlink:href="#DejaVuSans-Oblique-65" transform="translate(1544.33 0.234375)"></use><use width="100%" height="100%" xlink:href="#DejaVuSans-2c" transform="translate(1605.86 0.234375)"></use><use width="100%" height="100%" xlink:href="#DejaVuSans-Oblique-4c" transform="translate(1689.6 0.234375)"></use><use width="100%" height="100%" xlink:href="#DejaVuSans-Oblique-6f" transform="translate(1745.31 0.234375)"></use><use width="100%" height="100%" xlink:href="#DejaVuSans-Oblique-64" transform="translate(1806.49 0.234375)"></use><use width="100%" height="100%" xlink:href="#DejaVuSans-Oblique-65" transform="translate(1869.97 0.234375)"></use><use width="100%" height="100%" xlink:href="#DejaVuSans-Oblique-41" transform="translate(1963.96 0.234375)"></use><use width="100%" height="100%" xlink:href="#DejaVuSans-Oblique-6e" transform="translate(2032.37 0.234375)"></use><use width="100%" height="100%" xlink:href="#DejaVuSans-Oblique-67" transform="translate(2095.75 0.234375)"></use><use width="100%" height="100%" xlink:href="#DejaVuSans-Oblique-6c" transform="translate(2159.23 0.234375)"></use><use width="100%" height="100%" xlink:href="#DejaVuSans-Oblique-65" transform="translate(2187.01 0.234375)"></use><use width="100%" height="100%" xlink:href="#DejaVuSans-Oblique-3b8" transform="translate(2281 0.234375)"></use><use width="100%" height="100%" xlink:href="#DejaVuSans-3d" transform="translate(2394.14 0.234375)"></use><use width="100%" height="100%" xlink:href="#DejaVuSans-31" transform="translate(2497.41 0.234375)"></use><use width="100%" height="100%" xlink:href="#DejaVuSans-30" transform="translate(2561.03 0.234375)"></use><use width="100%" height="100%" xlink:href="#DejaVuSans-35" transform="translate(2624.65 0.234375)"></use><use width="100%" height="100%" xlink:href="#DejaVuSans-2e" transform="translate(2688.28 0.234375)"></use><use width="100%" height="100%" xlink:href="#DejaVuSans-30" transform="translate(2720.07 0.234375)"></use><use width="100%" height="100%" xlink:href="#DejaVuSans-b0" transform="translate(2783.69 0.234375)"></use></g></g><g id="PathCollection_10"><path d="M82 278.878 86.2426 274.635 82 270.392 77.7574 274.635 82 278.878Z" stroke="#9467BD" stroke-opacity="0.9" fill="none"/></g><g id="text_20"><g transform="matrix(0.1 0 0 -0.1 100 277.26)"><use width="100%" height="100%" xlink:href="#DejaVuSans-Oblique-56" transform="matrix(1 0 0 1 0 0.234375)"></use><use width="100%" height="100%" xlink:href="#DejaVuSans-Oblique-6f" transform="translate(68.4082 0.234375)"></use><use width="100%" height="100%" xlink:href="#DejaVuSans-Oblique-69" transform="translate(129.59 0.234375)"></use><use width="100%" height="100%" xlink:href="#DejaVuSans-Oblique-64" transform="translate(157.373 0.234375)"></use><use width="100%" height="100%" xlink:href="#DejaVuSans-Oblique-52" transform="translate(253.32 0.234375)"></use><use width="100%" height="100%" xlink:href="#DejaVuSans-Oblique-61" transform="translate(322.802 0.234375)"></use><use width="100%" height="100%" xlink:href="#DejaVuSans-Oblique-74" transform="translate(384.082 0.234375)"></use><use width="100%" height="100%" xlink:href="#DejaVuSans-Oblique-69" transform="translate(423.291 0.234375)"></use><use width="100%" height="100%" xlink:href="#DejaVuSans-Oblique-6f" transform="translate(451.074 0.234375)"></use><use width="100%" height="100%" xlink:href="#DejaVuSans-Oblique-65" transform="translate(544.726 0.234375)"></use><use width="100%" height="100%" xlink:href="#DejaVuSans-Oblique-69" transform="translate(638.72 0.234375)"></use><use width="100%" height="100%" xlink:href="#DejaVuSans-Oblique-6e" transform="translate(666.503 0.234375)"></use><use width="100%" height="100%" xlink:href="#DejaVuSans-Oblique-74" transform="translate(762.352 0.234375)"></use><use width="100%" height="100%" xlink:href="#DejaVuSans-Oblique-68" transform="translate(801.561 0.234375)"></use><use width="100%" height="100%" xlink:href="#DejaVuSans-Oblique-65" transform="translate(864.94 0.234375)"></use><use width="100%" height="100%" xlink:href="#DejaVuSans-Oblique-43" transform="translate(958.934 0.234375)"></use><use width="100%" height="100%" xlink:href="#DejaVuSans-Oblique-72" transform="translate(1028.76 0.234375)"></use><use width="100%" height="100%" xlink:href="#DejaVuSans-Oblique-69" transform="translate(1069.87 0.234375)"></use><use width="100%" height="100%" xlink:href="#DejaVuSans-Oblique-74" transform="translate(1097.65 0.234375)"></use><use width="100%" height="100%" xlink:href="#DejaVuSans-Oblique-69" transform="translate(1136.86 0.234375)"></use><use width="100%" height="100%" xlink:href="#DejaVuSans-Oblique-63" transform="translate(1164.65 0.234375)"></use><use width="100%" height="100%" xlink:href="#DejaVuSans-Oblique-61" transform="translate(1219.63 0.234375)"></use><use width="100%" height="100%" xlink:href="#DejaVuSans-Oblique-6c" transform="translate(1280.91 0.234375)"></use><use width="100%" height="100%" xlink:href="#DejaVuSans-Oblique-53" transform="translate(1341.16 0.234375)"></use><use width="100%" height="100%" xlink:href="#DejaVuSans-Oblique-74" transform="translate(1404.64 0.234375)"></use><use width="100%" height="100%" xlink:href="#DejaVuSans-Oblique-61" transform="translate(1443.85 0.234375)"></use><use width="100%" height="100%" xlink:href="#DejaVuSans-Oblique-74" transform="translate(1505.13 0.234375)"></use><use width="100%" height="100%" xlink:href="#DejaVuSans-Oblique-65" transform="translate(1544.33 0.234375)"></use><use width="100%" height="100%" xlink:href="#DejaVuSans-2c" transform="translate(1605.86 0.234375)"></use><use width="100%" height="100%" xlink:href="#DejaVuSans-Oblique-4c" transform="translate(1689.6 0.234375)"></use><use width="100%" height="100%" xlink:href="#DejaVuSans-Oblique-6f" transform="translate(1745.31 0.234375)"></use><use width="100%" height="100%" xlink:href="#DejaVuSans-Oblique-64" transform="translate(1806.49 0.234375)"></use><use width="100%" height="100%" xlink:href="#DejaVuSans-Oblique-65" transform="translate(1869.97 0.234375)"></use><use width="100%" height="100%" xlink:href="#DejaVuSans-Oblique-41" transform="translate(1963.96 0.234375)"></use><use width="100%" height="100%" xlink:href="#DejaVuSans-Oblique-6e" transform="translate(2032.37 0.234375)"></use><use width="100%" height="100%" xlink:href="#DejaVuSans-Oblique-67" transform="translate(2095.75 0.234375)"></use><use width="100%" height="100%" xlink:href="#DejaVuSans-Oblique-6c" transform="translate(2159.23 0.234375)"></use><use width="100%" height="100%" xlink:href="#DejaVuSans-Oblique-65" transform="translate(2187.01 0.234375)"></use><use width="100%" height="100%" xlink:href="#DejaVuSans-Oblique-3b8" transform="translate(2281 0.234375)"></use><use width="100%" height="100%" xlink:href="#DejaVuSans-3d" transform="translate(2394.14 0.234375)"></use><use width="100%" height="100%" xlink:href="#DejaVuSans-31" transform="translate(2497.41 0.234375)"></use><use width="100%" height="100%" xlink:href="#DejaVuSans-32" transform="translate(2561.03 0.234375)"></use><use width="100%" height="100%" xlink:href="#DejaVuSans-30" transform="translate(2624.65 0.234375)"></use><use width="100%" height="100%" xlink:href="#DejaVuSans-2e" transform="translate(2688.28 0.234375)"></use><use width="100%" height="100%" xlink:href="#DejaVuSans-30" transform="translate(2720.07 0.234375)"></use><use width="100%" height="100%" xlink:href="#DejaVuSans-b0" transform="translate(2783.69 0.234375)"></use></g></g></g></g></g></svg>