<svg width="672" height="432" viewBox="0 0 504 324" xmlns="http://www.w3.org/2000/svg" xmlns:xlink="http://www.w3.org/1999/xlink" stroke-linejoin="round" overflow="hidden"><defs></defs><defs><clipPath id="p509aa29609"><rect x="63" y="38.88" width="390.6" height="249.48"/></clipPath></defs><g id="figure_1"><g id="patch_1"><path d="M0 324 504 324 504 0 0 0Z" fill="#FFFFFF"/></g><g id="axes_1"><g id="patch_2"><path d="M63 288.36 453.6 288.36 453.6 38.88 63 38.88Z" fill="#FFFFFF"/></g><g id="PathCollection_1"><defs><path d="M0 3C0.795609 3 1.55874 2.6839 2.12132 2.12132 2.6839 1.55874 3 0.795609 3 -0 3-0.795609 2.6839-1.55874 2.12132-2.12132 1.55874-2.6839 0.795609-3 0-3-0.795609-3-1.55874-2.6839-2.12132-2.12132-2.6839-1.55874-3-0.795609-3 0-3 0.795609-2.6839 1.55874-2.12132 2.12132-1.55874 2.6839-0.795609 3 0 3Z" id="C0_0_d2442de217"/></defs><g clip-path="url(#p509aa29609)"><use x="80.7545" y="89.1617" width="100%" height="100%" xlink:href="#C0_0_d2442de217" stroke="#D62728" stroke-opacity="0.7" fill="none"></use></g><g clip-path="url(#p509aa29609)"><use x="89.9868" y="88.7934" width="100%" height="100%" xlink:href="#C0_0_d2442de217" stroke="#D62728" stroke-opacity="0.7" fill="none"></use></g><g clip-path="url(#p509aa29609)"><use x="97.4272" y="110.94" width="100%" height="100%" xlink:href="#C0_0_d2442de217" stroke="#D62728" stroke-opacity="0.7" fill="none"></use></g><g clip-path="url(#p509aa29609)"><use x="107.745" y="119.159" width="100%" height="100%" xlink:href="#C0_0_d2442de217" stroke="#D62728" stroke-opacity="0.7" fill="none"></use></g><g clip-path="url(#p509aa29609)"><use x="122.05" y="110.701" width="100%" height="100%" xlink:href="#C0_0_d2442de217" stroke="#D62728" stroke-opacity="0.7" fill="none"></use></g><g clip-path="url(#p509aa29609)"><use x="141.878" y="127.374" width="100%" height="100%" xlink:href="#C0_0_d2442de217" stroke="#D62728" stroke-opacity="0.7" fill="none"></use></g><g clip-path="url(#p509aa29609)"><use x="169.396" y="146.838" width="100%" height="100%" xlink:href="#C0_0_d2442de217" stroke="#D62728" stroke-opacity="0.7" fill="none"></use></g><g clip-path="url(#p509aa29609)"><use x="207.581" y="143.556" width="100%" height="100%" xlink:href="#C0_0_d2442de217" stroke="#D62728" stroke-opacity="0.7" fill="none"></use></g><g clip-path="url(#p509aa29609)"><use x="260.559" y="167.357" width="100%" height="100%" xlink:href="#C0_0_d2442de217" stroke="#D62728" stroke-opacity="0.7" fill="none"></use></g><g clip-path="url(#p509aa29609)"><use x="333.996" y="192.213" width="100%" height="100%" xlink:href="#C0_0_d2442de217" stroke="#D62728" stroke-opacity="0.7" fill="none"></use></g><g clip-path="url(#p509aa29609)"><use x="435.845" y="219.586" width="100%" height="100%" xlink:href="#C0_0_d2442de217" stroke="#D62728" stroke-opacity="0.7" fill="none"></use></g></g><g id="PathCollection_2"><path d="M80.7545 54.0619 83.7545 48.0619 77.7545 48.0619 80.7545 54.0619Z" stroke="#1F77B4" stroke-opacity="0.7" fill="none" clip-path="url(#p509aa29609)"/><path d="M97.4272 62.8484 100.427 56.8484 94.4272 56.8484 97.4272 62.8484Z" stroke="#1F77B4" stroke-opacity="0.7" fill="none" clip-path="url(#p509aa29609)"/><path d="M107.745 115.044 110.745 109.044 104.745 109.044 107.745 115.044Z" stroke="#1F77B4" stroke-opacity="0.7" fill="none" clip-path="url(#p509aa29609)"/><path d="M122.05 123.819 125.05 117.819 119.05 117.819 122.05 123.819Z" stroke="#1F77B4" stroke-opacity="0.7" fill="none" clip-path="url(#p509aa29609)"/><path d="M141.878 142.157 144.878 136.157 138.878 136.157 141.878 142.157Z" stroke="#1F77B4" stroke-opacity="0.7" fill="none" clip-path="url(#p509aa29609)"/><path d="M169.396 157.676 172.396 151.676 166.396 151.676 169.396 157.676Z" stroke="#1F77B4" stroke-opacity="0.7" fill="none" clip-path="url(#p509aa29609)"/><path d="M207.581 146.958 210.581 140.958 204.581 140.958 207.581 146.958Z" stroke="#1F77B4" stroke-opacity="0.7" fill="none" clip-path="url(#p509aa29609)"/><path d="M333.996 185.267 336.996 179.267 330.996 179.267 333.996 185.267Z" stroke="#1F77B4" stroke-opacity="0.7" fill="none" clip-path="url(#p509aa29609)"/><path d="M435.845 209.239 438.845 203.239 432.845 203.239 435.845 209.239Z" stroke="#1F77B4" stroke-opacity="0.7" fill="none" clip-path="url(#p509aa29609)"/></g><g id="PathCollection_3"><defs><path d="M-3 3 3 3 3-3-3-3Z" id="C1_0_aa08395e89"/></defs><g clip-path="url(#p509aa29609)"><use x="80.7545" y="68.7594" width="100%" height="100%" xlink:href="#C1_0_aa08395e89" stroke="#FF7F0E" stroke-opacity="0.7" fill="none"></use></g><g clip-path="url(#p509aa29609)"><use x="89.9868" y="100.206" width="100%" height="100%" xlink:href="#C1_0_aa08395e89" stroke="#FF7F0E" stroke-opacity="0.7" fill="none"></use></g><g clip-path="url(#p509aa29609)"><use x="97.4272" y="84.8304" width="100%" height="100%" xlink:href="#C1_0_aa08395e89" stroke="#FF7F0E" stroke-opacity="0.7" fill="none"></use></g><g clip-path="url(#p509aa29609)"><use x="107.745" y="96.0239" width="100%" height="100%" xlink:href="#C1_0_aa08395e89" stroke="#FF7F0E" stroke-opacity="0.7" fill="none"></use></g><g clip-path="url(#p509aa29609)"><use x="122.05" y="97.2324" width="100%" height="100%" xlink:href="#C1_0_aa08395e89" stroke="#FF7F0E" stroke-opacity="0.7" fill="none"></use></g><g clip-path="url(#p509aa29609)"><use x="141.878" y="129.736" width="100%" height="100%" xlink:href="#C1_0_aa08395e89" stroke="#FF7F0E" stroke-opacity="0.7" fill="none"></use></g><g clip-path="url(#p509aa29609)"><use x="169.396" y="142.166" width="100%" height="100%" xlink:href="#C1_0_aa08395e89" stroke="#FF7F0E" stroke-opacity="0.7" fill="none"></use></g><g clip-path="url(#p509aa29609)"><use x="207.581" y="156.307" width="100%" height="100%" xlink:href="#C1_0_aa08395e89" stroke="#FF7F0E" stroke-opacity="0.7" fill="none"></use></g><g clip-path="url(#p509aa29609)"><use x="260.559" y="201.48" width="100%" height="100%" xlink:href="#C1_0_aa08395e89" stroke="#FF7F0E" stroke-opacity="0.7" fill="none"></use></g><g clip-path="url(#p509aa29609)"><use x="333.996" y="225.848" width="100%" height="100%" xlink:href="#C1_0_aa08395e89" stroke="#FF7F0E" stroke-opacity="0.7" fill="none"></use></g><g clip-path="url(#p509aa29609)"><use x="435.845" y="245.059" width="100%" height="100%" xlink:href="#C1_0_aa08395e89" stroke="#FF7F0E" stroke-opacity="0.7" fill="none"></use></g></g><g id="PathCollection_4"><path d="M80.7545 46.4562 77.7545 52.4562 83.7545 52.4562 80.7545 46.4562Z" stroke="#2CA02C" stroke-opacity="0.7" fill="none" clip-path="url(#p509aa29609)"/><path d="M97.4272 89.4852 94.4272 95.4852 100.427 95.4852 97.4272 89.4852Z" stroke="#2CA02C" stroke-opacity="0.7" fill="none" clip-path="url(#p509aa29609)"/><path d="M107.745 116.809 104.745 122.809 110.745 122.809 107.745 116.809Z" stroke="#2CA02C" stroke-opacity="0.7" fill="none" clip-path="url(#p509aa29609)"/><path d="M122.05 136.402 119.05 142.402 125.05 142.402 122.05 136.402Z" stroke="#2CA02C" stroke-opacity="0.7" fill="none" clip-path="url(#p509aa29609)"/><path d="M141.878 122.403 138.878 128.403 144.878 128.403 141.878 122.403Z" stroke="#2CA02C" stroke-opacity="0.7" fill="none" clip-path="url(#p509aa29609)"/><path d="M169.396 141.747 166.396 147.747 172.396 147.747 169.396 141.747Z" stroke="#2CA02C" stroke-opacity="0.7" fill="none" clip-path="url(#p509aa29609)"/><path d="M207.581 152.974 204.581 158.974 210.581 158.974 207.581 152.974Z" stroke="#2CA02C" stroke-opacity="0.7" fill="none" clip-path="url(#p509aa29609)"/><path d="M333.996 227.32 330.996 233.32 336.996 233.32 333.996 227.32Z" stroke="#2CA02C" stroke-opacity="0.7" fill="none" clip-path="url(#p509aa29609)"/><path d="M435.845 249.66 432.845 255.66 438.845 255.66 435.845 249.66Z" stroke="#2CA02C" stroke-opacity="0.7" fill="none" clip-path="url(#p509aa29609)"/></g><g id="PathCollection_5"><defs><path d="M0 4.24264 4.24264 -0 0-4.24264-4.24264 0Z" id="C2_0_c4e7745810"/></defs><g clip-path="url(#p509aa29609)"><use x="80.7545" y="74.6725" width="100%" height="100%" xlink:href="#C2_0_c4e7745810" stroke="#9467BD" stroke-opacity="0.7" fill="none"></use></g><g clip-path="url(#p509aa29609)"><use x="89.9868" y="99.6118" width="100%" height="100%" xlink:href="#C2_0_c4e7745810" stroke="#9467BD" stroke-opacity="0.7" fill="none"></use></g><g clip-path="url(#p509aa29609)"><use x="97.4272" y="98.7697" width="100%" height="100%" xlink:href="#C2_0_c4e7745810" stroke="#9467BD" stroke-opacity="0.7" fill="none"></use></g><g clip-path="url(#p509aa29609)"><use x="107.745" y="115.572" width="100%" height="100%" xlink:href="#C2_0_c4e7745810" stroke="#9467BD" stroke-opacity="0.7" fill="none"></use></g><g clip-path="url(#p509aa29609)"><use x="122.05" y="123.67" width="100%" height="100%" xlink:href="#C2_0_c4e7745810" stroke="#9467BD" stroke-opacity="0.7" fill="none"></use></g><g clip-path="url(#p509aa29609)"><use x="141.878" y="135.085" width="100%" height="100%" xlink:href="#C2_0_c4e7745810" stroke="#9467BD" stroke-opacity="0.7" fill="none"></use></g><g clip-path="url(#p509aa29609)"><use x="169.396" y="162.9" width="100%" height="100%" xlink:href="#C2_0_c4e7745810" stroke="#9467BD" stroke-opacity="0.7" fill="none"></use></g><g clip-path="url(#p509aa29609)"><use x="207.581" y="188.559" width="100%" height="100%" xlink:href="#C2_0_c4e7745810" stroke="#9467BD" stroke-opacity="0.7" fill="none"></use></g><g clip-path="url(#p509aa29609)"><use x="260.559" y="196.031" width="100%" height="100%" xlink:href="#C2_0_c4e7745810" stroke="#9467BD" stroke-opacity="0.7" fill="none"></use></g><g clip-path="url(#p509aa29609)"><use x="333.996" y="217.662" width="100%" height="100%" xlink:href="#C2_0_c4e7745810" stroke="#9467BD" stroke-opacity="0.7" fill="none"></use></g><g clip-path="url(#p509aa29609)"><use x="435.845" y="248.954" width="100%" height="100%" xlink:href="#C2_0_c4e7745810" stroke="#9467BD" stroke-opacity="0.7" fill="none"></use></g></g><g id="matplotlib.axis_1"><g id="xtick_1"><g id="line2d_1"><path d="M70.7584 288.36 70.7584 38.88" stroke="#808080" stroke-width="0.5" stroke-linecap="square" fill="none" clip-path="url(#p509aa29609)"/></g><g id="line2d_2"><defs><path d="M0 0 0 3.5" id="mc650ab9138" stroke="#000000" stroke-width="0.8"/></defs><g><use x="70.7584" y="288.36" width="100%" height="100%" xlink:href="#mc650ab9138" stroke="#000000" stroke-width="0.8"></use></g></g><g id="text_1"><g transform="matrix(0.11 0 0 -0.11 67.2591 303.718)"><defs><path d="M2034 4250C1709.33 4250 1465 4090 1301 3770 1137.67 3450.67 1056 2970 1056 2328 1056 1688.67 1137.67 1209 1301 889 1465 569 1709.33 409 2034 409 2361.33 409 2606.67 569 2770 889 2934 1209 3016 1688.67 3016 2328 3016 2970 2934 3450.67 2770 3770 2606.67 4090 2361.33 4250 2034 4250ZM2034 4750C2557.33 4750 2957 4543 3233 4129 3509 3715.67 3647 3115.33 3647 2328 3647 1542.67 3509 943 3233 529 2957 115.667 2557.33-91 2034-91 1511.33-91 1112 115.667 836 529 560 943 422 1542.67 422 2328 422 3115.33 560 3715.67 836 4129 1112 4543 1511.33 4750 2034 4750Z" id="DejaVuSans-30" transform="scale(0.015625 0.015625)"/></defs><use width="100%" height="100%" xlink:href="#DejaVuSans-30"></use></g></g></g><g id="xtick_2"><g id="line2d_3"><path d="M141.898 288.36 141.898 38.88" stroke="#808080" stroke-width="0.5" stroke-linecap="square" fill="none" clip-path="url(#p509aa29609)"/></g><g id="line2d_4"><g><use x="141.898" y="288.36" width="100%" height="100%" xlink:href="#mc650ab9138" stroke="#000000" stroke-width="0.8"></use></g></g><g id="text_2"><g transform="matrix(0.11 0 0 -0.11 134.899 303.718)"><defs><path d="M691 4666 3169 4666 3169 4134 1269 4134 1269 2991C1360.33 3022.33 1451.67 3045.67 1543 3061 1635 3076.33 1727 3084 1819 3084 2339.67 3084 2752 2941.33 3056 2656 3360.67 2370.67 3513 1984.33 3513 1497 3513 995 3356.67 604.667 3044 326 2731.33 48 2290.67-91 1722-91 1526-91 1326.33-74.3333 1123-41 920.333-7.66667 710.667 42.3333 494 109L494 744C681.333 642 875 566 1075 516 1275 466 1486.33 441 1709 441 2069.67 441 2355 535.667 2565 725 2775.67 914.333 2881 1171.67 2881 1497 2881 1821.67 2775.67 2078.67 2565 2268 2355 2458 2069.67 2553 1709 2553 1540.33 2553 1372 2534.33 1204 2497 1036.67 2459.67 865.667 2401.33 691 2322L691 4666Z" id="DejaVuSans-35" transform="scale(0.015625 0.015625)"/></defs><use width="100%" height="100%" xlink:href="#DejaVuSans-35"></use><use x="63.623" width="100%" height="100%" xlink:href="#DejaVuSans-30"></use></g></g></g><g id="xtick_3"><g id="line2d_5"><path d="M213.037 288.36 213.037 38.88" stroke="#808080" stroke-width="0.5" stroke-linecap="square" fill="none" clip-path="url(#p509aa29609)"/></g><g id="line2d_6"><g><use x="213.037" y="288.36" width="100%" height="100%" xlink:href="#mc650ab9138" stroke="#000000" stroke-width="0.8"></use></g></g><g id="text_3"><g transform="matrix(0.11 0 0 -0.11 202.539 303.718)"><defs><path d="M794 531 1825 531 1825 4091 703 3866 703 4441 1819 4666 2450 4666 2450 531 3481 531 3481 0 794 0 794 531Z" id="DejaVuSans-31" transform="scale(0.015625 0.015625)"/></defs><use width="100%" height="100%" xlink:href="#DejaVuSans-31"></use><use x="63.623" width="100%" height="100%" xlink:href="#DejaVuSans-30"></use><use x="127.246" width="100%" height="100%" xlink:href="#DejaVuSans-30"></use></g></g></g><g id="xtick_4"><g id="line2d_7"><path d="M284.176 288.36 284.176 38.88" stroke="#808080" stroke-width="0.5" stroke-linecap="square" fill="none" clip-path="url(#p509aa29609)"/></g><g id="line2d_8"><g><use x="284.176" y="288.36" width="100%" height="100%" xlink:href="#mc650ab9138" stroke="#000000" stroke-width="0.8"></use></g></g><g id="text_4"><g transform="matrix(0.11 0 0 -0.11 273.678 303.718)"><use width="100%" height="100%" xlink:href="#DejaVuSans-31"></use><use x="63.623" width="100%" height="100%" xlink:href="#DejaVuSans-35"></use><use x="127.246" width="100%" height="100%" xlink:href="#DejaVuSans-30"></use></g></g></g><g id="xtick_5"><g id="line2d_9"><path d="M355.315 288.36 355.315 38.88" stroke="#808080" stroke-width="0.5" stroke-linecap="square" fill="none" clip-path="url(#p509aa29609)"/></g><g id="line2d_10"><g><use x="355.315" y="288.36" width="100%" height="100%" xlink:href="#mc650ab9138" stroke="#000000" stroke-width="0.8"></use></g></g><g id="text_5"><g transform="matrix(0.11 0 0 -0.11 344.817 303.718)"><defs><path d="M1228 531 3431 531 3431 0 469 0 469 531C708.333 779 1034.67 1111.67 1448 1529 1862 1947 2122 2216.67 2228 2338 2430 2564.67 2571 2756.67 2651 2914 2731.67 3071.33 2772 3226 2772 3378 2772 3626 2685 3828 2511 3984 2337 4140.67 2110.33 4219 1831 4219 1633 4219 1424 4184.67 1204 4116 984.667 4047.33 750 3943 500 3803L500 4441C754 4543 991.333 4620 1212 4672 1433.33 4724 1635.67 4750 1819 4750 2302.33 4750 2687.67 4629 2975 4387 3262.33 4145.67 3406 3823 3406 3419 3406 3227 3370 3045 3298 2873 3226.67 2701.67 3096 2499.33 2906 2266 2854 2205.33 2688.33 2030.67 2409 1742 2130.33 1453.33 1736.67 1049.67 1228 531Z" id="DejaVuSans-32" transform="scale(0.015625 0.015625)"/></defs><use width="100%" height="100%" xlink:href="#DejaVuSans-32"></use><use x="63.623" width="100%" height="100%" xlink:href="#DejaVuSans-30"></use><use x="127.246" width="100%" height="100%" xlink:href="#DejaVuSans-30"></use></g></g></g><g id="xtick_6"><g id="line2d_11"><path d="M426.455 288.36 426.455 38.88" stroke="#808080" stroke-width="0.5" stroke-linecap="square" fill="none" clip-path="url(#p509aa29609)"/></g><g id="line2d_12"><g><use x="426.455" y="288.36" width="100%" height="100%" xlink:href="#mc650ab9138" stroke="#000000" stroke-width="0.8"></use></g></g><g id="text_6"><g transform="matrix(0.11 0 0 -0.11 415.956 303.718)"><use width="100%" height="100%" xlink:href="#DejaVuSans-32"></use><use x="63.623" width="100%" height="100%" xlink:href="#DejaVuSans-35"></use><use x="127.246" width="100%" height="100%" xlink:href="#DejaVuSans-30"></use></g></g></g><g id="text_7"><g transform="matrix(0.11 0 0 -0.11 210.56 318.366)"><defs><path d="M3859 4513 3738 3897C3527.33 4009.67 3318.33 4094.67 3111 4152 2903.67 4209.33 2703 4238 2509 4238 2132.33 4238 1832.33 4155.67 1609 3991 1386.33 3826.33 1275 3607.33 1275 3334 1275 3184 1316 3069 1398 2989 1480.67 2909 1692.67 2823 2034 2731L2413 2638C2839.67 2527.33 3136.33 2387 3303 2217 3469.67 2047.67 3553 1809.67 3553 1503 3553 1032.33 3368 649 2998 353 2628.67 57 2142-91 1538-91 1290-91 1041-66.3333 791-17 541 31.6667 290 106 38 206L166 856C397.333 712.667 629 604.333 861 531 1093 458.333 1324.67 422 1556 422 1950 422 2265.67 509.333 2503 684 2740.33 859.333 2859 1087.67 2859 1369 2859 1556.33 2811.67 1698.33 2717 1795 2622.33 1892.33 2418.67 1980.33 2106 2059L1728 2156C1296.67 2268.67 1002.33 2398.33 845 2545 687.667 2692.33 609 2898.33 609 3163 609 3627 787.667 4007.33 1145 4304 1502.33 4601.33 1967.67 4750 2541 4750 2763.67 4750 2984.33 4730 3203 4690 3421.67 4650.67 3640.33 4591.67 3859 4513Z" id="DejaVuSans-Oblique-53" transform="scale(0.015625 0.015625)"/><path d="M2706 3500 2619 3053 1472 3053 1100 1153C1087.33 1082.33 1078 1023 1072 975 1066 927 1063 889.667 1063 863 1063 729.667 1103 632.667 1183 572 1263 511.333 1391.67 481 1569 481L2150 481 2053 0 1503 0C1161.67 0 907 66.6667 739 200 571.667 333.333 488 535.333 488 806 488 854 491 906.667 497 964 503 1021.33 512.333 1084.33 525 1153L897 3053 409 3053 500 3500 978 3500 1172 4494 1747 4494 1556 3500 2706 3500Z" id="DejaVuSans-Oblique-74" transform="scale(0.015625 0.015625)"/><path d="M2853 2969C2795 3000.33 2728.33 3024.33 2653 3041 2578.33 3057.67 2498.33 3066 2413 3066 2106.33 3066 1838.33 2949.67 1609 2717 1380.33 2485 1228.33 2174 1153 1784L800 0 225 0 909 3500 1484 3500 1375 2956C1527 3158 1708.67 3313 1920 3421 2132 3529.67 2357.67 3584 2597 3584 2659.67 3584 2721 3580.33 2781 3573 2841.67 3566.33 2902.33 3554.67 2963 3538L2853 2969Z" id="DejaVuSans-Oblique-72" transform="scale(0.015625 0.015625)"/><path d="M3078 2063C3084.67 2096.33 3089.33 2130.67 3092 2166 3095.33 2201.33 3097 2236.67 3097 2272 3097 2526 3022.33 2727 2873 2875 2724.33 3023 2522 3097 2266 3097 1980.67 3097 1728.33 3006.67 1509 2826 1290.33 2646 1125 2390.33 1013 2059L3078 2063ZM3578 1613 903 1613C890.333 1533.67 882 1471 878 1425 874 1379 872 1339.33 872 1306 872 1016.67 961 792.667 1139 634 1317 476 1568.67 397 1894 397 2144 397 2380.33 425 2603 481 2826.33 537.667 3033.67 620 3225 728L3116 159C2909.33 75.6667 2696 13.3333 2476-28 2256.67-70 2033.33-91 1806-91 1320.67-91 947.333 25 686 257 424.667 489.667 294 819.667 294 1247 294 1611.67 359 1950.67 489 2264 619 2577.33 810.333 2857 1063 3103 1225 3257 1418 3375.67 1642 3459 1866 3542.33 2104 3584 2356 3584 2752 3584 3067 3465.33 3301 3228 3535.67 2990.67 3653 2672 3653 2272 3653 2176 3646.67 2073.33 3634 1964 3622 1854.67 3603.33 1737.67 3578 1613Z" id="DejaVuSans-Oblique-65" transform="scale(0.015625 0.015625)"/><path d="M3200 3397 3091 2853C2939 2936.33 2778.33 2998.67 2609 3040 2440.33 3082 2266.67 3103 2088 3103 1785.33 3103 1547 3051.33 1373 2948 1199.67 2845.33 1113 2705.33 1113 2528 1113 2322 1315 2163.67 1719 2053 1750.33 2045 1773.33 2038.67 1788 2034L1972 1978C2355.33 1872 2611 1760.67 2739 1644 2867 1527.33 2931 1368 2931 1166 2931 794.667 2783.67 492.333 2489 259 2194.33 25.6667 1808.33-91 1331-91 1145.67-91 951-73 747-37 543-1.66667 318 53.3333 72 128L184 722C394.667 613.333 602 531 806 475 1010.67 419 1206.67 391 1394 391 1675.33 391 1904 451.333 2080 572 2256 692.667 2344 845.667 2344 1031 2344 1231 2112.67 1392.67 1650 1516L1591 1531 1394 1581C1102 1658.33 888.333 1760 753 1886 617.667 2012 550 2173 550 2369 550 2741.67 690 3037.33 970 3256 1250.67 3474.67 1631.67 3584 2113 3584 2302.33 3584 2487 3568.33 2667 3537 2847.67 3506.33 3025.33 3459.67 3200 3397Z" id="DejaVuSans-Oblique-73" transform="scale(0.015625 0.015625)"/><path d="M1613 4147 1294 2491 2106 2491C2424.67 2491 2682.33 2579 2879 2755 3076.33 2931 3175 3160.67 3175 3444 3175 3670.67 3108.67 3844.33 2976 3965 2844 4086.33 2654 4147 2406 4147L1613 4147ZM2772 2241C2905.33 2209.67 3016.33 2132.33 3105 2009 3193.67 1886.33 3296.33 1641.67 3413 1275L3809 0 3144 0 2778 1197C2684.67 1505 2576.33 1711 2453 1815 2330.33 1919.67 2142 1972 1888 1972L1191 1972 806 0 172 0 1081 4666 2503 4666C2934.33 4666 3265 4568.33 3495 4373 3725.67 4178.33 3841 3897.67 3841 3531 3841 3206.33 3743 2925 3547 2687 3351 2449.67 3092.67 2301 2772 2241Z" id="DejaVuSans-Oblique-52" transform="scale(0.015625 0.015625)"/><path d="M3438 1997 3047 0 2472 0 2578 531C2409.33 323 2217 167.333 2001 64 1785.67-39.3333 1545.67-91 1281-91 983-91 738.667 0 548 182 358 364.667 263 598.667 263 884 263 1292.67 426 1615.67 752 1853 1078 2090.33 1527.33 2209 2100 2209L2900 2209 2931 2363C2935.67 2379.67 2939 2397.67 2941 2417 2943 2437 2944 2467.67 2944 2509 2944 2695 2868.33 2839.33 2717 2942 2566.33 3045.33 2354.33 3097 2081 3097 1893.67 3097 1701.33 3073 1504 3025 1307.33 2977 1105 2905 897 2809L997 3341C1213.67 3422.33 1425.67 3483 1633 3523 1840.33 3563.67 2040.67 3584 2234 3584 2646.67 3584 2960.67 3494.33 3176 3315 3392 3136.33 3500 2876 3500 2534 3500 2465.33 3494.67 2384.67 3484 2292 3474 2199.33 3458.67 2101 3438 1997ZM2816 1759 2241 1759C1769.67 1759 1421 1696 1195 1570 969 1444 856 1248.67 856 984 856 800.667 913.667 657 1029 553 1145 449 1305 397 1509 397 1821.67 397 2094.67 509 2328 733 2561.33 957 2715.67 1256.33 2791 1631L2816 1759Z" id="DejaVuSans-Oblique-61" transform="scale(0.015625 0.015625)"/><path d="M1172 4863 1747 4863 1606 4134 1031 4134 1172 4863ZM909 3500 1484 3500 800 0 225 0 909 3500Z" id="DejaVuSans-Oblique-69" transform="scale(0.015625 0.015625)"/><path d="M1625-91C1214.33-91 889.667 35.6667 651 289 413 542.333 294 887.667 294 1325 294 1579 335 1837.67 417 2101 499.667 2365 606.667 2586.67 738 2766 944 3044.67 1174 3250.67 1428 3384 1682 3517.33 1969.67 3584 2291 3584 2689 3584 3010.33 3460 3255 3212 3499.67 2964.67 3622 2641 3622 2241 3622 1963.67 3581.33 1687.33 3500 1412 3418.67 1137.33 3312.33 909.333 3181 728 2977 448.667 2748 242.333 2494 109 2240-24.3333 1950.33-91 1625-91ZM891 1344C891 1027.33 957 790.333 1089 633 1221.67 475.667 1422.33 397 1691 397 2076.33 397 2395.33 565 2648 901 2901.33 1237.67 3028 1664.33 3028 2181 3028 2483 2960.33 2711 2825 2865 2689.67 3019.67 2490.67 3097 2228 3097 2011.33 3097 1818.67 3046.33 1650 2945 1481.33 2844.33 1330.33 2690.67 1197 2484 1099 2330 1023.33 2154 970 1956 917.333 1758 891 1554 891 1344Z" id="DejaVuSans-Oblique-6f" transform="scale(0.015625 0.015625)"/><path d="M3175 2156C3175 2462.67 3108.33 2697 2975 2859 2841.67 3021.67 2650 3103 2400 3103 2229.33 3103 2066.33 3059.33 1911 2972 1755.67 2884.67 1617.67 2757.67 1497 2591 1378.33 2426.33 1283.33 2227.33 1212 1994 1141.33 1760.67 1106 1529.33 1106 1300 1106 1008.67 1172.67 784.333 1306 627 1439.33 469.667 1629 391 1875 391 2056.33 391 2224.67 433.667 2380 519 2535.33 604.333 2668 728.333 2778 891 2896.67 1061.67 2992.33 1262.67 3065 1494 3138.33 1725.33 3175 1946 3175 2156ZM1394 2969C1548 3171 1729.67 3324 1939 3428 2148.33 3532 2381.33 3584 2638 3584 2996 3584 3274 3466.67 3472 3232 3670 2998 3769 2669.67 3769 2247 3769 1901 3707.33 1571.33 3584 1258 3461.33 944.667 3284.33 664 3053 416 2899 251.333 2725 125.667 2531 39 2337.67-47.6667 2133.67-91 1919-91 1671-91 1462.67-39.3333 1294 64 1125.33 167.333 999.333 321 916 525L556-1331-19-1331 922 3500 1497 3500 1394 2969Z" id="DejaVuSans-Oblique-70" transform="scale(0.015625 0.015625)"/><path d="M225 347C197.667 355 184 375.667 184 409L966 3316C990.667 3394.67 1033 3458 1093 3506 1153.67 3554 1222.67 3578 1300 3578 1400 3578 1488 3545 1564 3479 1640 3413.67 1678 3331 1678 3231 1678 3187.67 1666.67 3138.67 1644 3084L488 319C473.333 289.667 453.333 275 428 275 405.333 275 369.333 285.333 320 306 271.333 327.333 239.667 341 225 347Z" id="Cmsy10-30" transform="scale(0.015625 0.015625)"/><path d="M1625 4666 2156 4666 531-594 0-594 1625 4666Z" id="DejaVuSans-2f" transform="scale(0.015625 0.015625)"/></defs><use width="100%" height="100%" xlink:href="#DejaVuSans-Oblique-53" transform="matrix(1 0 0 1 0 0.015625)"></use><use width="100%" height="100%" xlink:href="#DejaVuSans-Oblique-74" transform="translate(63.4766 0.015625)"></use><use width="100%" height="100%" xlink:href="#DejaVuSans-Oblique-72" transform="translate(102.686 0.015625)"></use><use width="100%" height="100%" xlink:href="#DejaVuSans-Oblique-65" transform="translate(143.799 0.015625)"></use><use width="100%" height="100%" xlink:href="#DejaVuSans-Oblique-73" transform="translate(205.322 0.015625)"></use><use width="100%" height="100%" xlink:href="#DejaVuSans-Oblique-73" transform="translate(257.422 0.015625)"></use><use width="100%" height="100%" xlink:href="#DejaVuSans-Oblique-52" transform="translate(341.992 0.015625)"></use><use width="100%" height="100%" xlink:href="#DejaVuSans-Oblique-61" transform="translate(411.474 0.015625)"></use><use width="100%" height="100%" xlink:href="#DejaVuSans-Oblique-74" transform="translate(472.754 0.015625)"></use><use width="100%" height="100%" xlink:href="#DejaVuSans-Oblique-69" transform="translate(511.963 0.015625)"></use><use width="100%" height="100%" xlink:href="#DejaVuSans-Oblique-6f" transform="translate(539.746 0.015625)"></use><use width="100%" height="100%" xlink:href="#DejaVuSans-Oblique-70" transform="translate(633.398 0.015625)"></use><use width="100%" height="100%" xlink:href="#Cmsy10-30" transform="translate(696.874 0.015625)"></use><use width="100%" height="100%" xlink:href="#DejaVuSans-2f" transform="translate(724.365 0.015625)"></use><use width="100%" height="100%" xlink:href="#DejaVuSans-Oblique-70" transform="translate(758.056 0.015625)"></use><use width="100%" height="100%" xlink:href="#DejaVuSans-Oblique-61" transform="matrix(0.7 0 0 0.7 821.533 -16.3906)"></use></g></g></g><g id="matplotlib.axis_2"><g id="ytick_1"><g id="line2d_13"><path d="M63 288.36 453.6 288.36" stroke="#808080" stroke-width="0.5" stroke-linecap="square" fill="none" clip-path="url(#p509aa29609)"/></g><g id="line2d_14"><defs><path d="M0 0-3.5 0" id="mcf98bb96f3" stroke="#000000" stroke-width="0.8"/></defs><g><use x="63" y="288.36" width="100%" height="100%" xlink:href="#mcf98bb96f3" stroke="#000000" stroke-width="0.8"></use></g></g><g id="text_8"><g transform="matrix(0.11 0 0 -0.11 24.5091 292.539)"><defs><path d="M684 794 1344 794 1344 0 684 0 684 794Z" id="DejaVuSans-2e" transform="scale(0.015625 0.015625)"/><path d="M525 4666 3525 4666 3525 4397 1831 0 1172 0 2766 4134 525 4134 525 4666Z" id="DejaVuSans-37" transform="scale(0.015625 0.015625)"/></defs><use width="100%" height="100%" xlink:href="#DejaVuSans-30"></use><use x="63.623" width="100%" height="100%" xlink:href="#DejaVuSans-2e"></use><use x="95.4102" width="100%" height="100%" xlink:href="#DejaVuSans-30"></use><use x="159.033" width="100%" height="100%" xlink:href="#DejaVuSans-37"></use><use x="222.656" width="100%" height="100%" xlink:href="#DejaVuSans-30"></use></g></g></g><g id="ytick_2"><g id="line2d_15"><path d="M63 246.78 453.6 246.78" stroke="#808080" stroke-width="0.5" stroke-linecap="square" fill="none" clip-path="url(#p509aa29609)"/></g><g id="line2d_16"><g><use x="63" y="246.78" width="100%" height="100%" xlink:href="#mcf98bb96f3" stroke="#000000" stroke-width="0.8"></use></g></g><g id="text_9"><g transform="matrix(0.11 0 0 -0.11 24.5091 250.959)"><use width="100%" height="100%" xlink:href="#DejaVuSans-30"></use><use x="63.623" width="100%" height="100%" xlink:href="#DejaVuSans-2e"></use><use x="95.4102" width="100%" height="100%" xlink:href="#DejaVuSans-30"></use><use x="159.033" width="100%" height="100%" xlink:href="#DejaVuSans-37"></use><use x="222.656" width="100%" height="100%" xlink:href="#DejaVuSans-35"></use></g></g></g><g id="ytick_3"><g id="line2d_17"><path d="M63 205.2 453.6 205.2" stroke="#808080" stroke-width="0.5" stroke-linecap="square" fill="none" clip-path="url(#p509aa29609)"/></g><g id="line2d_18"><g><use x="63" y="205.2" width="100%" height="100%" xlink:href="#mcf98bb96f3" stroke="#000000" stroke-width="0.8"></use></g></g><g id="text_10"><g transform="matrix(0.11 0 0 -0.11 24.5091 209.379)"><defs><path d="M2034 2216C1734 2216 1498 2135.67 1326 1975 1154.67 1814.33 1069 1593.67 1069 1313 1069 1031.67 1154.67 810.667 1326 650 1498 489.333 1734 409 2034 409 2334 409 2570.33 489.667 2743 651 2916.33 813 3003 1033.67 3003 1313 3003 1593.67 2917 1814.33 2745 1975 2573.67 2135.67 2336.67 2216 2034 2216ZM1403 2484C1132.33 2550.67 921.333 2676.67 770 2862 619.333 3048 544 3274.33 544 3541 544 3913.67 676.667 4208.33 942 4425 1208 4641.67 1572 4750 2034 4750 2498.67 4750 2863.33 4641.67 3128 4425 3392.67 4208.33 3525 3913.67 3525 3541 3525 3274.33 3449.33 3048 3298 2862 3147.33 2676.67 2937.67 2550.67 2669 2484 2973 2413.33 3209.67 2274.67 3379 2068 3549 1862 3634 1610.33 3634 1313 3634 860.333 3496 513 3220 271 2944 29.6667 2548.67-91 2034-91 1520-91 1124.67 29.6667 848 271 572 513 434 860.333 434 1313 434 1610.33 519.333 1862 690 2068 861.333 2274.67 1099 2413.33 1403 2484ZM1172 3481C1172 3239.67 1247.33 3051.33 1398 2916 1549.33 2780.67 1761.33 2713 2034 2713 2305.33 2713 2517.33 2780.67 2670 2916 2823.33 3051.33 2900 3239.67 2900 3481 2900 3723 2823.33 3911.67 2670 4047 2517.33 4182.33 2305.33 4250 2034 4250 1761.33 4250 1549.33 4182.33 1398 4047 1247.33 3911.67 1172 3723 1172 3481Z" id="DejaVuSans-38" transform="scale(0.015625 0.015625)"/></defs><use width="100%" height="100%" xlink:href="#DejaVuSans-30"></use><use x="63.623" width="100%" height="100%" xlink:href="#DejaVuSans-2e"></use><use x="95.4102" width="100%" height="100%" xlink:href="#DejaVuSans-30"></use><use x="159.033" width="100%" height="100%" xlink:href="#DejaVuSans-38"></use><use x="222.656" width="100%" height="100%" xlink:href="#DejaVuSans-30"></use></g></g></g><g id="ytick_4"><g id="line2d_19"><path d="M63 163.62 453.6 163.62" stroke="#808080" stroke-width="0.5" stroke-linecap="square" fill="none" clip-path="url(#p509aa29609)"/></g><g id="line2d_20"><g><use x="63" y="163.62" width="100%" height="100%" xlink:href="#mcf98bb96f3" stroke="#000000" stroke-width="0.8"></use></g></g><g id="text_11"><g transform="matrix(0.11 0 0 -0.11 24.5091 167.799)"><use width="100%" height="100%" xlink:href="#DejaVuSans-30"></use><use x="63.623" width="100%" height="100%" xlink:href="#DejaVuSans-2e"></use><use x="95.4102" width="100%" height="100%" xlink:href="#DejaVuSans-30"></use><use x="159.033" width="100%" height="100%" xlink:href="#DejaVuSans-38"></use><use x="222.656" width="100%" height="100%" xlink:href="#DejaVuSans-35"></use></g></g></g><g id="ytick_5"><g id="line2d_21"><path d="M63 122.04 453.6 122.04" stroke="#808080" stroke-width="0.5" stroke-linecap="square" fill="none" clip-path="url(#p509aa29609)"/></g><g id="line2d_22"><g><use x="63" y="122.04" width="100%" height="100%" xlink:href="#mcf98bb96f3" stroke="#000000" stroke-width="0.8"></use></g></g><g id="text_12"><g transform="matrix(0.11 0 0 -0.11 24.5091 126.219)"><defs><path d="M703 97 703 672C861.667 596.667 1022 539.333 1184 500 1346.67 460.667 1506.33 441 1663 441 2079.67 441 2397.67 581 2617 861 2837 1141 2962.67 1566.67 2994 2138 2873.33 1958.67 2720 1821 2534 1725 2348.67 1629 2143.67 1581 1919 1581 1452.33 1581 1083 1722 811 2004 539 2286.67 403 2673 403 3163 403 3641.67 544.667 4025.67 828 4315 1111.33 4605 1488.33 4750 1959 4750 2499 4750 2911 4543 3195 4129 3479.67 3715.67 3622 3115.33 3622 2328 3622 1592.67 3447.33 1005.67 3098 567 2749.33 128.333 2280.33-91 1691-91 1532.33-91 1371.67-75.3333 1209-44 1047-12.6667 878.333 34.3333 703 97ZM1959 2075C2242.33 2075 2466.67 2171.67 2632 2365 2798 2559 2881 2825 2881 3163 2881 3498.33 2798 3763.33 2632 3958 2466.67 4152.67 2242.33 4250 1959 4250 1675.67 4250 1451.33 4152.67 1286 3958 1120.67 3763.33 1038 3498.33 1038 3163 1038 2825 1120.67 2559 1286 2365 1451.33 2171.67 1675.67 2075 1959 2075Z" id="DejaVuSans-39" transform="scale(0.015625 0.015625)"/></defs><use width="100%" height="100%" xlink:href="#DejaVuSans-30"></use><use x="63.623" width="100%" height="100%" xlink:href="#DejaVuSans-2e"></use><use x="95.4102" width="100%" height="100%" xlink:href="#DejaVuSans-30"></use><use x="159.033" width="100%" height="100%" xlink:href="#DejaVuSans-39"></use><use x="222.656" width="100%" height="100%" xlink:href="#DejaVuSans-30"></use></g></g></g><g id="ytick_6"><g id="line2d_23"><path d="M63 80.46 453.6 80.46" stroke="#808080" stroke-width="0.5" stroke-linecap="square" fill="none" clip-path="url(#p509aa29609)"/></g><g id="line2d_24"><g><use x="63" y="80.46" width="100%" height="100%" xlink:href="#mcf98bb96f3" stroke="#000000" stroke-width="0.8"></use></g></g><g id="text_13"><g transform="matrix(0.11 0 0 -0.11 24.5091 84.6391)"><use width="100%" height="100%" xlink:href="#DejaVuSans-30"></use><use x="63.623" width="100%" height="100%" xlink:href="#DejaVuSans-2e"></use><use x="95.4102" width="100%" height="100%" xlink:href="#DejaVuSans-30"></use><use x="159.033" width="100%" height="100%" xlink:href="#DejaVuSans-39"></use><use x="222.656" width="100%" height="100%" xlink:href="#DejaVuSans-35"></use></g></g></g><g id="ytick_7"><g id="line2d_25"><path d="M63 38.88 453.6 38.88" stroke="#808080" stroke-width="0.5" stroke-linecap="square" fill="none" clip-path="url(#p509aa29609)"/></g><g id="line2d_26"><g><use x="63" y="38.88" width="100%" height="100%" xlink:href="#mcf98bb96f3" stroke="#000000" stroke-width="0.8"></use></g></g><g id="text_14"><g transform="matrix(0.11 0 0 -0.11 24.5091 43.0591)"><use width="100%" height="100%" xlink:href="#DejaVuSans-30"></use><use x="63.623" width="100%" height="100%" xlink:href="#DejaVuSans-2e"></use><use x="95.4102" width="100%" height="100%" xlink:href="#DejaVuSans-31"></use><use x="159.033" width="100%" height="100%" xlink:href="#DejaVuSans-30"></use><use x="222.656" width="100%" height="100%" xlink:href="#DejaVuSans-30"></use></g></g></g><g id="text_15"><g transform="matrix(6.73556e-18 -0.11 -0.11 -6.73556e-18 18.1991 220.325)"><defs><path d="M2356 4666 3072 4666 3938 0 3278 0 3084 1197 984 1197 325 0-341 0 2356 4666ZM2584 4044 1275 1722 2988 1722 2584 4044Z" id="DejaVuSans-Oblique-41" transform="scale(0.015625 0.015625)"/><path d="M3566 2113 3156 0 2578 0 2988 2091C3006.67 2189 3021 2275.33 3031 2350 3041.67 2425.33 3047 2484.67 3047 2528 3047 2703.33 2991.67 2839.67 2881 2937 2771 3035 2617 3084 2419 3084 2110.33 3084 1844.67 2981.33 1622 2776 1399.33 2571.33 1253.33 2293 1184 1941L800 0 225 0 903 3500 1478 3500 1363 2950C1523 3152 1715.33 3308 1940 3418 2165.33 3528.67 2402 3584 2650 3584 2958.67 3584 3197.67 3500.67 3367 3334 3537 3167.33 3622 2933 3622 2631 3622 2556.33 3617.33 2476.33 3608 2391 3598.67 2305.67 3584.67 2213 3566 2113Z" id="DejaVuSans-Oblique-6e" transform="scale(0.015625 0.015625)"/><path d="M3431 3366 3316 2797C3178 2897 3031.33 2972 2876 3022 2721.33 3072 2560.67 3097 2394 3097 2210.67 3097 2036 3064.67 1870 3000 1704.67 2935.33 1565.67 2843.67 1453 2725 1273.67 2543.67 1135 2331 1037 2087 939.667 1843.67 891 1591.67 891 1331 891 1016.33 969.667 782 1127 628 1284.33 474 1523.33 397 1844 397 2002 397 2170 421 2348 469 2526.67 517 2712.67 588.667 2906 684L2797 116C2630.33 47.3333 2459-4.33333 2283-39 2107-73.6667 1926.33-91 1741-91 1276.33-91 919 25 669 257 419 489.667 294 821.667 294 1253 294 1615.67 359 1949.67 489 2255 619 2560.33 812.333 2834.67 1069 3078 1243.67 3244.67 1448.67 3370.67 1684 3456 1920 3541.33 2177.33 3584 2456 3584 2618.67 3584 2780 3565.67 2940 3529 3100.67 3493 3264.33 3438.67 3431 3366Z" id="DejaVuSans-Oblique-63" transform="scale(0.015625 0.015625)"/><path d="M1081 4666 3756 4666 3653 4134 1606 4134 1338 2759 3188 2759 3084 2228 1234 2228 800 0 172 0 1081 4666Z" id="DejaVuSans-Oblique-46" transform="scale(0.015625 0.015625)"/><path d="M3169 2138C3169 2440 3099.67 2676.33 2961 2847 2822.33 3017.67 2631.33 3103 2388 3103 2210.67 3103 2044.33 3059.67 1889 2973 1733.67 2887 1598.67 2761.67 1484 2597 1363.33 2424.33 1268 2223.67 1198 1995 1128.67 1767 1094 1539.67 1094 1313 1094 1025 1162 799.333 1298 636 1434.67 472.667 1623 391 1863 391 2043.67 391 2211 433 2365 517 2519.67 601.667 2655.33 726.333 2772 891 2890.67 1061.67 2986.33 1260.33 3059 1487 3132.33 1714.33 3169 1931.33 3169 2138ZM1381 2969C1523 3160.33 1700.67 3310.67 1914 3420 2127.33 3529.33 2350.67 3584 2584 3584 2942.67 3584 3227.67 3463 3439 3221 3650.33 2979.67 3756 2653 3756 2241 3756 1903 3694 1575.67 3570 1259 3446 942.333 3269.67 661.333 3041 416 2891 253.333 2718 128 2522 40 2326-47.3333 2120.67-91 1906-91 1679.33-91 1482.67-39 1316 65 1149.33 169.667 1013.67 325 909 531L806 0 231 0 1178 4863 1753 4863 1381 2969Z" id="DejaVuSans-Oblique-62" transform="scale(0.015625 0.015625)"/></defs><use width="100%" height="100%" xlink:href="#DejaVuSans-Oblique-41" transform="matrix(1 0 0 1 0 0.015625)"></use><use width="100%" height="100%" xlink:href="#DejaVuSans-Oblique-6e" transform="translate(68.4082 0.015625)"></use><use width="100%" height="100%" xlink:href="#DejaVuSans-Oblique-69" transform="translate(131.787 0.015625)"></use><use width="100%" height="100%" xlink:href="#DejaVuSans-Oblique-73" transform="translate(159.57 0.015625)"></use><use width="100%" height="100%" xlink:href="#DejaVuSans-Oblique-6f" transform="translate(211.67 0.015625)"></use><use width="100%" height="100%" xlink:href="#DejaVuSans-Oblique-74" transform="translate(272.852 0.015625)"></use><use width="100%" height="100%" xlink:href="#DejaVuSans-Oblique-72" transform="translate(312.061 0.015625)"></use><use width="100%" height="100%" xlink:href="#DejaVuSans-Oblique-6f" transform="translate(353.174 0.015625)"></use><use width="100%" height="100%" xlink:href="#DejaVuSans-Oblique-70" transform="translate(414.355 0.015625)"></use><use width="100%" height="100%" xlink:href="#DejaVuSans-Oblique-69" transform="translate(477.832 0.015625)"></use><use width="100%" height="100%" xlink:href="#DejaVuSans-Oblique-63" transform="translate(505.615 0.015625)"></use><use width="100%" height="100%" xlink:href="#DejaVuSans-Oblique-46" transform="translate(593.066 0.015625)"></use><use width="100%" height="100%" xlink:href="#DejaVuSans-Oblique-61" transform="translate(650.586 0.015625)"></use><use width="100%" height="100%" xlink:href="#DejaVuSans-Oblique-62" transform="translate(711.865 0.015625)"></use><use width="100%" height="100%" xlink:href="#DejaVuSans-Oblique-72" transform="translate(775.341 0.015625)"></use><use width="100%" height="100%" xlink:href="#DejaVuSans-Oblique-69" transform="translate(816.455 0.015625)"></use><use width="100%" height="100%" xlink:href="#DejaVuSans-Oblique-63" transform="translate(844.238 0.015625)"></use><use width="100%" height="100%" xlink:href="#DejaVuSans-Oblique-46" transform="translate(931.689 0.015625)"></use><use width="100%" height="100%" xlink:href="#DejaVuSans-Oblique-63" transform="matrix(0.7 0 0 0.7 989.208 -16.3906)"></use></g></g></g><g id="patch_3"><path d="M63 288.36 63 38.88" stroke="#000000" stroke-width="0.8" stroke-linecap="square" stroke-linejoin="miter" fill="none"/></g><g id="patch_4"><path d="M453.6 288.36 453.6 38.88" stroke="#000000" stroke-width="0.8" stroke-linecap="square" stroke-linejoin="miter" fill="none"/></g><g id="patch_5"><path d="M63 288.36 453.6 288.36" stroke="#000000" stroke-width="0.8" stroke-linecap="square" stroke-linejoin="miter" fill="none"/></g><g id="patch_6"><path d="M63 38.88 453.6 38.88" stroke="#000000" stroke-width="0.8" stroke-linecap="square" stroke-linejoin="miter" fill="none"/></g><g id="legend_1"><g id="patch_7"><path d="M244.676 138.672 443.376 138.672C444.709 138.672 445.376 138.005 445.376 136.672L445.376 63.672C445.376 62.3387 444.709 61.672 443.376 61.672L244.676 61.672C243.343 61.672 242.676 62.3387 242.676 63.672L242.676 136.672C242.676 138.005 243.343 138.672 244.676 138.672Z" stroke="#CCCCCC" stroke-linejoin="miter" fill="#FFFFFF" opacity="0.5"/></g><g id="PathCollection_6"><path d="M256.676 73.747C257.472 73.747 258.235 73.4309 258.797 72.8683 259.36 72.3057 259.676 71.5426 259.676 70.747 259.676 69.9514 259.36 69.1883 258.797 68.6257 258.235 68.0631 257.472 67.747 256.676 67.747 255.88 67.747 255.117 68.0631 254.555 68.6257 253.992 69.1883 253.676 69.9514 253.676 70.747 253.676 71.5426 253.992 72.3057 254.555 72.8683 255.117 73.4309 255.88 73.747 256.676 73.747L256.676 73.747Z" stroke="#D62728" stroke-opacity="0.7" fill="none"/></g><g id="text_16"><g transform="matrix(0.1 0 0 -0.1 274.676 73.372)"><defs><path d="M750 794 1409 794 1409 256 897-744 494-744 750 256 750 794Z" id="DejaVuSans-2c" transform="scale(0.015625 0.015625)"/><path d="M2913 2219 925 2219C835.667 1595.67 836.667 1152 928 888 1042.67 562.667 1255.33 400 1566 400 1878 400 2153 563.667 2391 891 2599 1178.33 2773 1621 2913 2219ZM3009 2750C3065.67 3342 3057.33 3742 2984 3950 2870 4279.33 2659.67 4444 2353 4444 2034.33 4444 1758.33 4281.33 1525 3956 1341.67 3694 1178 3292 1034 2750L3009 2750ZM2444 4913C2944 4913 3294 4692 3494 4250 3694 3810.67 3718 3201.33 3566 2422 3416 1644.67 3154.33 1035.33 2781 594 2410.33 150 1975-72 1475-72 973-72 623 150 425 594 227 1035.33 203 1644.67 353 2422 505 3201.33 765.333 3810.67 1134 4250 1505.33 4692 1942 4913 2444 4913Z" id="DejaVuSans-Oblique-3b8" transform="scale(0.015625 0.015625)"/><path d="M678 2906 4684 2906 4684 2381 678 2381 678 2906ZM678 1631 4684 1631 4684 1100 678 1100 678 1631Z" id="DejaVuSans-3d" transform="scale(0.015625 0.015625)"/><path d="M2113 2584C1829.67 2584 1605 2487 1439 2293 1273.67 2099.67 1191 1834.33 1191 1497 1191 1161.67 1273.67 896.333 1439 701 1605 506.333 1829.67 409 2113 409 2396.33 409 2620.67 506.333 2786 701 2951.33 896.333 3034 1161.67 3034 1497 3034 1834.33 2951.33 2099.67 2786 2293 2620.67 2487 2396.33 2584 2113 2584ZM3366 4563 3366 3988C3207.33 4062.67 3047.33 4119.67 2886 4159 2724.67 4199 2564.67 4219 2406 4219 1989.33 4219 1671 4078.33 1451 3797 1231.67 3515.67 1106.33 3090.67 1075 2522 1197.67 2703.33 1351.67 2842.33 1537 2939 1723 3035.67 1927.33 3084 2150 3084 2618.67 3084 2989 2941.67 3261 2657 3533 2373 3669 1986.33 3669 1497 3669 1017.67 3527.33 633 3244 343 2960.67 53.6667 2583.67-91 2113-91 1573-91 1160.33 115.667 875 529 589.667 943 447 1542.67 447 2328 447 3065.33 622 3653.33 972 4092 1322 4530.67 1791.67 4750 2381 4750 2539.67 4750 2699.67 4734.33 2861 4703 3022.33 4671.67 3190.67 4625 3366 4563Z" id="DejaVuSans-36" transform="scale(0.015625 0.015625)"/><path d="M1600 4347C1433.33 4347 1292.67 4289 1178 4173 1063.33 4057.67 1006 3916.67 1006 3750 1006 3585.33 1063.33 3446.33 1178 3333 1292.67 3219.67 1433.33 3163 1600 3163 1766.67 3163 1907.33 3219.67 2022 3333 2136.67 3446.33 2194 3585.33 2194 3750 2194 3914.67 2136 4055.33 2020 4172 1904.67 4288.67 1764.67 4347 1600 4347ZM1600 4750C1733.33 4750 1861.33 4724.33 1984 4673 2107.33 4622.33 2213.67 4549 2303 4453 2399 4359.67 2471 4253.33 2519 4134 2567 4015.33 2591 3887.33 2591 3750 2591 3475.33 2494.67 3242.67 2302 3052 2109.33 2861.33 1873.33 2766 1594 2766 1312.67 2766 1078 2859.67 890 3047 702.667 3234.33 609 3468.67 609 3750 609 4029.33 704.667 4265.67 896 4459 1088 4653 1322.67 4750 1600 4750Z" id="DejaVuSans-b0" transform="scale(0.015625 0.015625)"/></defs><use width="100%" height="100%" xlink:href="#DejaVuSans-Oblique-41" transform="matrix(1 0 0 1 0 0.234375)"></use><use width="100%" height="100%" xlink:href="#DejaVuSans-Oblique-6e" transform="translate(68.4082 0.234375)"></use><use width="100%" height="100%" xlink:href="#DejaVuSans-Oblique-69" transform="translate(131.787 0.234375)"></use><use width="100%" height="100%" xlink:href="#DejaVuSans-Oblique-73" transform="translate(159.57 0.234375)"></use><use width="100%" height="100%" xlink:href="#DejaVuSans-Oblique-6f" transform="translate(211.67 0.234375)"></use><use width="100%" height="100%" xlink:href="#DejaVuSans-Oblique-74" transform="translate(272.852 0.234375)"></use><use width="100%" height="100%" xlink:href="#DejaVuSans-Oblique-72" transform="translate(312.061 0.234375)"></use><use width="100%" height="100%" xlink:href="#DejaVuSans-Oblique-6f" transform="translate(353.174 0.234375)"></use><use width="100%" height="100%" xlink:href="#DejaVuSans-Oblique-70" transform="translate(414.355 0.234375)"></use><use width="100%" height="100%" xlink:href="#DejaVuSans-Oblique-69" transform="translate(477.832 0.234375)"></use><use width="100%" height="100%" xlink:href="#DejaVuSans-Oblique-63" transform="translate(505.615 0.234375)"></use><use width="100%" height="100%" xlink:href="#DejaVuSans-Oblique-46" transform="translate(593.066 0.234375)"></use><use width="100%" height="100%" xlink:href="#DejaVuSans-Oblique-61" transform="translate(650.586 0.234375)"></use><use width="100%" height="100%" xlink:href="#DejaVuSans-Oblique-62" transform="translate(711.865 0.234375)"></use><use width="100%" height="100%" xlink:href="#DejaVuSans-Oblique-72" transform="translate(775.341 0.234375)"></use><use width="100%" height="100%" xlink:href="#DejaVuSans-Oblique-69" transform="translate(816.455 0.234375)"></use><use width="100%" height="100%" xlink:href="#DejaVuSans-Oblique-63" transform="translate(844.238 0.234375)"></use><use width="100%" height="100%" xlink:href="#DejaVuSans-Oblique-46" transform="translate(931.689 0.234375)"></use><use width="100%" height="100%" xlink:href="#DejaVuSans-Oblique-63" transform="matrix(0.7 0 0 0.7 989.208 -16.1719)"></use><use width="100%" height="100%" xlink:href="#DejaVuSans-2c" transform="translate(1030.43 0.234375)"></use><use width="100%" height="100%" xlink:href="#DejaVuSans-Oblique-3b8" transform="translate(1114.17 0.234375)"></use><use width="100%" height="100%" xlink:href="#DejaVuSans-3d" transform="translate(1227.3 0.234375)"></use><use width="100%" height="100%" xlink:href="#DejaVuSans-36" transform="translate(1330.57 0.234375)"></use><use width="100%" height="100%" xlink:href="#DejaVuSans-30" transform="translate(1394.2 0.234375)"></use><use width="100%" height="100%" xlink:href="#DejaVuSans-2e" transform="translate(1457.82 0.234375)"></use><use width="100%" height="100%" xlink:href="#DejaVuSans-30" transform="translate(1489.61 0.234375)"></use><use width="100%" height="100%" xlink:href="#DejaVuSans-b0" transform="translate(1553.23 0.234375)"></use></g></g><g id="PathCollection_7"><path d="M256.676 88.547 259.676 82.547 253.676 82.547 256.676 88.547Z" stroke="#1F77B4" stroke-opacity="0.7" fill="none"/></g><g id="text_17"><g transform="matrix(0.1 0 0 -0.1 274.676 88.172)"><use width="100%" height="100%" xlink:href="#DejaVuSans-Oblique-41" transform="matrix(1 0 0 1 0 0.234375)"></use><use width="100%" height="100%" xlink:href="#DejaVuSans-Oblique-6e" transform="translate(68.4082 0.234375)"></use><use width="100%" height="100%" xlink:href="#DejaVuSans-Oblique-69" transform="translate(131.787 0.234375)"></use><use width="100%" height="100%" xlink:href="#DejaVuSans-Oblique-73" transform="translate(159.57 0.234375)"></use><use width="100%" height="100%" xlink:href="#DejaVuSans-Oblique-6f" transform="translate(211.67 0.234375)"></use><use width="100%" height="100%" xlink:href="#DejaVuSans-Oblique-74" transform="translate(272.852 0.234375)"></use><use width="100%" height="100%" xlink:href="#DejaVuSans-Oblique-72" transform="translate(312.061 0.234375)"></use><use width="100%" height="100%" xlink:href="#DejaVuSans-Oblique-6f" transform="translate(353.174 0.234375)"></use><use width="100%" height="100%" xlink:href="#DejaVuSans-Oblique-70" transform="translate(414.355 0.234375)"></use><use width="100%" height="100%" xlink:href="#DejaVuSans-Oblique-69" transform="translate(477.832 0.234375)"></use><use width="100%" height="100%" xlink:href="#DejaVuSans-Oblique-63" transform="translate(505.615 0.234375)"></use><use width="100%" height="100%" xlink:href="#DejaVuSans-Oblique-46" transform="translate(593.066 0.234375)"></use><use width="100%" height="100%" xlink:href="#DejaVuSans-Oblique-61" transform="translate(650.586 0.234375)"></use><use width="100%" height="100%" xlink:href="#DejaVuSans-Oblique-62" transform="translate(711.865 0.234375)"></use><use width="100%" height="100%" xlink:href="#DejaVuSans-Oblique-72" transform="translate(775.341 0.234375)"></use><use width="100%" height="100%" xlink:href="#DejaVuSans-Oblique-69" transform="translate(816.455 0.234375)"></use><use width="100%" height="100%" xlink:href="#DejaVuSans-Oblique-63" transform="translate(844.238 0.234375)"></use><use width="100%" height="100%" xlink:href="#DejaVuSans-Oblique-46" transform="translate(931.689 0.234375)"></use><use width="100%" height="100%" xlink:href="#DejaVuSans-Oblique-63" transform="matrix(0.7 0 0 0.7 989.208 -16.1719)"></use><use width="100%" height="100%" xlink:href="#DejaVuSans-2c" transform="translate(1030.43 0.234375)"></use><use width="100%" height="100%" xlink:href="#DejaVuSans-Oblique-3b8" transform="translate(1114.17 0.234375)"></use><use width="100%" height="100%" xlink:href="#DejaVuSans-3d" transform="translate(1227.3 0.234375)"></use><use width="100%" height="100%" xlink:href="#DejaVuSans-37" transform="translate(1330.57 0.234375)"></use><use width="100%" height="100%" xlink:href="#DejaVuSans-35" transform="translate(1394.2 0.234375)"></use><use width="100%" height="100%" xlink:href="#DejaVuSans-2e" transform="translate(1457.82 0.234375)"></use><use width="100%" height="100%" xlink:href="#DejaVuSans-30" transform="translate(1489.61 0.234375)"></use><use width="100%" height="100%" xlink:href="#DejaVuSans-b0" transform="translate(1553.23 0.234375)"></use></g></g><g id="PathCollection_8"><path d="M253.676 103.347 259.676 103.347 259.676 97.347 253.676 97.347 253.676 103.347Z" stroke="#FF7F0E" stroke-opacity="0.7" fill="none"/></g><g id="text_18"><g transform="matrix(0.1 0 0 -0.1 274.676 102.972)"><use width="100%" height="100%" xlink:href="#DejaVuSans-Oblique-41" transform="matrix(1 0 0 1 0 0.234375)"></use><use width="100%" height="100%" xlink:href="#DejaVuSans-Oblique-6e" transform="translate(68.4082 0.234375)"></use><use width="100%" height="100%" xlink:href="#DejaVuSans-Oblique-69" transform="translate(131.787 0.234375)"></use><use width="100%" height="100%" xlink:href="#DejaVuSans-Oblique-73" transform="translate(159.57 0.234375)"></use><use width="100%" height="100%" xlink:href="#DejaVuSans-Oblique-6f" transform="translate(211.67 0.234375)"></use><use width="100%" height="100%" xlink:href="#DejaVuSans-Oblique-74" transform="translate(272.852 0.234375)"></use><use width="100%" height="100%" xlink:href="#DejaVuSans-Oblique-72" transform="translate(312.061 0.234375)"></use><use width="100%" height="100%" xlink:href="#DejaVuSans-Oblique-6f" transform="translate(353.174 0.234375)"></use><use width="100%" height="100%" xlink:href="#DejaVuSans-Oblique-70" transform="translate(414.355 0.234375)"></use><use width="100%" height="100%" xlink:href="#DejaVuSans-Oblique-69" transform="translate(477.832 0.234375)"></use><use width="100%" height="100%" xlink:href="#DejaVuSans-Oblique-63" transform="translate(505.615 0.234375)"></use><use width="100%" height="100%" xlink:href="#DejaVuSans-Oblique-46" transform="translate(593.066 0.234375)"></use><use width="100%" height="100%" xlink:href="#DejaVuSans-Oblique-61" transform="translate(650.586 0.234375)"></use><use width="100%" height="100%" xlink:href="#DejaVuSans-Oblique-62" transform="translate(711.865 0.234375)"></use><use width="100%" height="100%" xlink:href="#DejaVuSans-Oblique-72" transform="translate(775.341 0.234375)"></use><use width="100%" height="100%" xlink:href="#DejaVuSans-Oblique-69" transform="translate(816.455 0.234375)"></use><use width="100%" height="100%" xlink:href="#DejaVuSans-Oblique-63" transform="translate(844.238 0.234375)"></use><use width="100%" height="100%" xlink:href="#DejaVuSans-Oblique-46" transform="translate(931.689 0.234375)"></use><use width="100%" height="100%" xlink:href="#DejaVuSans-Oblique-63" transform="matrix(0.7 0 0 0.7 989.208 -16.1719)"></use><use width="100%" height="100%" xlink:href="#DejaVuSans-2c" transform="translate(1030.43 0.234375)"></use><use width="100%" height="100%" xlink:href="#DejaVuSans-Oblique-3b8" transform="translate(1114.17 0.234375)"></use><use width="100%" height="100%" xlink:href="#DejaVuSans-3d" transform="translate(1227.3 0.234375)"></use><use width="100%" height="100%" xlink:href="#DejaVuSans-39" transform="translate(1330.57 0.234375)"></use><use width="100%" height="100%" xlink:href="#DejaVuSans-30" transform="translate(1394.2 0.234375)"></use><use width="100%" height="100%" xlink:href="#DejaVuSans-2e" transform="translate(1457.82 0.234375)"></use><use width="100%" height="100%" xlink:href="#DejaVuSans-30" transform="translate(1489.61 0.234375)"></use><use width="100%" height="100%" xlink:href="#DejaVuSans-b0" transform="translate(1553.23 0.234375)"></use></g></g><g id="PathCollection_9"><path d="M256.676 112.147 253.676 118.147 259.676 118.147 256.676 112.147Z" stroke="#2CA02C" stroke-opacity="0.7" fill="none"/></g><g id="text_19"><g transform="matrix(0.1 0 0 -0.1 274.676 117.772)"><use width="100%" height="100%" xlink:href="#DejaVuSans-Oblique-41" transform="matrix(1 0 0 1 0 0.234375)"></use><use width="100%" height="100%" xlink:href="#DejaVuSans-Oblique-6e" transform="translate(68.4082 0.234375)"></use><use width="100%" height="100%" xlink:href="#DejaVuSans-Oblique-69" transform="translate(131.787 0.234375)"></use><use width="100%" height="100%" xlink:href="#DejaVuSans-Oblique-73" transform="translate(159.57 0.234375)"></use><use width="100%" height="100%" xlink:href="#DejaVuSans-Oblique-6f" transform="translate(211.67 0.234375)"></use><use width="100%" height="100%" xlink:href="#DejaVuSans-Oblique-74" transform="translate(272.852 0.234375)"></use><use width="100%" height="100%" xlink:href="#DejaVuSans-Oblique-72" transform="translate(312.061 0.234375)"></use><use width="100%" height="100%" xlink:href="#DejaVuSans-Oblique-6f" transform="translate(353.174 0.234375)"></use><use width="100%" height="100%" xlink:href="#DejaVuSans-Oblique-70" transform="translate(414.355 0.234375)"></use><use width="100%" height="100%" xlink:href="#DejaVuSans-Oblique-69" transform="translate(477.832 0.234375)"></use><use width="100%" height="100%" xlink:href="#DejaVuSans-Oblique-63" transform="translate(505.615 0.234375)"></use><use width="100%" height="100%" xlink:href="#DejaVuSans-Oblique-46" transform="translate(593.066 0.234375)"></use><use width="100%" height="100%" xlink:href="#DejaVuSans-Oblique-61" transform="translate(650.586 0.234375)"></use><use width="100%" height="100%" xlink:href="#DejaVuSans-Oblique-62" transform="translate(711.865 0.234375)"></use><use width="100%" height="100%" xlink:href="#DejaVuSans-Oblique-72" transform="translate(775.341 0.234375)"></use><use width="100%" height="100%" xlink:href="#DejaVuSans-Oblique-69" transform="translate(816.455 0.234375)"></use><use width="100%" height="100%" xlink:href="#DejaVuSans-Oblique-63" transform="translate(844.238 0.234375)"></use><use width="100%" height="100%" xlink:href="#DejaVuSans-Oblique-46" transform="translate(931.689 0.234375)"></use><use width="100%" height="100%" xlink:href="#DejaVuSans-Oblique-63" transform="matrix(0.7 0 0 0.7 989.208 -16.1719)"></use><use width="100%" height="100%" xlink:href="#DejaVuSans-2c" transform="translate(1030.43 0.234375)"></use><use width="100%" height="100%" xlink:href="#DejaVuSans-Oblique-3b8" transform="translate(1114.17 0.234375)"></use><use width="100%" height="100%" xlink:href="#DejaVuSans-3d" transform="translate(1227.3 0.234375)"></use><use width="100%" height="100%" xlink:href="#DejaVuSans-31" transform="translate(1330.57 0.234375)"></use><use width="100%" height="100%" xlink:href="#DejaVuSans-30" transform="translate(1394.2 0.234375)"></use><use width="100%" height="100%" xlink:href="#DejaVuSans-35" transform="translate(1457.82 0.234375)"></use><use width="100%" height="100%" xlink:href="#DejaVuSans-2e" transform="translate(1521.44 0.234375)"></use><use width="100%" height="100%" xlink:href="#DejaVuSans-30" transform="translate(1553.23 0.234375)"></use><use width="100%" height="100%" xlink:href="#DejaVuSans-b0" transform="translate(1616.85 0.234375)"></use></g></g><g id="PathCollection_10"><path d="M256.676 134.19 260.919 129.947 256.676 125.704 252.433 129.947 256.676 134.19Z" stroke="#9467BD" stroke-opacity="0.7" fill="none"/></g><g id="text_20"><g transform="matrix(0.1 0 0 -0.1 274.676 132.572)"><use width="100%" height="100%" xlink:href="#DejaVuSans-Oblique-41" transform="matrix(1 0 0 1 0 0.234375)"></use><use width="100%" height="100%" xlink:href="#DejaVuSans-Oblique-6e" transform="translate(68.4082 0.234375)"></use><use width="100%" height="100%" xlink:href="#DejaVuSans-Oblique-69" transform="translate(131.787 0.234375)"></use><use width="100%" height="100%" xlink:href="#DejaVuSans-Oblique-73" transform="translate(159.57 0.234375)"></use><use width="100%" height="100%" xlink:href="#DejaVuSans-Oblique-6f" transform="translate(211.67 0.234375)"></use><use width="100%" height="100%" xlink:href="#DejaVuSans-Oblique-74" transform="translate(272.852 0.234375)"></use><use width="100%" height="100%" xlink:href="#DejaVuSans-Oblique-72" transform="translate(312.061 0.234375)"></use><use width="100%" height="100%" xlink:href="#DejaVuSans-Oblique-6f" transform="translate(353.174 0.234375)"></use><use width="100%" height="100%" xlink:href="#DejaVuSans-Oblique-70" transform="translate(414.355 0.234375)"></use><use width="100%" height="100%" xlink:href="#DejaVuSans-Oblique-69" transform="translate(477.832 0.234375)"></use><use width="100%" height="100%" xlink:href="#DejaVuSans-Oblique-63" transform="translate(505.615 0.234375)"></use><use width="100%" height="100%" xlink:href="#DejaVuSans-Oblique-46" transform="translate(593.066 0.234375)"></use><use width="100%" height="100%" xlink:href="#DejaVuSans-Oblique-61" transform="translate(650.586 0.234375)"></use><use width="100%" height="100%" xlink:href="#DejaVuSans-Oblique-62" transform="translate(711.865 0.234375)"></use><use width="100%" height="100%" xlink:href="#DejaVuSans-Oblique-72" transform="translate(775.341 0.234375)"></use><use width="100%" height="100%" xlink:href="#DejaVuSans-Oblique-69" transform="translate(816.455 0.234375)"></use><use width="100%" height="100%" xlink:href="#DejaVuSans-Oblique-63" transform="translate(844.238 0.234375)"></use><use width="100%" height="100%" xlink:href="#DejaVuSans-Oblique-46" transform="translate(931.689 0.234375)"></use><use width="100%" height="100%" xlink:href="#DejaVuSans-Oblique-63" transform="matrix(0.7 0 0 0.7 989.208 -16.1719)"></use><use width="100%" height="100%" xlink:href="#DejaVuSans-2c" transform="translate(1030.43 0.234375)"></use><use width="100%" height="100%" xlink:href="#DejaVuSans-Oblique-3b8" transform="translate(1114.17 0.234375)"></use><use width="100%" height="100%" xlink:href="#DejaVuSans-3d" transform="translate(1227.3 0.234375)"></use><use width="100%" height="100%" xlink:href="#DejaVuSans-31" transform="translate(1330.57 0.234375)"></use><use width="100%" height="100%" xlink:href="#DejaVuSans-32" transform="translate(1394.2 0.234375)"></use><use width="100%" height="100%" xlink:href="#DejaVuSans-30" transform="translate(1457.82 0.234375)"></use><use width="100%" height="100%" xlink:href="#DejaVuSans-2e" transform="translate(1521.44 0.234375)"></use><use width="100%" height="100%" xlink:href="#DejaVuSans-30" transform="translate(1553.23 0.234375)"></use><use width="100%" height="100%" xlink:href="#DejaVuSans-b0" transform="translate(1616.85 0.234375)"></use></g></g></g></g></g></svg>