<svg width="768" height="528" viewBox="0 0 576 396" xmlns="http://www.w3.org/2000/svg" xmlns:xlink="http://www.w3.org/1999/xlink" stroke-linejoin="round" overflow="hidden"><defs></defs><defs><clipPath id="p3ae76a85eb"><rect x="72" y="47.52" width="446.4" height="304.92"/></clipPath></defs><g id="figure_1"><g id="patch_1"><path d="M0 396 576 396 576 0 0 0Z" fill="#FFFFFF"/></g><g id="axes_1"><g id="patch_2"><path d="M72 352.44 518.4 352.44 518.4 47.52 72 47.52Z" fill="#FFFFFF"/></g><g id="matplotlib.axis_1"><g id="xtick_1"><g id="line2d_1"><path d="M72 352.44 72 47.52" stroke="#808080" stroke-width="0.5" stroke-linecap="square" fill="none" clip-path="url(#p3ae76a85eb)"/></g><g id="line2d_2"><defs><path d="M0 0 0 3.5" id="m475563ab06" stroke="#000000" stroke-width="0.8"/></defs><g><use x="72" y="352.44" width="100%" height="100%" xlink:href="#m475563ab06" stroke="#000000" stroke-width="0.8"></use></g></g><g id="text_1"><g transform="matrix(0.13 0 0 -0.13 60.56 369.318)"><defs><path d="M794 531 1825 531 1825 4091 703 3866 703 4441 1819 4666 2450 4666 2450 531 3481 531 3481 0 794 0 794 531Z" id="DejaVuSans-31" transform="scale(0.015625 0.015625)"/><path d="M2034 4250C1709.33 4250 1465 4090 1301 3770 1137.67 3450.67 1056 2970 1056 2328 1056 1688.67 1137.67 1209 1301 889 1465 569 1709.33 409 2034 409 2361.33 409 2606.67 569 2770 889 2934 1209 3016 1688.67 3016 2328 3016 2970 2934 3450.67 2770 3770 2606.67 4090 2361.33 4250 2034 4250ZM2034 4750C2557.33 4750 2957 4543 3233 4129 3509 3715.67 3647 3115.33 3647 2328 3647 1542.67 3509 943 3233 529 2957 115.667 2557.33-91 2034-91 1511.33-91 1112 115.667 836 529 560 943 422 1542.67 422 2328 422 3115.33 560 3715.67 836 4129 1112 4543 1511.33 4750 2034 4750Z" id="DejaVuSans-30" transform="scale(0.015625 0.015625)"/></defs><use width="100%" height="100%" xlink:href="#DejaVuSans-31" transform="matrix(1 0 0 1 0 0.684375)"></use><use width="100%" height="100%" xlink:href="#DejaVuSans-30" transform="translate(63.623 0.684375)"></use><use width="100%" height="100%" xlink:href="#DejaVuSans-31" transform="matrix(0.7 0 0 0.7 128.203 38.9656)"></use></g></g></g><g id="xtick_2"><g id="line2d_3"><path d="M183.6 352.44 183.6 47.52" stroke="#808080" stroke-width="0.5" stroke-linecap="square" fill="none" clip-path="url(#p3ae76a85eb)"/></g><g id="line2d_4"><g><use x="183.6" y="352.44" width="100%" height="100%" xlink:href="#m475563ab06" stroke="#000000" stroke-width="0.8"></use></g></g><g id="text_2"><g transform="matrix(0.13 0 0 -0.13 172.16 369.318)"><defs><path d="M1228 531 3431 531 3431 0 469 0 469 531C708.333 779 1034.67 1111.67 1448 1529 1862 1947 2122 2216.67 2228 2338 2430 2564.67 2571 2756.67 2651 2914 2731.67 3071.33 2772 3226 2772 3378 2772 3626 2685 3828 2511 3984 2337 4140.67 2110.33 4219 1831 4219 1633 4219 1424 4184.67 1204 4116 984.667 4047.33 750 3943 500 3803L500 4441C754 4543 991.333 4620 1212 4672 1433.33 4724 1635.67 4750 1819 4750 2302.33 4750 2687.67 4629 2975 4387 3262.33 4145.67 3406 3823 3406 3419 3406 3227 3370 3045 3298 2873 3226.67 2701.67 3096 2499.33 2906 2266 2854 2205.33 2688.33 2030.67 2409 1742 2130.33 1453.33 1736.67 1049.67 1228 531Z" id="DejaVuSans-32" transform="scale(0.015625 0.015625)"/></defs><use width="100%" height="100%" xlink:href="#DejaVuSans-31" transform="matrix(1 0 0 1 0 0.765625)"></use><use width="100%" height="100%" xlink:href="#DejaVuSans-30" transform="translate(63.623 0.765625)"></use><use width="100%" height="100%" xlink:href="#DejaVuSans-32" transform="matrix(0.7 0 0 0.7 128.203 39.0469)"></use></g></g></g><g id="xtick_3"><g id="line2d_5"><path d="M295.2 352.44 295.2 47.52" stroke="#808080" stroke-width="0.5" stroke-linecap="square" fill="none" clip-path="url(#p3ae76a85eb)"/></g><g id="line2d_6"><g><use x="295.2" y="352.44" width="100%" height="100%" xlink:href="#m475563ab06" stroke="#000000" stroke-width="0.8"></use></g></g><g id="text_3"><g transform="matrix(0.13 0 0 -0.13 283.76 369.318)"><defs><path d="M2597 2516C2899 2451.33 3134.67 2316.67 3304 2112 3474 1908 3559 1656 3559 1356 3559 896 3400.67 539.667 3084 287 2767.33 35 2317.33-91 1734-91 1538.67-91 1337.33-71.6667 1130-33 922.667 5.66667 708.667 63.6667 488 141L488 750C662.667 648 854 571 1062 519 1270.67 467 1488.67 441 1716 441 2111.33 441 2412.67 519 2620 675 2827.33 831 2931 1058 2931 1356 2931 1631.33 2834.67 1846.33 2642 2001 2449.33 2156.33 2181.33 2234 1838 2234L1294 2234 1294 2753 1863 2753C2173 2753 2410.33 2815 2575 2939 2739.67 3063 2822 3241.67 2822 3475 2822 3714.33 2737 3898 2567 4026 2397.67 4154.67 2154.67 4219 1838 4219 1664.67 4219 1479 4200 1281 4162 1083 4124.67 865.333 4066.67 628 3988L628 4550C868 4616.67 1092.67 4666.67 1302 4700 1511.33 4733.33 1708.67 4750 1894 4750 2373.33 4750 2752.33 4641 3031 4423 3310.33 4205.67 3450 3911.67 3450 3541 3450 3282.33 3376 3064 3228 2886 3080 2708 2869.67 2584.67 2597 2516Z" id="DejaVuSans-33" transform="scale(0.015625 0.015625)"/></defs><use width="100%" height="100%" xlink:href="#DejaVuSans-31" transform="matrix(1 0 0 1 0 0.765625)"></use><use width="100%" height="100%" xlink:href="#DejaVuSans-30" transform="translate(63.623 0.765625)"></use><use width="100%" height="100%" xlink:href="#DejaVuSans-33" transform="matrix(0.7 0 0 0.7 128.203 39.0469)"></use></g></g></g><g id="xtick_4"><g id="line2d_7"><path d="M406.8 352.44 406.8 47.52" stroke="#808080" stroke-width="0.5" stroke-linecap="square" fill="none" clip-path="url(#p3ae76a85eb)"/></g><g id="line2d_8"><g><use x="406.8" y="352.44" width="100%" height="100%" xlink:href="#m475563ab06" stroke="#000000" stroke-width="0.8"></use></g></g><g id="text_4"><g transform="matrix(0.13 0 0 -0.13 395.36 369.318)"><defs><path d="M2419 4116 825 1625 2419 1625 2419 4116ZM2253 4666 3047 4666 3047 1625 3713 1625 3713 1100 3047 1100 3047 0 2419 0 2419 1100 313 1100 313 1709 2253 4666Z" id="DejaVuSans-34" transform="scale(0.015625 0.015625)"/></defs><use width="100%" height="100%" xlink:href="#DejaVuSans-31" transform="matrix(1 0 0 1 0 0.684375)"></use><use width="100%" height="100%" xlink:href="#DejaVuSans-30" transform="translate(63.623 0.684375)"></use><use width="100%" height="100%" xlink:href="#DejaVuSans-34" transform="matrix(0.7 0 0 0.7 128.203 38.9656)"></use></g></g></g><g id="xtick_5"><g id="line2d_9"><path d="M518.4 352.44 518.4 47.52" stroke="#808080" stroke-width="0.5" stroke-linecap="square" fill="none" clip-path="url(#p3ae76a85eb)"/></g><g id="line2d_10"><g><use x="518.4" y="352.44" width="100%" height="100%" xlink:href="#m475563ab06" stroke="#000000" stroke-width="0.8"></use></g></g><g id="text_5"><g transform="matrix(0.13 0 0 -0.13 506.96 369.318)"><defs><path d="M691 4666 3169 4666 3169 4134 1269 4134 1269 2991C1360.33 3022.33 1451.67 3045.67 1543 3061 1635 3076.33 1727 3084 1819 3084 2339.67 3084 2752 2941.33 3056 2656 3360.67 2370.67 3513 1984.33 3513 1497 3513 995 3356.67 604.667 3044 326 2731.33 48 2290.67-91 1722-91 1526-91 1326.33-74.3333 1123-41 920.333-7.66667 710.667 42.3333 494 109L494 744C681.333 642 875 566 1075 516 1275 466 1486.33 441 1709 441 2069.67 441 2355 535.667 2565 725 2775.67 914.333 2881 1171.67 2881 1497 2881 1821.67 2775.67 2078.67 2565 2268 2355 2458 2069.67 2553 1709 2553 1540.33 2553 1372 2534.33 1204 2497 1036.67 2459.67 865.667 2401.33 691 2322L691 4666Z" id="DejaVuSans-35" transform="scale(0.015625 0.015625)"/></defs><use width="100%" height="100%" xlink:href="#DejaVuSans-31" transform="matrix(1 0 0 1 0 0.684375)"></use><use width="100%" height="100%" xlink:href="#DejaVuSans-30" transform="translate(63.623 0.684375)"></use><use width="100%" height="100%" xlink:href="#DejaVuSans-35" transform="matrix(0.7 0 0 0.7 128.203 38.9656)"></use></g></g></g><g id="xtick_6"><g id="line2d_11"><path d="M105.595 352.44 105.595 47.52" stroke="#808080" stroke-width="0.5" stroke-dasharray="1.85 0.8" fill="none" clip-path="url(#p3ae76a85eb)"/></g><g id="line2d_12"><defs><path d="M0 0 0 2" id="m3814d84b56" stroke="#000000" stroke-width="0.6"/></defs><g><use x="105.595" y="352.44" width="100%" height="100%" xlink:href="#m3814d84b56" stroke="#000000" stroke-width="0.6"></use></g></g></g><g id="xtick_7"><g id="line2d_13"><path d="M125.247 352.44 125.247 47.52" stroke="#808080" stroke-width="0.5" stroke-dasharray="1.85 0.8" fill="none" clip-path="url(#p3ae76a85eb)"/></g><g id="line2d_14"><g><use x="125.247" y="352.44" width="100%" height="100%" xlink:href="#m3814d84b56" stroke="#000000" stroke-width="0.6"></use></g></g></g><g id="xtick_8"><g id="line2d_15"><path d="M139.19 352.44 139.19 47.52" stroke="#808080" stroke-width="0.5" stroke-dasharray="1.85 0.8" fill="none" clip-path="url(#p3ae76a85eb)"/></g><g id="line2d_16"><g><use x="139.19" y="352.44" width="100%" height="100%" xlink:href="#m3814d84b56" stroke="#000000" stroke-width="0.6"></use></g></g></g><g id="xtick_9"><g id="line2d_17"><path d="M150.005 352.44 150.005 47.52" stroke="#808080" stroke-width="0.5" stroke-dasharray="1.85 0.8" fill="none" clip-path="url(#p3ae76a85eb)"/></g><g id="line2d_18"><g><use x="150.005" y="352.44" width="100%" height="100%" xlink:href="#m3814d84b56" stroke="#000000" stroke-width="0.6"></use></g></g></g><g id="xtick_10"><g id="line2d_19"><path d="M158.842 352.44 158.842 47.52" stroke="#808080" stroke-width="0.5" stroke-dasharray="1.85 0.8" fill="none" clip-path="url(#p3ae76a85eb)"/></g><g id="line2d_20"><g><use x="158.842" y="352.44" width="100%" height="100%" xlink:href="#m3814d84b56" stroke="#000000" stroke-width="0.6"></use></g></g></g><g id="xtick_11"><g id="line2d_21"><path d="M166.313 352.44 166.313 47.52" stroke="#808080" stroke-width="0.5" stroke-dasharray="1.85 0.8" fill="none" clip-path="url(#p3ae76a85eb)"/></g><g id="line2d_22"><g><use x="166.313" y="352.44" width="100%" height="100%" xlink:href="#m3814d84b56" stroke="#000000" stroke-width="0.6"></use></g></g></g><g id="xtick_12"><g id="line2d_23"><path d="M172.785 352.44 172.785 47.52" stroke="#808080" stroke-width="0.5" stroke-dasharray="1.85 0.8" fill="none" clip-path="url(#p3ae76a85eb)"/></g><g id="line2d_24"><g><use x="172.785" y="352.44" width="100%" height="100%" xlink:href="#m3814d84b56" stroke="#000000" stroke-width="0.6"></use></g></g></g><g id="xtick_13"><g id="line2d_25"><path d="M178.493 352.44 178.493 47.52" stroke="#808080" stroke-width="0.5" stroke-dasharray="1.85 0.8" fill="none" clip-path="url(#p3ae76a85eb)"/></g><g id="line2d_26"><g><use x="178.493" y="352.44" width="100%" height="100%" xlink:href="#m3814d84b56" stroke="#000000" stroke-width="0.6"></use></g></g></g><g id="xtick_14"><g id="line2d_27"><path d="M217.195 352.44 217.195 47.52" stroke="#808080" stroke-width="0.5" stroke-dasharray="1.85 0.8" fill="none" clip-path="url(#p3ae76a85eb)"/></g><g id="line2d_28"><g><use x="217.195" y="352.44" width="100%" height="100%" xlink:href="#m3814d84b56" stroke="#000000" stroke-width="0.6"></use></g></g></g><g id="xtick_15"><g id="line2d_29"><path d="M236.847 352.44 236.847 47.52" stroke="#808080" stroke-width="0.5" stroke-dasharray="1.85 0.8" fill="none" clip-path="url(#p3ae76a85eb)"/></g><g id="line2d_30"><g><use x="236.847" y="352.44" width="100%" height="100%" xlink:href="#m3814d84b56" stroke="#000000" stroke-width="0.6"></use></g></g></g><g id="xtick_16"><g id="line2d_31"><path d="M250.79 352.44 250.79 47.52" stroke="#808080" stroke-width="0.5" stroke-dasharray="1.85 0.8" fill="none" clip-path="url(#p3ae76a85eb)"/></g><g id="line2d_32"><g><use x="250.79" y="352.44" width="100%" height="100%" xlink:href="#m3814d84b56" stroke="#000000" stroke-width="0.6"></use></g></g></g><g id="xtick_17"><g id="line2d_33"><path d="M261.605 352.44 261.605 47.52" stroke="#808080" stroke-width="0.5" stroke-dasharray="1.85 0.8" fill="none" clip-path="url(#p3ae76a85eb)"/></g><g id="line2d_34"><g><use x="261.605" y="352.44" width="100%" height="100%" xlink:href="#m3814d84b56" stroke="#000000" stroke-width="0.6"></use></g></g></g><g id="xtick_18"><g id="line2d_35"><path d="M270.442 352.44 270.442 47.52" stroke="#808080" stroke-width="0.5" stroke-dasharray="1.85 0.8" fill="none" clip-path="url(#p3ae76a85eb)"/></g><g id="line2d_36"><g><use x="270.442" y="352.44" width="100%" height="100%" xlink:href="#m3814d84b56" stroke="#000000" stroke-width="0.6"></use></g></g></g><g id="xtick_19"><g id="line2d_37"><path d="M277.913 352.44 277.913 47.52" stroke="#808080" stroke-width="0.5" stroke-dasharray="1.85 0.8" fill="none" clip-path="url(#p3ae76a85eb)"/></g><g id="line2d_38"><g><use x="277.913" y="352.44" width="100%" height="100%" xlink:href="#m3814d84b56" stroke="#000000" stroke-width="0.6"></use></g></g></g><g id="xtick_20"><g id="line2d_39"><path d="M284.385 352.44 284.385 47.52" stroke="#808080" stroke-width="0.5" stroke-dasharray="1.85 0.8" fill="none" clip-path="url(#p3ae76a85eb)"/></g><g id="line2d_40"><g><use x="284.385" y="352.44" width="100%" height="100%" xlink:href="#m3814d84b56" stroke="#000000" stroke-width="0.6"></use></g></g></g><g id="xtick_21"><g id="line2d_41"><path d="M290.093 352.44 290.093 47.52" stroke="#808080" stroke-width="0.5" stroke-dasharray="1.85 0.8" fill="none" clip-path="url(#p3ae76a85eb)"/></g><g id="line2d_42"><g><use x="290.093" y="352.44" width="100%" height="100%" xlink:href="#m3814d84b56" stroke="#000000" stroke-width="0.6"></use></g></g></g><g id="xtick_22"><g id="line2d_43"><path d="M328.795 352.44 328.795 47.52" stroke="#808080" stroke-width="0.5" stroke-dasharray="1.85 0.8" fill="none" clip-path="url(#p3ae76a85eb)"/></g><g id="line2d_44"><g><use x="328.795" y="352.44" width="100%" height="100%" xlink:href="#m3814d84b56" stroke="#000000" stroke-width="0.6"></use></g></g></g><g id="xtick_23"><g id="line2d_45"><path d="M348.447 352.44 348.447 47.52" stroke="#808080" stroke-width="0.5" stroke-dasharray="1.85 0.8" fill="none" clip-path="url(#p3ae76a85eb)"/></g><g id="line2d_46"><g><use x="348.447" y="352.44" width="100%" height="100%" xlink:href="#m3814d84b56" stroke="#000000" stroke-width="0.6"></use></g></g></g><g id="xtick_24"><g id="line2d_47"><path d="M362.39 352.44 362.39 47.52" stroke="#808080" stroke-width="0.5" stroke-dasharray="1.85 0.8" fill="none" clip-path="url(#p3ae76a85eb)"/></g><g id="line2d_48"><g><use x="362.39" y="352.44" width="100%" height="100%" xlink:href="#m3814d84b56" stroke="#000000" stroke-width="0.6"></use></g></g></g><g id="xtick_25"><g id="line2d_49"><path d="M373.205 352.44 373.205 47.52" stroke="#808080" stroke-width="0.5" stroke-dasharray="1.85 0.8" fill="none" clip-path="url(#p3ae76a85eb)"/></g><g id="line2d_50"><g><use x="373.205" y="352.44" width="100%" height="100%" xlink:href="#m3814d84b56" stroke="#000000" stroke-width="0.6"></use></g></g></g><g id="xtick_26"><g id="line2d_51"><path d="M382.042 352.44 382.042 47.52" stroke="#808080" stroke-width="0.5" stroke-dasharray="1.85 0.8" fill="none" clip-path="url(#p3ae76a85eb)"/></g><g id="line2d_52"><g><use x="382.042" y="352.44" width="100%" height="100%" xlink:href="#m3814d84b56" stroke="#000000" stroke-width="0.6"></use></g></g></g><g id="xtick_27"><g id="line2d_53"><path d="M389.513 352.44 389.513 47.52" stroke="#808080" stroke-width="0.5" stroke-dasharray="1.85 0.8" fill="none" clip-path="url(#p3ae76a85eb)"/></g><g id="line2d_54"><g><use x="389.513" y="352.44" width="100%" height="100%" xlink:href="#m3814d84b56" stroke="#000000" stroke-width="0.6"></use></g></g></g><g id="xtick_28"><g id="line2d_55"><path d="M395.985 352.44 395.985 47.52" stroke="#808080" stroke-width="0.5" stroke-dasharray="1.85 0.8" fill="none" clip-path="url(#p3ae76a85eb)"/></g><g id="line2d_56"><g><use x="395.985" y="352.44" width="100%" height="100%" xlink:href="#m3814d84b56" stroke="#000000" stroke-width="0.6"></use></g></g></g><g id="xtick_29"><g id="line2d_57"><path d="M401.693 352.44 401.693 47.52" stroke="#808080" stroke-width="0.5" stroke-dasharray="1.85 0.8" fill="none" clip-path="url(#p3ae76a85eb)"/></g><g id="line2d_58"><g><use x="401.693" y="352.44" width="100%" height="100%" xlink:href="#m3814d84b56" stroke="#000000" stroke-width="0.6"></use></g></g></g><g id="xtick_30"><g id="line2d_59"><path d="M440.395 352.44 440.395 47.52" stroke="#808080" stroke-width="0.5" stroke-dasharray="1.85 0.8" fill="none" clip-path="url(#p3ae76a85eb)"/></g><g id="line2d_60"><g><use x="440.395" y="352.44" width="100%" height="100%" xlink:href="#m3814d84b56" stroke="#000000" stroke-width="0.6"></use></g></g></g><g id="xtick_31"><g id="line2d_61"><path d="M460.047 352.44 460.047 47.52" stroke="#808080" stroke-width="0.5" stroke-dasharray="1.85 0.8" fill="none" clip-path="url(#p3ae76a85eb)"/></g><g id="line2d_62"><g><use x="460.047" y="352.44" width="100%" height="100%" xlink:href="#m3814d84b56" stroke="#000000" stroke-width="0.6"></use></g></g></g><g id="xtick_32"><g id="line2d_63"><path d="M473.99 352.44 473.99 47.52" stroke="#808080" stroke-width="0.5" stroke-dasharray="1.85 0.8" fill="none" clip-path="url(#p3ae76a85eb)"/></g><g id="line2d_64"><g><use x="473.99" y="352.44" width="100%" height="100%" xlink:href="#m3814d84b56" stroke="#000000" stroke-width="0.6"></use></g></g></g><g id="xtick_33"><g id="line2d_65"><path d="M484.805 352.44 484.805 47.52" stroke="#808080" stroke-width="0.5" stroke-dasharray="1.85 0.8" fill="none" clip-path="url(#p3ae76a85eb)"/></g><g id="line2d_66"><g><use x="484.805" y="352.44" width="100%" height="100%" xlink:href="#m3814d84b56" stroke="#000000" stroke-width="0.6"></use></g></g></g><g id="xtick_34"><g id="line2d_67"><path d="M493.642 352.44 493.642 47.52" stroke="#808080" stroke-width="0.5" stroke-dasharray="1.85 0.8" fill="none" clip-path="url(#p3ae76a85eb)"/></g><g id="line2d_68"><g><use x="493.642" y="352.44" width="100%" height="100%" xlink:href="#m3814d84b56" stroke="#000000" stroke-width="0.6"></use></g></g></g><g id="xtick_35"><g id="line2d_69"><path d="M501.113 352.44 501.113 47.52" stroke="#808080" stroke-width="0.5" stroke-dasharray="1.85 0.8" fill="none" clip-path="url(#p3ae76a85eb)"/></g><g id="line2d_70"><g><use x="501.113" y="352.44" width="100%" height="100%" xlink:href="#m3814d84b56" stroke="#000000" stroke-width="0.6"></use></g></g></g><g id="xtick_36"><g id="line2d_71"><path d="M507.585 352.44 507.585 47.52" stroke="#808080" stroke-width="0.5" stroke-dasharray="1.85 0.8" fill="none" clip-path="url(#p3ae76a85eb)"/></g><g id="line2d_72"><g><use x="507.585" y="352.44" width="100%" height="100%" xlink:href="#m3814d84b56" stroke="#000000" stroke-width="0.6"></use></g></g></g><g id="xtick_37"><g id="line2d_73"><path d="M513.293 352.44 513.293 47.52" stroke="#808080" stroke-width="0.5" stroke-dasharray="1.85 0.8" fill="none" clip-path="url(#p3ae76a85eb)"/></g><g id="line2d_74"><g><use x="513.293" y="352.44" width="100%" height="100%" xlink:href="#m3814d84b56" stroke="#000000" stroke-width="0.6"></use></g></g></g><g id="text_6"><g transform="matrix(0.14 0 0 -0.14 272.73 386.662)"><defs><path d="M3175 2156C3175 2462.67 3108.33 2697 2975 2859 2841.67 3021.67 2650 3103 2400 3103 2229.33 3103 2066.33 3059.33 1911 2972 1755.67 2884.67 1617.67 2757.67 1497 2591 1378.33 2426.33 1283.33 2227.33 1212 1994 1141.33 1760.67 1106 1529.33 1106 1300 1106 1008.67 1172.67 784.333 1306 627 1439.33 469.667 1629 391 1875 391 2056.33 391 2224.67 433.667 2380 519 2535.33 604.333 2668 728.333 2778 891 2896.67 1061.67 2992.33 1262.67 3065 1494 3138.33 1725.33 3175 1946 3175 2156ZM1394 2969C1548 3171 1729.67 3324 1939 3428 2148.33 3532 2381.33 3584 2638 3584 2996 3584 3274 3466.67 3472 3232 3670 2998 3769 2669.67 3769 2247 3769 1901 3707.33 1571.33 3584 1258 3461.33 944.667 3284.33 664 3053 416 2899 251.333 2725 125.667 2531 39 2337.67-47.6667 2133.67-91 1919-91 1671-91 1462.67-39.3333 1294 64 1125.33 167.333 999.333 321 916 525L556-1331-19-1331 922 3500 1497 3500 1394 2969Z" id="DejaVuSans-Oblique-70" transform="scale(0.015625 0.015625)"/><path d="M1984 4856C1705.33 4377.33 1498 3903.33 1362 3434 1226.67 2965.33 1159 2490.33 1159 2009 1159 1528.33 1227.33 1052 1364 580 1500.67 108 1707.33-366.667 1984-844L1484-844C1172-354 938.333 127.333 783 600 627.667 1072.67 550 1542.33 550 2009 550 2473.67 627 2941.33 781 3412 935.667 3883.33 1170 4364.67 1484 4856L1984 4856Z" id="DejaVuSans-28" transform="scale(0.015625 0.015625)"/><path d="M1172 4863 1747 4863 1197 2028 3169 3500 3916 3500 1716 1825 3322 0 2625 0 1131 1709 800 0 225 0 1172 4863Z" id="DejaVuSans-Oblique-6b" transform="scale(0.015625 0.015625)"/><path d="M1081 4666 2541 4666C2965.67 4666 3289.33 4567 3512 4369 3735.33 4171 3847 3881.33 3847 3500 3847 2987.33 3682.33 2588.33 3353 2303 3023.67 2017.67 2561.33 1875 1966 1875L1172 1875 806 0 172 0 1081 4666ZM1613 4147 1275 2394 2069 2394C2427 2394 2701.67 2485.67 2893 2669 3085 2852.33 3181 3114.67 3181 3456 3181 3674.67 3116 3844.33 2986 3965 2856 4086.33 2673.33 4147 2438 4147L1613 4147Z" id="DejaVuSans-Oblique-50" transform="scale(0.015625 0.015625)"/><path d="M3438 1997 3047 0 2472 0 2578 531C2409.33 323 2217 167.333 2001 64 1785.67-39.3333 1545.67-91 1281-91 983-91 738.667 0 548 182 358 364.667 263 598.667 263 884 263 1292.67 426 1615.67 752 1853 1078 2090.33 1527.33 2209 2100 2209L2900 2209 2931 2363C2935.67 2379.67 2939 2397.67 2941 2417 2943 2437 2944 2467.67 2944 2509 2944 2695 2868.33 2839.33 2717 2942 2566.33 3045.33 2354.33 3097 2081 3097 1893.67 3097 1701.33 3073 1504 3025 1307.33 2977 1105 2905 897 2809L997 3341C1213.67 3422.33 1425.67 3483 1633 3523 1840.33 3563.67 2040.67 3584 2234 3584 2646.67 3584 2960.67 3494.33 3176 3315 3392 3136.33 3500 2876 3500 2534 3500 2465.33 3494.67 2384.67 3484 2292 3474 2199.33 3458.67 2101 3438 1997ZM2816 1759 2241 1759C1769.67 1759 1421 1696 1195 1570 969 1444 856 1248.67 856 984 856 800.667 913.667 657 1029 553 1145 449 1305 397 1509 397 1821.67 397 2094.67 509 2328 733 2561.33 957 2715.67 1256.33 2791 1631L2816 1759Z" id="DejaVuSans-Oblique-61" transform="scale(0.015625 0.015625)"/><path d="M513 4856 1013 4856C1325 4364.67 1558.67 3883.33 1714 3412 1869.33 2941.33 1947 2473.67 1947 2009 1947 1542.33 1869.33 1072.67 1714 600 1558.67 127.333 1325-354 1013-844L513-844C789.667-366.667 996.333 108 1133 580 1269.67 1052 1338 1528.33 1338 2009 1338 2490.33 1269.67 2965.33 1133 3434 996.333 3903.33 789.667 4377.33 513 4856Z" id="DejaVuSans-29" transform="scale(0.015625 0.015625)"/></defs><use width="100%" height="100%" xlink:href="#DejaVuSans-Oblique-70" transform="matrix(1 0 0 1 0 0.015625)"></use><use width="100%" height="100%" xlink:href="#DejaVuSans-28" transform="translate(63.4766 0.015625)"></use><use width="100%" height="100%" xlink:href="#DejaVuSans-Oblique-6b" transform="translate(102.49 0.015625)"></use><use width="100%" height="100%" xlink:href="#DejaVuSans-Oblique-50" transform="translate(160.4 0.015625)"></use><use width="100%" height="100%" xlink:href="#DejaVuSans-Oblique-61" transform="translate(220.703 0.015625)"></use><use width="100%" height="100%" xlink:href="#DejaVuSans-29" transform="translate(281.982 0.015625)"></use></g></g></g><g id="matplotlib.axis_2"><g id="ytick_1"><g id="line2d_75"><path d="M72 352.44 518.4 352.44" stroke="#808080" stroke-width="0.5" stroke-linecap="square" fill="none" clip-path="url(#p3ae76a85eb)"/></g><g id="line2d_76"><defs><path d="M0 0-3.5 0" id="m33a4868f21" stroke="#000000" stroke-width="0.8"/></defs><g><use x="72" y="352.44" width="100%" height="100%" xlink:href="#m33a4868f21" stroke="#000000" stroke-width="0.8"></use></g></g><g id="text_7"><g transform="matrix(0.13 0 0 -0.13 36.0547 357.379)"><defs><path d="M684 794 1344 794 1344 0 684 0 684 794Z" id="DejaVuSans-2e" transform="scale(0.015625 0.015625)"/><path d="M2113 2584C1829.67 2584 1605 2487 1439 2293 1273.67 2099.67 1191 1834.33 1191 1497 1191 1161.67 1273.67 896.333 1439 701 1605 506.333 1829.67 409 2113 409 2396.33 409 2620.67 506.333 2786 701 2951.33 896.333 3034 1161.67 3034 1497 3034 1834.33 2951.33 2099.67 2786 2293 2620.67 2487 2396.33 2584 2113 2584ZM3366 4563 3366 3988C3207.33 4062.67 3047.33 4119.67 2886 4159 2724.67 4199 2564.67 4219 2406 4219 1989.33 4219 1671 4078.33 1451 3797 1231.67 3515.67 1106.33 3090.67 1075 2522 1197.67 2703.33 1351.67 2842.33 1537 2939 1723 3035.67 1927.33 3084 2150 3084 2618.67 3084 2989 2941.67 3261 2657 3533 2373 3669 1986.33 3669 1497 3669 1017.67 3527.33 633 3244 343 2960.67 53.6667 2583.67-91 2113-91 1573-91 1160.33 115.667 875 529 589.667 943 447 1542.67 447 2328 447 3065.33 622 3653.33 972 4092 1322 4530.67 1791.67 4750 2381 4750 2539.67 4750 2699.67 4734.33 2861 4703 3022.33 4671.67 3190.67 4625 3366 4563Z" id="DejaVuSans-36" transform="scale(0.015625 0.015625)"/></defs><use width="100%" height="100%" xlink:href="#DejaVuSans-30"></use><use x="63.623" width="100%" height="100%" xlink:href="#DejaVuSans-2e"></use><use x="95.4102" width="100%" height="100%" xlink:href="#DejaVuSans-35"></use><use x="159.033" width="100%" height="100%" xlink:href="#DejaVuSans-36"></use></g></g></g><g id="ytick_2"><g id="line2d_77"><path d="M72 308.88 518.4 308.88" stroke="#808080" stroke-width="0.5" stroke-linecap="square" fill="none" clip-path="url(#p3ae76a85eb)"/></g><g id="line2d_78"><g><use x="72" y="308.88" width="100%" height="100%" xlink:href="#m33a4868f21" stroke="#000000" stroke-width="0.8"></use></g></g><g id="text_8"><g transform="matrix(0.13 0 0 -0.13 36.0547 313.819)"><defs><path d="M2034 2216C1734 2216 1498 2135.67 1326 1975 1154.67 1814.33 1069 1593.67 1069 1313 1069 1031.67 1154.67 810.667 1326 650 1498 489.333 1734 409 2034 409 2334 409 2570.33 489.667 2743 651 2916.33 813 3003 1033.67 3003 1313 3003 1593.67 2917 1814.33 2745 1975 2573.67 2135.67 2336.67 2216 2034 2216ZM1403 2484C1132.33 2550.67 921.333 2676.67 770 2862 619.333 3048 544 3274.33 544 3541 544 3913.67 676.667 4208.33 942 4425 1208 4641.67 1572 4750 2034 4750 2498.67 4750 2863.33 4641.67 3128 4425 3392.67 4208.33 3525 3913.67 3525 3541 3525 3274.33 3449.33 3048 3298 2862 3147.33 2676.67 2937.67 2550.67 2669 2484 2973 2413.33 3209.67 2274.67 3379 2068 3549 1862 3634 1610.33 3634 1313 3634 860.333 3496 513 3220 271 2944 29.6667 2548.67-91 2034-91 1520-91 1124.67 29.6667 848 271 572 513 434 860.333 434 1313 434 1610.33 519.333 1862 690 2068 861.333 2274.67 1099 2413.33 1403 2484ZM1172 3481C1172 3239.67 1247.33 3051.33 1398 2916 1549.33 2780.67 1761.33 2713 2034 2713 2305.33 2713 2517.33 2780.67 2670 2916 2823.33 3051.33 2900 3239.67 2900 3481 2900 3723 2823.33 3911.67 2670 4047 2517.33 4182.33 2305.33 4250 2034 4250 1761.33 4250 1549.33 4182.33 1398 4047 1247.33 3911.67 1172 3723 1172 3481Z" id="DejaVuSans-38" transform="scale(0.015625 0.015625)"/></defs><use width="100%" height="100%" xlink:href="#DejaVuSans-30"></use><use x="63.623" width="100%" height="100%" xlink:href="#DejaVuSans-2e"></use><use x="95.4102" width="100%" height="100%" xlink:href="#DejaVuSans-35"></use><use x="159.033" width="100%" height="100%" xlink:href="#DejaVuSans-38"></use></g></g></g><g id="ytick_3"><g id="line2d_79"><path d="M72 265.32 518.4 265.32" stroke="#808080" stroke-width="0.5" stroke-linecap="square" fill="none" clip-path="url(#p3ae76a85eb)"/></g><g id="line2d_80"><g><use x="72" y="265.32" width="100%" height="100%" xlink:href="#m33a4868f21" stroke="#000000" stroke-width="0.8"></use></g></g><g id="text_9"><g transform="matrix(0.13 0 0 -0.13 36.0547 270.259)"><use width="100%" height="100%" xlink:href="#DejaVuSans-30"></use><use x="63.623" width="100%" height="100%" xlink:href="#DejaVuSans-2e"></use><use x="95.4102" width="100%" height="100%" xlink:href="#DejaVuSans-36"></use><use x="159.033" width="100%" height="100%" xlink:href="#DejaVuSans-30"></use></g></g></g><g id="ytick_4"><g id="line2d_81"><path d="M72 221.76 518.4 221.76" stroke="#808080" stroke-width="0.5" stroke-linecap="square" fill="none" clip-path="url(#p3ae76a85eb)"/></g><g id="line2d_82"><g><use x="72" y="221.76" width="100%" height="100%" xlink:href="#m33a4868f21" stroke="#000000" stroke-width="0.8"></use></g></g><g id="text_10"><g transform="matrix(0.13 0 0 -0.13 36.0547 226.699)"><use width="100%" height="100%" xlink:href="#DejaVuSans-30"></use><use x="63.623" width="100%" height="100%" xlink:href="#DejaVuSans-2e"></use><use x="95.4102" width="100%" height="100%" xlink:href="#DejaVuSans-36"></use><use x="159.033" width="100%" height="100%" xlink:href="#DejaVuSans-32"></use></g></g></g><g id="ytick_5"><g id="line2d_83"><path d="M72 178.2 518.4 178.2" stroke="#808080" stroke-width="0.5" stroke-linecap="square" fill="none" clip-path="url(#p3ae76a85eb)"/></g><g id="line2d_84"><g><use x="72" y="178.2" width="100%" height="100%" xlink:href="#m33a4868f21" stroke="#000000" stroke-width="0.8"></use></g></g><g id="text_11"><g transform="matrix(0.13 0 0 -0.13 36.0547 183.139)"><use width="100%" height="100%" xlink:href="#DejaVuSans-30"></use><use x="63.623" width="100%" height="100%" xlink:href="#DejaVuSans-2e"></use><use x="95.4102" width="100%" height="100%" xlink:href="#DejaVuSans-36"></use><use x="159.033" width="100%" height="100%" xlink:href="#DejaVuSans-34"></use></g></g></g><g id="ytick_6"><g id="line2d_85"><path d="M72 134.64 518.4 134.64" stroke="#808080" stroke-width="0.5" stroke-linecap="square" fill="none" clip-path="url(#p3ae76a85eb)"/></g><g id="line2d_86"><g><use x="72" y="134.64" width="100%" height="100%" xlink:href="#m33a4868f21" stroke="#000000" stroke-width="0.8"></use></g></g><g id="text_12"><g transform="matrix(0.13 0 0 -0.13 36.0547 139.579)"><use width="100%" height="100%" xlink:href="#DejaVuSans-30"></use><use x="63.623" width="100%" height="100%" xlink:href="#DejaVuSans-2e"></use><use x="95.4102" width="100%" height="100%" xlink:href="#DejaVuSans-36"></use><use x="159.033" width="100%" height="100%" xlink:href="#DejaVuSans-36"></use></g></g></g><g id="ytick_7"><g id="line2d_87"><path d="M72 91.08 518.4 91.08" stroke="#808080" stroke-width="0.5" stroke-linecap="square" fill="none" clip-path="url(#p3ae76a85eb)"/></g><g id="line2d_88"><g><use x="72" y="91.08" width="100%" height="100%" xlink:href="#m33a4868f21" stroke="#000000" stroke-width="0.8"></use></g></g><g id="text_13"><g transform="matrix(0.13 0 0 -0.13 36.0547 96.019)"><use width="100%" height="100%" xlink:href="#DejaVuSans-30"></use><use x="63.623" width="100%" height="100%" xlink:href="#DejaVuSans-2e"></use><use x="95.4102" width="100%" height="100%" xlink:href="#DejaVuSans-36"></use><use x="159.033" width="100%" height="100%" xlink:href="#DejaVuSans-38"></use></g></g></g><g id="ytick_8"><g id="line2d_89"><path d="M72 47.52 518.4 47.52" stroke="#808080" stroke-width="0.5" stroke-linecap="square" fill="none" clip-path="url(#p3ae76a85eb)"/></g><g id="line2d_90"><g><use x="72" y="47.52" width="100%" height="100%" xlink:href="#m33a4868f21" stroke="#000000" stroke-width="0.8"></use></g></g><g id="text_14"><g transform="matrix(0.13 0 0 -0.13 36.0547 52.459)"><defs><path d="M525 4666 3525 4666 3525 4397 1831 0 1172 0 2766 4134 525 4134 525 4666Z" id="DejaVuSans-37" transform="scale(0.015625 0.015625)"/></defs><use width="100%" height="100%" xlink:href="#DejaVuSans-30"></use><use x="63.623" width="100%" height="100%" xlink:href="#DejaVuSans-2e"></use><use x="95.4102" width="100%" height="100%" xlink:href="#DejaVuSans-37"></use><use x="159.033" width="100%" height="100%" xlink:href="#DejaVuSans-30"></use></g></g></g><g id="ytick_9"><g id="line2d_91"><path d="M72 330.66 518.4 330.66" stroke="#808080" stroke-width="0.5" stroke-dasharray="1.85 0.8" fill="none" clip-path="url(#p3ae76a85eb)"/></g><g id="line2d_92"><defs><path d="M0 0-2 0" id="m4194cc7538" stroke="#000000" stroke-width="0.6"/></defs><g><use x="72" y="330.66" width="100%" height="100%" xlink:href="#m4194cc7538" stroke="#000000" stroke-width="0.6"></use></g></g></g><g id="ytick_10"><g id="line2d_93"><path d="M72 287.1 518.4 287.1" stroke="#808080" stroke-width="0.5" stroke-dasharray="1.85 0.8" fill="none" clip-path="url(#p3ae76a85eb)"/></g><g id="line2d_94"><g><use x="72" y="287.1" width="100%" height="100%" xlink:href="#m4194cc7538" stroke="#000000" stroke-width="0.6"></use></g></g></g><g id="ytick_11"><g id="line2d_95"><path d="M72 243.54 518.4 243.54" stroke="#808080" stroke-width="0.5" stroke-dasharray="1.85 0.8" fill="none" clip-path="url(#p3ae76a85eb)"/></g><g id="line2d_96"><g><use x="72" y="243.54" width="100%" height="100%" xlink:href="#m4194cc7538" stroke="#000000" stroke-width="0.6"></use></g></g></g><g id="ytick_12"><g id="line2d_97"><path d="M72 199.98 518.4 199.98" stroke="#808080" stroke-width="0.5" stroke-dasharray="1.85 0.8" fill="none" clip-path="url(#p3ae76a85eb)"/></g><g id="line2d_98"><g><use x="72" y="199.98" width="100%" height="100%" xlink:href="#m4194cc7538" stroke="#000000" stroke-width="0.6"></use></g></g></g><g id="ytick_13"><g id="line2d_99"><path d="M72 156.42 518.4 156.42" stroke="#808080" stroke-width="0.5" stroke-dasharray="1.85 0.8" fill="none" clip-path="url(#p3ae76a85eb)"/></g><g id="line2d_100"><g><use x="72" y="156.42" width="100%" height="100%" xlink:href="#m4194cc7538" stroke="#000000" stroke-width="0.6"></use></g></g></g><g id="ytick_14"><g id="line2d_101"><path d="M72 112.86 518.4 112.86" stroke="#808080" stroke-width="0.5" stroke-dasharray="1.85 0.8" fill="none" clip-path="url(#p3ae76a85eb)"/></g><g id="line2d_102"><g><use x="72" y="112.86" width="100%" height="100%" xlink:href="#m4194cc7538" stroke="#000000" stroke-width="0.6"></use></g></g></g><g id="ytick_15"><g id="line2d_103"><path d="M72 69.3 518.4 69.3" stroke="#808080" stroke-width="0.5" stroke-dasharray="1.85 0.8" fill="none" clip-path="url(#p3ae76a85eb)"/></g><g id="line2d_104"><g><use x="72" y="69.3" width="100%" height="100%" xlink:href="#m4194cc7538" stroke="#000000" stroke-width="0.6"></use></g></g></g><g id="text_15"><g transform="matrix(8.57253e-18 -0.14 -0.14 -8.57253e-18 29.1431 242.47)"><defs><path d="M1319 0 500 4666 1119 4666 1797 653 4063 4666 4750 4666 2053 0 1319 0Z" id="DejaVuSans-Oblique-56" transform="scale(0.015625 0.015625)"/><path d="M1625-91C1214.33-91 889.667 35.6667 651 289 413 542.333 294 887.667 294 1325 294 1579 335 1837.67 417 2101 499.667 2365 606.667 2586.67 738 2766 944 3044.67 1174 3250.67 1428 3384 1682 3517.33 1969.67 3584 2291 3584 2689 3584 3010.33 3460 3255 3212 3499.67 2964.67 3622 2641 3622 2241 3622 1963.67 3581.33 1687.33 3500 1412 3418.67 1137.33 3312.33 909.333 3181 728 2977 448.667 2748 242.333 2494 109 2240-24.3333 1950.33-91 1625-91ZM891 1344C891 1027.33 957 790.333 1089 633 1221.67 475.667 1422.33 397 1691 397 2076.33 397 2395.33 565 2648 901 2901.33 1237.67 3028 1664.33 3028 2181 3028 2483 2960.33 2711 2825 2865 2689.67 3019.67 2490.67 3097 2228 3097 2011.33 3097 1818.67 3046.33 1650 2945 1481.33 2844.33 1330.33 2690.67 1197 2484 1099 2330 1023.33 2154 970 1956 917.333 1758 891 1554 891 1344Z" id="DejaVuSans-Oblique-6f" transform="scale(0.015625 0.015625)"/><path d="M1172 4863 1747 4863 1606 4134 1031 4134 1172 4863ZM909 3500 1484 3500 800 0 225 0 909 3500Z" id="DejaVuSans-Oblique-69" transform="scale(0.015625 0.015625)"/><path d="M2675 525C2521 323 2338.67 169.667 2128 65 1918-39 1684.67-91 1428-91 1078-91 801.333 28.3333 598 267 395.333 505.667 294 832.333 294 1247 294 1593 355.333 1922.67 478 2236 601.333 2549.33 779.667 2830 1013 3078 1167 3242.67 1340.67 3368 1534 3454 1728 3540.67 1931.33 3584 2144 3584 2368.67 3584 2567 3529.67 2739 3421 2911 3313 3044 3158 3138 2956L3513 4863 4091 4863 3144 0 2566 0 2675 525ZM891 1350C891 1048 959 812.667 1095 644 1231.67 475.333 1421 391 1663 391 1841.67 391 2007.67 434 2161 520 2314.33 606.667 2449.33 734.333 2566 903 2688.67 1078.33 2785.33 1280.33 2856 1509 2927.33 1738.33 2963 1964.67 2963 2188 2963 2477.33 2894.67 2703 2758 2865 2621.33 3027.67 2433.33 3109 2194 3109 2012.67 3109 1843.67 3066.33 1687 2981 1531 2895.67 1398 2773 1288 2613 1166.67 2439.67 1070 2238.33 998 2009 926.667 1780.33 891 1560.67 891 1350Z" id="DejaVuSans-Oblique-64" transform="scale(0.015625 0.015625)"/><path d="M1613 4147 1294 2491 2106 2491C2424.67 2491 2682.33 2579 2879 2755 3076.33 2931 3175 3160.67 3175 3444 3175 3670.67 3108.67 3844.33 2976 3965 2844 4086.33 2654 4147 2406 4147L1613 4147ZM2772 2241C2905.33 2209.67 3016.33 2132.33 3105 2009 3193.67 1886.33 3296.33 1641.67 3413 1275L3809 0 3144 0 2778 1197C2684.67 1505 2576.33 1711 2453 1815 2330.33 1919.67 2142 1972 1888 1972L1191 1972 806 0 172 0 1081 4666 2503 4666C2934.33 4666 3265 4568.33 3495 4373 3725.67 4178.33 3841 3897.67 3841 3531 3841 3206.33 3743 2925 3547 2687 3351 2449.67 3092.67 2301 2772 2241Z" id="DejaVuSans-Oblique-52" transform="scale(0.015625 0.015625)"/><path d="M2706 3500 2619 3053 1472 3053 1100 1153C1087.33 1082.33 1078 1023 1072 975 1066 927 1063 889.667 1063 863 1063 729.667 1103 632.667 1183 572 1263 511.333 1391.67 481 1569 481L2150 481 2053 0 1503 0C1161.67 0 907 66.6667 739 200 571.667 333.333 488 535.333 488 806 488 854 491 906.667 497 964 503 1021.33 512.333 1084.33 525 1153L897 3053 409 3053 500 3500 978 3500 1172 4494 1747 4494 1556 3500 2706 3500Z" id="DejaVuSans-Oblique-74" transform="scale(0.015625 0.015625)"/><path d="M3078 2063C3084.67 2096.33 3089.33 2130.67 3092 2166 3095.33 2201.33 3097 2236.67 3097 2272 3097 2526 3022.33 2727 2873 2875 2724.33 3023 2522 3097 2266 3097 1980.67 3097 1728.33 3006.67 1509 2826 1290.33 2646 1125 2390.33 1013 2059L3078 2063ZM3578 1613 903 1613C890.333 1533.67 882 1471 878 1425 874 1379 872 1339.33 872 1306 872 1016.67 961 792.667 1139 634 1317 476 1568.67 397 1894 397 2144 397 2380.33 425 2603 481 2826.33 537.667 3033.67 620 3225 728L3116 159C2909.33 75.6667 2696 13.3333 2476-28 2256.67-70 2033.33-91 1806-91 1320.67-91 947.333 25 686 257 424.667 489.667 294 819.667 294 1247 294 1611.67 359 1950.67 489 2264 619 2577.33 810.333 2857 1063 3103 1225 3257 1418 3375.67 1642 3459 1866 3542.33 2104 3584 2356 3584 2752 3584 3067 3465.33 3301 3228 3535.67 2990.67 3653 2672 3653 2272 3653 2176 3646.67 2073.33 3634 1964 3622 1854.67 3603.33 1737.67 3578 1613Z" id="DejaVuSans-Oblique-65" transform="scale(0.015625 0.015625)"/></defs><use width="100%" height="100%" xlink:href="#DejaVuSans-Oblique-56" transform="matrix(1 0 0 1 0 0.015625)"></use><use width="100%" height="100%" xlink:href="#DejaVuSans-Oblique-6f" transform="translate(68.4082 0.015625)"></use><use width="100%" height="100%" xlink:href="#DejaVuSans-Oblique-69" transform="translate(129.59 0.015625)"></use><use width="100%" height="100%" xlink:href="#DejaVuSans-Oblique-64" transform="translate(157.373 0.015625)"></use><use width="100%" height="100%" xlink:href="#DejaVuSans-Oblique-52" transform="translate(253.32 0.015625)"></use><use width="100%" height="100%" xlink:href="#DejaVuSans-Oblique-61" transform="translate(322.802 0.015625)"></use><use width="100%" height="100%" xlink:href="#DejaVuSans-Oblique-74" transform="translate(384.082 0.015625)"></use><use width="100%" height="100%" xlink:href="#DejaVuSans-Oblique-69" transform="translate(423.291 0.015625)"></use><use width="100%" height="100%" xlink:href="#DejaVuSans-Oblique-6f" transform="translate(451.074 0.015625)"></use><use width="100%" height="100%" xlink:href="#DejaVuSans-Oblique-65" transform="translate(544.726 0.015625)"></use></g></g></g><g id="line2d_105"><path d="M158.823 53.8153 166.287 53.9132 172.766 54.0374 178.476 54.148 183.584 54.2597 187.195 54.3323 190.556 54.4241 193.701 54.5079 196.654 54.5927 199.443 54.6878 203.054 54.8116 206.417 55.0335 209.558 55.1519 212.51 55.2634 215.293 55.3776 218.914 55.5421 222.274 55.6971 225.418 55.8538 228.371 56.0143 231.154 56.1728 234.766 56.3736 238.131 56.5935 241.273 56.8088 244.226 57.0165 247.009 57.224 250.622 57.5909 253.985 57.8676 257.129 58.1458 260.081 58.422 262.864 58.7044 266.477 59.0915 269.839 59.4774 272.984 59.8539 275.935 60.2315 278.717 60.6128 282.331 61.1385 285.692 61.6525 288.836 62.1648 291.788 62.6731 294.571 63.19 298.184 63.888 301.545 64.7092 304.689 65.3477 307.641 66.0242 310.424 66.708 314.037 67.631 317.398 68.6681 320.543 69.7469 323.495 70.6401 326.278 71.5637 329.89 72.9651 333.25 74.2195 336.395 75.6582 339.347 76.8841 342.13 78.1089 345.742 79.9097 349.104 81.6244 352.248 83.2306 355.183 84.7208 357.977 86.298 361.595 88.5963 364.957 90.8443 368.082 92.8516 371.052 95.265 373.818 97.2981 377.441 100.012 380.809 103.177 383.955 106.109 386.907 109.041 389.671 111.679 393.3 115.798 396.662 119.863 399.806 123.589 402.758 127.353 405.531 130.456 409.153 135.76 412.515 141.041 415.659 145.962 418.611 151.198 421.394 156.203 425.006 162.746 428.368 169.058 431.512 175.14 434.464 181.416 437.246 187.621 440.859 195.684 444.221 203.812 447.364 211.9 450.316 219.765 453.099 227.37 456.712 237.996 460.074 248.333 463.217 258.394 466.17 268.276 468.952 277.695 472.565 291.046 475.926 303.855 479.07 315.887 482.022 327.866 484.805 339.825" stroke="#D62728" stroke-width="1.5" stroke-linecap="square" fill="none" clip-path="url(#p3ae76a85eb)"/></g><g id="patch_3"><path d="M72 352.44 72 47.52" stroke="#000000" stroke-width="0.8" stroke-linecap="square" stroke-linejoin="miter" fill="none"/></g><g id="patch_4"><path d="M518.4 352.44 518.4 47.52" stroke="#000000" stroke-width="0.8" stroke-linecap="square" stroke-linejoin="miter" fill="none"/></g><g id="patch_5"><path d="M72 352.44 518.4 352.44" stroke="#000000" stroke-width="0.8" stroke-linecap="square" stroke-linejoin="miter" fill="none"/></g><g id="patch_6"><path d="M72 47.52 518.4 47.52" stroke="#000000" stroke-width="0.8" stroke-linecap="square" stroke-linejoin="miter" fill="none"/></g><g id="legend_1"><g id="patch_7"><path d="M81.1 345.94 197.84 345.94C199.573 345.94 200.44 345.073 200.44 343.34L200.44 325.558C200.44 323.825 199.573 322.958 197.84 322.958L81.1 322.958C79.3667 322.958 78.5 323.825 78.5 325.558L78.5 343.34C78.5 345.073 79.3667 345.94 81.1 345.94Z" stroke="#CCCCCC" stroke-linejoin="miter" fill="#FFFFFF" opacity="0.8"/></g><g id="line2d_106"><path d="M83.7 333.486 96.7 333.486 109.7 333.486" stroke="#D62728" stroke-width="1.5" stroke-linecap="square" fill="none"/></g><g id="text_16"><g transform="matrix(0.13 0 0 -0.13 120.1 338.036)"><defs><path d="M2853 2969C2795 3000.33 2728.33 3024.33 2653 3041 2578.33 3057.67 2498.33 3066 2413 3066 2106.33 3066 1838.33 2949.67 1609 2717 1380.33 2485 1228.33 2174 1153 1784L800 0 225 0 909 3500 1484 3500 1375 2956C1527 3158 1708.67 3313 1920 3421 2132 3529.67 2357.67 3584 2597 3584 2659.67 3584 2721 3580.33 2781 3573 2841.67 3566.33 2902.33 3554.67 2963 3538L2853 2969Z" id="DejaVuSans-Oblique-72" transform="scale(0.015625 0.015625)"/></defs><use width="100%" height="100%" xlink:href="#DejaVuSans-Oblique-56" transform="matrix(1 0 0 1 0 0.015625)"></use><use width="100%" height="100%" xlink:href="#DejaVuSans-Oblique-6f" transform="translate(68.4082 0.015625)"></use><use width="100%" height="100%" xlink:href="#DejaVuSans-Oblique-69" transform="translate(129.59 0.015625)"></use><use width="100%" height="100%" xlink:href="#DejaVuSans-Oblique-64" transform="translate(157.373 0.015625)"></use><use width="100%" height="100%" xlink:href="#DejaVuSans-Oblique-72" transform="translate(253.32 0.015625)"></use><use width="100%" height="100%" xlink:href="#DejaVuSans-Oblique-61" transform="translate(294.433 0.015625)"></use><use width="100%" height="100%" xlink:href="#DejaVuSans-Oblique-74" transform="translate(355.713 0.015625)"></use><use width="100%" height="100%" xlink:href="#DejaVuSans-Oblique-69" transform="translate(394.922 0.015625)"></use><use width="100%" height="100%" xlink:href="#DejaVuSans-Oblique-6f" transform="translate(422.705 0.015625)"></use><use width="100%" height="100%" xlink:href="#DejaVuSans-Oblique-65" transform="translate(516.357 0.015625)"></use></g></g></g></g></g></svg>