<svg width="672" height="432" viewBox="0 0 504 324" xmlns="http://www.w3.org/2000/svg" xmlns:xlink="http://www.w3.org/1999/xlink" stroke-linejoin="round" overflow="hidden"><defs></defs><defs><clipPath id="p92eedc015b"><rect x="63" y="38.88" width="390.6" height="249.48"/></clipPath></defs><g id="figure_1"><g id="patch_1"><path d="M0 324 504 324 504 0 0 0Z" fill="#FFFFFF"/></g><g id="axes_1"><g id="patch_2"><path d="M63 288.36 453.6 288.36 453.6 38.88 63 38.88Z" fill="#FFFFFF"/></g><g id="PathCollection_1"><defs><path d="M0 4.24264 2.54558 0 0-4.24264-2.54558 0Z" id="ma624f50f9c" stroke="#4C72B0" stroke-opacity="0.7"/></defs><g clip-path="url(#p92eedc015b)"><use x="299.47" y="227.679" width="100%" height="100%" xlink:href="#ma624f50f9c" stroke="#4C72B0" stroke-opacity="0.7" fill="#4C72B0" fill-opacity="0.7"></use><use x="135.305" y="192.272" width="100%" height="100%" xlink:href="#ma624f50f9c" stroke="#4C72B0" stroke-opacity="0.7" fill="#4C72B0" fill-opacity="0.7"></use><use x="96.7079" y="159.66" width="100%" height="100%" xlink:href="#ma624f50f9c" stroke="#4C72B0" stroke-opacity="0.7" fill="#4C72B0" fill-opacity="0.7"></use><use x="85.9008" y="114.935" width="100%" height="100%" xlink:href="#ma624f50f9c" stroke="#4C72B0" stroke-opacity="0.7" fill="#4C72B0" fill-opacity="0.7"></use></g></g><g id="PathCollection_2"><defs><path d="M0 4.24264 2.54558 0 0-4.24264-2.54558 0Z" id="m083a1326bd" stroke="#55A868" stroke-opacity="0.7"/></defs><g clip-path="url(#p92eedc015b)"><use x="265.505" y="173.171" width="100%" height="100%" xlink:href="#m083a1326bd" stroke="#55A868" stroke-opacity="0.7" fill="#55A868" fill-opacity="0.7"></use></g></g><g id="PathCollection_3"><defs><path d="M0 4.24264 2.54558 0 0-4.24264-2.54558 0Z" id="maee26b8e05" stroke="#C44E52" stroke-opacity="0.7"/></defs><g clip-path="url(#p92eedc015b)"><use x="113.691" y="144.752" width="100%" height="100%" xlink:href="#maee26b8e05" stroke="#C44E52" stroke-opacity="0.7" fill="#C44E52" fill-opacity="0.7"></use></g></g><g id="PathCollection_4"><defs><path d="M3 0-3-3-3 3Z" id="mc7f1ab8c4c" stroke="#8172B2" stroke-opacity="0.7"/></defs><g clip-path="url(#p92eedc015b)"><use x="390.948" y="238.418" width="100%" height="100%" xlink:href="#mc7f1ab8c4c" stroke="#8172B2" stroke-opacity="0.7" fill="#8172B2" fill-opacity="0.7"></use><use x="140.016" y="180.809" width="100%" height="100%" xlink:href="#mc7f1ab8c4c" stroke="#8172B2" stroke-opacity="0.7" fill="#8172B2" fill-opacity="0.7"></use><use x="203.647" y="203.109" width="100%" height="100%" xlink:href="#mc7f1ab8c4c" stroke="#8172B2" stroke-opacity="0.7" fill="#8172B2" fill-opacity="0.7"></use><use x="109.227" y="175.235" width="100%" height="100%" xlink:href="#mc7f1ab8c4c" stroke="#8172B2" stroke-opacity="0.7" fill="#8172B2" fill-opacity="0.7"></use><use x="86.6477" y="116.697" width="100%" height="100%" xlink:href="#mc7f1ab8c4c" stroke="#8172B2" stroke-opacity="0.7" fill="#8172B2" fill-opacity="0.7"></use></g></g><g id="PathCollection_5"><defs><path d="M0-3-0.673542-0.927051-2.85317-0.927051-1.08981 0.354102-1.76336 2.42705 -0 1.1459 1.76336 2.42705 1.08981 0.354102 2.85317-0.927051 0.673542-0.927051Z" id="mfc1856d5e0" stroke="#CCB974" stroke-opacity="0.7"/></defs><g clip-path="url(#p92eedc015b)"><use x="402.751" y="247.245" width="100%" height="100%" xlink:href="#mfc1856d5e0" stroke="#CCB974" stroke-opacity="0.7" fill="#CCB974" fill-opacity="0.7"></use><use x="143.095" y="187.314" width="100%" height="100%" xlink:href="#mfc1856d5e0" stroke="#CCB974" stroke-opacity="0.7" fill="#CCB974" fill-opacity="0.7"></use><use x="207.239" y="204.968" width="100%" height="100%" xlink:href="#mfc1856d5e0" stroke="#CCB974" stroke-opacity="0.7" fill="#CCB974" fill-opacity="0.7"></use><use x="109.74" y="166.872" width="100%" height="100%" xlink:href="#mfc1856d5e0" stroke="#CCB974" stroke-opacity="0.7" fill="#CCB974" fill-opacity="0.7"></use><use x="85.1083" y="127.383" width="100%" height="100%" xlink:href="#mfc1856d5e0" stroke="#CCB974" stroke-opacity="0.7" fill="#CCB974" fill-opacity="0.7"></use></g></g><g id="PathCollection_6"><defs><path d="M-3 -0 3 3 3-3Z" id="m18f2018d22" stroke="#64B5CD" stroke-opacity="0.7"/></defs><g clip-path="url(#p92eedc015b)"><use x="412.501" y="233.307" width="100%" height="100%" xlink:href="#m18f2018d22" stroke="#64B5CD" stroke-opacity="0.7" fill="#64B5CD" fill-opacity="0.7"></use><use x="211.857" y="203.109" width="100%" height="100%" xlink:href="#m18f2018d22" stroke="#64B5CD" stroke-opacity="0.7" fill="#64B5CD" fill-opacity="0.7"></use><use x="147.2" y="193.818" width="100%" height="100%" xlink:href="#m18f2018d22" stroke="#64B5CD" stroke-opacity="0.7" fill="#64B5CD" fill-opacity="0.7"></use><use x="112.305" y="168.266" width="100%" height="100%" xlink:href="#m18f2018d22" stroke="#64B5CD" stroke-opacity="0.7" fill="#64B5CD" fill-opacity="0.7"></use></g></g><g id="PathCollection_7"><defs><path d="M0 3C0.795609 3 1.55874 2.6839 2.12132 2.12132 2.6839 1.55874 3 0.795609 3 0 3-0.795609 2.6839-1.55874 2.12132-2.12132 1.55874-2.6839 0.795609-3 0-3-0.795609-3-1.55874-2.6839-2.12132-2.12132-2.6839-1.55874-3-0.795609-3 0-3 0.795609-2.6839 1.55874-2.12132 2.12132-1.55874 2.6839-0.795609 3 0 3Z" id="mfe33f0f723" stroke="#4C72B0" stroke-opacity="0.7"/></defs><g clip-path="url(#p92eedc015b)"><use x="420.198" y="226.338" width="100%" height="100%" xlink:href="#mfe33f0f723" stroke="#4C72B0" stroke-opacity="0.7" fill="#4C72B0" fill-opacity="0.7"></use><use x="214.936" y="194.282" width="100%" height="100%" xlink:href="#mfe33f0f723" stroke="#4C72B0" stroke-opacity="0.7" fill="#4C72B0" fill-opacity="0.7"></use><use x="146.174" y="165.478" width="100%" height="100%" xlink:href="#mfe33f0f723" stroke="#4C72B0" stroke-opacity="0.7" fill="#4C72B0" fill-opacity="0.7"></use><use x="112.305" y="165.478" width="100%" height="100%" xlink:href="#mfe33f0f723" stroke="#4C72B0" stroke-opacity="0.7" fill="#4C72B0" fill-opacity="0.7"></use><use x="83.0557" y="127.847" width="100%" height="100%" xlink:href="#mfe33f0f723" stroke="#4C72B0" stroke-opacity="0.7" fill="#4C72B0" fill-opacity="0.7"></use></g></g><g id="PathCollection_8"><defs><path d="M-0 3 3-3-3-3Z" id="m9d57bb7d49" stroke="#55A868" stroke-opacity="0.7"/></defs><g clip-path="url(#p92eedc015b)"><use x="426.356" y="217.047" width="100%" height="100%" xlink:href="#m9d57bb7d49" stroke="#55A868" stroke-opacity="0.7" fill="#55A868" fill-opacity="0.7"></use><use x="216.989" y="186.384" width="100%" height="100%" xlink:href="#m9d57bb7d49" stroke="#55A868" stroke-opacity="0.7" fill="#55A868" fill-opacity="0.7"></use><use x="147.713" y="173.376" width="100%" height="100%" xlink:href="#m9d57bb7d49" stroke="#55A868" stroke-opacity="0.7" fill="#55A868" fill-opacity="0.7"></use><use x="112.819" y="156.651" width="100%" height="100%" xlink:href="#m9d57bb7d49" stroke="#55A868" stroke-opacity="0.7" fill="#55A868" fill-opacity="0.7"></use><use x="87.1609" y="134.816" width="100%" height="100%" xlink:href="#m9d57bb7d49" stroke="#55A868" stroke-opacity="0.7" fill="#55A868" fill-opacity="0.7"></use></g></g><g id="PathCollection_9"><defs><path d="M0-3-3 3 3 3Z" id="mae036716ea" stroke="#C44E52" stroke-opacity="0.7"/></defs><g clip-path="url(#p92eedc015b)"><use x="433.54" y="218.905" width="100%" height="100%" xlink:href="#mae036716ea" stroke="#C44E52" stroke-opacity="0.7" fill="#C44E52" fill-opacity="0.7"></use><use x="221.094" y="171.518" width="100%" height="100%" xlink:href="#mae036716ea" stroke="#C44E52" stroke-opacity="0.7" fill="#C44E52" fill-opacity="0.7"></use><use x="149.253" y="158.974" width="100%" height="100%" xlink:href="#mae036716ea" stroke="#C44E52" stroke-opacity="0.7" fill="#C44E52" fill-opacity="0.7"></use><use x="114.358" y="138.997" width="100%" height="100%" xlink:href="#mae036716ea" stroke="#C44E52" stroke-opacity="0.7" fill="#C44E52" fill-opacity="0.7"></use><use x="84.5951" y="127.383" width="100%" height="100%" xlink:href="#mae036716ea" stroke="#C44E52" stroke-opacity="0.7" fill="#C44E52" fill-opacity="0.7"></use></g></g><g id="PathCollection_10"><defs><path d="M-3 3 3 3 3-3-3-3Z" id="m2dc7723945" stroke="#8172B2" stroke-opacity="0.7"/></defs><g clip-path="url(#p92eedc015b)"><use x="407.369" y="237.953" width="100%" height="100%" xlink:href="#m2dc7723945" stroke="#8172B2" stroke-opacity="0.7" fill="#8172B2" fill-opacity="0.7"></use><use x="209.292" y="200.786" width="100%" height="100%" xlink:href="#m2dc7723945" stroke="#8172B2" stroke-opacity="0.7" fill="#8172B2" fill-opacity="0.7"></use><use x="144.121" y="190.101" width="100%" height="100%" xlink:href="#m2dc7723945" stroke="#8172B2" stroke-opacity="0.7" fill="#8172B2" fill-opacity="0.7"></use><use x="111.279" y="169.66" width="100%" height="100%" xlink:href="#m2dc7723945" stroke="#8172B2" stroke-opacity="0.7" fill="#8172B2" fill-opacity="0.7"></use><use x="82.5425" y="138.068" width="100%" height="100%" xlink:href="#m2dc7723945" stroke="#8172B2" stroke-opacity="0.7" fill="#8172B2" fill-opacity="0.7"></use></g></g><g id="matplotlib.axis_1"><g id="xtick_1"><g id="line2d_1"><path d="M77.9241 288.36 77.9241 38.88" stroke="#808080" stroke-width="0.5" stroke-linecap="square" fill="none" clip-path="url(#p92eedc015b)"/></g><g id="line2d_2"><defs><path d="M0 0 0 3.5" id="m7cc8996c1e" stroke="#000000" stroke-width="0.8"/></defs><g><use x="77.9241" y="288.36" width="100%" height="100%" xlink:href="#m7cc8996c1e" stroke="#000000" stroke-width="0.8"></use></g></g><g id="text_1"><g transform="matrix(0.11 0 0 -0.11 74.4247 303.718)"><defs><path d="M2034 4250C1709.33 4250 1465 4090 1301 3770 1137.67 3450.67 1056 2970 1056 2328 1056 1688.67 1137.67 1209 1301 889 1465 569 1709.33 409 2034 409 2361.33 409 2606.67 569 2770 889 2934 1209 3016 1688.67 3016 2328 3016 2970 2934 3450.67 2770 3770 2606.67 4090 2361.33 4250 2034 4250ZM2034 4750C2557.33 4750 2957 4543 3233 4129 3509 3715.67 3647 3115.33 3647 2328 3647 1542.67 3509 943 3233 529 2957 115.667 2557.33-91 2034-91 1511.33-91 1112 115.667 836 529 560 943 422 1542.67 422 2328 422 3115.33 560 3715.67 836 4129 1112 4543 1511.33 4750 2034 4750Z" id="DejaVuSans-30" transform="scale(0.015625 0.015625)"/></defs><use width="100%" height="100%" xlink:href="#DejaVuSans-30"></use></g></g></g><g id="xtick_2"><g id="line2d_3"><path d="M122.825 288.36 122.825 38.88" stroke="#808080" stroke-width="0.5" stroke-linecap="square" fill="none" clip-path="url(#p92eedc015b)"/></g><g id="line2d_4"><g><use x="122.825" y="288.36" width="100%" height="100%" xlink:href="#m7cc8996c1e" stroke="#000000" stroke-width="0.8"></use></g></g><g id="text_2"><g transform="matrix(0.11 0 0 -0.11 115.826 303.718)"><defs><path d="M794 531 1825 531 1825 4091 703 3866 703 4441 1819 4666 2450 4666 2450 531 3481 531 3481 0 794 0 794 531Z" id="DejaVuSans-31" transform="scale(0.015625 0.015625)"/></defs><use width="100%" height="100%" xlink:href="#DejaVuSans-31"></use><use x="63.623" width="100%" height="100%" xlink:href="#DejaVuSans-30"></use></g></g></g><g id="xtick_3"><g id="line2d_5"><path d="M167.726 288.36 167.726 38.88" stroke="#808080" stroke-width="0.5" stroke-linecap="square" fill="none" clip-path="url(#p92eedc015b)"/></g><g id="line2d_6"><g><use x="167.726" y="288.36" width="100%" height="100%" xlink:href="#m7cc8996c1e" stroke="#000000" stroke-width="0.8"></use></g></g><g id="text_3"><g transform="matrix(0.11 0 0 -0.11 160.727 303.718)"><defs><path d="M1228 531 3431 531 3431 0 469 0 469 531C708.333 779 1034.67 1111.67 1448 1529 1862 1947 2122 2216.67 2228 2338 2430 2564.67 2571 2756.67 2651 2914 2731.67 3071.33 2772 3226 2772 3378 2772 3626 2685 3828 2511 3984 2337 4140.67 2110.33 4219 1831 4219 1633 4219 1424 4184.67 1204 4116 984.667 4047.33 750 3943 500 3803L500 4441C754 4543 991.333 4620 1212 4672 1433.33 4724 1635.67 4750 1819 4750 2302.33 4750 2687.67 4629 2975 4387 3262.33 4145.67 3406 3823 3406 3419 3406 3227 3370 3045 3298 2873 3226.67 2701.67 3096 2499.33 2906 2266 2854 2205.33 2688.33 2030.67 2409 1742 2130.33 1453.33 1736.67 1049.67 1228 531Z" id="DejaVuSans-32" transform="scale(0.015625 0.015625)"/></defs><use width="100%" height="100%" xlink:href="#DejaVuSans-32"></use><use x="63.623" width="100%" height="100%" xlink:href="#DejaVuSans-30"></use></g></g></g><g id="xtick_4"><g id="line2d_7"><path d="M212.627 288.36 212.627 38.88" stroke="#808080" stroke-width="0.5" stroke-linecap="square" fill="none" clip-path="url(#p92eedc015b)"/></g><g id="line2d_8"><g><use x="212.627" y="288.36" width="100%" height="100%" xlink:href="#m7cc8996c1e" stroke="#000000" stroke-width="0.8"></use></g></g><g id="text_4"><g transform="matrix(0.11 0 0 -0.11 205.628 303.718)"><defs><path d="M2597 2516C2899 2451.33 3134.67 2316.67 3304 2112 3474 1908 3559 1656 3559 1356 3559 896 3400.67 539.667 3084 287 2767.33 35 2317.33-91 1734-91 1538.67-91 1337.33-71.6667 1130-33 922.667 5.66667 708.667 63.6667 488 141L488 750C662.667 648 854 571 1062 519 1270.67 467 1488.67 441 1716 441 2111.33 441 2412.67 519 2620 675 2827.33 831 2931 1058 2931 1356 2931 1631.33 2834.67 1846.33 2642 2001 2449.33 2156.33 2181.33 2234 1838 2234L1294 2234 1294 2753 1863 2753C2173 2753 2410.33 2815 2575 2939 2739.67 3063 2822 3241.67 2822 3475 2822 3714.33 2737 3898 2567 4026 2397.67 4154.67 2154.67 4219 1838 4219 1664.67 4219 1479 4200 1281 4162 1083 4124.67 865.333 4066.67 628 3988L628 4550C868 4616.67 1092.67 4666.67 1302 4700 1511.33 4733.33 1708.67 4750 1894 4750 2373.33 4750 2752.33 4641 3031 4423 3310.33 4205.67 3450 3911.67 3450 3541 3450 3282.33 3376 3064 3228 2886 3080 2708 2869.67 2584.67 2597 2516Z" id="DejaVuSans-33" transform="scale(0.015625 0.015625)"/></defs><use width="100%" height="100%" xlink:href="#DejaVuSans-33"></use><use x="63.623" width="100%" height="100%" xlink:href="#DejaVuSans-30"></use></g></g></g><g id="xtick_5"><g id="line2d_9"><path d="M257.528 288.36 257.528 38.88" stroke="#808080" stroke-width="0.5" stroke-linecap="square" fill="none" clip-path="url(#p92eedc015b)"/></g><g id="line2d_10"><g><use x="257.528" y="288.36" width="100%" height="100%" xlink:href="#m7cc8996c1e" stroke="#000000" stroke-width="0.8"></use></g></g><g id="text_5"><g transform="matrix(0.11 0 0 -0.11 250.529 303.718)"><defs><path d="M2419 4116 825 1625 2419 1625 2419 4116ZM2253 4666 3047 4666 3047 1625 3713 1625 3713 1100 3047 1100 3047 0 2419 0 2419 1100 313 1100 313 1709 2253 4666Z" id="DejaVuSans-34" transform="scale(0.015625 0.015625)"/></defs><use width="100%" height="100%" xlink:href="#DejaVuSans-34"></use><use x="63.623" width="100%" height="100%" xlink:href="#DejaVuSans-30"></use></g></g></g><g id="xtick_6"><g id="line2d_11"><path d="M302.429 288.36 302.429 38.88" stroke="#808080" stroke-width="0.5" stroke-linecap="square" fill="none" clip-path="url(#p92eedc015b)"/></g><g id="line2d_12"><g><use x="302.429" y="288.36" width="100%" height="100%" xlink:href="#m7cc8996c1e" stroke="#000000" stroke-width="0.8"></use></g></g><g id="text_6"><g transform="matrix(0.11 0 0 -0.11 295.43 303.718)"><defs><path d="M691 4666 3169 4666 3169 4134 1269 4134 1269 2991C1360.33 3022.33 1451.67 3045.67 1543 3061 1635 3076.33 1727 3084 1819 3084 2339.67 3084 2752 2941.33 3056 2656 3360.67 2370.67 3513 1984.33 3513 1497 3513 995 3356.67 604.667 3044 326 2731.33 48 2290.67-91 1722-91 1526-91 1326.33-74.3333 1123-41 920.333-7.66667 710.667 42.3333 494 109L494 744C681.333 642 875 566 1075 516 1275 466 1486.33 441 1709 441 2069.67 441 2355 535.667 2565 725 2775.67 914.333 2881 1171.67 2881 1497 2881 1821.67 2775.67 2078.67 2565 2268 2355 2458 2069.67 2553 1709 2553 1540.33 2553 1372 2534.33 1204 2497 1036.67 2459.67 865.667 2401.33 691 2322L691 4666Z" id="DejaVuSans-35" transform="scale(0.015625 0.015625)"/></defs><use width="100%" height="100%" xlink:href="#DejaVuSans-35"></use><use x="63.623" width="100%" height="100%" xlink:href="#DejaVuSans-30"></use></g></g></g><g id="xtick_7"><g id="line2d_13"><path d="M347.33 288.36 347.33 38.88" stroke="#808080" stroke-width="0.5" stroke-linecap="square" fill="none" clip-path="url(#p92eedc015b)"/></g><g id="line2d_14"><g><use x="347.33" y="288.36" width="100%" height="100%" xlink:href="#m7cc8996c1e" stroke="#000000" stroke-width="0.8"></use></g></g><g id="text_7"><g transform="matrix(0.11 0 0 -0.11 340.331 303.718)"><defs><path d="M2113 2584C1829.67 2584 1605 2487 1439 2293 1273.67 2099.67 1191 1834.33 1191 1497 1191 1161.67 1273.67 896.333 1439 701 1605 506.333 1829.67 409 2113 409 2396.33 409 2620.67 506.333 2786 701 2951.33 896.333 3034 1161.67 3034 1497 3034 1834.33 2951.33 2099.67 2786 2293 2620.67 2487 2396.33 2584 2113 2584ZM3366 4563 3366 3988C3207.33 4062.67 3047.33 4119.67 2886 4159 2724.67 4199 2564.67 4219 2406 4219 1989.33 4219 1671 4078.33 1451 3797 1231.67 3515.67 1106.33 3090.67 1075 2522 1197.67 2703.33 1351.67 2842.33 1537 2939 1723 3035.67 1927.33 3084 2150 3084 2618.67 3084 2989 2941.67 3261 2657 3533 2373 3669 1986.33 3669 1497 3669 1017.67 3527.33 633 3244 343 2960.67 53.6667 2583.67-91 2113-91 1573-91 1160.33 115.667 875 529 589.667 943 447 1542.67 447 2328 447 3065.33 622 3653.33 972 4092 1322 4530.67 1791.67 4750 2381 4750 2539.67 4750 2699.67 4734.33 2861 4703 3022.33 4671.67 3190.67 4625 3366 4563Z" id="DejaVuSans-36" transform="scale(0.015625 0.015625)"/></defs><use width="100%" height="100%" xlink:href="#DejaVuSans-36"></use><use x="63.623" width="100%" height="100%" xlink:href="#DejaVuSans-30"></use></g></g></g><g id="xtick_8"><g id="line2d_15"><path d="M392.231 288.36 392.231 38.88" stroke="#808080" stroke-width="0.5" stroke-linecap="square" fill="none" clip-path="url(#p92eedc015b)"/></g><g id="line2d_16"><g><use x="392.231" y="288.36" width="100%" height="100%" xlink:href="#m7cc8996c1e" stroke="#000000" stroke-width="0.8"></use></g></g><g id="text_8"><g transform="matrix(0.11 0 0 -0.11 385.232 303.718)"><defs><path d="M525 4666 3525 4666 3525 4397 1831 0 1172 0 2766 4134 525 4134 525 4666Z" id="DejaVuSans-37" transform="scale(0.015625 0.015625)"/></defs><use width="100%" height="100%" xlink:href="#DejaVuSans-37"></use><use x="63.623" width="100%" height="100%" xlink:href="#DejaVuSans-30"></use></g></g></g><g id="xtick_9"><g id="line2d_17"><path d="M437.132 288.36 437.132 38.88" stroke="#808080" stroke-width="0.5" stroke-linecap="square" fill="none" clip-path="url(#p92eedc015b)"/></g><g id="line2d_18"><g><use x="437.132" y="288.36" width="100%" height="100%" xlink:href="#m7cc8996c1e" stroke="#000000" stroke-width="0.8"></use></g></g><g id="text_9"><g transform="matrix(0.11 0 0 -0.11 430.133 303.718)"><defs><path d="M2034 2216C1734 2216 1498 2135.67 1326 1975 1154.67 1814.33 1069 1593.67 1069 1313 1069 1031.67 1154.67 810.667 1326 650 1498 489.333 1734 409 2034 409 2334 409 2570.33 489.667 2743 651 2916.33 813 3003 1033.67 3003 1313 3003 1593.67 2917 1814.33 2745 1975 2573.67 2135.67 2336.67 2216 2034 2216ZM1403 2484C1132.33 2550.67 921.333 2676.67 770 2862 619.333 3048 544 3274.33 544 3541 544 3913.67 676.667 4208.33 942 4425 1208 4641.67 1572 4750 2034 4750 2498.67 4750 2863.33 4641.67 3128 4425 3392.67 4208.33 3525 3913.67 3525 3541 3525 3274.33 3449.33 3048 3298 2862 3147.33 2676.67 2937.67 2550.67 2669 2484 2973 2413.33 3209.67 2274.67 3379 2068 3549 1862 3634 1610.33 3634 1313 3634 860.333 3496 513 3220 271 2944 29.6667 2548.67-91 2034-91 1520-91 1124.67 29.6667 848 271 572 513 434 860.333 434 1313 434 1610.33 519.333 1862 690 2068 861.333 2274.67 1099 2413.33 1403 2484ZM1172 3481C1172 3239.67 1247.33 3051.33 1398 2916 1549.33 2780.67 1761.33 2713 2034 2713 2305.33 2713 2517.33 2780.67 2670 2916 2823.33 3051.33 2900 3239.67 2900 3481 2900 3723 2823.33 3911.67 2670 4047 2517.33 4182.33 2305.33 4250 2034 4250 1761.33 4250 1549.33 4182.33 1398 4047 1247.33 3911.67 1172 3723 1172 3481Z" id="DejaVuSans-38" transform="scale(0.015625 0.015625)"/></defs><use width="100%" height="100%" xlink:href="#DejaVuSans-38"></use><use x="63.623" width="100%" height="100%" xlink:href="#DejaVuSans-30"></use></g></g></g><g id="text_10"><g transform="matrix(0.11 0 0 -0.11 210.56 318.366)"><defs><path d="M3859 4513 3738 3897C3527.33 4009.67 3318.33 4094.67 3111 4152 2903.67 4209.33 2703 4238 2509 4238 2132.33 4238 1832.33 4155.67 1609 3991 1386.33 3826.33 1275 3607.33 1275 3334 1275 3184 1316 3069 1398 2989 1480.67 2909 1692.67 2823 2034 2731L2413 2638C2839.67 2527.33 3136.33 2387 3303 2217 3469.67 2047.67 3553 1809.67 3553 1503 3553 1032.33 3368 649 2998 353 2628.67 57 2142-91 1538-91 1290-91 1041-66.3333 791-17 541 31.6667 290 106 38 206L166 856C397.333 712.667 629 604.333 861 531 1093 458.333 1324.67 422 1556 422 1950 422 2265.67 509.333 2503 684 2740.33 859.333 2859 1087.67 2859 1369 2859 1556.33 2811.67 1698.33 2717 1795 2622.33 1892.33 2418.67 1980.33 2106 2059L1728 2156C1296.67 2268.67 1002.33 2398.33 845 2545 687.667 2692.33 609 2898.33 609 3163 609 3627 787.667 4007.33 1145 4304 1502.33 4601.33 1967.67 4750 2541 4750 2763.67 4750 2984.33 4730 3203 4690 3421.67 4650.67 3640.33 4591.67 3859 4513Z" id="DejaVuSans-Oblique-53" transform="scale(0.015625 0.015625)"/><path d="M2706 3500 2619 3053 1472 3053 1100 1153C1087.33 1082.33 1078 1023 1072 975 1066 927 1063 889.667 1063 863 1063 729.667 1103 632.667 1183 572 1263 511.333 1391.67 481 1569 481L2150 481 2053 0 1503 0C1161.67 0 907 66.6667 739 200 571.667 333.333 488 535.333 488 806 488 854 491 906.667 497 964 503 1021.33 512.333 1084.33 525 1153L897 3053 409 3053 500 3500 978 3500 1172 4494 1747 4494 1556 3500 2706 3500Z" id="DejaVuSans-Oblique-74" transform="scale(0.015625 0.015625)"/><path d="M2853 2969C2795 3000.33 2728.33 3024.33 2653 3041 2578.33 3057.67 2498.33 3066 2413 3066 2106.33 3066 1838.33 2949.67 1609 2717 1380.33 2485 1228.33 2174 1153 1784L800 0 225 0 909 3500 1484 3500 1375 2956C1527 3158 1708.67 3313 1920 3421 2132 3529.67 2357.67 3584 2597 3584 2659.67 3584 2721 3580.33 2781 3573 2841.67 3566.33 2902.33 3554.67 2963 3538L2853 2969Z" id="DejaVuSans-Oblique-72" transform="scale(0.015625 0.015625)"/><path d="M3078 2063C3084.67 2096.33 3089.33 2130.67 3092 2166 3095.33 2201.33 3097 2236.67 3097 2272 3097 2526 3022.33 2727 2873 2875 2724.33 3023 2522 3097 2266 3097 1980.67 3097 1728.33 3006.67 1509 2826 1290.33 2646 1125 2390.33 1013 2059L3078 2063ZM3578 1613 903 1613C890.333 1533.67 882 1471 878 1425 874 1379 872 1339.33 872 1306 872 1016.67 961 792.667 1139 634 1317 476 1568.67 397 1894 397 2144 397 2380.33 425 2603 481 2826.33 537.667 3033.67 620 3225 728L3116 159C2909.33 75.6667 2696 13.3333 2476-28 2256.67-70 2033.33-91 1806-91 1320.67-91 947.333 25 686 257 424.667 489.667 294 819.667 294 1247 294 1611.67 359 1950.67 489 2264 619 2577.33 810.333 2857 1063 3103 1225 3257 1418 3375.67 1642 3459 1866 3542.33 2104 3584 2356 3584 2752 3584 3067 3465.33 3301 3228 3535.67 2990.67 3653 2672 3653 2272 3653 2176 3646.67 2073.33 3634 1964 3622 1854.67 3603.33 1737.67 3578 1613Z" id="DejaVuSans-Oblique-65" transform="scale(0.015625 0.015625)"/><path d="M3200 3397 3091 2853C2939 2936.33 2778.33 2998.67 2609 3040 2440.33 3082 2266.67 3103 2088 3103 1785.33 3103 1547 3051.33 1373 2948 1199.67 2845.33 1113 2705.33 1113 2528 1113 2322 1315 2163.67 1719 2053 1750.33 2045 1773.33 2038.67 1788 2034L1972 1978C2355.33 1872 2611 1760.67 2739 1644 2867 1527.33 2931 1368 2931 1166 2931 794.667 2783.67 492.333 2489 259 2194.33 25.6667 1808.33-91 1331-91 1145.67-91 951-73 747-37 543-1.66667 318 53.3333 72 128L184 722C394.667 613.333 602 531 806 475 1010.67 419 1206.67 391 1394 391 1675.33 391 1904 451.333 2080 572 2256 692.667 2344 845.667 2344 1031 2344 1231 2112.67 1392.67 1650 1516L1591 1531 1394 1581C1102 1658.33 888.333 1760 753 1886 617.667 2012 550 2173 550 2369 550 2741.67 690 3037.33 970 3256 1250.67 3474.67 1631.67 3584 2113 3584 2302.33 3584 2487 3568.33 2667 3537 2847.67 3506.33 3025.33 3459.67 3200 3397Z" id="DejaVuSans-Oblique-73" transform="scale(0.015625 0.015625)"/><path d="M1613 4147 1294 2491 2106 2491C2424.67 2491 2682.33 2579 2879 2755 3076.33 2931 3175 3160.67 3175 3444 3175 3670.67 3108.67 3844.33 2976 3965 2844 4086.33 2654 4147 2406 4147L1613 4147ZM2772 2241C2905.33 2209.67 3016.33 2132.33 3105 2009 3193.67 1886.33 3296.33 1641.67 3413 1275L3809 0 3144 0 2778 1197C2684.67 1505 2576.33 1711 2453 1815 2330.33 1919.67 2142 1972 1888 1972L1191 1972 806 0 172 0 1081 4666 2503 4666C2934.33 4666 3265 4568.33 3495 4373 3725.67 4178.33 3841 3897.67 3841 3531 3841 3206.33 3743 2925 3547 2687 3351 2449.67 3092.67 2301 2772 2241Z" id="DejaVuSans-Oblique-52" transform="scale(0.015625 0.015625)"/><path d="M3438 1997 3047 0 2472 0 2578 531C2409.33 323 2217 167.333 2001 64 1785.67-39.3333 1545.67-91 1281-91 983-91 738.667 0 548 182 358 364.667 263 598.667 263 884 263 1292.67 426 1615.67 752 1853 1078 2090.33 1527.33 2209 2100 2209L2900 2209 2931 2363C2935.67 2379.67 2939 2397.67 2941 2417 2943 2437 2944 2467.67 2944 2509 2944 2695 2868.33 2839.33 2717 2942 2566.33 3045.33 2354.33 3097 2081 3097 1893.67 3097 1701.33 3073 1504 3025 1307.33 2977 1105 2905 897 2809L997 3341C1213.67 3422.33 1425.67 3483 1633 3523 1840.33 3563.67 2040.67 3584 2234 3584 2646.67 3584 2960.67 3494.33 3176 3315 3392 3136.33 3500 2876 3500 2534 3500 2465.33 3494.67 2384.67 3484 2292 3474 2199.33 3458.67 2101 3438 1997ZM2816 1759 2241 1759C1769.67 1759 1421 1696 1195 1570 969 1444 856 1248.67 856 984 856 800.667 913.667 657 1029 553 1145 449 1305 397 1509 397 1821.67 397 2094.67 509 2328 733 2561.33 957 2715.67 1256.33 2791 1631L2816 1759Z" id="DejaVuSans-Oblique-61" transform="scale(0.015625 0.015625)"/><path d="M1172 4863 1747 4863 1606 4134 1031 4134 1172 4863ZM909 3500 1484 3500 800 0 225 0 909 3500Z" id="DejaVuSans-Oblique-69" transform="scale(0.015625 0.015625)"/><path d="M1625-91C1214.33-91 889.667 35.6667 651 289 413 542.333 294 887.667 294 1325 294 1579 335 1837.67 417 2101 499.667 2365 606.667 2586.67 738 2766 944 3044.67 1174 3250.67 1428 3384 1682 3517.33 1969.67 3584 2291 3584 2689 3584 3010.33 3460 3255 3212 3499.67 2964.67 3622 2641 3622 2241 3622 1963.67 3581.33 1687.33 3500 1412 3418.67 1137.33 3312.33 909.333 3181 728 2977 448.667 2748 242.333 2494 109 2240-24.3333 1950.33-91 1625-91ZM891 1344C891 1027.33 957 790.333 1089 633 1221.67 475.667 1422.33 397 1691 397 2076.33 397 2395.33 565 2648 901 2901.33 1237.67 3028 1664.33 3028 2181 3028 2483 2960.33 2711 2825 2865 2689.67 3019.67 2490.67 3097 2228 3097 2011.33 3097 1818.67 3046.33 1650 2945 1481.33 2844.33 1330.33 2690.67 1197 2484 1099 2330 1023.33 2154 970 1956 917.333 1758 891 1554 891 1344Z" id="DejaVuSans-Oblique-6f" transform="scale(0.015625 0.015625)"/><path d="M3175 2156C3175 2462.67 3108.33 2697 2975 2859 2841.67 3021.67 2650 3103 2400 3103 2229.33 3103 2066.33 3059.33 1911 2972 1755.67 2884.67 1617.67 2757.67 1497 2591 1378.33 2426.33 1283.33 2227.33 1212 1994 1141.33 1760.67 1106 1529.33 1106 1300 1106 1008.67 1172.67 784.333 1306 627 1439.33 469.667 1629 391 1875 391 2056.33 391 2224.67 433.667 2380 519 2535.33 604.333 2668 728.333 2778 891 2896.67 1061.67 2992.33 1262.67 3065 1494 3138.33 1725.33 3175 1946 3175 2156ZM1394 2969C1548 3171 1729.67 3324 1939 3428 2148.33 3532 2381.33 3584 2638 3584 2996 3584 3274 3466.67 3472 3232 3670 2998 3769 2669.67 3769 2247 3769 1901 3707.33 1571.33 3584 1258 3461.33 944.667 3284.33 664 3053 416 2899 251.333 2725 125.667 2531 39 2337.67-47.6667 2133.67-91 1919-91 1671-91 1462.67-39.3333 1294 64 1125.33 167.333 999.333 321 916 525L556-1331-19-1331 922 3500 1497 3500 1394 2969Z" id="DejaVuSans-Oblique-70" transform="scale(0.015625 0.015625)"/><path d="M225 347C197.667 355 184 375.667 184 409L966 3316C990.667 3394.67 1033 3458 1093 3506 1153.67 3554 1222.67 3578 1300 3578 1400 3578 1488 3545 1564 3479 1640 3413.67 1678 3331 1678 3231 1678 3187.67 1666.67 3138.67 1644 3084L488 319C473.333 289.667 453.333 275 428 275 405.333 275 369.333 285.333 320 306 271.333 327.333 239.667 341 225 347Z" id="Cmsy10-30" transform="scale(0.015625 0.015625)"/><path d="M1625 4666 2156 4666 531-594 0-594 1625 4666Z" id="DejaVuSans-2f" transform="scale(0.015625 0.015625)"/></defs><use width="100%" height="100%" xlink:href="#DejaVuSans-Oblique-53" transform="matrix(1 0 0 1 0 0.015625)"></use><use width="100%" height="100%" xlink:href="#DejaVuSans-Oblique-74" transform="translate(63.4766 0.015625)"></use><use width="100%" height="100%" xlink:href="#DejaVuSans-Oblique-72" transform="translate(102.686 0.015625)"></use><use width="100%" height="100%" xlink:href="#DejaVuSans-Oblique-65" transform="translate(143.799 0.015625)"></use><use width="100%" height="100%" xlink:href="#DejaVuSans-Oblique-73" transform="translate(205.322 0.015625)"></use><use width="100%" height="100%" xlink:href="#DejaVuSans-Oblique-73" transform="translate(257.422 0.015625)"></use><use width="100%" height="100%" xlink:href="#DejaVuSans-Oblique-52" transform="translate(341.992 0.015625)"></use><use width="100%" height="100%" xlink:href="#DejaVuSans-Oblique-61" transform="translate(411.474 0.015625)"></use><use width="100%" height="100%" xlink:href="#DejaVuSans-Oblique-74" transform="translate(472.754 0.015625)"></use><use width="100%" height="100%" xlink:href="#DejaVuSans-Oblique-69" transform="translate(511.963 0.015625)"></use><use width="100%" height="100%" xlink:href="#DejaVuSans-Oblique-6f" transform="translate(539.746 0.015625)"></use><use width="100%" height="100%" xlink:href="#DejaVuSans-Oblique-70" transform="translate(633.398 0.015625)"></use><use width="100%" height="100%" xlink:href="#Cmsy10-30" transform="translate(696.874 0.015625)"></use><use width="100%" height="100%" xlink:href="#DejaVuSans-2f" transform="translate(724.365 0.015625)"></use><use width="100%" height="100%" xlink:href="#DejaVuSans-Oblique-70" transform="translate(758.056 0.015625)"></use><use width="100%" height="100%" xlink:href="#DejaVuSans-Oblique-61" transform="matrix(0.7 0 0 0.7 821.533 -16.3906)"></use></g></g></g><g id="matplotlib.axis_2"><g id="ytick_1"><g id="line2d_19"><path d="M63 288.36 453.6 288.36" stroke="#808080" stroke-width="0.5" stroke-linecap="square" fill="none" clip-path="url(#p92eedc015b)"/></g><g id="line2d_20"><defs><path d="M0 0-3.5 0" id="m8272ee5de0" stroke="#000000" stroke-width="0.8"/></defs><g><use x="63" y="288.36" width="100%" height="100%" xlink:href="#m8272ee5de0" stroke="#000000" stroke-width="0.8"></use></g></g><g id="text_11"><g transform="matrix(0.11 0 0 -0.11 24.5091 292.539)"><defs><path d="M684 794 1344 794 1344 0 684 0 684 794Z" id="DejaVuSans-2e" transform="scale(0.015625 0.015625)"/></defs><use width="100%" height="100%" xlink:href="#DejaVuSans-30"></use><use x="63.623" width="100%" height="100%" xlink:href="#DejaVuSans-2e"></use><use x="95.4102" width="100%" height="100%" xlink:href="#DejaVuSans-30"></use><use x="159.033" width="100%" height="100%" xlink:href="#DejaVuSans-37"></use><use x="222.656" width="100%" height="100%" xlink:href="#DejaVuSans-30"></use></g></g></g><g id="ytick_2"><g id="line2d_21"><path d="M63 246.78 453.6 246.78" stroke="#808080" stroke-width="0.5" stroke-linecap="square" fill="none" clip-path="url(#p92eedc015b)"/></g><g id="line2d_22"><g><use x="63" y="246.78" width="100%" height="100%" xlink:href="#m8272ee5de0" stroke="#000000" stroke-width="0.8"></use></g></g><g id="text_12"><g transform="matrix(0.11 0 0 -0.11 24.5091 250.959)"><use width="100%" height="100%" xlink:href="#DejaVuSans-30"></use><use x="63.623" width="100%" height="100%" xlink:href="#DejaVuSans-2e"></use><use x="95.4102" width="100%" height="100%" xlink:href="#DejaVuSans-30"></use><use x="159.033" width="100%" height="100%" xlink:href="#DejaVuSans-37"></use><use x="222.656" width="100%" height="100%" xlink:href="#DejaVuSans-35"></use></g></g></g><g id="ytick_3"><g id="line2d_23"><path d="M63 205.2 453.6 205.2" stroke="#808080" stroke-width="0.5" stroke-linecap="square" fill="none" clip-path="url(#p92eedc015b)"/></g><g id="line2d_24"><g><use x="63" y="205.2" width="100%" height="100%" xlink:href="#m8272ee5de0" stroke="#000000" stroke-width="0.8"></use></g></g><g id="text_13"><g transform="matrix(0.11 0 0 -0.11 24.5091 209.379)"><use width="100%" height="100%" xlink:href="#DejaVuSans-30"></use><use x="63.623" width="100%" height="100%" xlink:href="#DejaVuSans-2e"></use><use x="95.4102" width="100%" height="100%" xlink:href="#DejaVuSans-30"></use><use x="159.033" width="100%" height="100%" xlink:href="#DejaVuSans-38"></use><use x="222.656" width="100%" height="100%" xlink:href="#DejaVuSans-30"></use></g></g></g><g id="ytick_4"><g id="line2d_25"><path d="M63 163.62 453.6 163.62" stroke="#808080" stroke-width="0.5" stroke-linecap="square" fill="none" clip-path="url(#p92eedc015b)"/></g><g id="line2d_26"><g><use x="63" y="163.62" width="100%" height="100%" xlink:href="#m8272ee5de0" stroke="#000000" stroke-width="0.8"></use></g></g><g id="text_14"><g transform="matrix(0.11 0 0 -0.11 24.5091 167.799)"><use width="100%" height="100%" xlink:href="#DejaVuSans-30"></use><use x="63.623" width="100%" height="100%" xlink:href="#DejaVuSans-2e"></use><use x="95.4102" width="100%" height="100%" xlink:href="#DejaVuSans-30"></use><use x="159.033" width="100%" height="100%" xlink:href="#DejaVuSans-38"></use><use x="222.656" width="100%" height="100%" xlink:href="#DejaVuSans-35"></use></g></g></g><g id="ytick_5"><g id="line2d_27"><path d="M63 122.04 453.6 122.04" stroke="#808080" stroke-width="0.5" stroke-linecap="square" fill="none" clip-path="url(#p92eedc015b)"/></g><g id="line2d_28"><g><use x="63" y="122.04" width="100%" height="100%" xlink:href="#m8272ee5de0" stroke="#000000" stroke-width="0.8"></use></g></g><g id="text_15"><g transform="matrix(0.11 0 0 -0.11 24.5091 126.219)"><defs><path d="M703 97 703 672C861.667 596.667 1022 539.333 1184 500 1346.67 460.667 1506.33 441 1663 441 2079.67 441 2397.67 581 2617 861 2837 1141 2962.67 1566.67 2994 2138 2873.33 1958.67 2720 1821 2534 1725 2348.67 1629 2143.67 1581 1919 1581 1452.33 1581 1083 1722 811 2004 539 2286.67 403 2673 403 3163 403 3641.67 544.667 4025.67 828 4315 1111.33 4605 1488.33 4750 1959 4750 2499 4750 2911 4543 3195 4129 3479.67 3715.67 3622 3115.33 3622 2328 3622 1592.67 3447.33 1005.67 3098 567 2749.33 128.333 2280.33-91 1691-91 1532.33-91 1371.67-75.3333 1209-44 1047-12.6667 878.333 34.3333 703 97ZM1959 2075C2242.33 2075 2466.67 2171.67 2632 2365 2798 2559 2881 2825 2881 3163 2881 3498.33 2798 3763.33 2632 3958 2466.67 4152.67 2242.33 4250 1959 4250 1675.67 4250 1451.33 4152.67 1286 3958 1120.67 3763.33 1038 3498.33 1038 3163 1038 2825 1120.67 2559 1286 2365 1451.33 2171.67 1675.67 2075 1959 2075Z" id="DejaVuSans-39" transform="scale(0.015625 0.015625)"/></defs><use width="100%" height="100%" xlink:href="#DejaVuSans-30"></use><use x="63.623" width="100%" height="100%" xlink:href="#DejaVuSans-2e"></use><use x="95.4102" width="100%" height="100%" xlink:href="#DejaVuSans-30"></use><use x="159.033" width="100%" height="100%" xlink:href="#DejaVuSans-39"></use><use x="222.656" width="100%" height="100%" xlink:href="#DejaVuSans-30"></use></g></g></g><g id="ytick_6"><g id="line2d_29"><path d="M63 80.46 453.6 80.46" stroke="#808080" stroke-width="0.5" stroke-linecap="square" fill="none" clip-path="url(#p92eedc015b)"/></g><g id="line2d_30"><g><use x="63" y="80.46" width="100%" height="100%" xlink:href="#m8272ee5de0" stroke="#000000" stroke-width="0.8"></use></g></g><g id="text_16"><g transform="matrix(0.11 0 0 -0.11 24.5091 84.6391)"><use width="100%" height="100%" xlink:href="#DejaVuSans-30"></use><use x="63.623" width="100%" height="100%" xlink:href="#DejaVuSans-2e"></use><use x="95.4102" width="100%" height="100%" xlink:href="#DejaVuSans-30"></use><use x="159.033" width="100%" height="100%" xlink:href="#DejaVuSans-39"></use><use x="222.656" width="100%" height="100%" xlink:href="#DejaVuSans-35"></use></g></g></g><g id="ytick_7"><g id="line2d_31"><path d="M63 38.88 453.6 38.88" stroke="#808080" stroke-width="0.5" stroke-linecap="square" fill="none" clip-path="url(#p92eedc015b)"/></g><g id="line2d_32"><g><use x="63" y="38.88" width="100%" height="100%" xlink:href="#m8272ee5de0" stroke="#000000" stroke-width="0.8"></use></g></g><g id="text_17"><g transform="matrix(0.11 0 0 -0.11 24.5091 43.0591)"><use width="100%" height="100%" xlink:href="#DejaVuSans-30"></use><use x="63.623" width="100%" height="100%" xlink:href="#DejaVuSans-2e"></use><use x="95.4102" width="100%" height="100%" xlink:href="#DejaVuSans-31"></use><use x="159.033" width="100%" height="100%" xlink:href="#DejaVuSans-30"></use><use x="222.656" width="100%" height="100%" xlink:href="#DejaVuSans-30"></use></g></g></g><g id="text_18"><g transform="matrix(6.73556e-18 -0.11 -0.11 -6.73556e-18 18.1991 221.535)"><defs><path d="M2356 4666 3072 4666 3938 0 3278 0 3084 1197 984 1197 325 0-341 0 2356 4666ZM2584 4044 1275 1722 2988 1722 2584 4044Z" id="DejaVuSans-Oblique-41" transform="scale(0.015625 0.015625)"/><path d="M3566 2113 3156 0 2578 0 2988 2091C3006.67 2189 3021 2275.33 3031 2350 3041.67 2425.33 3047 2484.67 3047 2528 3047 2703.33 2991.67 2839.67 2881 2937 2771 3035 2617 3084 2419 3084 2110.33 3084 1844.67 2981.33 1622 2776 1399.33 2571.33 1253.33 2293 1184 1941L800 0 225 0 903 3500 1478 3500 1363 2950C1523 3152 1715.33 3308 1940 3418 2165.33 3528.67 2402 3584 2650 3584 2958.67 3584 3197.67 3500.67 3367 3334 3537 3167.33 3622 2933 3622 2631 3622 2556.33 3617.33 2476.33 3608 2391 3598.67 2305.67 3584.67 2213 3566 2113Z" id="DejaVuSans-Oblique-6e" transform="scale(0.015625 0.015625)"/><path d="M3431 3366 3316 2797C3178 2897 3031.33 2972 2876 3022 2721.33 3072 2560.67 3097 2394 3097 2210.67 3097 2036 3064.67 1870 3000 1704.67 2935.33 1565.67 2843.67 1453 2725 1273.67 2543.67 1135 2331 1037 2087 939.667 1843.67 891 1591.67 891 1331 891 1016.33 969.667 782 1127 628 1284.33 474 1523.33 397 1844 397 2002 397 2170 421 2348 469 2526.67 517 2712.67 588.667 2906 684L2797 116C2630.33 47.3333 2459-4.33333 2283-39 2107-73.6667 1926.33-91 1741-91 1276.33-91 919 25 669 257 419 489.667 294 821.667 294 1253 294 1615.67 359 1949.67 489 2255 619 2560.33 812.333 2834.67 1069 3078 1243.67 3244.67 1448.67 3370.67 1684 3456 1920 3541.33 2177.33 3584 2456 3584 2618.67 3584 2780 3565.67 2940 3529 3100.67 3493 3264.33 3438.67 3431 3366Z" id="DejaVuSans-Oblique-63" transform="scale(0.015625 0.015625)"/><path d="M1081 4666 3756 4666 3653 4134 1606 4134 1338 2759 3188 2759 3084 2228 1234 2228 800 0 172 0 1081 4666Z" id="DejaVuSans-Oblique-46" transform="scale(0.015625 0.015625)"/><path d="M3169 2138C3169 2440 3099.67 2676.33 2961 2847 2822.33 3017.67 2631.33 3103 2388 3103 2210.67 3103 2044.33 3059.67 1889 2973 1733.67 2887 1598.67 2761.67 1484 2597 1363.33 2424.33 1268 2223.67 1198 1995 1128.67 1767 1094 1539.67 1094 1313 1094 1025 1162 799.333 1298 636 1434.67 472.667 1623 391 1863 391 2043.67 391 2211 433 2365 517 2519.67 601.667 2655.33 726.333 2772 891 2890.67 1061.67 2986.33 1260.33 3059 1487 3132.33 1714.33 3169 1931.33 3169 2138ZM1381 2969C1523 3160.33 1700.67 3310.67 1914 3420 2127.33 3529.33 2350.67 3584 2584 3584 2942.67 3584 3227.67 3463 3439 3221 3650.33 2979.67 3756 2653 3756 2241 3756 1903 3694 1575.67 3570 1259 3446 942.333 3269.67 661.333 3041 416 2891 253.333 2718 128 2522 40 2326-47.3333 2120.67-91 1906-91 1679.33-91 1482.67-39 1316 65 1149.33 169.667 1013.67 325 909 531L806 0 231 0 1178 4863 1753 4863 1381 2969Z" id="DejaVuSans-Oblique-62" transform="scale(0.015625 0.015625)"/><path d="M2206 3644C1894 3600 1635.67 3487.33 1431 3306 1160.33 3066.67 1025 2740.67 1025 2328 1025 1918 1160.33 1593 1431 1353 1635.67 1171.67 1894 1059.33 2206 1016L2206 3644ZM2838 1016C3150 1059.33 3408.33 1171.67 3613 1353 3879.67 1593 4013 1918 4013 2328 4013 2740.67 3879.67 3066.67 3613 3306 3408.33 3487.33 3150 3600 2838 3644L2838 1016ZM2206 494C1698 540 1279.33 702.333 950 981 556 1314.33 359 1763.33 359 2328 359 2892.67 556 3342.67 950 3678 1277.33 3959.33 1696 4123 2206 4169L2206 4666 2838 4666 2838 4169C3346 4121 3763.67 3957.33 4091 3678 4482.33 3342.67 4678 2892.67 4678 2328 4678 1765.33 4482.33 1316.33 4091 981 3763.67 702.333 3346 539 2838 491L2838 0 2206 0 2206 494Z" id="DejaVuSans-3a6" transform="scale(0.015625 0.015625)"/></defs><use width="100%" height="100%" xlink:href="#DejaVuSans-Oblique-41" transform="matrix(1 0 0 1 0 0.015625)"></use><use width="100%" height="100%" xlink:href="#DejaVuSans-Oblique-6e" transform="translate(68.4082 0.015625)"></use><use width="100%" height="100%" xlink:href="#DejaVuSans-Oblique-69" transform="translate(131.787 0.015625)"></use><use width="100%" height="100%" xlink:href="#DejaVuSans-Oblique-73" transform="translate(159.57 0.015625)"></use><use width="100%" height="100%" xlink:href="#DejaVuSans-Oblique-6f" transform="translate(211.67 0.015625)"></use><use width="100%" height="100%" xlink:href="#DejaVuSans-Oblique-74" transform="translate(272.852 0.015625)"></use><use width="100%" height="100%" xlink:href="#DejaVuSans-Oblique-72" transform="translate(312.061 0.015625)"></use><use width="100%" height="100%" xlink:href="#DejaVuSans-Oblique-6f" transform="translate(353.174 0.015625)"></use><use width="100%" height="100%" xlink:href="#DejaVuSans-Oblique-70" transform="translate(414.355 0.015625)"></use><use width="100%" height="100%" xlink:href="#DejaVuSans-Oblique-69" transform="translate(477.832 0.015625)"></use><use width="100%" height="100%" xlink:href="#DejaVuSans-Oblique-63" transform="translate(505.615 0.015625)"></use><use width="100%" height="100%" xlink:href="#DejaVuSans-Oblique-46" transform="translate(593.066 0.015625)"></use><use width="100%" height="100%" xlink:href="#DejaVuSans-Oblique-61" transform="translate(650.586 0.015625)"></use><use width="100%" height="100%" xlink:href="#DejaVuSans-Oblique-62" transform="translate(711.865 0.015625)"></use><use width="100%" height="100%" xlink:href="#DejaVuSans-Oblique-72" transform="translate(775.341 0.015625)"></use><use width="100%" height="100%" xlink:href="#DejaVuSans-Oblique-69" transform="translate(816.455 0.015625)"></use><use width="100%" height="100%" xlink:href="#DejaVuSans-Oblique-63" transform="translate(844.238 0.015625)"></use><use width="100%" height="100%" xlink:href="#DejaVuSans-3a6" transform="translate(931.689 0.015625)"></use><use width="100%" height="100%" xlink:href="#DejaVuSans-Oblique-63" transform="matrix(0.7 0 0 0.7 1011.36 -16.3906)"></use></g></g></g><g id="line2d_33"><path d="M435.331 257.029 354.02 245.382 269.622 229.542 208.381 214.634 147.656 192.272 123.468 178.295 96.7079 150.808 86.4154 124.253 82.813 109.811" stroke="#4C72B0" stroke-width="1.5" stroke-linecap="square" fill="none" clip-path="url(#p92eedc015b)"/></g><g id="line2d_34"><path d="M435.845 195.067 373.061 187.613 309.762 179.693 236.171 168.978 191.913 160.592 141.995 148.479 105.457 135.434 89.5032 122.855 80.7545 109.811" stroke="#55A868" stroke-width="1.5" stroke-linecap="square" fill="none" clip-path="url(#p92eedc015b)"/></g><g id="patch_3"><path d="M63 288.36 63 38.88" stroke="#000000" stroke-width="0.8" stroke-linecap="square" stroke-linejoin="miter" fill="none"/></g><g id="patch_4"><path d="M453.6 288.36 453.6 38.88" stroke="#000000" stroke-width="0.8" stroke-linecap="square" stroke-linejoin="miter" fill="none"/></g><g id="patch_5"><path d="M63 288.36 453.6 288.36" stroke="#000000" stroke-width="0.8" stroke-linecap="square" stroke-linejoin="miter" fill="none"/></g><g id="patch_6"><path d="M63 38.88 453.6 38.88" stroke="#000000" stroke-width="0.8" stroke-linecap="square" stroke-linejoin="miter" fill="none"/></g><g id="legend_1"><g id="patch_7"><path d="M276.88 134.949 446.6 134.949C447.933 134.949 448.6 134.282 448.6 132.949L448.6 45.88C448.6 44.5467 447.933 43.88 446.6 43.88L276.88 43.88C275.546 43.88 274.88 44.5467 274.88 45.88L274.88 132.949C274.88 134.282 275.546 134.949 276.88 134.949Z" stroke="#CCCCCC" stroke-linejoin="miter" fill="#FFFFFF" opacity="0.5"/></g><g id="PathCollection_11"><g><use x="288.88" y="52.8534" width="100%" height="100%" xlink:href="#ma624f50f9c" stroke="#4C72B0" stroke-opacity="0.7" fill="#4C72B0" fill-opacity="0.7"></use></g></g><g id="text_19"><g transform="matrix(0.1 0 0 -0.1 306.88 55.4784)"><defs><path d="M1831 0 50 4666 709 4666 2188 738 3669 4666 4325 4666 2547 0 1831 0Z" id="DejaVuSans-56" transform="scale(0.015625 0.015625)"/><path d="M4122 4306 4122 3641C3909.33 3839 3682.67 3986.67 3442 4084 3201.33 4182 2945.67 4231 2675 4231 2141.67 4231 1733.33 4068 1450 3742 1166.67 3416 1025 2944.67 1025 2328 1025 1713.33 1166.67 1243 1450 917 1733.33 591 2141.67 428 2675 428 2945.67 428 3201.33 477 3442 575 3682.67 673 3909.33 821 4122 1019L4122 359C3901.33 209 3667.33 96.3333 3420 21 3173.33-53.6667 2912.67-91 2638-91 1931.33-91 1374.67 125 968 557 562 989.667 359 1580 359 2328 359 3078 562 3669 968 4101 1374.67 4533.67 1931.33 4750 2638 4750 2916.67 4750 3179.33 4713 3426 4639 3673.33 4565 3905.33 4454 4122 4306Z" id="DejaVuSans-43" transform="scale(0.015625 0.015625)"/></defs><use width="100%" height="100%" xlink:href="#DejaVuSans-56"></use><use x="68.4082" width="100%" height="100%" xlink:href="#DejaVuSans-43"></use></g></g><g id="PathCollection_12"><g><use x="288.88" y="67.5316" width="100%" height="100%" xlink:href="#m083a1326bd" stroke="#55A868" stroke-opacity="0.7" fill="#55A868" fill-opacity="0.7"></use></g></g><g id="text_20"><g transform="matrix(0.1 0 0 -0.1 306.88 70.1566)"><defs><path d="M628 4666 3578 4666 3578 4134 1259 4134 1259 2753 3481 2753 3481 2222 1259 2222 1259 531 3634 531 3634 0 628 0 628 4666Z" id="DejaVuSans-45" transform="scale(0.015625 0.015625)"/></defs><use width="100%" height="100%" xlink:href="#DejaVuSans-56"></use><use x="68.4082" width="100%" height="100%" xlink:href="#DejaVuSans-45"></use></g></g><g id="PathCollection_13"><g><use x="288.88" y="82.2097" width="100%" height="100%" xlink:href="#maee26b8e05" stroke="#C44E52" stroke-opacity="0.7" fill="#C44E52" fill-opacity="0.7"></use></g></g><g id="text_21"><g transform="matrix(0.1 0 0 -0.1 306.88 84.8347)"><defs><path d="M628 4666 1259 4666 1259 2753 3553 2753 3553 4666 4184 4666 4184 0 3553 0 3553 2222 1259 2222 1259 0 628 0 628 4666Z" id="DejaVuSans-48" transform="scale(0.015625 0.015625)"/></defs><use width="100%" height="100%" xlink:href="#DejaVuSans-48"></use><use x="75.1953" width="100%" height="100%" xlink:href="#DejaVuSans-45"></use></g></g><g id="line2d_35"><path d="M278.88 96.0128 288.88 96.0128 298.88 96.0128" stroke="#4C72B0" stroke-width="1.5" stroke-linecap="square" fill="none"/></g><g id="text_22"><g transform="matrix(0.1 0 0 -0.1 306.88 99.5128)"><defs><path d="M3116 1747C3116 2169.67 3029 2501.33 2855 2742 2681 2982.67 2442 3103 2138 3103 1833.33 3103 1594 2982.67 1420 2742 1246 2501.33 1159 2169.67 1159 1747 1159 1324.33 1246 992.667 1420 752 1594 511.333 1833.33 391 2138 391 2442 391 2681 511.333 2855 752 3029 992.667 3116 1324.33 3116 1747ZM1159 2969C1280.33 3177 1433 3331.33 1617 3432 1801.67 3533.33 2022 3584 2278 3584 2703.33 3584 3048.67 3415.33 3314 3078 3580 2740.67 3713 2297 3713 1747 3713 1197 3580 753 3314 415 3048.67 77.6667 2703.33-91 2278-91 2022-91 1801.67-40.3333 1617 61 1433 162.333 1280.33 317 1159 525L1159 0 581 0 581 4863 1159 4863 1159 2969Z" id="DejaVuSans-62" transform="scale(0.015625 0.015625)"/><path d="M678 2906 4684 2906 4684 2381 678 2381 678 2906ZM678 1631 4684 1631 4684 1100 678 1100 678 1631Z" id="DejaVuSans-3d" transform="scale(0.015625 0.015625)"/></defs><use width="100%" height="100%" xlink:href="#DejaVuSans-62"></use><use x="63.4766" width="100%" height="100%" xlink:href="#DejaVuSans-3d"></use><use x="147.266" width="100%" height="100%" xlink:href="#DejaVuSans-30"></use><use x="210.889" width="100%" height="100%" xlink:href="#DejaVuSans-2e"></use><use x="242.676" width="100%" height="100%" xlink:href="#DejaVuSans-30"></use></g></g><g id="line2d_36"><path d="M278.88 110.691 288.88 110.691 298.88 110.691" stroke="#55A868" stroke-width="1.5" stroke-linecap="square" fill="none"/></g><g id="text_23"><g transform="matrix(0.1 0 0 -0.1 306.88 114.191)"><use width="100%" height="100%" xlink:href="#DejaVuSans-62"></use><use x="63.4766" width="100%" height="100%" xlink:href="#DejaVuSans-3d"></use><use x="147.266" width="100%" height="100%" xlink:href="#DejaVuSans-31"></use><use x="210.889" width="100%" height="100%" xlink:href="#DejaVuSans-2e"></use><use x="242.676" width="100%" height="100%" xlink:href="#DejaVuSans-30"></use></g></g><g id="PathCollection_14"><g><use x="288.88" y="126.244" width="100%" height="100%" xlink:href="#mc7f1ab8c4c" stroke="#8172B2" stroke-opacity="0.7" fill="#8172B2" fill-opacity="0.7"></use></g></g><g id="text_24"><g transform="matrix(0.1 0 0 -0.1 306.88 128.869)"><use width="100%" height="100%" xlink:href="#DejaVuSans-62"></use><use x="63.4766" width="100%" height="100%" xlink:href="#DejaVuSans-3d"></use><use x="147.266" width="100%" height="100%" xlink:href="#DejaVuSans-30"></use><use x="210.889" width="100%" height="100%" xlink:href="#DejaVuSans-2e"></use><use x="242.676" width="100%" height="100%" xlink:href="#DejaVuSans-32"></use></g></g><g id="PathCollection_15"><g><use x="367.511" y="52.8534" width="100%" height="100%" xlink:href="#mfc1856d5e0" stroke="#CCB974" stroke-opacity="0.7" fill="#CCB974" fill-opacity="0.7"></use></g></g><g id="text_25"><g transform="matrix(0.1 0 0 -0.1 385.511 55.4784)"><use width="100%" height="100%" xlink:href="#DejaVuSans-62"></use><use x="63.4766" width="100%" height="100%" xlink:href="#DejaVuSans-3d"></use><use x="147.266" width="100%" height="100%" xlink:href="#DejaVuSans-30"></use><use x="210.889" width="100%" height="100%" xlink:href="#DejaVuSans-2e"></use><use x="242.676" width="100%" height="100%" xlink:href="#DejaVuSans-33"></use></g></g><g id="PathCollection_16"><g><use x="367.511" y="67.5316" width="100%" height="100%" xlink:href="#m18f2018d22" stroke="#64B5CD" stroke-opacity="0.7" fill="#64B5CD" fill-opacity="0.7"></use></g></g><g id="text_26"><g transform="matrix(0.1 0 0 -0.1 385.511 70.1566)"><use width="100%" height="100%" xlink:href="#DejaVuSans-62"></use><use x="63.4766" width="100%" height="100%" xlink:href="#DejaVuSans-3d"></use><use x="147.266" width="100%" height="100%" xlink:href="#DejaVuSans-30"></use><use x="210.889" width="100%" height="100%" xlink:href="#DejaVuSans-2e"></use><use x="242.676" width="100%" height="100%" xlink:href="#DejaVuSans-34"></use></g></g><g id="PathCollection_17"><g><use x="367.511" y="82.2097" width="100%" height="100%" xlink:href="#mfe33f0f723" stroke="#4C72B0" stroke-opacity="0.7" fill="#4C72B0" fill-opacity="0.7"></use></g></g><g id="text_27"><g transform="matrix(0.1 0 0 -0.1 385.511 84.8347)"><use width="100%" height="100%" xlink:href="#DejaVuSans-62"></use><use x="63.4766" width="100%" height="100%" xlink:href="#DejaVuSans-3d"></use><use x="147.266" width="100%" height="100%" xlink:href="#DejaVuSans-30"></use><use x="210.889" width="100%" height="100%" xlink:href="#DejaVuSans-2e"></use><use x="242.676" width="100%" height="100%" xlink:href="#DejaVuSans-35"></use></g></g><g id="PathCollection_18"><g><use x="367.511" y="96.8878" width="100%" height="100%" xlink:href="#m9d57bb7d49" stroke="#55A868" stroke-opacity="0.7" fill="#55A868" fill-opacity="0.7"></use></g></g><g id="text_28"><g transform="matrix(0.1 0 0 -0.1 385.511 99.5128)"><use width="100%" height="100%" xlink:href="#DejaVuSans-62"></use><use x="63.4766" width="100%" height="100%" xlink:href="#DejaVuSans-3d"></use><use x="147.266" width="100%" height="100%" xlink:href="#DejaVuSans-30"></use><use x="210.889" width="100%" height="100%" xlink:href="#DejaVuSans-2e"></use><use x="242.676" width="100%" height="100%" xlink:href="#DejaVuSans-36"></use></g></g><g id="PathCollection_19"><g><use x="367.511" y="111.566" width="100%" height="100%" xlink:href="#mae036716ea" stroke="#C44E52" stroke-opacity="0.7" fill="#C44E52" fill-opacity="0.7"></use></g></g><g id="text_29"><g transform="matrix(0.1 0 0 -0.1 385.511 114.191)"><use width="100%" height="100%" xlink:href="#DejaVuSans-62"></use><use x="63.4766" width="100%" height="100%" xlink:href="#DejaVuSans-3d"></use><use x="147.266" width="100%" height="100%" xlink:href="#DejaVuSans-30"></use><use x="210.889" width="100%" height="100%" xlink:href="#DejaVuSans-2e"></use><use x="242.676" width="100%" height="100%" xlink:href="#DejaVuSans-38"></use></g></g><g id="PathCollection_20"><g><use x="367.511" y="126.244" width="100%" height="100%" xlink:href="#m2dc7723945" stroke="#8172B2" stroke-opacity="0.7" fill="#8172B2" fill-opacity="0.7"></use></g></g><g id="text_30"><g transform="matrix(0.1 0 0 -0.1 385.511 128.869)"><defs><path d="M1259 4147 1259 2394 2053 2394C2347 2394 2574 2470 2734 2622 2894.67 2774 2975 2990.67 2975 3272 2975 3551.33 2894.67 3767 2734 3919 2574 4071 2347 4147 2053 4147L1259 4147ZM628 4666 2053 4666C2576.33 4666 2971.67 4547.67 3239 4311 3507 4074.33 3641 3728 3641 3272 3641 2811.33 3507 2463.33 3239 2228 2971.67 1992.67 2576.33 1875 2053 1875L1259 1875 1259 0 628 0 628 4666Z" id="DejaVuSans-50" transform="scale(0.015625 0.015625)"/><path d="M603 4863 1178 4863 1178 0 603 0 603 4863Z" id="DejaVuSans-6c" transform="scale(0.015625 0.015625)"/><path d="M2194 1759C1729.33 1759 1407.33 1706 1228 1600 1048.67 1494 959 1312.67 959 1056 959 852 1026.33 690 1161 570 1295.67 450.667 1478.33 391 1709 391 2028.33 391 2284.33 504 2477 730 2669.67 956 2766 1256.33 2766 1631L2766 1759 2194 1759ZM3341 1997 3341 0 2766 0 2766 531C2634.67 319 2471 162.333 2275 61 2079-40.3333 1839.33-91 1556-91 1198-91 913 9.66667 701 211 489.667 412.333 384 681.667 384 1019 384 1412.33 515.667 1709 779 1909 1043 2109 1436.33 2209 1959 2209L2766 2209 2766 2266C2766 2530.67 2679 2735.33 2505 2880 2331 3024.67 2086.67 3097 1772 3097 1572 3097 1377 3073 1187 3025 997.667 2977 815.667 2905 641 2809L641 3341C851 3422.33 1055 3483 1253 3523 1451 3563.67 1643.67 3584 1831 3584 2337.67 3584 2716 3452.67 2966 3190 3216 2928 3341 2530.33 3341 1997Z" id="DejaVuSans-61" transform="scale(0.015625 0.015625)"/><path d="M3513 2113 3513 0 2938 0 2938 2094C2938 2425.33 2873.33 2673 2744 2837 2614.67 3001.67 2421 3084 2163 3084 1852.33 3084 1607.33 2985 1428 2787 1248.67 2589.67 1159 2320 1159 1978L1159 0 581 0 581 3500 1159 3500 1159 2956C1297 3166.67 1459 3324 1645 3428 1831.67 3532 2047 3584 2291 3584 2693 3584 2997 3459.67 3203 3211 3409.67 2962.33 3513 2596.33 3513 2113Z" id="DejaVuSans-6e" transform="scale(0.015625 0.015625)"/><path d="M3597 1894 3597 1613 953 1613C978.333 1217 1097.67 915.333 1311 708 1524.33 500.667 1821.67 397 2203 397 2423.67 397 2637.67 424 2845 478 3052.33 532 3258.33 613.333 3463 722L3463 178C3256.33 90.6667 3044.67 24 2828-22 2611.33-68 2391.67-91 2169-91 1610.33-91 1168 71.3333 842 396 516 721.333 353 1161.33 353 1716 353 2288.67 507.667 2743 817 3079 1126.33 3415.67 1543.67 3584 2069 3584 2539.67 3584 2912 3432.33 3186 3129 3460 2826.33 3597 2414.67 3597 1894ZM3022 2063C3018 2377 2930 2627.67 2758 2815 2586 3003 2358.33 3097 2075 3097 1754.33 3097 1497.67 3006.33 1305 2825 1112.33 2643.67 1001.33 2388.33 972 2059L3022 2063Z" id="DejaVuSans-65" transform="scale(0.015625 0.015625)"/><path d="" id="DejaVuSans-20" transform="scale(0.015625 0.015625)"/><path d="M2834 3397 2834 2853C2672 2936.33 2503.33 2998.67 2328 3040 2153.33 3082 1972 3103 1784 3103 1498.67 3103 1284.67 3059.33 1142 2972 999.333 2884.67 928 2753.33 928 2578 928 2444.67 979 2340 1081 2264 1183 2188 1388.33 2115.67 1697 2047L1894 2003C2302 1915.67 2592 1792.33 2764 1633 2936 1473.67 3022 1251.33 3022 966 3022 640.667 2893.33 383 2636 193 2378.67 3.66667 2025-91 1575-91 1387.67-91 1192.33-72.6667 989-36 785.667 0.666667 571.667 55.3333 347 128L347 722C559.667 611.333 769 528.333 975 473 1181 418.333 1385.33 391 1588 391 1858.67 391 2066.67 437.333 2212 530 2358 622.667 2431 753.333 2431 922 2431 1078 2378.33 1197.67 2273 1281 2168.33 1364.33 1937.67 1444.67 1581 1522L1381 1569C1025 1643.67 767.667 1758.67 609 1914 451 2069.33 372 2282.33 372 2553 372 2882.33 488.667 3136.33 722 3315 955.333 3494.33 1286.67 3584 1716 3584 1928 3584 2127.67 3568.33 2315 3537 2503 3506.33 2676 3459.67 2834 3397Z" id="DejaVuSans-73" transform="scale(0.015625 0.015625)"/><path d="M1172 4494 1172 3500 2356 3500 2356 3053 1172 3053 1172 1153C1172 867.667 1211 684.333 1289 603 1367 521.667 1526 481 1766 481L2356 481 2356 0 1766 0C1322 0 1015.67 82.6667 847 248 678.333 414 594 715.667 594 1153L594 3053 172 3053 172 3500 594 3500 594 4494 1172 4494Z" id="DejaVuSans-74" transform="scale(0.015625 0.015625)"/><path d="M2631 2963C2566.33 3000.33 2496 3027.67 2420 3045 2344 3063 2260.33 3072 2169 3072 1843.67 3072 1594 2966.33 1420 2755 1246 2543.67 1159 2240 1159 1844L1159 0 581 0 581 3500 1159 3500 1159 2956C1280.33 3168.67 1437.67 3326.33 1631 3429 1825 3532.33 2060.67 3584 2338 3584 2377.33 3584 2421 3581.33 2469 3576 2517 3571.33 2570 3563.67 2628 3553L2631 2963Z" id="DejaVuSans-72" transform="scale(0.015625 0.015625)"/><path d="M603 3500 1178 3500 1178 0 603 0 603 3500ZM603 4863 1178 4863 1178 4134 603 4134 603 4863Z" id="DejaVuSans-69" transform="scale(0.015625 0.015625)"/></defs><use width="100%" height="100%" xlink:href="#DejaVuSans-50"></use><use x="60.3027" width="100%" height="100%" xlink:href="#DejaVuSans-6c"></use><use x="88.0859" width="100%" height="100%" xlink:href="#DejaVuSans-61"></use><use x="149.365" width="100%" height="100%" xlink:href="#DejaVuSans-6e"></use><use x="212.744" width="100%" height="100%" xlink:href="#DejaVuSans-65"></use><use x="274.268" width="100%" height="100%" xlink:href="#DejaVuSans-20"></use><use x="306.055" width="100%" height="100%" xlink:href="#DejaVuSans-73"></use><use x="358.154" width="100%" height="100%" xlink:href="#DejaVuSans-74"></use><use x="397.363" width="100%" height="100%" xlink:href="#DejaVuSans-72"></use><use x="438.477" width="100%" height="100%" xlink:href="#DejaVuSans-61"></use><use x="499.756" width="100%" height="100%" xlink:href="#DejaVuSans-69"></use><use x="527.539" width="100%" height="100%" xlink:href="#DejaVuSans-6e"></use></g></g></g></g></g></svg>