<svg width="768" height="480" viewBox="0 0 576 360" xmlns="http://www.w3.org/2000/svg" xmlns:xlink="http://www.w3.org/1999/xlink" stroke-linejoin="round" overflow="hidden"><defs></defs><defs><clipPath id="p4f4dddde18"><rect x="72" y="93.096" width="401.76" height="227.304"/></clipPath></defs><g id="figure_1"><g id="patch_1"><path d="M0 360 576 360 576 0 0 0Z" fill="#FFFFFF"/></g><g id="axes_1"><g id="patch_2"><path d="M72 320.4 473.76 320.4 473.76 93.096 72 93.096Z" fill="#FFFFFF"/></g><g id="patch_3"><path d="M459.029 147.649 445.637 149.922 445.637 148.104 272.88 148.104 272.88 147.194 445.637 147.194 445.637 145.376Z" stroke="#D62728" stroke-linejoin="miter" fill="#D62728" clip-path="url(#p4f4dddde18)"/></g><g id="patch_4"><path d="M86.7312 147.649 100.123 145.376 100.123 147.194 272.88 147.194 272.88 148.104 100.123 148.104 100.123 149.922Z" stroke="#D62728" stroke-linejoin="miter" fill="#D62728" clip-path="url(#p4f4dddde18)"/></g><g id="patch_5"><path d="M406.8 296.76 393.408 299.033 393.408 297.215 272.88 297.215 272.88 296.306 393.408 296.306 393.408 294.487Z" stroke="#1F77B4" stroke-linejoin="miter" fill="#1F77B4" clip-path="url(#p4f4dddde18)"/></g><g id="patch_6"><path d="M138.96 296.76 152.352 294.487 152.352 296.306 272.88 296.306 272.88 297.215 152.352 297.215 152.352 299.033Z" stroke="#1F77B4" stroke-linejoin="miter" fill="#1F77B4" clip-path="url(#p4f4dddde18)"/></g><g id="matplotlib.axis_1"><g id="xtick_1"><g id="line2d_1"><path d="M72 320.4 72 93.096" stroke="#808080" stroke-width="0.5" stroke-linecap="square" fill="none" clip-path="url(#p4f4dddde18)"/></g><g id="line2d_2"><defs><path d="M0 0 0 3.5" id="m6d5736b94e" stroke="#000000" stroke-width="0.8"/></defs><g><use x="72" y="320.4" width="100%" height="100%" xlink:href="#m6d5736b94e" stroke="#000000" stroke-width="0.8"></use></g></g><g id="text_1"><g transform="matrix(0.13 0 0 -0.13 47.9449 337.278)"><defs><path d="M678 2272 4684 2272 4684 1741 678 1741 678 2272Z" id="DejaVuSans-2212" transform="scale(0.015625 0.015625)"/><path d="M2034 4250C1709.33 4250 1465 4090 1301 3770 1137.67 3450.67 1056 2970 1056 2328 1056 1688.67 1137.67 1209 1301 889 1465 569 1709.33 409 2034 409 2361.33 409 2606.67 569 2770 889 2934 1209 3016 1688.67 3016 2328 3016 2970 2934 3450.67 2770 3770 2606.67 4090 2361.33 4250 2034 4250ZM2034 4750C2557.33 4750 2957 4543 3233 4129 3509 3715.67 3647 3115.33 3647 2328 3647 1542.67 3509 943 3233 529 2957 115.667 2557.33-91 2034-91 1511.33-91 1112 115.667 836 529 560 943 422 1542.67 422 2328 422 3115.33 560 3715.67 836 4129 1112 4543 1511.33 4750 2034 4750Z" id="DejaVuSans-30" transform="scale(0.015625 0.015625)"/><path d="M684 794 1344 794 1344 0 684 0 684 794Z" id="DejaVuSans-2e" transform="scale(0.015625 0.015625)"/><path d="M2597 2516C2899 2451.33 3134.67 2316.67 3304 2112 3474 1908 3559 1656 3559 1356 3559 896 3400.67 539.667 3084 287 2767.33 35 2317.33-91 1734-91 1538.67-91 1337.33-71.6667 1130-33 922.667 5.66667 708.667 63.6667 488 141L488 750C662.667 648 854 571 1062 519 1270.67 467 1488.67 441 1716 441 2111.33 441 2412.67 519 2620 675 2827.33 831 2931 1058 2931 1356 2931 1631.33 2834.67 1846.33 2642 2001 2449.33 2156.33 2181.33 2234 1838 2234L1294 2234 1294 2753 1863 2753C2173 2753 2410.33 2815 2575 2939 2739.67 3063 2822 3241.67 2822 3475 2822 3714.33 2737 3898 2567 4026 2397.67 4154.67 2154.67 4219 1838 4219 1664.67 4219 1479 4200 1281 4162 1083 4124.67 865.333 4066.67 628 3988L628 4550C868 4616.67 1092.67 4666.67 1302 4700 1511.33 4733.33 1708.67 4750 1894 4750 2373.33 4750 2752.33 4641 3031 4423 3310.33 4205.67 3450 3911.67 3450 3541 3450 3282.33 3376 3064 3228 2886 3080 2708 2869.67 2584.67 2597 2516Z" id="DejaVuSans-33" transform="scale(0.015625 0.015625)"/></defs><use width="100%" height="100%" xlink:href="#DejaVuSans-2212"></use><use x="83.7891" width="100%" height="100%" xlink:href="#DejaVuSans-30"></use><use x="147.412" width="100%" height="100%" xlink:href="#DejaVuSans-2e"></use><use x="179.199" width="100%" height="100%" xlink:href="#DejaVuSans-30"></use><use x="242.822" width="100%" height="100%" xlink:href="#DejaVuSans-30"></use><use x="306.445" width="100%" height="100%" xlink:href="#DejaVuSans-33"></use></g></g></g><g id="xtick_2"><g id="line2d_3"><path d="M138.96 320.4 138.96 93.096" stroke="#808080" stroke-width="0.5" stroke-linecap="square" fill="none" clip-path="url(#p4f4dddde18)"/></g><g id="line2d_4"><g><use x="138.96" y="320.4" width="100%" height="100%" xlink:href="#m6d5736b94e" stroke="#000000" stroke-width="0.8"></use></g></g><g id="text_2"><g transform="matrix(0.13 0 0 -0.13 114.905 337.278)"><defs><path d="M1228 531 3431 531 3431 0 469 0 469 531C708.333 779 1034.67 1111.67 1448 1529 1862 1947 2122 2216.67 2228 2338 2430 2564.67 2571 2756.67 2651 2914 2731.67 3071.33 2772 3226 2772 3378 2772 3626 2685 3828 2511 3984 2337 4140.67 2110.33 4219 1831 4219 1633 4219 1424 4184.67 1204 4116 984.667 4047.33 750 3943 500 3803L500 4441C754 4543 991.333 4620 1212 4672 1433.33 4724 1635.67 4750 1819 4750 2302.33 4750 2687.67 4629 2975 4387 3262.33 4145.67 3406 3823 3406 3419 3406 3227 3370 3045 3298 2873 3226.67 2701.67 3096 2499.33 2906 2266 2854 2205.33 2688.33 2030.67 2409 1742 2130.33 1453.33 1736.67 1049.67 1228 531Z" id="DejaVuSans-32" transform="scale(0.015625 0.015625)"/></defs><use width="100%" height="100%" xlink:href="#DejaVuSans-2212"></use><use x="83.7891" width="100%" height="100%" xlink:href="#DejaVuSans-30"></use><use x="147.412" width="100%" height="100%" xlink:href="#DejaVuSans-2e"></use><use x="179.199" width="100%" height="100%" xlink:href="#DejaVuSans-30"></use><use x="242.822" width="100%" height="100%" xlink:href="#DejaVuSans-30"></use><use x="306.445" width="100%" height="100%" xlink:href="#DejaVuSans-32"></use></g></g></g><g id="xtick_3"><g id="line2d_5"><path d="M205.92 320.4 205.92 93.096" stroke="#808080" stroke-width="0.5" stroke-linecap="square" fill="none" clip-path="url(#p4f4dddde18)"/></g><g id="line2d_6"><g><use x="205.92" y="320.4" width="100%" height="100%" xlink:href="#m6d5736b94e" stroke="#000000" stroke-width="0.8"></use></g></g><g id="text_3"><g transform="matrix(0.13 0 0 -0.13 181.865 337.278)"><defs><path d="M794 531 1825 531 1825 4091 703 3866 703 4441 1819 4666 2450 4666 2450 531 3481 531 3481 0 794 0 794 531Z" id="DejaVuSans-31" transform="scale(0.015625 0.015625)"/></defs><use width="100%" height="100%" xlink:href="#DejaVuSans-2212"></use><use x="83.7891" width="100%" height="100%" xlink:href="#DejaVuSans-30"></use><use x="147.412" width="100%" height="100%" xlink:href="#DejaVuSans-2e"></use><use x="179.199" width="100%" height="100%" xlink:href="#DejaVuSans-30"></use><use x="242.822" width="100%" height="100%" xlink:href="#DejaVuSans-30"></use><use x="306.445" width="100%" height="100%" xlink:href="#DejaVuSans-31"></use></g></g></g><g id="xtick_4"><g id="line2d_7"><path d="M272.88 320.4 272.88 93.096" stroke="#808080" stroke-width="0.5" stroke-linecap="square" fill="none" clip-path="url(#p4f4dddde18)"/></g><g id="line2d_8"><g><use x="272.88" y="320.4" width="100%" height="100%" xlink:href="#m6d5736b94e" stroke="#000000" stroke-width="0.8"></use></g></g><g id="text_4"><g transform="matrix(0.13 0 0 -0.13 254.272 337.278)"><use width="100%" height="100%" xlink:href="#DejaVuSans-30"></use><use x="63.623" width="100%" height="100%" xlink:href="#DejaVuSans-2e"></use><use x="95.4102" width="100%" height="100%" xlink:href="#DejaVuSans-30"></use><use x="159.033" width="100%" height="100%" xlink:href="#DejaVuSans-30"></use><use x="222.656" width="100%" height="100%" xlink:href="#DejaVuSans-30"></use></g></g></g><g id="xtick_5"><g id="line2d_9"><path d="M339.84 320.4 339.84 93.096" stroke="#808080" stroke-width="0.5" stroke-linecap="square" fill="none" clip-path="url(#p4f4dddde18)"/></g><g id="line2d_10"><g><use x="339.84" y="320.4" width="100%" height="100%" xlink:href="#m6d5736b94e" stroke="#000000" stroke-width="0.8"></use></g></g><g id="text_5"><g transform="matrix(0.13 0 0 -0.13 321.232 337.278)"><use width="100%" height="100%" xlink:href="#DejaVuSans-30"></use><use x="63.623" width="100%" height="100%" xlink:href="#DejaVuSans-2e"></use><use x="95.4102" width="100%" height="100%" xlink:href="#DejaVuSans-30"></use><use x="159.033" width="100%" height="100%" xlink:href="#DejaVuSans-30"></use><use x="222.656" width="100%" height="100%" xlink:href="#DejaVuSans-31"></use></g></g></g><g id="xtick_6"><g id="line2d_11"><path d="M406.8 320.4 406.8 93.096" stroke="#808080" stroke-width="0.5" stroke-linecap="square" fill="none" clip-path="url(#p4f4dddde18)"/></g><g id="line2d_12"><g><use x="406.8" y="320.4" width="100%" height="100%" xlink:href="#m6d5736b94e" stroke="#000000" stroke-width="0.8"></use></g></g><g id="text_6"><g transform="matrix(0.13 0 0 -0.13 388.192 337.278)"><use width="100%" height="100%" xlink:href="#DejaVuSans-30"></use><use x="63.623" width="100%" height="100%" xlink:href="#DejaVuSans-2e"></use><use x="95.4102" width="100%" height="100%" xlink:href="#DejaVuSans-30"></use><use x="159.033" width="100%" height="100%" xlink:href="#DejaVuSans-30"></use><use x="222.656" width="100%" height="100%" xlink:href="#DejaVuSans-32"></use></g></g></g><g id="xtick_7"><g id="line2d_13"><path d="M473.76 320.4 473.76 93.096" stroke="#808080" stroke-width="0.5" stroke-linecap="square" fill="none" clip-path="url(#p4f4dddde18)"/></g><g id="line2d_14"><g><use x="473.76" y="320.4" width="100%" height="100%" xlink:href="#m6d5736b94e" stroke="#000000" stroke-width="0.8"></use></g></g><g id="text_7"><g transform="matrix(0.13 0 0 -0.13 455.152 337.278)"><use width="100%" height="100%" xlink:href="#DejaVuSans-30"></use><use x="63.623" width="100%" height="100%" xlink:href="#DejaVuSans-2e"></use><use x="95.4102" width="100%" height="100%" xlink:href="#DejaVuSans-30"></use><use x="159.033" width="100%" height="100%" xlink:href="#DejaVuSans-30"></use><use x="222.656" width="100%" height="100%" xlink:href="#DejaVuSans-33"></use></g></g></g><g id="text_8"><g transform="matrix(0.14 0 0 -0.14 254.12 354.619)"><defs><path d="M3841 3500 2234 1784 3219 0 2559 0 1819 1388 531 0-166 0 1556 1844 641 3500 1300 3500 1972 2234 3144 3500 3841 3500Z" id="DejaVuSans-Oblique-78" transform="scale(0.015625 0.015625)"/><path d="M1984 4856C1705.33 4377.33 1498 3903.33 1362 3434 1226.67 2965.33 1159 2490.33 1159 2009 1159 1528.33 1227.33 1052 1364 580 1500.67 108 1707.33-366.667 1984-844L1484-844C1172-354 938.333 127.333 783 600 627.667 1072.67 550 1542.33 550 2009 550 2473.67 627 2941.33 781 3412 935.667 3883.33 1170 4364.67 1484 4856L1984 4856Z" id="DejaVuSans-28" transform="scale(0.015625 0.015625)"/><path d="M5747 2113 5338 0 4763 0 5166 2094C5182.67 2183.33 5195 2260.33 5203 2325 5211.67 2389.67 5216 2445 5216 2491 5216 2678.33 5163.67 2824 5059 2928 4955 3032 4809.33 3084 4622 3084 4342.67 3084 4093.67 2979.33 3875 2770 3656.33 2560.67 3514.67 2288.33 3450 1953L3066 0 2491 0 2900 2094C2916.67 2170.67 2929 2241.67 2937 2307 2945.67 2373 2950 2432 2950 2484 2950 2674 2898 2821.33 2794 2926 2690 3031.33 2546.33 3084 2363 3084 2079.67 3084 1828.33 2979.33 1609 2770 1390.33 2560.67 1248.67 2288.33 1184 1953L800 0 225 0 909 3500 1484 3500 1375 2956C1531 3160.67 1713.67 3316.33 1923 3423 2133 3530.33 2357.67 3584 2597 3584 2851 3584 3059.67 3517.33 3223 3384 3387 3250.67 3485.67 3065.33 3519 2828 3693.67 3074 3896 3261.33 4126 3390 4356.67 3519.33 4600 3584 4856 3584 5156 3584 5387.67 3497.67 5551 3325 5715 3152.33 5797 2907.67 5797 2591 5797 2522.33 5792.67 2446.67 5784 2364 5776 2282 5763.67 2198.33 5747 2113Z" id="DejaVuSans-Oblique-6d" transform="scale(0.015625 0.015625)"/><path d="M513 4856 1013 4856C1325 4364.67 1558.67 3883.33 1714 3412 1869.33 2941.33 1947 2473.67 1947 2009 1947 1542.33 1869.33 1072.67 1714 600 1558.67 127.333 1325-354 1013-844L513-844C789.667-366.667 996.333 108 1133 580 1269.67 1052 1338 1528.33 1338 2009 1338 2490.33 1269.67 2965.33 1133 3434 996.333 3903.33 789.667 4377.33 513 4856Z" id="DejaVuSans-29" transform="scale(0.015625 0.015625)"/></defs><use width="100%" height="100%" xlink:href="#DejaVuSans-Oblique-78" transform="matrix(1 0 0 1 0 0.125)"></use><use width="100%" height="100%" xlink:href="#DejaVuSans-28" transform="translate(91.6501 0.125)"></use><use width="100%" height="100%" xlink:href="#DejaVuSans-Oblique-6d" transform="translate(130.664 0.125)"></use><use width="100%" height="100%" xlink:href="#DejaVuSans-29" transform="translate(228.076 0.125)"></use></g></g></g><g id="matplotlib.axis_2"><g id="ytick_1"><g id="line2d_15"><path d="M72 320.4 473.76 320.4" stroke="#808080" stroke-width="0.5" stroke-linecap="square" fill="none" clip-path="url(#p4f4dddde18)"/></g><g id="line2d_16"><defs><path d="M0 0-3.5 0" id="m1838a3bad9" stroke="#000000" stroke-width="0.8"/></defs><g><use x="72" y="320.4" width="100%" height="100%" xlink:href="#m1838a3bad9" stroke="#000000" stroke-width="0.8"></use></g></g><g id="text_9"><g transform="matrix(0.13 0 0 -0.13 36.0547 325.339)"><defs><path d="M691 4666 3169 4666 3169 4134 1269 4134 1269 2991C1360.33 3022.33 1451.67 3045.67 1543 3061 1635 3076.33 1727 3084 1819 3084 2339.67 3084 2752 2941.33 3056 2656 3360.67 2370.67 3513 1984.33 3513 1497 3513 995 3356.67 604.667 3044 326 2731.33 48 2290.67-91 1722-91 1526-91 1326.33-74.3333 1123-41 920.333-7.66667 710.667 42.3333 494 109L494 744C681.333 642 875 566 1075 516 1275 466 1486.33 441 1709 441 2069.67 441 2355 535.667 2565 725 2775.67 914.333 2881 1171.67 2881 1497 2881 1821.67 2775.67 2078.67 2565 2268 2355 2458 2069.67 2553 1709 2553 1540.33 2553 1372 2534.33 1204 2497 1036.67 2459.67 865.667 2401.33 691 2322L691 4666Z" id="DejaVuSans-35" transform="scale(0.015625 0.015625)"/></defs><use width="100%" height="100%" xlink:href="#DejaVuSans-30"></use><use x="63.623" width="100%" height="100%" xlink:href="#DejaVuSans-2e"></use><use x="95.4102" width="100%" height="100%" xlink:href="#DejaVuSans-35"></use><use x="159.033" width="100%" height="100%" xlink:href="#DejaVuSans-35"></use></g></g></g><g id="ytick_2"><g id="line2d_17"><path d="M72 274.939 473.76 274.939" stroke="#808080" stroke-width="0.5" stroke-linecap="square" fill="none" clip-path="url(#p4f4dddde18)"/></g><g id="line2d_18"><g><use x="72" y="274.939" width="100%" height="100%" xlink:href="#m1838a3bad9" stroke="#000000" stroke-width="0.8"></use></g></g><g id="text_10"><g transform="matrix(0.13 0 0 -0.13 36.0547 279.878)"><defs><path d="M2113 2584C1829.67 2584 1605 2487 1439 2293 1273.67 2099.67 1191 1834.33 1191 1497 1191 1161.67 1273.67 896.333 1439 701 1605 506.333 1829.67 409 2113 409 2396.33 409 2620.67 506.333 2786 701 2951.33 896.333 3034 1161.67 3034 1497 3034 1834.33 2951.33 2099.67 2786 2293 2620.67 2487 2396.33 2584 2113 2584ZM3366 4563 3366 3988C3207.33 4062.67 3047.33 4119.67 2886 4159 2724.67 4199 2564.67 4219 2406 4219 1989.33 4219 1671 4078.33 1451 3797 1231.67 3515.67 1106.33 3090.67 1075 2522 1197.67 2703.33 1351.67 2842.33 1537 2939 1723 3035.67 1927.33 3084 2150 3084 2618.67 3084 2989 2941.67 3261 2657 3533 2373 3669 1986.33 3669 1497 3669 1017.67 3527.33 633 3244 343 2960.67 53.6667 2583.67-91 2113-91 1573-91 1160.33 115.667 875 529 589.667 943 447 1542.67 447 2328 447 3065.33 622 3653.33 972 4092 1322 4530.67 1791.67 4750 2381 4750 2539.67 4750 2699.67 4734.33 2861 4703 3022.33 4671.67 3190.67 4625 3366 4563Z" id="DejaVuSans-36" transform="scale(0.015625 0.015625)"/></defs><use width="100%" height="100%" xlink:href="#DejaVuSans-30"></use><use x="63.623" width="100%" height="100%" xlink:href="#DejaVuSans-2e"></use><use x="95.4102" width="100%" height="100%" xlink:href="#DejaVuSans-36"></use><use x="159.033" width="100%" height="100%" xlink:href="#DejaVuSans-30"></use></g></g></g><g id="ytick_3"><g id="line2d_19"><path d="M72 229.478 473.76 229.478" stroke="#808080" stroke-width="0.5" stroke-linecap="square" fill="none" clip-path="url(#p4f4dddde18)"/></g><g id="line2d_20"><g><use x="72" y="229.478" width="100%" height="100%" xlink:href="#m1838a3bad9" stroke="#000000" stroke-width="0.8"></use></g></g><g id="text_11"><g transform="matrix(0.13 0 0 -0.13 36.0547 234.417)"><use width="100%" height="100%" xlink:href="#DejaVuSans-30"></use><use x="63.623" width="100%" height="100%" xlink:href="#DejaVuSans-2e"></use><use x="95.4102" width="100%" height="100%" xlink:href="#DejaVuSans-36"></use><use x="159.033" width="100%" height="100%" xlink:href="#DejaVuSans-35"></use></g></g></g><g id="ytick_4"><g id="line2d_21"><path d="M72 184.018 473.76 184.018" stroke="#808080" stroke-width="0.5" stroke-linecap="square" fill="none" clip-path="url(#p4f4dddde18)"/></g><g id="line2d_22"><g><use x="72" y="184.018" width="100%" height="100%" xlink:href="#m1838a3bad9" stroke="#000000" stroke-width="0.8"></use></g></g><g id="text_12"><g transform="matrix(0.13 0 0 -0.13 36.0547 188.957)"><defs><path d="M525 4666 3525 4666 3525 4397 1831 0 1172 0 2766 4134 525 4134 525 4666Z" id="DejaVuSans-37" transform="scale(0.015625 0.015625)"/></defs><use width="100%" height="100%" xlink:href="#DejaVuSans-30"></use><use x="63.623" width="100%" height="100%" xlink:href="#DejaVuSans-2e"></use><use x="95.4102" width="100%" height="100%" xlink:href="#DejaVuSans-37"></use><use x="159.033" width="100%" height="100%" xlink:href="#DejaVuSans-30"></use></g></g></g><g id="ytick_5"><g id="line2d_23"><path d="M72 138.557 473.76 138.557" stroke="#808080" stroke-width="0.5" stroke-linecap="square" fill="none" clip-path="url(#p4f4dddde18)"/></g><g id="line2d_24"><g><use x="72" y="138.557" width="100%" height="100%" xlink:href="#m1838a3bad9" stroke="#000000" stroke-width="0.8"></use></g></g><g id="text_13"><g transform="matrix(0.13 0 0 -0.13 36.0547 143.496)"><use width="100%" height="100%" xlink:href="#DejaVuSans-30"></use><use x="63.623" width="100%" height="100%" xlink:href="#DejaVuSans-2e"></use><use x="95.4102" width="100%" height="100%" xlink:href="#DejaVuSans-37"></use><use x="159.033" width="100%" height="100%" xlink:href="#DejaVuSans-35"></use></g></g></g><g id="ytick_6"><g id="line2d_25"><path d="M72 93.096 473.76 93.096" stroke="#808080" stroke-width="0.5" stroke-linecap="square" fill="none" clip-path="url(#p4f4dddde18)"/></g><g id="line2d_26"><g><use x="72" y="93.096" width="100%" height="100%" xlink:href="#m1838a3bad9" stroke="#000000" stroke-width="0.8"></use></g></g><g id="text_14"><g transform="matrix(0.13 0 0 -0.13 36.0547 98.035)"><defs><path d="M2034 2216C1734 2216 1498 2135.67 1326 1975 1154.67 1814.33 1069 1593.67 1069 1313 1069 1031.67 1154.67 810.667 1326 650 1498 489.333 1734 409 2034 409 2334 409 2570.33 489.667 2743 651 2916.33 813 3003 1033.67 3003 1313 3003 1593.67 2917 1814.33 2745 1975 2573.67 2135.67 2336.67 2216 2034 2216ZM1403 2484C1132.33 2550.67 921.333 2676.67 770 2862 619.333 3048 544 3274.33 544 3541 544 3913.67 676.667 4208.33 942 4425 1208 4641.67 1572 4750 2034 4750 2498.67 4750 2863.33 4641.67 3128 4425 3392.67 4208.33 3525 3913.67 3525 3541 3525 3274.33 3449.33 3048 3298 2862 3147.33 2676.67 2937.67 2550.67 2669 2484 2973 2413.33 3209.67 2274.67 3379 2068 3549 1862 3634 1610.33 3634 1313 3634 860.333 3496 513 3220 271 2944 29.6667 2548.67-91 2034-91 1520-91 1124.67 29.6667 848 271 572 513 434 860.333 434 1313 434 1610.33 519.333 1862 690 2068 861.333 2274.67 1099 2413.33 1403 2484ZM1172 3481C1172 3239.67 1247.33 3051.33 1398 2916 1549.33 2780.67 1761.33 2713 2034 2713 2305.33 2713 2517.33 2780.67 2670 2916 2823.33 3051.33 2900 3239.67 2900 3481 2900 3723 2823.33 3911.67 2670 4047 2517.33 4182.33 2305.33 4250 2034 4250 1761.33 4250 1549.33 4182.33 1398 4047 1247.33 3911.67 1172 3723 1172 3481Z" id="DejaVuSans-38" transform="scale(0.015625 0.015625)"/></defs><use width="100%" height="100%" xlink:href="#DejaVuSans-30"></use><use x="63.623" width="100%" height="100%" xlink:href="#DejaVuSans-2e"></use><use x="95.4102" width="100%" height="100%" xlink:href="#DejaVuSans-38"></use><use x="159.033" width="100%" height="100%" xlink:href="#DejaVuSans-30"></use></g></g></g><g id="text_15"><g transform="matrix(8.57253e-18 -0.14 -0.14 -8.57253e-18 29.1431 249.238)"><defs><path d="M1319 0 500 4666 1119 4666 1797 653 4063 4666 4750 4666 2053 0 1319 0Z" id="DejaVuSans-Oblique-56" transform="scale(0.015625 0.015625)"/><path d="M1625-91C1214.33-91 889.667 35.6667 651 289 413 542.333 294 887.667 294 1325 294 1579 335 1837.67 417 2101 499.667 2365 606.667 2586.67 738 2766 944 3044.67 1174 3250.67 1428 3384 1682 3517.33 1969.67 3584 2291 3584 2689 3584 3010.33 3460 3255 3212 3499.67 2964.67 3622 2641 3622 2241 3622 1963.67 3581.33 1687.33 3500 1412 3418.67 1137.33 3312.33 909.333 3181 728 2977 448.667 2748 242.333 2494 109 2240-24.3333 1950.33-91 1625-91ZM891 1344C891 1027.33 957 790.333 1089 633 1221.67 475.667 1422.33 397 1691 397 2076.33 397 2395.33 565 2648 901 2901.33 1237.67 3028 1664.33 3028 2181 3028 2483 2960.33 2711 2825 2865 2689.67 3019.67 2490.67 3097 2228 3097 2011.33 3097 1818.67 3046.33 1650 2945 1481.33 2844.33 1330.33 2690.67 1197 2484 1099 2330 1023.33 2154 970 1956 917.333 1758 891 1554 891 1344Z" id="DejaVuSans-Oblique-6f" transform="scale(0.015625 0.015625)"/><path d="M1172 4863 1747 4863 1606 4134 1031 4134 1172 4863ZM909 3500 1484 3500 800 0 225 0 909 3500Z" id="DejaVuSans-Oblique-69" transform="scale(0.015625 0.015625)"/><path d="M2675 525C2521 323 2338.67 169.667 2128 65 1918-39 1684.67-91 1428-91 1078-91 801.333 28.3333 598 267 395.333 505.667 294 832.333 294 1247 294 1593 355.333 1922.67 478 2236 601.333 2549.33 779.667 2830 1013 3078 1167 3242.67 1340.67 3368 1534 3454 1728 3540.67 1931.33 3584 2144 3584 2368.67 3584 2567 3529.67 2739 3421 2911 3313 3044 3158 3138 2956L3513 4863 4091 4863 3144 0 2566 0 2675 525ZM891 1350C891 1048 959 812.667 1095 644 1231.67 475.333 1421 391 1663 391 1841.67 391 2007.67 434 2161 520 2314.33 606.667 2449.33 734.333 2566 903 2688.67 1078.33 2785.33 1280.33 2856 1509 2927.33 1738.33 2963 1964.67 2963 2188 2963 2477.33 2894.67 2703 2758 2865 2621.33 3027.67 2433.33 3109 2194 3109 2012.67 3109 1843.67 3066.33 1687 2981 1531 2895.67 1398 2773 1288 2613 1166.67 2439.67 1070 2238.33 998 2009 926.667 1780.33 891 1560.67 891 1350Z" id="DejaVuSans-Oblique-64" transform="scale(0.015625 0.015625)"/><path d="M1613 4147 1294 2491 2106 2491C2424.67 2491 2682.33 2579 2879 2755 3076.33 2931 3175 3160.67 3175 3444 3175 3670.67 3108.67 3844.33 2976 3965 2844 4086.33 2654 4147 2406 4147L1613 4147ZM2772 2241C2905.33 2209.67 3016.33 2132.33 3105 2009 3193.67 1886.33 3296.33 1641.67 3413 1275L3809 0 3144 0 2778 1197C2684.67 1505 2576.33 1711 2453 1815 2330.33 1919.67 2142 1972 1888 1972L1191 1972 806 0 172 0 1081 4666 2503 4666C2934.33 4666 3265 4568.33 3495 4373 3725.67 4178.33 3841 3897.67 3841 3531 3841 3206.33 3743 2925 3547 2687 3351 2449.67 3092.67 2301 2772 2241Z" id="DejaVuSans-Oblique-52" transform="scale(0.015625 0.015625)"/><path d="M3438 1997 3047 0 2472 0 2578 531C2409.33 323 2217 167.333 2001 64 1785.67-39.3333 1545.67-91 1281-91 983-91 738.667 0 548 182 358 364.667 263 598.667 263 884 263 1292.67 426 1615.67 752 1853 1078 2090.33 1527.33 2209 2100 2209L2900 2209 2931 2363C2935.67 2379.67 2939 2397.67 2941 2417 2943 2437 2944 2467.67 2944 2509 2944 2695 2868.33 2839.33 2717 2942 2566.33 3045.33 2354.33 3097 2081 3097 1893.67 3097 1701.33 3073 1504 3025 1307.33 2977 1105 2905 897 2809L997 3341C1213.67 3422.33 1425.67 3483 1633 3523 1840.33 3563.67 2040.67 3584 2234 3584 2646.67 3584 2960.67 3494.33 3176 3315 3392 3136.33 3500 2876 3500 2534 3500 2465.33 3494.67 2384.67 3484 2292 3474 2199.33 3458.67 2101 3438 1997ZM2816 1759 2241 1759C1769.67 1759 1421 1696 1195 1570 969 1444 856 1248.67 856 984 856 800.667 913.667 657 1029 553 1145 449 1305 397 1509 397 1821.67 397 2094.67 509 2328 733 2561.33 957 2715.67 1256.33 2791 1631L2816 1759Z" id="DejaVuSans-Oblique-61" transform="scale(0.015625 0.015625)"/><path d="M2706 3500 2619 3053 1472 3053 1100 1153C1087.33 1082.33 1078 1023 1072 975 1066 927 1063 889.667 1063 863 1063 729.667 1103 632.667 1183 572 1263 511.333 1391.67 481 1569 481L2150 481 2053 0 1503 0C1161.67 0 907 66.6667 739 200 571.667 333.333 488 535.333 488 806 488 854 491 906.667 497 964 503 1021.33 512.333 1084.33 525 1153L897 3053 409 3053 500 3500 978 3500 1172 4494 1747 4494 1556 3500 2706 3500Z" id="DejaVuSans-Oblique-74" transform="scale(0.015625 0.015625)"/><path d="M3078 2063C3084.67 2096.33 3089.33 2130.67 3092 2166 3095.33 2201.33 3097 2236.67 3097 2272 3097 2526 3022.33 2727 2873 2875 2724.33 3023 2522 3097 2266 3097 1980.67 3097 1728.33 3006.67 1509 2826 1290.33 2646 1125 2390.33 1013 2059L3078 2063ZM3578 1613 903 1613C890.333 1533.67 882 1471 878 1425 874 1379 872 1339.33 872 1306 872 1016.67 961 792.667 1139 634 1317 476 1568.67 397 1894 397 2144 397 2380.33 425 2603 481 2826.33 537.667 3033.67 620 3225 728L3116 159C2909.33 75.6667 2696 13.3333 2476-28 2256.67-70 2033.33-91 1806-91 1320.67-91 947.333 25 686 257 424.667 489.667 294 819.667 294 1247 294 1611.67 359 1950.67 489 2264 619 2577.33 810.333 2857 1063 3103 1225 3257 1418 3375.67 1642 3459 1866 3542.33 2104 3584 2356 3584 2752 3584 3067 3465.33 3301 3228 3535.67 2990.67 3653 2672 3653 2272 3653 2176 3646.67 2073.33 3634 1964 3622 1854.67 3603.33 1737.67 3578 1613Z" id="DejaVuSans-Oblique-65" transform="scale(0.015625 0.015625)"/></defs><use width="100%" height="100%" xlink:href="#DejaVuSans-Oblique-56" transform="matrix(1 0 0 1 0 0.015625)"></use><use width="100%" height="100%" xlink:href="#DejaVuSans-Oblique-6f" transform="translate(68.4082 0.015625)"></use><use width="100%" height="100%" xlink:href="#DejaVuSans-Oblique-69" transform="translate(129.59 0.015625)"></use><use width="100%" height="100%" xlink:href="#DejaVuSans-Oblique-64" transform="translate(157.373 0.015625)"></use><use width="100%" height="100%" xlink:href="#DejaVuSans-Oblique-52" transform="translate(253.32 0.015625)"></use><use width="100%" height="100%" xlink:href="#DejaVuSans-Oblique-61" transform="translate(322.802 0.015625)"></use><use width="100%" height="100%" xlink:href="#DejaVuSans-Oblique-74" transform="translate(384.082 0.015625)"></use><use width="100%" height="100%" xlink:href="#DejaVuSans-Oblique-69" transform="translate(423.291 0.015625)"></use><use width="100%" height="100%" xlink:href="#DejaVuSans-Oblique-6f" transform="translate(451.074 0.015625)"></use><use width="100%" height="100%" xlink:href="#DejaVuSans-Oblique-65" transform="translate(544.726 0.015625)"></use></g></g></g><g id="line2d_27"><path d="M85.392 361 85.392 2.1744" stroke="#D62728" stroke-width="3" stroke-dasharray="6 6" fill="none" clip-path="url(#p4f4dddde18)"/></g><g id="line2d_28"><path d="M460.368 361 460.368 2.1744" stroke="#D62728" stroke-width="3" stroke-dasharray="6 6" fill="none" clip-path="url(#p4f4dddde18)"/></g><g id="line2d_29"><path d="M140.299 361 140.299 2.1744" stroke="#1F77B4" stroke-width="3" stroke-dasharray="9 3 3 3" fill="none" clip-path="url(#p4f4dddde18)"/></g><g id="line2d_30"><path d="M405.461 361 405.461 2.1744" stroke="#1F77B4" stroke-width="3" stroke-dasharray="9 3 3 3" fill="none" clip-path="url(#p4f4dddde18)"/></g><g id="line2d_31"><path d="M125.568 224.335 127.049 221.543 128.529 216.118 130.01 209.889 131.49 207.935 132.971 208.861 134.451 213.208 135.932 216.348 137.412 218.793 138.893 219.347 140.373 220.081 141.854 218.684 143.334 222.275 144.815 224.172 146.295 223.499 147.776 221.792 149.256 220.475 150.737 220.347 152.217 222.628 153.698 230.332 155.178 235.123 156.659 237.944 158.139 240.323 159.62 243.235 161.101 243.821 162.581 245.011 164.062 244.471 165.542 241.581 167.023 235.934 168.503 232.267 171.464 224.065 172.945 225.041 174.425 228.481 175.906 233.854 177.386 241.895 178.867 248.95 180.347 253.051 181.828 255.894 184.789 255.897 186.269 256.52 187.75 254.771 189.23 257.719 190.711 258.653 192.192 263.202 193.672 265.47 195.153 264.223 198.114 252.265 199.594 247.561 201.075 243.456 202.555 239.005 204.036 240.869 205.516 243.887 206.997 247.427 208.477 251.653 209.958 257.164 211.438 260.473 212.919 261.151 214.399 260.948 215.88 262.999 217.36 260.605 218.841 257.653 220.321 255.284 221.802 252.138 223.282 248.267 224.763 243.017 226.244 234.373 229.205 231.85 230.685 226.984 232.166 226.29 233.646 227.32 235.127 226.915 236.607 226.993 238.088 226.084 239.568 225.964 242.529 226.007 244.01 223.685 245.49 218.395 246.971 217.54 248.451 215.192 249.932 212.271 251.412 210.49 252.893 211.676 254.373 209.924 255.854 207.704 257.335 206.472 258.815 207.033 260.296 209.007 261.776 215.036 263.257 216.626 266.218 211.89 267.698 206.744 269.179 205.121 270.659 197.352 272.14 201.975 275.101 208.856 276.581 214.306 278.062 221.209 279.542 223.891 281.023 227.612 282.503 228.814 283.984 228.227 285.464 226.101 286.945 225.075 288.425 224.611 289.906 224.514 291.387 225.118 292.867 222.957 294.348 221.016 295.828 218.568 297.309 214.736 298.789 208.219 300.27 208.216 301.75 209.151 303.231 209.931 304.711 211.39 306.192 214.433 307.672 216.594 309.153 222.303 310.633 223.492 312.114 223.194 313.594 220.925 315.075 215.892 316.555 214.705 318.036 213.767 319.516 216.006 320.997 217.677 322.478 227.29 323.958 234.005 325.439 236.546 326.919 236.899 328.4 236.109 329.88 234.156 331.361 231.749 332.841 228.981 334.322 227.748 335.802 227.276 337.283 226.269 338.763 226.607 340.244 224.241 341.724 219.876 343.205 214.833 344.685 212.091 346.166 212.598 349.127 219.016 350.607 217.755 352.088 220.663 353.568 220.346 356.53 207.037 358.01 198.937 359.491 196.636 360.971 193.936 362.452 193.141 363.932 192.813 365.413 192.319 366.893 190.798 368.374 193.009 369.854 190.256 371.335 185.219 372.815 178.024 374.296 169.518 375.776 162.298 377.257 160.624 378.737 164.902 380.218 173.379 381.698 180.084 383.179 184.979 384.659 188.063 386.14 192.954 387.621 195.651 389.101 199.634 390.582 201.25 392.062 201.381 393.543 200.344 395.023 201.218 396.504 204.639 397.984 207.171 399.465 205.043 400.945 203.418 403.906 198.952 405.387 199.163 406.867 197.972 408.348 198.408 409.828 197.873 411.309 196.74 412.789 196.857 414.27 197.867 415.75 198.699 417.231 198.563 418.711 198.021 420.192 198.41 420.192 198.41" stroke="#D62728" stroke-width="1.5" stroke-dasharray="1.5 0" fill="none" clip-path="url(#p4f4dddde18)"/></g><g id="line2d_32"><path d="M185.832 209.712 186.707 212.362 187.582 214.106 188.457 214.406 189.331 213.59 190.206 211.646 191.081 208.724 191.956 205.045 192.831 202.611 194.581 195.572 195.455 192.514 196.33 190.119 197.205 188.063 198.08 186.307 199.83 185.393 200.705 181.805 202.454 181.774 203.329 184.697 205.079 194.053 206.829 202.503 208.578 210.195 209.453 213.035 210.328 213.693 211.203 215.099 212.078 215.338 212.952 216.144 213.827 217.345 214.702 219 215.577 224.807 216.452 225.894 218.202 227.571 219.951 229.99 220.826 230.359 221.701 229.763 222.576 228.563 223.451 227.652 224.326 226.908 225.2 226.551 226.075 223.439 226.95 224.131 227.825 223.361 228.7 225.006 229.575 223.761 231.324 220.184 232.199 218.73 233.949 216.689 234.824 215.216 235.699 214.276 236.574 213.58 237.448 213.245 238.323 215.907 239.198 216.166 240.948 217.068 241.823 217.996 243.572 221.282 244.447 222.161 245.322 221.806 246.197 220.856 247.072 219.663 247.947 218.701 249.696 217.683 250.571 216.575 251.446 214.823 253.196 210.472 254.071 208.973 254.945 205.963 255.82 204.652 256.695 204.863 257.57 206.146 259.32 209.812 260.195 211.655 261.069 212.208 261.944 211.192 262.819 209.39 263.694 204.094 264.569 202.898 265.444 202.308 266.319 202.182 267.193 202.766 268.068 208.116 268.943 210.144 269.818 208.957 270.693 210.887 271.568 213.265 273.317 218.711 274.192 220.571 275.067 221.866 275.942 225.375 276.817 225.017 277.692 226.11 278.567 226.231 280.316 225.257 281.191 228.35 282.066 228.559 282.941 228.95 283.816 232.519 284.691 233.87 285.565 235.592 286.44 236.981 287.315 234.949 288.19 235.132 289.065 234.615 289.94 233.408 290.815 231.538 292.564 226.846 293.439 221.442 294.314 220.075 295.189 219.54 296.064 219.681 296.939 220.193 297.813 220.446 298.688 219.923 299.563 219.004 300.438 218.487 301.313 215.117 302.188 215.709 303.062 216.021 303.937 216.02 304.812 215.791 305.687 215.397 306.562 214.49 307.437 212.504 308.312 209.374 310.061 201.437 310.936 198.194 311.811 196.167 312.686 195.88 313.561 196.467 314.436 197.299 315.31 201.049 316.185 201.94 317.06 202.17 318.81 201.55 321.434 198.218 322.309 197.337 323.184 196.016 325.809 189.626 326.684 188.601 327.558 187.333 328.433 195.057 329.308 195.616 330.183 195.917 331.058 195.897 331.933 195.654 332.808 195 333.682 193.185 334.557 192.476 335.432 191.437 337.182 188.636 338.057 187.559 338.931 186.005 340.681 181.7 341.556 178.214 342.431 178.005 345.055 168.417 345.93 166.355 346.805 164.922 348.555 162.59 349.43 164.045 350.305 164.156 351.179 164.884 352.054 166.293 353.804 169.705 354.679 168.936 355.554 171.282 356.429 176.747 359.053 186.867 359.928 188.512 359.928 188.512" stroke="#1F77B4" stroke-width="1.5" stroke-dasharray="1.5 1.5" fill="none" clip-path="url(#p4f4dddde18)"/></g><g id="line2d_33"><defs><path d="M-3.5 -0 3.5 3.5 3.5-3.5Z" id="m4f4d11af59" stroke="#D62728" stroke-linejoin="miter"/></defs><path d="M125.568 218.348 127.049 213.563 128.529 213.925 130.01 215.204 131.49 218.848 132.971 219.051 134.451 225.036 135.932 232.192 137.412 236.996 138.893 239.087 140.373 235.97 141.854 232.5 143.334 228.627 146.295 225.534 147.776 226.509 149.256 232.869 150.737 233.138 152.217 231.473 153.698 236.098 155.178 234.439 156.659 231.381 161.101 226.901 162.581 225.627 164.062 223.049 167.023 223.86 168.503 226.079 169.984 231.15 171.464 235.352 175.906 249.398 177.386 252.174 178.867 252.157 180.347 253.098 181.828 251.241 183.308 247.685 184.789 243.576 186.269 240.47 187.75 239.046 189.23 238.831 190.711 237.841 193.672 234.216 195.153 231.389 196.633 233.77 198.114 234.711 199.594 237.875 201.075 241.828 204.036 251.508 205.516 253.866 206.997 253.177 208.477 250.463 209.958 246.31 211.438 246.104 212.919 244.334 214.399 244.859 215.88 245.623 217.36 244.155 218.841 241.715 221.802 235.936 223.282 234.271 224.763 235.597 226.244 234.044 227.724 231.18 229.205 229.683 230.685 226.766 232.166 221.025 233.646 218.128 235.127 221.443 236.607 224.435 238.088 228.268 239.568 230.365 241.049 229.732 242.529 224.286 244.01 221.985 245.49 219.026 246.971 213.734 248.451 211.649 249.932 210.65 251.412 207.285 252.893 206.043 254.373 208.161 255.854 208.756 257.335 209.756 258.815 209.221 260.296 208.451 261.776 208.088 263.257 210.164 264.737 209.922 266.218 209.913 267.698 206.712 269.179 206.992 270.659 207.144 272.14 211.645 273.62 212.925 275.101 219.8 276.581 221.677 278.062 225.531 279.542 229.887 281.023 240.565 282.503 249.155 283.984 253.372 285.464 257.006 286.945 256.425 288.425 253.086 291.387 242.312 292.867 240.174 294.348 239.978 295.828 239.914 297.309 243.043 298.789 240.564 300.27 239.173 301.75 237.248 303.231 236.038 304.711 233.842 306.192 230.869 307.672 230.557 309.153 233.748 310.633 237.843 312.114 249.47 313.594 259.538 315.075 265.357 316.555 265.003 319.516 255.618 320.997 254.12 322.478 257.964 323.958 262.544 326.919 257.857 328.4 256.187 329.88 256.585 331.361 256.031 332.841 255.687 334.322 254.763 335.802 253.984 337.283 256.825 338.763 251.328 340.244 247.402 341.724 242.879 343.205 239.405 344.685 237.314 346.166 236.542 347.646 237.225 349.127 236.218 350.607 237.518 352.088 239.004 355.049 246.161 356.53 243.473 358.01 238.681 362.452 213.696 363.932 213.552 366.893 205.508 368.374 203.08 369.854 201.449 371.335 198.745 372.815 195.164 374.296 189.683 375.776 185.939 377.257 178.478 378.737 174.93 380.218 174.986 383.179 190.581 386.14 210.701 387.621 222.173 389.101 229.876 390.582 232.588 392.062 234.574 393.543 233.304 395.023 230.488 396.504 230.886 397.984 234.814 400.945 248.837 402.426 254.599 403.906 258.507 405.387 260.804 406.867 260.208 408.348 257.88 411.309 249.697 412.789 246.865 414.27 246.148 415.75 248.21 417.231 252.423 418.711 254.915 420.192 258.265 420.192 258.265" stroke="#D62728" stroke-width="1.2" stroke-linecap="square" fill="none" clip-path="url(#p4f4dddde18)"/><g clip-path="url(#p4f4dddde18)"><use x="125.568" y="218.348" width="100%" height="100%" xlink:href="#m4f4d11af59" stroke="#D62728" stroke-linejoin="miter" fill-opacity="0"></use><use x="143.334" y="228.627" width="100%" height="100%" xlink:href="#m4f4d11af59" stroke="#D62728" stroke-linejoin="miter" fill-opacity="0"></use><use x="168.503" y="226.079" width="100%" height="100%" xlink:href="#m4f4d11af59" stroke="#D62728" stroke-linejoin="miter" fill-opacity="0"></use><use x="189.23" y="238.831" width="100%" height="100%" xlink:href="#m4f4d11af59" stroke="#D62728" stroke-linejoin="miter" fill-opacity="0"></use><use x="211.438" y="246.104" width="100%" height="100%" xlink:href="#m4f4d11af59" stroke="#D62728" stroke-linejoin="miter" fill-opacity="0"></use><use x="236.607" y="224.435" width="100%" height="100%" xlink:href="#m4f4d11af59" stroke="#D62728" stroke-linejoin="miter" fill-opacity="0"></use><use x="260.296" y="208.451" width="100%" height="100%" xlink:href="#m4f4d11af59" stroke="#D62728" stroke-linejoin="miter" fill-opacity="0"></use><use x="281.023" y="240.565" width="100%" height="100%" xlink:href="#m4f4d11af59" stroke="#D62728" stroke-linejoin="miter" fill-opacity="0"></use><use x="297.309" y="243.043" width="100%" height="100%" xlink:href="#m4f4d11af59" stroke="#D62728" stroke-linejoin="miter" fill-opacity="0"></use><use x="313.594" y="259.538" width="100%" height="100%" xlink:href="#m4f4d11af59" stroke="#D62728" stroke-linejoin="miter" fill-opacity="0"></use><use x="337.283" y="256.825" width="100%" height="100%" xlink:href="#m4f4d11af59" stroke="#D62728" stroke-linejoin="miter" fill-opacity="0"></use><use x="358.01" y="238.681" width="100%" height="100%" xlink:href="#m4f4d11af59" stroke="#D62728" stroke-linejoin="miter" fill-opacity="0"></use><use x="371.335" y="198.745" width="100%" height="100%" xlink:href="#m4f4d11af59" stroke="#D62728" stroke-linejoin="miter" fill-opacity="0"></use><use x="384.659" y="200.434" width="100%" height="100%" xlink:href="#m4f4d11af59" stroke="#D62728" stroke-linejoin="miter" fill-opacity="0"></use><use x="396.504" y="230.886" width="100%" height="100%" xlink:href="#m4f4d11af59" stroke="#D62728" stroke-linejoin="miter" fill-opacity="0"></use><use x="412.789" y="246.865" width="100%" height="100%" xlink:href="#m4f4d11af59" stroke="#D62728" stroke-linejoin="miter" fill-opacity="0"></use></g></g><g id="line2d_34"><defs><path d="M0 3.5C0.928211 3.5 1.81853 3.13122 2.47487 2.47487 3.13122 1.81853 3.5 0.928211 3.5 0 3.5-0.928211 3.13122-1.81853 2.47487-2.47487 1.81853-3.13122 0.928211-3.5 0-3.5-0.928211-3.5-1.81853-3.13122-2.47487-2.47487-3.13122-1.81853-3.5-0.928211-3.5 0-3.5 0.928211-3.13122 1.81853-2.47487 2.47487-1.81853 3.13122-0.928211 3.5 0 3.5Z" id="mfbd29c4a2e" stroke="#1F77B4"/></defs><path d="M185.832 266.365 186.707 265.857 187.582 264.376 188.457 259.062 189.331 258.895 190.206 255.291 191.081 250.495 192.831 238.802 194.581 226.685 195.455 221.402 196.33 217.393 197.205 214.582 198.08 212.485 198.955 210.956 199.83 210.402 200.705 207.081 201.579 207.984 202.454 210.112 203.329 213.387 204.204 217.182 205.079 223.338 205.954 225.6 206.829 226.779 207.703 227.267 208.578 226.993 209.453 226.262 210.328 224.867 211.203 223.148 212.078 224.421 212.952 222.949 213.827 222.734 214.702 223.056 215.577 223.657 216.452 226.814 217.327 223.866 218.202 227.215 219.076 226.685 219.951 226.459 220.826 223.087 221.701 223.75 223.451 225.857 226.95 227.709 227.825 227.388 228.7 226.266 229.575 224.394 231.324 220.252 233.949 215.67 235.699 212.037 237.448 208.063 238.323 207.871 240.073 204.406 240.948 203.257 241.823 202.492 242.698 202.428 243.572 202.709 244.447 205.354 245.322 206.102 246.197 207.104 247.072 212.487 247.947 215.533 251.446 230.346 252.321 233.462 253.196 235.048 254.071 231.855 259.32 217.495 260.195 216.177 261.069 216.091 261.944 216.682 262.819 212.87 263.694 222.285 264.569 218.106 265.444 217.798 266.319 217.067 267.193 215.996 268.068 214.722 268.943 213.202 269.818 212.226 270.693 212.116 271.568 210.444 272.443 210.731 274.192 212.143 275.067 212.532 275.942 212.464 276.817 212.108 278.567 211.097 279.441 210.723 280.316 211.431 281.191 213.236 282.066 215.993 282.941 220.377 283.816 222.641 284.691 224.432 285.565 224.493 286.44 223.634 287.315 222.462 291.689 214.814 292.564 213.648 293.439 212.936 294.314 212.477 295.189 211.834 296.064 209.576 296.939 206.878 297.813 203.242 298.688 197.017 299.563 193.981 300.438 191.667 302.188 187.85 303.062 189.732 303.937 188.863 304.812 187.529 306.562 184.273 307.437 183.412 308.312 181.095 309.186 180.693 310.936 180.511 311.811 179.94 313.561 178.389 314.436 175.32 315.31 175.517 316.185 176.148 317.06 176.578 317.935 176.229 318.81 174.803 319.685 173.141 320.56 172.264 321.434 172.344 322.309 173.319 323.184 175.141 324.059 177.449 324.934 180.197 325.809 180.054 327.558 184.15 328.433 189.288 329.308 191.328 330.183 194.391 332.808 205.079 333.682 207.397 334.557 208.859 335.432 207.544 336.307 206.749 337.182 204.726 338.057 205.674 338.931 203.17 340.681 199.402 341.556 197.927 342.431 196.155 343.306 193.951 345.055 188.66 345.93 186.526 346.805 184.791 347.68 180.227 348.555 180.545 350.305 181.608 351.179 185.235 352.054 185.172 352.929 185.873 353.804 187.402 354.679 187.758 355.554 189.764 356.429 192.107 357.303 192.358 359.928 200.349 359.928 200.349" stroke="#1F77B4" stroke-width="1.2" stroke-linecap="square" fill="none" clip-path="url(#p4f4dddde18)"/><g clip-path="url(#p4f4dddde18)"><use x="185.832" y="266.365" width="100%" height="100%" xlink:href="#mfbd29c4a2e" stroke="#1F77B4" fill-opacity="0"></use><use x="191.956" y="244.868" width="100%" height="100%" xlink:href="#mfbd29c4a2e" stroke="#1F77B4" fill-opacity="0"></use><use x="195.455" y="221.402" width="100%" height="100%" xlink:href="#mfbd29c4a2e" stroke="#1F77B4" fill-opacity="0"></use><use x="203.329" y="213.387" width="100%" height="100%" xlink:href="#mfbd29c4a2e" stroke="#1F77B4" fill-opacity="0"></use><use x="212.078" y="224.421" width="100%" height="100%" xlink:href="#mfbd29c4a2e" stroke="#1F77B4" fill-opacity="0"></use><use x="223.451" y="225.857" width="100%" height="100%" xlink:href="#mfbd29c4a2e" stroke="#1F77B4" fill-opacity="0"></use><use x="235.699" y="212.037" width="100%" height="100%" xlink:href="#mfbd29c4a2e" stroke="#1F77B4" fill-opacity="0"></use><use x="247.072" y="212.487" width="100%" height="100%" xlink:href="#mfbd29c4a2e" stroke="#1F77B4" fill-opacity="0"></use><use x="253.196" y="235.048" width="100%" height="100%" xlink:href="#mfbd29c4a2e" stroke="#1F77B4" fill-opacity="0"></use><use x="261.944" y="216.682" width="100%" height="100%" xlink:href="#mfbd29c4a2e" stroke="#1F77B4" fill-opacity="0"></use><use x="268.068" y="214.722" width="100%" height="100%" xlink:href="#mfbd29c4a2e" stroke="#1F77B4" fill-opacity="0"></use><use x="282.941" y="220.377" width="100%" height="100%" xlink:href="#mfbd29c4a2e" stroke="#1F77B4" fill-opacity="0"></use><use x="295.189" y="211.834" width="100%" height="100%" xlink:href="#mfbd29c4a2e" stroke="#1F77B4" fill-opacity="0"></use><use x="301.313" y="189.674" width="100%" height="100%" xlink:href="#mfbd29c4a2e" stroke="#1F77B4" fill-opacity="0"></use><use x="314.436" y="175.32" width="100%" height="100%" xlink:href="#mfbd29c4a2e" stroke="#1F77B4" fill-opacity="0"></use><use x="327.558" y="184.15" width="100%" height="100%" xlink:href="#mfbd29c4a2e" stroke="#1F77B4" fill-opacity="0"></use><use x="332.808" y="205.079" width="100%" height="100%" xlink:href="#mfbd29c4a2e" stroke="#1F77B4" fill-opacity="0"></use><use x="343.306" y="193.951" width="100%" height="100%" xlink:href="#mfbd29c4a2e" stroke="#1F77B4" fill-opacity="0"></use><use x="352.929" y="185.873" width="100%" height="100%" xlink:href="#mfbd29c4a2e" stroke="#1F77B4" fill-opacity="0"></use></g></g><g id="patch_7"><path d="M72 320.4 72 93.096" stroke="#000000" stroke-width="0.8" stroke-linecap="square" stroke-linejoin="miter" fill="none"/></g><g id="patch_8"><path d="M473.76 320.4 473.76 93.096" stroke="#000000" stroke-width="0.8" stroke-linecap="square" stroke-linejoin="miter" fill="none"/></g><g id="patch_9"><path d="M72 320.4 473.76 320.4" stroke="#000000" stroke-width="0.8" stroke-linecap="square" stroke-linejoin="miter" fill="none"/></g><g id="patch_10"><path d="M72 93.096 473.76 93.096" stroke="#000000" stroke-width="0.8" stroke-linecap="square" stroke-linejoin="miter" fill="none"/></g><g id="text_16"><g fill="#D62728" transform="matrix(0.13 0 0 -0.13 172.44 138.557)"><defs><path d="M1081 4666 2694 4666C3131.33 4666 3458.33 4584.67 3675 4422 3891.67 4259.33 4000 4014.67 4000 3688 4000 3388 3906.67 3129 3720 2911 3534 2693 3290 2561.33 2988 2516 3246 2457.33 3439.67 2345.67 3569 2181 3698.33 2016.33 3763 1796.67 3763 1522 3763 1053.33 3589.33 682.333 3242 409 2895.33 136.333 2421 0 1819 0L172 0 1081 4666ZM1234 2228 903 519 1919 519C2300.33 519 2594 606.333 2800 781 3006 956.333 3109 1203.33 3109 1522 3109 1768 3040.67 1947 2904 2059 2768 2171.67 2549 2228 2247 2228L1234 2228ZM1606 4147 1331 2741 2272 2741C2607.33 2741 2869.33 2813.67 3058 2959 3246.67 3105 3341 3307.33 3341 3566 3341 3768 3277.33 3915.33 3150 4008 3022.67 4100.67 2819.67 4147 2541 4147L1606 4147Z" id="DejaVuSans-Oblique-42" transform="scale(0.015625 0.015625)"/><path d="M428 1388 838 3500 1416 3500 1006 1409C985.333 1307 970.333 1219.67 961 1147 951.667 1074.33 947 1014 947 966 947 788.667 1001 651.333 1109 554 1217.67 457.333 1371 409 1569 409 1877 409 2143.33 513 2368 721 2593.33 929.667 2740.33 1210.33 2809 1563L3194 3500 3769 3500 3091 0 2516 0 2631 550C2469 346 2276 188 2052 76 1828-35.3333 1590-91 1338-91 1031.33-91 792.667-7 622 161 451.333 329 366 563 366 863 366 925 371 1003 381 1097 391.667 1191 407.333 1288 428 1388Z" id="DejaVuSans-Oblique-75" transform="scale(0.015625 0.015625)"/><path d="M3566 2113 3156 0 2578 0 2988 2091C3006.67 2189 3021 2275.33 3031 2350 3041.67 2425.33 3047 2484.67 3047 2528 3047 2703.33 2991.67 2839.67 2881 2937 2771 3035 2617 3084 2419 3084 2110.33 3084 1844.67 2981.33 1622 2776 1399.33 2571.33 1253.33 2293 1184 1941L800 0 225 0 903 3500 1478 3500 1363 2950C1523 3152 1715.33 3308 1940 3418 2165.33 3528.67 2402 3584 2650 3584 2958.67 3584 3197.67 3500.67 3367 3334 3537 3167.33 3622 2933 3622 2631 3622 2556.33 3617.33 2476.33 3608 2391 3598.67 2305.67 3584.67 2213 3566 2113Z" id="DejaVuSans-Oblique-6e" transform="scale(0.015625 0.015625)"/><path d="M2853 2969C2795 3000.33 2728.33 3024.33 2653 3041 2578.33 3057.67 2498.33 3066 2413 3066 2106.33 3066 1838.33 2949.67 1609 2717 1380.33 2485 1228.33 2174 1153 1784L800 0 225 0 909 3500 1484 3500 1375 2956C1527 3158 1708.67 3313 1920 3421 2132 3529.67 2357.67 3584 2597 3584 2659.67 3584 2721 3580.33 2781 3573 2841.67 3566.33 2902.33 3554.67 2963 3538L2853 2969Z" id="DejaVuSans-Oblique-72" transform="scale(0.015625 0.015625)"/><path d="M1588-325C1321.33-773 1104-1052.67 936-1164 768-1275.33 554-1331 294-1331L-159-1331-63-850 269-850C429-850 565.333-806.333 678-719 790.667-631.667 916.667-460.667 1056-206L1234 128 459 3500 1069 3500 1650 819 3256 3500 3859 3500 1588-325Z" id="DejaVuSans-Oblique-79" transform="scale(0.015625 0.015625)"/><path d="M4447 4306 4319 3641C4119 3843 3907 3993 3683 4091 3459 4189 3216.67 4238 2956 4238 2600 4238 2287 4152.33 2017 3981 1747.67 3810.33 1515 3550 1319 3200 1193.67 2975.33 1098 2737.33 1032 2486 966.667 2234.67 934 1982 934 1728 934 1303.33 1044 979.333 1264 756 1484 533.333 1803.33 422 2222 422 2511.33 422 2789.33 468.333 3056 561 3322.67 653.667 3582 792.667 3834 978L3688 231C3440 125 3189.33 45 2936-9 2682.67-63.6667 2429-91 2175-91 1577-91 1109.67 71.3333 773 396 437 721.333 269 1173.67 269 1753 269 2123.67 333 2488 461 2846 589 3204.67 773 3532 1013 3828 1267 4142.67 1557 4375 1883 4525 2209 4675 2588.67 4750 3022 4750 3288.67 4750 3541.33 4713 3780 4639 4018.67 4565 4241 4454 4447 4306Z" id="DejaVuSans-Oblique-43" transform="scale(0.015625 0.015625)"/><path d="M3175 2156C3175 2462.67 3108.33 2697 2975 2859 2841.67 3021.67 2650 3103 2400 3103 2229.33 3103 2066.33 3059.33 1911 2972 1755.67 2884.67 1617.67 2757.67 1497 2591 1378.33 2426.33 1283.33 2227.33 1212 1994 1141.33 1760.67 1106 1529.33 1106 1300 1106 1008.67 1172.67 784.333 1306 627 1439.33 469.667 1629 391 1875 391 2056.33 391 2224.67 433.667 2380 519 2535.33 604.333 2668 728.333 2778 891 2896.67 1061.67 2992.33 1262.67 3065 1494 3138.33 1725.33 3175 1946 3175 2156ZM1394 2969C1548 3171 1729.67 3324 1939 3428 2148.33 3532 2381.33 3584 2638 3584 2996 3584 3274 3466.67 3472 3232 3670 2998 3769 2669.67 3769 2247 3769 1901 3707.33 1571.33 3584 1258 3461.33 944.667 3284.33 664 3053 416 2899 251.333 2725 125.667 2531 39 2337.67-47.6667 2133.67-91 1919-91 1671-91 1462.67-39.3333 1294 64 1125.33 167.333 999.333 321 916 525L556-1331-19-1331 922 3500 1497 3500 1394 2969Z" id="DejaVuSans-Oblique-70" transform="scale(0.015625 0.015625)"/><path d="M3200 3397 3091 2853C2939 2936.33 2778.33 2998.67 2609 3040 2440.33 3082 2266.67 3103 2088 3103 1785.33 3103 1547 3051.33 1373 2948 1199.67 2845.33 1113 2705.33 1113 2528 1113 2322 1315 2163.67 1719 2053 1750.33 2045 1773.33 2038.67 1788 2034L1972 1978C2355.33 1872 2611 1760.67 2739 1644 2867 1527.33 2931 1368 2931 1166 2931 794.667 2783.67 492.333 2489 259 2194.33 25.6667 1808.33-91 1331-91 1145.67-91 951-73 747-37 543-1.66667 318 53.3333 72 128L184 722C394.667 613.333 602 531 806 475 1010.67 419 1206.67 391 1394 391 1675.33 391 1904 451.333 2080 572 2256 692.667 2344 845.667 2344 1031 2344 1231 2112.67 1392.67 1650 1516L1591 1531 1394 1581C1102 1658.33 888.333 1760 753 1886 617.667 2012 550 2173 550 2369 550 2741.67 690 3037.33 970 3256 1250.67 3474.67 1631.67 3584 2113 3584 2302.33 3584 2487 3568.33 2667 3537 2847.67 3506.33 3025.33 3459.67 3200 3397Z" id="DejaVuSans-Oblique-73" transform="scale(0.015625 0.015625)"/><path d="M378 4666 4325 4666 4225 4134 2559 4134 1759 0 1125 0 1925 4134 275 4134 378 4666Z" id="DejaVuSans-Oblique-54" transform="scale(0.015625 0.015625)"/></defs><use width="100%" height="100%" xlink:href="#DejaVuSans-Oblique-42" transform="matrix(1 0 0 1 0 0.015625)"></use><use width="100%" height="100%" xlink:href="#DejaVuSans-Oblique-6f" transform="translate(68.6035 0.015625)"></use><use width="100%" height="100%" xlink:href="#DejaVuSans-Oblique-75" transform="translate(129.785 0.015625)"></use><use width="100%" height="100%" xlink:href="#DejaVuSans-Oblique-6e" transform="translate(193.164 0.015625)"></use><use width="100%" height="100%" xlink:href="#DejaVuSans-Oblique-64" transform="translate(256.543 0.015625)"></use><use width="100%" height="100%" xlink:href="#DejaVuSans-Oblique-61" transform="translate(320.02 0.015625)"></use><use width="100%" height="100%" xlink:href="#DejaVuSans-Oblique-72" transform="translate(381.299 0.015625)"></use><use width="100%" height="100%" xlink:href="#DejaVuSans-Oblique-79" transform="translate(422.412 0.015625)"></use><use width="100%" height="100%" xlink:href="#DejaVuSans-Oblique-69" transform="translate(514.062 0.015625)"></use><use width="100%" height="100%" xlink:href="#DejaVuSans-Oblique-6e" transform="translate(541.845 0.015625)"></use><use width="100%" height="100%" xlink:href="#DejaVuSans-Oblique-43" transform="translate(637.695 0.015625)"></use><use width="100%" height="100%" xlink:href="#DejaVuSans-Oblique-6f" transform="translate(707.519 0.015625)"></use><use width="100%" height="100%" xlink:href="#DejaVuSans-Oblique-6d" transform="translate(768.701 0.015625)"></use><use width="100%" height="100%" xlink:href="#DejaVuSans-Oblique-70" transform="translate(866.113 0.015625)"></use><use width="100%" height="100%" xlink:href="#DejaVuSans-Oblique-72" transform="translate(929.589 0.015625)"></use><use width="100%" height="100%" xlink:href="#DejaVuSans-Oblique-65" transform="translate(970.702 0.015625)"></use><use width="100%" height="100%" xlink:href="#DejaVuSans-Oblique-73" transform="translate(1032.23 0.015625)"></use><use width="100%" height="100%" xlink:href="#DejaVuSans-Oblique-73" transform="translate(1084.33 0.015625)"></use><use width="100%" height="100%" xlink:href="#DejaVuSans-Oblique-69" transform="translate(1136.43 0.015625)"></use><use width="100%" height="100%" xlink:href="#DejaVuSans-Oblique-6f" transform="translate(1164.21 0.015625)"></use><use width="100%" height="100%" xlink:href="#DejaVuSans-Oblique-6e" transform="translate(1225.39 0.015625)"></use><use width="100%" height="100%" xlink:href="#DejaVuSans-Oblique-54" transform="translate(1321.24 0.015625)"></use><use width="100%" height="100%" xlink:href="#DejaVuSans-Oblique-65" transform="translate(1382.32 0.015625)"></use><use width="100%" height="100%" xlink:href="#DejaVuSans-Oblique-73" transform="translate(1443.85 0.015625)"></use><use width="100%" height="100%" xlink:href="#DejaVuSans-Oblique-74" transform="translate(1495.95 0.015625)"></use></g></g><g id="text_17"><g fill="#1F77B4" transform="matrix(0.13 0 0 -0.13 185.832 287.668)"><defs><path d="M1081 4666 4031 4666 3928 4134 1606 4134 1338 2753 3566 2753 3463 2222 1234 2222 909 531 3284 531 3181 0 172 0 1081 4666Z" id="DejaVuSans-Oblique-45" transform="scale(0.015625 0.015625)"/></defs><use width="100%" height="100%" xlink:href="#DejaVuSans-Oblique-42" transform="matrix(1 0 0 1 0 0.015625)"></use><use width="100%" height="100%" xlink:href="#DejaVuSans-Oblique-6f" transform="translate(68.6035 0.015625)"></use><use width="100%" height="100%" xlink:href="#DejaVuSans-Oblique-75" transform="translate(129.785 0.015625)"></use><use width="100%" height="100%" xlink:href="#DejaVuSans-Oblique-6e" transform="translate(193.164 0.015625)"></use><use width="100%" height="100%" xlink:href="#DejaVuSans-Oblique-64" transform="translate(256.543 0.015625)"></use><use width="100%" height="100%" xlink:href="#DejaVuSans-Oblique-61" transform="translate(320.02 0.015625)"></use><use width="100%" height="100%" xlink:href="#DejaVuSans-Oblique-72" transform="translate(381.299 0.015625)"></use><use width="100%" height="100%" xlink:href="#DejaVuSans-Oblique-79" transform="translate(422.412 0.015625)"></use><use width="100%" height="100%" xlink:href="#DejaVuSans-Oblique-69" transform="translate(514.062 0.015625)"></use><use width="100%" height="100%" xlink:href="#DejaVuSans-Oblique-6e" transform="translate(541.845 0.015625)"></use><use width="100%" height="100%" xlink:href="#DejaVuSans-Oblique-45" transform="translate(637.695 0.015625)"></use><use width="100%" height="100%" xlink:href="#DejaVuSans-Oblique-78" transform="translate(700.878 0.015625)"></use><use width="100%" height="100%" xlink:href="#DejaVuSans-Oblique-74" transform="translate(760.058 0.015625)"></use><use width="100%" height="100%" xlink:href="#DejaVuSans-Oblique-65" transform="translate(799.267 0.015625)"></use><use width="100%" height="100%" xlink:href="#DejaVuSans-Oblique-6e" transform="translate(860.79 0.015625)"></use><use width="100%" height="100%" xlink:href="#DejaVuSans-Oblique-73" transform="translate(924.169 0.015625)"></use><use width="100%" height="100%" xlink:href="#DejaVuSans-Oblique-69" transform="translate(976.269 0.015625)"></use><use width="100%" height="100%" xlink:href="#DejaVuSans-Oblique-6f" transform="translate(1004.05 0.015625)"></use><use width="100%" height="100%" xlink:href="#DejaVuSans-Oblique-6e" transform="translate(1065.23 0.015625)"></use><use width="100%" height="100%" xlink:href="#DejaVuSans-Oblique-54" transform="translate(1161.08 0.015625)"></use><use width="100%" height="100%" xlink:href="#DejaVuSans-Oblique-65" transform="translate(1222.17 0.015625)"></use><use width="100%" height="100%" xlink:href="#DejaVuSans-Oblique-73" transform="translate(1283.69 0.015625)"></use><use width="100%" height="100%" xlink:href="#DejaVuSans-Oblique-74" transform="translate(1335.79 0.015625)"></use></g></g><g id="legend_1"><g id="patch_11"><path d="M80.4 82.789 444.72 82.789C446.32 82.789 447.12 81.989 447.12 80.389L447.12 11.029C447.12 9.42901 446.32 8.62901 444.72 8.62901L80.4 8.62901C78.8 8.62901 78 9.42901 78 11.029L78 80.389C78 81.989 78.8 82.789 80.4 82.789Z" stroke="#CCCCCC" stroke-linejoin="miter" fill="#FFFFFF" opacity="0.5"/></g><g id="line2d_35"><path d="M82.8 18.349 94.8 18.349 106.8 18.349" stroke="#D62728" stroke-width="1.5" stroke-dasharray="1.5 0" fill="none"/></g><g id="text_18"><g transform="matrix(0.12 0 0 -0.12 116.4 22.549)"><defs><path d="M544 3500 1113 3500 1259 684 2566 3500 3231 3500 3425 684 4666 3500 5241 3500 3641 0 2969 0 2797 2900 1459 0 781 0 544 3500Z" id="DejaVuSans-Oblique-77" transform="scale(0.015625 0.015625)"/><path d="M3566 2113 3156 0 2578 0 2988 2091C3006.67 2189 3021 2275.33 3031 2350 3041.67 2425.33 3047 2484.67 3047 2528 3047 2703.33 2991.67 2839.67 2881 2937 2771 3035 2617 3084 2419 3084 2110.33 3084 1843 2979.67 1617 2771 1391 2563 1244.67 2286.33 1178 1941L800 0 225 0 1172 4863 1747 4863 1375 2950C1521 3146 1707.33 3300.67 1934 3414 2161.33 3527.33 2400 3584 2650 3584 2958.67 3584 3197.67 3500.67 3367 3334 3537 3167.33 3622 2933 3622 2631 3622 2556.33 3617.33 2476.33 3608 2391 3598.67 2305.67 3584.67 2213 3566 2113Z" id="DejaVuSans-Oblique-68" transform="scale(0.015625 0.015625)"/><path d="M3816 3500 3219 434C3104.33-159.333 2885-601.667 2561-893 2237-1185 1801-1331 1253-1331 1051-1331 863.333-1316 690-1286 517.333-1256 356-1209.67 206-1147L313-588C454.333-679.333 604-746.667 762-790 920.667-834 1089.67-856 1269-856 1633.67-856 1933-756.333 2167-557 2401.67-358.333 2556.33-72.6667 2631 300L2681 563C2521 379.667 2334.67 240 2122 144 1909.33 48 1680 0 1434 0 1080 0 801.333 117 598 351 395.333 585.667 294 908.333 294 1319 294 1641.67 355.333 1957.67 478 2267 601.333 2576.33 774.333 2851 997 3091 1145 3249 1317.33 3370.67 1514 3456 1710.67 3541.33 1916.33 3584 2131 3584 2366.33 3584 2571.33 3529.33 2746 3420 2921.33 3310.67 3052 3156 3138 2956L3238 3500 3816 3500ZM2950 2216C2950 2499.33 2883.33 2718 2750 2872 2616.67 3026 2427 3103 2181 3103 2029 3103 1884.33 3072.67 1747 3012 1609.67 2952 1492 2867.67 1394 2759 1235.33 2580.33 1111.67 2369.67 1023 2127 935 1884.33 891 1633.67 891 1375 891 1087.67 958 866.667 1092 712 1226.67 558 1420 481 1672 481 2036.67 481 2340.67 646 2584 976 2828 1306.67 2950 1720 2950 2216Z" id="DejaVuSans-Oblique-67" transform="scale(0.015625 0.015625)"/></defs><use width="100%" height="100%" xlink:href="#DejaVuSans-Oblique-56" transform="matrix(1 0 0 1 0 0.015625)"></use><use width="100%" height="100%" xlink:href="#DejaVuSans-Oblique-6f" transform="translate(68.4082 0.015625)"></use><use width="100%" height="100%" xlink:href="#DejaVuSans-Oblique-69" transform="translate(129.59 0.015625)"></use><use width="100%" height="100%" xlink:href="#DejaVuSans-Oblique-64" transform="translate(157.373 0.015625)"></use><use width="100%" height="100%" xlink:href="#DejaVuSans-Oblique-52" transform="translate(253.32 0.015625)"></use><use width="100%" height="100%" xlink:href="#DejaVuSans-Oblique-61" transform="translate(322.802 0.015625)"></use><use width="100%" height="100%" xlink:href="#DejaVuSans-Oblique-74" transform="translate(384.082 0.015625)"></use><use width="100%" height="100%" xlink:href="#DejaVuSans-Oblique-69" transform="translate(423.291 0.015625)"></use><use width="100%" height="100%" xlink:href="#DejaVuSans-Oblique-6f" transform="translate(451.074 0.015625)"></use><use width="100%" height="100%" xlink:href="#DejaVuSans-Oblique-69" transform="translate(544.726 0.015625)"></use><use width="100%" height="100%" xlink:href="#DejaVuSans-Oblique-6e" transform="translate(572.509 0.015625)"></use><use width="100%" height="100%" xlink:href="#DejaVuSans-Oblique-43" transform="translate(668.358 0.015625)"></use><use width="100%" height="100%" xlink:href="#DejaVuSans-Oblique-6f" transform="translate(738.183 0.015625)"></use><use width="100%" height="100%" xlink:href="#DejaVuSans-Oblique-6d" transform="translate(799.364 0.015625)"></use><use width="100%" height="100%" xlink:href="#DejaVuSans-Oblique-70" transform="translate(896.776 0.015625)"></use><use width="100%" height="100%" xlink:href="#DejaVuSans-Oblique-72" transform="translate(960.253 0.015625)"></use><use width="100%" height="100%" xlink:href="#DejaVuSans-Oblique-65" transform="translate(1001.37 0.015625)"></use><use width="100%" height="100%" xlink:href="#DejaVuSans-Oblique-73" transform="translate(1062.89 0.015625)"></use><use width="100%" height="100%" xlink:href="#DejaVuSans-Oblique-73" transform="translate(1114.99 0.015625)"></use><use width="100%" height="100%" xlink:href="#DejaVuSans-Oblique-69" transform="translate(1167.09 0.015625)"></use><use width="100%" height="100%" xlink:href="#DejaVuSans-Oblique-6f" transform="translate(1194.87 0.015625)"></use><use width="100%" height="100%" xlink:href="#DejaVuSans-Oblique-6e" transform="translate(1256.05 0.015625)"></use><use width="100%" height="100%" xlink:href="#DejaVuSans-Oblique-54" transform="translate(1351.9 0.015625)"></use><use width="100%" height="100%" xlink:href="#DejaVuSans-Oblique-65" transform="translate(1412.99 0.015625)"></use><use width="100%" height="100%" xlink:href="#DejaVuSans-Oblique-73" transform="translate(1474.51 0.015625)"></use><use width="100%" height="100%" xlink:href="#DejaVuSans-Oblique-74" transform="translate(1526.61 0.015625)"></use><use width="100%" height="100%" xlink:href="#DejaVuSans-Oblique-77" transform="translate(1598.29 0.015625)"></use><use width="100%" height="100%" xlink:href="#DejaVuSans-Oblique-69" transform="translate(1680.08 0.015625)"></use><use width="100%" height="100%" xlink:href="#DejaVuSans-Oblique-74" transform="translate(1707.86 0.015625)"></use><use width="100%" height="100%" xlink:href="#DejaVuSans-Oblique-68" transform="translate(1747.07 0.015625)"></use><use width="100%" height="100%" xlink:href="#DejaVuSans-Oblique-52" transform="translate(1842.92 0.015625)"></use><use width="100%" height="100%" xlink:href="#DejaVuSans-Oblique-69" transform="translate(1912.4 0.015625)"></use><use width="100%" height="100%" xlink:href="#DejaVuSans-Oblique-67" transform="translate(1940.18 0.015625)"></use><use width="100%" height="100%" xlink:href="#DejaVuSans-Oblique-69" transform="translate(2003.66 0.015625)"></use><use width="100%" height="100%" xlink:href="#DejaVuSans-Oblique-64" transform="translate(2031.44 0.015625)"></use><use width="100%" height="100%" xlink:href="#DejaVuSans-Oblique-42" transform="translate(2127.39 0.015625)"></use><use width="100%" height="100%" xlink:href="#DejaVuSans-Oblique-6f" transform="translate(2195.99 0.015625)"></use><use width="100%" height="100%" xlink:href="#DejaVuSans-Oblique-75" transform="translate(2257.18 0.015625)"></use><use width="100%" height="100%" xlink:href="#DejaVuSans-Oblique-6e" transform="translate(2320.55 0.015625)"></use><use width="100%" height="100%" xlink:href="#DejaVuSans-Oblique-64" transform="translate(2383.93 0.015625)"></use><use width="100%" height="100%" xlink:href="#DejaVuSans-Oblique-61" transform="translate(2447.41 0.015625)"></use><use width="100%" height="100%" xlink:href="#DejaVuSans-Oblique-72" transform="translate(2508.69 0.015625)"></use><use width="100%" height="100%" xlink:href="#DejaVuSans-Oblique-79" transform="translate(2549.8 0.015625)"></use></g></g><g id="line2d_36"><path d="M82.8 35.989 94.8 35.989 106.8 35.989" stroke="#1F77B4" stroke-width="1.5" stroke-dasharray="1.5 1.5" fill="none"/></g><g id="text_19"><g transform="matrix(0.12 0 0 -0.12 116.4 40.189)"><use width="100%" height="100%" xlink:href="#DejaVuSans-Oblique-56" transform="matrix(1 0 0 1 0 0.015625)"></use><use width="100%" height="100%" xlink:href="#DejaVuSans-Oblique-6f" transform="translate(68.4082 0.015625)"></use><use width="100%" height="100%" xlink:href="#DejaVuSans-Oblique-69" transform="translate(129.59 0.015625)"></use><use width="100%" height="100%" xlink:href="#DejaVuSans-Oblique-64" transform="translate(157.373 0.015625)"></use><use width="100%" height="100%" xlink:href="#DejaVuSans-Oblique-52" transform="translate(253.32 0.015625)"></use><use width="100%" height="100%" xlink:href="#DejaVuSans-Oblique-61" transform="translate(322.802 0.015625)"></use><use width="100%" height="100%" xlink:href="#DejaVuSans-Oblique-74" transform="translate(384.082 0.015625)"></use><use width="100%" height="100%" xlink:href="#DejaVuSans-Oblique-69" transform="translate(423.291 0.015625)"></use><use width="100%" height="100%" xlink:href="#DejaVuSans-Oblique-6f" transform="translate(451.074 0.015625)"></use><use width="100%" height="100%" xlink:href="#DejaVuSans-Oblique-69" transform="translate(544.726 0.015625)"></use><use width="100%" height="100%" xlink:href="#DejaVuSans-Oblique-6e" transform="translate(572.509 0.015625)"></use><use width="100%" height="100%" xlink:href="#DejaVuSans-Oblique-45" transform="translate(668.358 0.015625)"></use><use width="100%" height="100%" xlink:href="#DejaVuSans-Oblique-78" transform="translate(731.542 0.015625)"></use><use width="100%" height="100%" xlink:href="#DejaVuSans-Oblique-74" transform="translate(790.722 0.015625)"></use><use width="100%" height="100%" xlink:href="#DejaVuSans-Oblique-65" transform="translate(829.931 0.015625)"></use><use width="100%" height="100%" xlink:href="#DejaVuSans-Oblique-6e" transform="translate(891.454 0.015625)"></use><use width="100%" height="100%" xlink:href="#DejaVuSans-Oblique-73" transform="translate(954.833 0.015625)"></use><use width="100%" height="100%" xlink:href="#DejaVuSans-Oblique-69" transform="translate(1006.93 0.015625)"></use><use width="100%" height="100%" xlink:href="#DejaVuSans-Oblique-6f" transform="translate(1034.72 0.015625)"></use><use width="100%" height="100%" xlink:href="#DejaVuSans-Oblique-6e" transform="translate(1095.9 0.015625)"></use><use width="100%" height="100%" xlink:href="#DejaVuSans-Oblique-54" transform="translate(1191.75 0.015625)"></use><use width="100%" height="100%" xlink:href="#DejaVuSans-Oblique-65" transform="translate(1252.83 0.015625)"></use><use width="100%" height="100%" xlink:href="#DejaVuSans-Oblique-73" transform="translate(1314.35 0.015625)"></use><use width="100%" height="100%" xlink:href="#DejaVuSans-Oblique-74" transform="translate(1366.45 0.015625)"></use><use width="100%" height="100%" xlink:href="#DejaVuSans-Oblique-77" transform="translate(1438.13 0.015625)"></use><use width="100%" height="100%" xlink:href="#DejaVuSans-Oblique-69" transform="translate(1519.92 0.015625)"></use><use width="100%" height="100%" xlink:href="#DejaVuSans-Oblique-74" transform="translate(1547.7 0.015625)"></use><use width="100%" height="100%" xlink:href="#DejaVuSans-Oblique-68" transform="translate(1586.91 0.015625)"></use><use width="100%" height="100%" xlink:href="#DejaVuSans-Oblique-52" transform="translate(1682.76 0.015625)"></use><use width="100%" height="100%" xlink:href="#DejaVuSans-Oblique-69" transform="translate(1752.24 0.015625)"></use><use width="100%" height="100%" xlink:href="#DejaVuSans-Oblique-67" transform="translate(1780.03 0.015625)"></use><use width="100%" height="100%" xlink:href="#DejaVuSans-Oblique-69" transform="translate(1843.5 0.015625)"></use><use width="100%" height="100%" xlink:href="#DejaVuSans-Oblique-64" transform="translate(1871.29 0.015625)"></use><use width="100%" height="100%" xlink:href="#DejaVuSans-Oblique-42" transform="translate(1967.23 0.015625)"></use><use width="100%" height="100%" xlink:href="#DejaVuSans-Oblique-6f" transform="translate(2035.84 0.015625)"></use><use width="100%" height="100%" xlink:href="#DejaVuSans-Oblique-75" transform="translate(2097.02 0.015625)"></use><use width="100%" height="100%" xlink:href="#DejaVuSans-Oblique-6e" transform="translate(2160.4 0.015625)"></use><use width="100%" height="100%" xlink:href="#DejaVuSans-Oblique-64" transform="translate(2223.78 0.015625)"></use><use width="100%" height="100%" xlink:href="#DejaVuSans-Oblique-61" transform="translate(2287.25 0.015625)"></use><use width="100%" height="100%" xlink:href="#DejaVuSans-Oblique-72" transform="translate(2348.53 0.015625)"></use><use width="100%" height="100%" xlink:href="#DejaVuSans-Oblique-79" transform="translate(2389.65 0.015625)"></use></g></g><g id="line2d_37"><path d="M82.8 53.629 94.8 53.629 106.8 53.629" stroke="#D62728" stroke-width="1.2" stroke-linecap="square" fill="none"/><g><use x="94.8" y="53.629" width="100%" height="100%" xlink:href="#m4f4d11af59" stroke="#D62728" stroke-linejoin="miter" fill-opacity="0"></use></g></g><g id="text_20"><g transform="matrix(0.12 0 0 -0.12 116.4 57.829)"><defs><path d="M1081 4666 3756 4666 3653 4134 1606 4134 1338 2759 3188 2759 3084 2228 1234 2228 800 0 172 0 1081 4666Z" id="DejaVuSans-Oblique-46" transform="scale(0.015625 0.015625)"/><path d="M1172 4863 1747 4863 800 0 225 0 1172 4863Z" id="DejaVuSans-Oblique-6c" transform="scale(0.015625 0.015625)"/><path d="M3169 2138C3169 2440 3099.67 2676.33 2961 2847 2822.33 3017.67 2631.33 3103 2388 3103 2210.67 3103 2044.33 3059.67 1889 2973 1733.67 2887 1598.67 2761.67 1484 2597 1363.33 2424.33 1268 2223.67 1198 1995 1128.67 1767 1094 1539.67 1094 1313 1094 1025 1162 799.333 1298 636 1434.67 472.667 1623 391 1863 391 2043.67 391 2211 433 2365 517 2519.67 601.667 2655.33 726.333 2772 891 2890.67 1061.67 2986.33 1260.33 3059 1487 3132.33 1714.33 3169 1931.33 3169 2138ZM1381 2969C1523 3160.33 1700.67 3310.67 1914 3420 2127.33 3529.33 2350.67 3584 2584 3584 2942.67 3584 3227.67 3463 3439 3221 3650.33 2979.67 3756 2653 3756 2241 3756 1903 3694 1575.67 3570 1259 3446 942.333 3269.67 661.333 3041 416 2891 253.333 2718 128 2522 40 2326-47.3333 2120.67-91 1906-91 1679.33-91 1482.67-39 1316 65 1149.33 169.667 1013.67 325 909 531L806 0 231 0 1178 4863 1753 4863 1381 2969Z" id="DejaVuSans-Oblique-62" transform="scale(0.015625 0.015625)"/></defs><use width="100%" height="100%" xlink:href="#DejaVuSans-Oblique-56" transform="matrix(1 0 0 1 0 0.015625)"></use><use width="100%" height="100%" xlink:href="#DejaVuSans-Oblique-6f" transform="translate(68.4082 0.015625)"></use><use width="100%" height="100%" xlink:href="#DejaVuSans-Oblique-69" transform="translate(129.59 0.015625)"></use><use width="100%" height="100%" xlink:href="#DejaVuSans-Oblique-64" transform="translate(157.373 0.015625)"></use><use width="100%" height="100%" xlink:href="#DejaVuSans-Oblique-72" transform="translate(253.32 0.015625)"></use><use width="100%" height="100%" xlink:href="#DejaVuSans-Oblique-61" transform="translate(294.433 0.015625)"></use><use width="100%" height="100%" xlink:href="#DejaVuSans-Oblique-74" transform="translate(355.713 0.015625)"></use><use width="100%" height="100%" xlink:href="#DejaVuSans-Oblique-69" transform="translate(394.922 0.015625)"></use><use width="100%" height="100%" xlink:href="#DejaVuSans-Oblique-6f" transform="translate(422.705 0.015625)"></use><use width="100%" height="100%" xlink:href="#DejaVuSans-Oblique-69" transform="translate(516.357 0.015625)"></use><use width="100%" height="100%" xlink:href="#DejaVuSans-Oblique-6e" transform="translate(544.14 0.015625)"></use><use width="100%" height="100%" xlink:href="#DejaVuSans-Oblique-43" transform="translate(639.989 0.015625)"></use><use width="100%" height="100%" xlink:href="#DejaVuSans-Oblique-6f" transform="translate(709.813 0.015625)"></use><use width="100%" height="100%" xlink:href="#DejaVuSans-Oblique-6d" transform="translate(770.995 0.015625)"></use><use width="100%" height="100%" xlink:href="#DejaVuSans-Oblique-70" transform="translate(868.407 0.015625)"></use><use width="100%" height="100%" xlink:href="#DejaVuSans-Oblique-72" transform="translate(931.884 0.015625)"></use><use width="100%" height="100%" xlink:href="#DejaVuSans-Oblique-65" transform="translate(972.997 0.015625)"></use><use width="100%" height="100%" xlink:href="#DejaVuSans-Oblique-73" transform="translate(1034.52 0.015625)"></use><use width="100%" height="100%" xlink:href="#DejaVuSans-Oblique-73" transform="translate(1086.62 0.015625)"></use><use width="100%" height="100%" xlink:href="#DejaVuSans-Oblique-69" transform="translate(1138.72 0.015625)"></use><use width="100%" height="100%" xlink:href="#DejaVuSans-Oblique-6f" transform="translate(1166.5 0.015625)"></use><use width="100%" height="100%" xlink:href="#DejaVuSans-Oblique-6e" transform="translate(1227.68 0.015625)"></use><use width="100%" height="100%" xlink:href="#DejaVuSans-Oblique-54" transform="translate(1323.53 0.015625)"></use><use width="100%" height="100%" xlink:href="#DejaVuSans-Oblique-65" transform="translate(1384.62 0.015625)"></use><use width="100%" height="100%" xlink:href="#DejaVuSans-Oblique-73" transform="translate(1446.14 0.015625)"></use><use width="100%" height="100%" xlink:href="#DejaVuSans-Oblique-74" transform="translate(1498.24 0.015625)"></use><use width="100%" height="100%" xlink:href="#DejaVuSans-Oblique-77" transform="translate(1569.92 0.015625)"></use><use width="100%" height="100%" xlink:href="#DejaVuSans-Oblique-69" transform="translate(1651.71 0.015625)"></use><use width="100%" height="100%" xlink:href="#DejaVuSans-Oblique-74" transform="translate(1679.49 0.015625)"></use><use width="100%" height="100%" xlink:href="#DejaVuSans-Oblique-68" transform="translate(1718.7 0.015625)"></use><use width="100%" height="100%" xlink:href="#DejaVuSans-Oblique-46" transform="translate(1814.55 0.015625)"></use><use width="100%" height="100%" xlink:href="#DejaVuSans-Oblique-6c" transform="translate(1872.07 0.015625)"></use><use width="100%" height="100%" xlink:href="#DejaVuSans-Oblique-65" transform="translate(1899.85 0.015625)"></use><use width="100%" height="100%" xlink:href="#DejaVuSans-Oblique-78" transform="translate(1961.38 0.015625)"></use><use width="100%" height="100%" xlink:href="#DejaVuSans-Oblique-69" transform="translate(2020.55 0.015625)"></use><use width="100%" height="100%" xlink:href="#DejaVuSans-Oblique-62" transform="translate(2048.34 0.015625)"></use><use width="100%" height="100%" xlink:href="#DejaVuSans-Oblique-6c" transform="translate(2111.81 0.015625)"></use><use width="100%" height="100%" xlink:href="#DejaVuSans-Oblique-65" transform="translate(2139.6 0.015625)"></use><use width="100%" height="100%" xlink:href="#DejaVuSans-Oblique-42" transform="translate(2233.59 0.015625)"></use><use width="100%" height="100%" xlink:href="#DejaVuSans-Oblique-6f" transform="translate(2302.19 0.015625)"></use><use width="100%" height="100%" xlink:href="#DejaVuSans-Oblique-75" transform="translate(2363.38 0.015625)"></use><use width="100%" height="100%" xlink:href="#DejaVuSans-Oblique-6e" transform="translate(2426.76 0.015625)"></use><use width="100%" height="100%" xlink:href="#DejaVuSans-Oblique-64" transform="translate(2490.13 0.015625)"></use><use width="100%" height="100%" xlink:href="#DejaVuSans-Oblique-61" transform="translate(2553.61 0.015625)"></use><use width="100%" height="100%" xlink:href="#DejaVuSans-Oblique-72" transform="translate(2614.89 0.015625)"></use><use width="100%" height="100%" xlink:href="#DejaVuSans-Oblique-79" transform="translate(2656 0.015625)"></use></g></g><g id="line2d_38"><path d="M82.8 71.269 94.8 71.269 106.8 71.269" stroke="#1F77B4" stroke-width="1.2" stroke-linecap="square" fill="none"/><g><use x="94.8" y="71.269" width="100%" height="100%" xlink:href="#mfbd29c4a2e" stroke="#1F77B4" fill-opacity="0"></use></g></g><g id="text_21"><g transform="matrix(0.12 0 0 -0.12 116.4 75.469)"><use width="100%" height="100%" xlink:href="#DejaVuSans-Oblique-56" transform="matrix(1 0 0 1 0 0.015625)"></use><use width="100%" height="100%" xlink:href="#DejaVuSans-Oblique-6f" transform="translate(68.4082 0.015625)"></use><use width="100%" height="100%" xlink:href="#DejaVuSans-Oblique-69" transform="translate(129.59 0.015625)"></use><use width="100%" height="100%" xlink:href="#DejaVuSans-Oblique-64" transform="translate(157.373 0.015625)"></use><use width="100%" height="100%" xlink:href="#DejaVuSans-Oblique-52" transform="translate(253.32 0.015625)"></use><use width="100%" height="100%" xlink:href="#DejaVuSans-Oblique-61" transform="translate(322.802 0.015625)"></use><use width="100%" height="100%" xlink:href="#DejaVuSans-Oblique-74" transform="translate(384.082 0.015625)"></use><use width="100%" height="100%" xlink:href="#DejaVuSans-Oblique-69" transform="translate(423.291 0.015625)"></use><use width="100%" height="100%" xlink:href="#DejaVuSans-Oblique-6f" transform="translate(451.074 0.015625)"></use><use width="100%" height="100%" xlink:href="#DejaVuSans-Oblique-69" transform="translate(544.726 0.015625)"></use><use width="100%" height="100%" xlink:href="#DejaVuSans-Oblique-6e" transform="translate(572.509 0.015625)"></use><use width="100%" height="100%" xlink:href="#DejaVuSans-Oblique-45" transform="translate(668.358 0.015625)"></use><use width="100%" height="100%" xlink:href="#DejaVuSans-Oblique-78" transform="translate(731.542 0.015625)"></use><use width="100%" height="100%" xlink:href="#DejaVuSans-Oblique-74" transform="translate(790.722 0.015625)"></use><use width="100%" height="100%" xlink:href="#DejaVuSans-Oblique-65" transform="translate(829.931 0.015625)"></use><use width="100%" height="100%" xlink:href="#DejaVuSans-Oblique-6e" transform="translate(891.454 0.015625)"></use><use width="100%" height="100%" xlink:href="#DejaVuSans-Oblique-73" transform="translate(954.833 0.015625)"></use><use width="100%" height="100%" xlink:href="#DejaVuSans-Oblique-69" transform="translate(1006.93 0.015625)"></use><use width="100%" height="100%" xlink:href="#DejaVuSans-Oblique-6f" transform="translate(1034.72 0.015625)"></use><use width="100%" height="100%" xlink:href="#DejaVuSans-Oblique-6e" transform="translate(1095.9 0.015625)"></use><use width="100%" height="100%" xlink:href="#DejaVuSans-Oblique-54" transform="translate(1191.75 0.015625)"></use><use width="100%" height="100%" xlink:href="#DejaVuSans-Oblique-65" transform="translate(1252.83 0.015625)"></use><use width="100%" height="100%" xlink:href="#DejaVuSans-Oblique-73" transform="translate(1314.35 0.015625)"></use><use width="100%" height="100%" xlink:href="#DejaVuSans-Oblique-74" transform="translate(1366.45 0.015625)"></use><use width="100%" height="100%" xlink:href="#DejaVuSans-Oblique-77" transform="translate(1438.13 0.015625)"></use><use width="100%" height="100%" xlink:href="#DejaVuSans-Oblique-69" transform="translate(1519.92 0.015625)"></use><use width="100%" height="100%" xlink:href="#DejaVuSans-Oblique-74" transform="translate(1547.7 0.015625)"></use><use width="100%" height="100%" xlink:href="#DejaVuSans-Oblique-68" transform="translate(1586.91 0.015625)"></use><use width="100%" height="100%" xlink:href="#DejaVuSans-Oblique-46" transform="translate(1682.76 0.015625)"></use><use width="100%" height="100%" xlink:href="#DejaVuSans-Oblique-6c" transform="translate(1740.28 0.015625)"></use><use width="100%" height="100%" xlink:href="#DejaVuSans-Oblique-65" transform="translate(1768.06 0.015625)"></use><use width="100%" height="100%" xlink:href="#DejaVuSans-Oblique-78" transform="translate(1829.59 0.015625)"></use><use width="100%" height="100%" xlink:href="#DejaVuSans-Oblique-69" transform="translate(1888.77 0.015625)"></use><use width="100%" height="100%" xlink:href="#DejaVuSans-Oblique-62" transform="translate(1916.55 0.015625)"></use><use width="100%" height="100%" xlink:href="#DejaVuSans-Oblique-6c" transform="translate(1980.03 0.015625)"></use><use width="100%" height="100%" xlink:href="#DejaVuSans-Oblique-65" transform="translate(2007.81 0.015625)"></use><use width="100%" height="100%" xlink:href="#DejaVuSans-Oblique-42" transform="translate(2101.8 0.015625)"></use><use width="100%" height="100%" xlink:href="#DejaVuSans-Oblique-6f" transform="translate(2170.41 0.015625)"></use><use width="100%" height="100%" xlink:href="#DejaVuSans-Oblique-75" transform="translate(2231.59 0.015625)"></use><use width="100%" height="100%" xlink:href="#DejaVuSans-Oblique-6e" transform="translate(2294.97 0.015625)"></use><use width="100%" height="100%" xlink:href="#DejaVuSans-Oblique-64" transform="translate(2358.35 0.015625)"></use><use width="100%" height="100%" xlink:href="#DejaVuSans-Oblique-61" transform="translate(2421.82 0.015625)"></use><use width="100%" height="100%" xlink:href="#DejaVuSans-Oblique-72" transform="translate(2483.1 0.015625)"></use><use width="100%" height="100%" xlink:href="#DejaVuSans-Oblique-79" transform="translate(2524.22 0.015625)"></use></g></g></g></g></g></svg>