<svg width="720" height="480" viewBox="0 0 540 360" xmlns="http://www.w3.org/2000/svg" xmlns:xlink="http://www.w3.org/1999/xlink" stroke-linejoin="round" overflow="hidden"><defs></defs><defs><clipPath id="paca6f00b17"><rect x="67.5" y="93.096" width="418.5" height="227.304"/></clipPath></defs><g id="figure_1"><g id="patch_1"><path d="M0 360 540 360 540 0 0 0Z" fill="#FFFFFF"/></g><g id="axes_1"><g id="patch_2"><path d="M67.5 320.4 486 320.4 486 93.096 67.5 93.096Z" fill="#FFFFFF"/></g><g id="matplotlib.axis_1"><g id="xtick_1"><g id="line2d_1"><path d="M67.5 320.4 67.5 93.096" stroke="#808080" stroke-width="0.5" stroke-linecap="square" fill="none" clip-path="url(#paca6f00b17)"/></g><g id="line2d_2"><defs><path d="M0 0 0 3.5" id="mb542bbffb9" stroke="#000000" stroke-width="0.8"/></defs><g><use x="67.5" y="320.4" width="100%" height="100%" xlink:href="#mb542bbffb9" stroke="#000000" stroke-width="0.8"></use></g></g><g id="text_1"><g transform="matrix(0.12 0 0 -0.12 63.6825 336.518)"><defs><path d="M2034 4250C1709.33 4250 1465 4090 1301 3770 1137.67 3450.67 1056 2970 1056 2328 1056 1688.67 1137.67 1209 1301 889 1465 569 1709.33 409 2034 409 2361.33 409 2606.67 569 2770 889 2934 1209 3016 1688.67 3016 2328 3016 2970 2934 3450.67 2770 3770 2606.67 4090 2361.33 4250 2034 4250ZM2034 4750C2557.33 4750 2957 4543 3233 4129 3509 3715.67 3647 3115.33 3647 2328 3647 1542.67 3509 943 3233 529 2957 115.667 2557.33-91 2034-91 1511.33-91 1112 115.667 836 529 560 943 422 1542.67 422 2328 422 3115.33 560 3715.67 836 4129 1112 4543 1511.33 4750 2034 4750Z" id="DejaVuSans-30" transform="scale(0.015625 0.015625)"/></defs><use width="100%" height="100%" xlink:href="#DejaVuSans-30"></use></g></g></g><g id="xtick_2"><g id="line2d_3"><path d="M172.125 320.4 172.125 93.096" stroke="#808080" stroke-width="0.5" stroke-linecap="square" fill="none" clip-path="url(#paca6f00b17)"/></g><g id="line2d_4"><g><use x="172.125" y="320.4" width="100%" height="100%" xlink:href="#mb542bbffb9" stroke="#000000" stroke-width="0.8"></use></g></g><g id="text_2"><g transform="matrix(0.12 0 0 -0.12 168.308 336.518)"><defs><path d="M691 4666 3169 4666 3169 4134 1269 4134 1269 2991C1360.33 3022.33 1451.67 3045.67 1543 3061 1635 3076.33 1727 3084 1819 3084 2339.67 3084 2752 2941.33 3056 2656 3360.67 2370.67 3513 1984.33 3513 1497 3513 995 3356.67 604.667 3044 326 2731.33 48 2290.67-91 1722-91 1526-91 1326.33-74.3333 1123-41 920.333-7.66667 710.667 42.3333 494 109L494 744C681.333 642 875 566 1075 516 1275 466 1486.33 441 1709 441 2069.67 441 2355 535.667 2565 725 2775.67 914.333 2881 1171.67 2881 1497 2881 1821.67 2775.67 2078.67 2565 2268 2355 2458 2069.67 2553 1709 2553 1540.33 2553 1372 2534.33 1204 2497 1036.67 2459.67 865.667 2401.33 691 2322L691 4666Z" id="DejaVuSans-35" transform="scale(0.015625 0.015625)"/></defs><use width="100%" height="100%" xlink:href="#DejaVuSans-35"></use></g></g></g><g id="xtick_3"><g id="line2d_5"><path d="M276.75 320.4 276.75 93.096" stroke="#808080" stroke-width="0.5" stroke-linecap="square" fill="none" clip-path="url(#paca6f00b17)"/></g><g id="line2d_6"><g><use x="276.75" y="320.4" width="100%" height="100%" xlink:href="#mb542bbffb9" stroke="#000000" stroke-width="0.8"></use></g></g><g id="text_3"><g transform="matrix(0.12 0 0 -0.12 269.115 336.518)"><defs><path d="M794 531 1825 531 1825 4091 703 3866 703 4441 1819 4666 2450 4666 2450 531 3481 531 3481 0 794 0 794 531Z" id="DejaVuSans-31" transform="scale(0.015625 0.015625)"/></defs><use width="100%" height="100%" xlink:href="#DejaVuSans-31"></use><use x="63.623" width="100%" height="100%" xlink:href="#DejaVuSans-30"></use></g></g></g><g id="xtick_4"><g id="line2d_7"><path d="M381.375 320.4 381.375 93.096" stroke="#808080" stroke-width="0.5" stroke-linecap="square" fill="none" clip-path="url(#paca6f00b17)"/></g><g id="line2d_8"><g><use x="381.375" y="320.4" width="100%" height="100%" xlink:href="#mb542bbffb9" stroke="#000000" stroke-width="0.8"></use></g></g><g id="text_4"><g transform="matrix(0.12 0 0 -0.12 373.74 336.518)"><use width="100%" height="100%" xlink:href="#DejaVuSans-31"></use><use x="63.623" width="100%" height="100%" xlink:href="#DejaVuSans-35"></use></g></g></g><g id="xtick_5"><g id="line2d_9"><path d="M486 320.4 486 93.096" stroke="#808080" stroke-width="0.5" stroke-linecap="square" fill="none" clip-path="url(#paca6f00b17)"/></g><g id="line2d_10"><g><use x="486" y="320.4" width="100%" height="100%" xlink:href="#mb542bbffb9" stroke="#000000" stroke-width="0.8"></use></g></g><g id="text_5"><g transform="matrix(0.12 0 0 -0.12 478.365 336.518)"><defs><path d="M1228 531 3431 531 3431 0 469 0 469 531C708.333 779 1034.67 1111.67 1448 1529 1862 1947 2122 2216.67 2228 2338 2430 2564.67 2571 2756.67 2651 2914 2731.67 3071.33 2772 3226 2772 3378 2772 3626 2685 3828 2511 3984 2337 4140.67 2110.33 4219 1831 4219 1633 4219 1424 4184.67 1204 4116 984.667 4047.33 750 3943 500 3803L500 4441C754 4543 991.333 4620 1212 4672 1433.33 4724 1635.67 4750 1819 4750 2302.33 4750 2687.67 4629 2975 4387 3262.33 4145.67 3406 3823 3406 3419 3406 3227 3370 3045 3298 2873 3226.67 2701.67 3096 2499.33 2906 2266 2854 2205.33 2688.33 2030.67 2409 1742 2130.33 1453.33 1736.67 1049.67 1228 531Z" id="DejaVuSans-32" transform="scale(0.015625 0.015625)"/></defs><use width="100%" height="100%" xlink:href="#DejaVuSans-32"></use><use x="63.623" width="100%" height="100%" xlink:href="#DejaVuSans-30"></use></g></g></g><g id="xtick_6"><g id="line2d_11"><path d="M88.425 320.4 88.425 93.096" stroke="#808080" stroke-width="0.5" stroke-dasharray="1.85 0.8" fill="none" clip-path="url(#paca6f00b17)"/></g><g id="line2d_12"><defs><path d="M0 0 0 2" id="m1adfc29134" stroke="#000000" stroke-width="0.6"/></defs><g><use x="88.425" y="320.4" width="100%" height="100%" xlink:href="#m1adfc29134" stroke="#000000" stroke-width="0.6"></use></g></g></g><g id="xtick_7"><g id="line2d_13"><path d="M109.35 320.4 109.35 93.096" stroke="#808080" stroke-width="0.5" stroke-dasharray="1.85 0.8" fill="none" clip-path="url(#paca6f00b17)"/></g><g id="line2d_14"><g><use x="109.35" y="320.4" width="100%" height="100%" xlink:href="#m1adfc29134" stroke="#000000" stroke-width="0.6"></use></g></g></g><g id="xtick_8"><g id="line2d_15"><path d="M130.275 320.4 130.275 93.096" stroke="#808080" stroke-width="0.5" stroke-dasharray="1.85 0.8" fill="none" clip-path="url(#paca6f00b17)"/></g><g id="line2d_16"><g><use x="130.275" y="320.4" width="100%" height="100%" xlink:href="#m1adfc29134" stroke="#000000" stroke-width="0.6"></use></g></g></g><g id="xtick_9"><g id="line2d_17"><path d="M151.2 320.4 151.2 93.096" stroke="#808080" stroke-width="0.5" stroke-dasharray="1.85 0.8" fill="none" clip-path="url(#paca6f00b17)"/></g><g id="line2d_18"><g><use x="151.2" y="320.4" width="100%" height="100%" xlink:href="#m1adfc29134" stroke="#000000" stroke-width="0.6"></use></g></g></g><g id="xtick_10"><g id="line2d_19"><path d="M193.05 320.4 193.05 93.096" stroke="#808080" stroke-width="0.5" stroke-dasharray="1.85 0.8" fill="none" clip-path="url(#paca6f00b17)"/></g><g id="line2d_20"><g><use x="193.05" y="320.4" width="100%" height="100%" xlink:href="#m1adfc29134" stroke="#000000" stroke-width="0.6"></use></g></g></g><g id="xtick_11"><g id="line2d_21"><path d="M213.975 320.4 213.975 93.096" stroke="#808080" stroke-width="0.5" stroke-dasharray="1.85 0.8" fill="none" clip-path="url(#paca6f00b17)"/></g><g id="line2d_22"><g><use x="213.975" y="320.4" width="100%" height="100%" xlink:href="#m1adfc29134" stroke="#000000" stroke-width="0.6"></use></g></g></g><g id="xtick_12"><g id="line2d_23"><path d="M234.9 320.4 234.9 93.096" stroke="#808080" stroke-width="0.5" stroke-dasharray="1.85 0.8" fill="none" clip-path="url(#paca6f00b17)"/></g><g id="line2d_24"><g><use x="234.9" y="320.4" width="100%" height="100%" xlink:href="#m1adfc29134" stroke="#000000" stroke-width="0.6"></use></g></g></g><g id="xtick_13"><g id="line2d_25"><path d="M255.825 320.4 255.825 93.096" stroke="#808080" stroke-width="0.5" stroke-dasharray="1.85 0.8" fill="none" clip-path="url(#paca6f00b17)"/></g><g id="line2d_26"><g><use x="255.825" y="320.4" width="100%" height="100%" xlink:href="#m1adfc29134" stroke="#000000" stroke-width="0.6"></use></g></g></g><g id="xtick_14"><g id="line2d_27"><path d="M297.675 320.4 297.675 93.096" stroke="#808080" stroke-width="0.5" stroke-dasharray="1.85 0.8" fill="none" clip-path="url(#paca6f00b17)"/></g><g id="line2d_28"><g><use x="297.675" y="320.4" width="100%" height="100%" xlink:href="#m1adfc29134" stroke="#000000" stroke-width="0.6"></use></g></g></g><g id="xtick_15"><g id="line2d_29"><path d="M318.6 320.4 318.6 93.096" stroke="#808080" stroke-width="0.5" stroke-dasharray="1.85 0.8" fill="none" clip-path="url(#paca6f00b17)"/></g><g id="line2d_30"><g><use x="318.6" y="320.4" width="100%" height="100%" xlink:href="#m1adfc29134" stroke="#000000" stroke-width="0.6"></use></g></g></g><g id="xtick_16"><g id="line2d_31"><path d="M339.525 320.4 339.525 93.096" stroke="#808080" stroke-width="0.5" stroke-dasharray="1.85 0.8" fill="none" clip-path="url(#paca6f00b17)"/></g><g id="line2d_32"><g><use x="339.525" y="320.4" width="100%" height="100%" xlink:href="#m1adfc29134" stroke="#000000" stroke-width="0.6"></use></g></g></g><g id="xtick_17"><g id="line2d_33"><path d="M360.45 320.4 360.45 93.096" stroke="#808080" stroke-width="0.5" stroke-dasharray="1.85 0.8" fill="none" clip-path="url(#paca6f00b17)"/></g><g id="line2d_34"><g><use x="360.45" y="320.4" width="100%" height="100%" xlink:href="#m1adfc29134" stroke="#000000" stroke-width="0.6"></use></g></g></g><g id="xtick_18"><g id="line2d_35"><path d="M402.3 320.4 402.3 93.096" stroke="#808080" stroke-width="0.5" stroke-dasharray="1.85 0.8" fill="none" clip-path="url(#paca6f00b17)"/></g><g id="line2d_36"><g><use x="402.3" y="320.4" width="100%" height="100%" xlink:href="#m1adfc29134" stroke="#000000" stroke-width="0.6"></use></g></g></g><g id="xtick_19"><g id="line2d_37"><path d="M423.225 320.4 423.225 93.096" stroke="#808080" stroke-width="0.5" stroke-dasharray="1.85 0.8" fill="none" clip-path="url(#paca6f00b17)"/></g><g id="line2d_38"><g><use x="423.225" y="320.4" width="100%" height="100%" xlink:href="#m1adfc29134" stroke="#000000" stroke-width="0.6"></use></g></g></g><g id="xtick_20"><g id="line2d_39"><path d="M444.15 320.4 444.15 93.096" stroke="#808080" stroke-width="0.5" stroke-dasharray="1.85 0.8" fill="none" clip-path="url(#paca6f00b17)"/></g><g id="line2d_40"><g><use x="444.15" y="320.4" width="100%" height="100%" xlink:href="#m1adfc29134" stroke="#000000" stroke-width="0.6"></use></g></g></g><g id="xtick_21"><g id="line2d_41"><path d="M465.075 320.4 465.075 93.096" stroke="#808080" stroke-width="0.5" stroke-dasharray="1.85 0.8" fill="none" clip-path="url(#paca6f00b17)"/></g><g id="line2d_42"><g><use x="465.075" y="320.4" width="100%" height="100%" xlink:href="#m1adfc29134" stroke="#000000" stroke-width="0.6"></use></g></g></g><g id="text_6"><g transform="matrix(0.12 0 0 -0.12 231.93 352.132)"><defs><path d="M2356 4666 3072 4666 3938 0 3278 0 3084 1197 984 1197 325 0-341 0 2356 4666ZM2584 4044 1275 1722 2988 1722 2584 4044Z" id="DejaVuSans-Oblique-41" transform="scale(0.015625 0.015625)"/><path d="M3841 3500 2234 1784 3219 0 2559 0 1819 1388 531 0-166 0 1556 1844 641 3500 1300 3500 1972 2234 3144 3500 3841 3500Z" id="DejaVuSans-Oblique-78" transform="scale(0.015625 0.015625)"/><path d="M1172 4863 1747 4863 1606 4134 1031 4134 1172 4863ZM909 3500 1484 3500 800 0 225 0 909 3500Z" id="DejaVuSans-Oblique-69" transform="scale(0.015625 0.015625)"/><path d="M3438 1997 3047 0 2472 0 2578 531C2409.33 323 2217 167.333 2001 64 1785.67-39.3333 1545.67-91 1281-91 983-91 738.667 0 548 182 358 364.667 263 598.667 263 884 263 1292.67 426 1615.67 752 1853 1078 2090.33 1527.33 2209 2100 2209L2900 2209 2931 2363C2935.67 2379.67 2939 2397.67 2941 2417 2943 2437 2944 2467.67 2944 2509 2944 2695 2868.33 2839.33 2717 2942 2566.33 3045.33 2354.33 3097 2081 3097 1893.67 3097 1701.33 3073 1504 3025 1307.33 2977 1105 2905 897 2809L997 3341C1213.67 3422.33 1425.67 3483 1633 3523 1840.33 3563.67 2040.67 3584 2234 3584 2646.67 3584 2960.67 3494.33 3176 3315 3392 3136.33 3500 2876 3500 2534 3500 2465.33 3494.67 2384.67 3484 2292 3474 2199.33 3458.67 2101 3438 1997ZM2816 1759 2241 1759C1769.67 1759 1421 1696 1195 1570 969 1444 856 1248.67 856 984 856 800.667 913.667 657 1029 553 1145 449 1305 397 1509 397 1821.67 397 2094.67 509 2328 733 2561.33 957 2715.67 1256.33 2791 1631L2816 1759Z" id="DejaVuSans-Oblique-61" transform="scale(0.015625 0.015625)"/><path d="M1172 4863 1747 4863 800 0 225 0 1172 4863Z" id="DejaVuSans-Oblique-6c" transform="scale(0.015625 0.015625)"/><path d="M3859 4513 3738 3897C3527.33 4009.67 3318.33 4094.67 3111 4152 2903.67 4209.33 2703 4238 2509 4238 2132.33 4238 1832.33 4155.67 1609 3991 1386.33 3826.33 1275 3607.33 1275 3334 1275 3184 1316 3069 1398 2989 1480.67 2909 1692.67 2823 2034 2731L2413 2638C2839.67 2527.33 3136.33 2387 3303 2217 3469.67 2047.67 3553 1809.67 3553 1503 3553 1032.33 3368 649 2998 353 2628.67 57 2142-91 1538-91 1290-91 1041-66.3333 791-17 541 31.6667 290 106 38 206L166 856C397.333 712.667 629 604.333 861 531 1093 458.333 1324.67 422 1556 422 1950 422 2265.67 509.333 2503 684 2740.33 859.333 2859 1087.67 2859 1369 2859 1556.33 2811.67 1698.33 2717 1795 2622.33 1892.33 2418.67 1980.33 2106 2059L1728 2156C1296.67 2268.67 1002.33 2398.33 845 2545 687.667 2692.33 609 2898.33 609 3163 609 3627 787.667 4007.33 1145 4304 1502.33 4601.33 1967.67 4750 2541 4750 2763.67 4750 2984.33 4730 3203 4690 3421.67 4650.67 3640.33 4591.67 3859 4513Z" id="DejaVuSans-Oblique-53" transform="scale(0.015625 0.015625)"/><path d="M2706 3500 2619 3053 1472 3053 1100 1153C1087.33 1082.33 1078 1023 1072 975 1066 927 1063 889.667 1063 863 1063 729.667 1103 632.667 1183 572 1263 511.333 1391.67 481 1569 481L2150 481 2053 0 1503 0C1161.67 0 907 66.6667 739 200 571.667 333.333 488 535.333 488 806 488 854 491 906.667 497 964 503 1021.33 512.333 1084.33 525 1153L897 3053 409 3053 500 3500 978 3500 1172 4494 1747 4494 1556 3500 2706 3500Z" id="DejaVuSans-Oblique-74" transform="scale(0.015625 0.015625)"/><path d="M2853 2969C2795 3000.33 2728.33 3024.33 2653 3041 2578.33 3057.67 2498.33 3066 2413 3066 2106.33 3066 1838.33 2949.67 1609 2717 1380.33 2485 1228.33 2174 1153 1784L800 0 225 0 909 3500 1484 3500 1375 2956C1527 3158 1708.67 3313 1920 3421 2132 3529.67 2357.67 3584 2597 3584 2659.67 3584 2721 3580.33 2781 3573 2841.67 3566.33 2902.33 3554.67 2963 3538L2853 2969Z" id="DejaVuSans-Oblique-72" transform="scale(0.015625 0.015625)"/><path d="M3566 2113 3156 0 2578 0 2988 2091C3006.67 2189 3021 2275.33 3031 2350 3041.67 2425.33 3047 2484.67 3047 2528 3047 2703.33 2991.67 2839.67 2881 2937 2771 3035 2617 3084 2419 3084 2110.33 3084 1844.67 2981.33 1622 2776 1399.33 2571.33 1253.33 2293 1184 1941L800 0 225 0 903 3500 1478 3500 1363 2950C1523 3152 1715.33 3308 1940 3418 2165.33 3528.67 2402 3584 2650 3584 2958.67 3584 3197.67 3500.67 3367 3334 3537 3167.33 3622 2933 3622 2631 3622 2556.33 3617.33 2476.33 3608 2391 3598.67 2305.67 3584.67 2213 3566 2113Z" id="DejaVuSans-Oblique-6e" transform="scale(0.015625 0.015625)"/><path d="M1984 4856C1705.33 4377.33 1498 3903.33 1362 3434 1226.67 2965.33 1159 2490.33 1159 2009 1159 1528.33 1227.33 1052 1364 580 1500.67 108 1707.33-366.667 1984-844L1484-844C1172-354 938.333 127.333 783 600 627.667 1072.67 550 1542.33 550 2009 550 2473.67 627 2941.33 781 3412 935.667 3883.33 1170 4364.67 1484 4856L1984 4856Z" id="DejaVuSans-28" transform="scale(0.015625 0.015625)"/><path d="M4653 2053C4471.67 2053 4329.33 1976 4226 1822 4123.33 1668 4072 1453.33 4072 1178 4072 907.333 4123.33 694.333 4226 539 4329.33 383.667 4471.67 306 4653 306 4830.33 306 4970.33 383.667 5073 539 5176.33 694.333 5228 907.333 5228 1178 5228 1451.33 5176.33 1665.33 5073 1820 4970.33 1975.33 4830.33 2053 4653 2053ZM4653 2450C4982.33 2450 5243.67 2335.33 5437 2106 5631 1877.33 5728 1568 5728 1178 5728 788.667 5630.67 479.667 5436 251 5241.33 23 4980.33-91 4653-91 4319.67-91 4056 23 3862 251 3668.67 479.667 3572 788.667 3572 1178 3572 1570 3669.33 1880 3864 2108 4058.67 2336 4321.67 2450 4653 2450ZM1428 4353C1248.67 4353 1107.33 4275.33 1004 4120 901.333 3965.33 850 3752.33 850 3481 850 3206.33 901 2991.67 1003 2837 1105 2683 1246.67 2606 1428 2606 1609.33 2606 1751.33 2683 1854 2837 1957.33 2991.67 2009 3206.33 2009 3481 2009 3749.67 1957 3962 1853 4118 1749 4274.67 1607.33 4353 1428 4353ZM4250 4750 4750 4750 1831-91 1331-91 4250 4750ZM1428 4750C1757.33 4750 2019.67 4636 2215 4408 2411 4180 2509 3871 2509 3481 2509 3087.67 2411.67 2777.33 2217 2550 2022.33 2322.67 1759.33 2209 1428 2209 1096.67 2209 834.667 2323 642 2551 449.333 2779.67 353 3089.67 353 3481 353 3869 449.667 4177.33 643 4406 837 4635.33 1098.67 4750 1428 4750Z" id="DejaVuSans-25" transform="scale(0.015625 0.015625)"/><path d="M513 4856 1013 4856C1325 4364.67 1558.67 3883.33 1714 3412 1869.33 2941.33 1947 2473.67 1947 2009 1947 1542.33 1869.33 1072.67 1714 600 1558.67 127.333 1325-354 1013-844L513-844C789.667-366.667 996.333 108 1133 580 1269.67 1052 1338 1528.33 1338 2009 1338 2490.33 1269.67 2965.33 1133 3434 996.333 3903.33 789.667 4377.33 513 4856Z" id="DejaVuSans-29" transform="scale(0.015625 0.015625)"/></defs><use width="100%" height="100%" xlink:href="#DejaVuSans-Oblique-41" transform="matrix(1 0 0 1 0 0.015625)"></use><use width="100%" height="100%" xlink:href="#DejaVuSans-Oblique-78" transform="translate(68.4082 0.015625)"></use><use width="100%" height="100%" xlink:href="#DejaVuSans-Oblique-69" transform="translate(127.588 0.015625)"></use><use width="100%" height="100%" xlink:href="#DejaVuSans-Oblique-61" transform="translate(155.371 0.015625)"></use><use width="100%" height="100%" xlink:href="#DejaVuSans-Oblique-6c" transform="translate(216.65 0.015625)"></use><use width="100%" height="100%" xlink:href="#DejaVuSans-Oblique-53" transform="translate(276.904 0.015625)"></use><use width="100%" height="100%" xlink:href="#DejaVuSans-Oblique-74" transform="translate(340.381 0.015625)"></use><use width="100%" height="100%" xlink:href="#DejaVuSans-Oblique-72" transform="translate(379.59 0.015625)"></use><use width="100%" height="100%" xlink:href="#DejaVuSans-Oblique-61" transform="translate(420.703 0.015625)"></use><use width="100%" height="100%" xlink:href="#DejaVuSans-Oblique-69" transform="translate(481.982 0.015625)"></use><use width="100%" height="100%" xlink:href="#DejaVuSans-Oblique-6e" transform="translate(509.765 0.015625)"></use><use width="100%" height="100%" xlink:href="#DejaVuSans-28" transform="translate(573.144 0.015625)"></use><use width="100%" height="100%" xlink:href="#DejaVuSans-25" transform="translate(612.158 0.015625)"></use><use width="100%" height="100%" xlink:href="#DejaVuSans-29" transform="translate(707.177 0.015625)"></use></g></g></g><g id="matplotlib.axis_2"><g id="ytick_1"><g id="line2d_43"><path d="M67.5 310.12 486 310.12" stroke="#808080" stroke-width="0.5" stroke-linecap="square" fill="none" clip-path="url(#paca6f00b17)"/></g><g id="line2d_44"><defs><path d="M0 0-3.5 0" id="mf137d54d22" stroke="#000000" stroke-width="0.8"/></defs><g><use x="67.5" y="310.12" width="100%" height="100%" xlink:href="#mf137d54d22" stroke="#000000" stroke-width="0.8"></use></g></g><g id="text_7"><g transform="matrix(0.12 0 0 -0.12 41.4162 314.679)"><defs><path d="M684 794 1344 794 1344 0 684 0 684 794Z" id="DejaVuSans-2e" transform="scale(0.015625 0.015625)"/></defs><use width="100%" height="100%" xlink:href="#DejaVuSans-30"></use><use x="63.623" width="100%" height="100%" xlink:href="#DejaVuSans-2e"></use><use x="95.4102" width="100%" height="100%" xlink:href="#DejaVuSans-30"></use></g></g></g><g id="ytick_2"><g id="line2d_45"><path d="M67.5 271.54 486 271.54" stroke="#808080" stroke-width="0.5" stroke-linecap="square" fill="none" clip-path="url(#paca6f00b17)"/></g><g id="line2d_46"><g><use x="67.5" y="271.54" width="100%" height="100%" xlink:href="#mf137d54d22" stroke="#000000" stroke-width="0.8"></use></g></g><g id="text_8"><g transform="matrix(0.12 0 0 -0.12 26.1462 276.099)"><use width="100%" height="100%" xlink:href="#DejaVuSans-32"></use><use x="63.623" width="100%" height="100%" xlink:href="#DejaVuSans-30"></use><use x="127.246" width="100%" height="100%" xlink:href="#DejaVuSans-30"></use><use x="190.869" width="100%" height="100%" xlink:href="#DejaVuSans-2e"></use><use x="222.656" width="100%" height="100%" xlink:href="#DejaVuSans-30"></use></g></g></g><g id="ytick_3"><g id="line2d_47"><path d="M67.5 232.961 486 232.961" stroke="#808080" stroke-width="0.5" stroke-linecap="square" fill="none" clip-path="url(#paca6f00b17)"/></g><g id="line2d_48"><g><use x="67.5" y="232.961" width="100%" height="100%" xlink:href="#mf137d54d22" stroke="#000000" stroke-width="0.8"></use></g></g><g id="text_9"><g transform="matrix(0.12 0 0 -0.12 26.1462 237.52)"><defs><path d="M2419 4116 825 1625 2419 1625 2419 4116ZM2253 4666 3047 4666 3047 1625 3713 1625 3713 1100 3047 1100 3047 0 2419 0 2419 1100 313 1100 313 1709 2253 4666Z" id="DejaVuSans-34" transform="scale(0.015625 0.015625)"/></defs><use width="100%" height="100%" xlink:href="#DejaVuSans-34"></use><use x="63.623" width="100%" height="100%" xlink:href="#DejaVuSans-30"></use><use x="127.246" width="100%" height="100%" xlink:href="#DejaVuSans-30"></use><use x="190.869" width="100%" height="100%" xlink:href="#DejaVuSans-2e"></use><use x="222.656" width="100%" height="100%" xlink:href="#DejaVuSans-30"></use></g></g></g><g id="ytick_4"><g id="line2d_49"><path d="M67.5 194.381 486 194.381" stroke="#808080" stroke-width="0.5" stroke-linecap="square" fill="none" clip-path="url(#paca6f00b17)"/></g><g id="line2d_50"><g><use x="67.5" y="194.381" width="100%" height="100%" xlink:href="#mf137d54d22" stroke="#000000" stroke-width="0.8"></use></g></g><g id="text_10"><g transform="matrix(0.12 0 0 -0.12 26.1462 198.94)"><defs><path d="M2113 2584C1829.67 2584 1605 2487 1439 2293 1273.67 2099.67 1191 1834.33 1191 1497 1191 1161.67 1273.67 896.333 1439 701 1605 506.333 1829.67 409 2113 409 2396.33 409 2620.67 506.333 2786 701 2951.33 896.333 3034 1161.67 3034 1497 3034 1834.33 2951.33 2099.67 2786 2293 2620.67 2487 2396.33 2584 2113 2584ZM3366 4563 3366 3988C3207.33 4062.67 3047.33 4119.67 2886 4159 2724.67 4199 2564.67 4219 2406 4219 1989.33 4219 1671 4078.33 1451 3797 1231.67 3515.67 1106.33 3090.67 1075 2522 1197.67 2703.33 1351.67 2842.33 1537 2939 1723 3035.67 1927.33 3084 2150 3084 2618.67 3084 2989 2941.67 3261 2657 3533 2373 3669 1986.33 3669 1497 3669 1017.67 3527.33 633 3244 343 2960.67 53.6667 2583.67-91 2113-91 1573-91 1160.33 115.667 875 529 589.667 943 447 1542.67 447 2328 447 3065.33 622 3653.33 972 4092 1322 4530.67 1791.67 4750 2381 4750 2539.67 4750 2699.67 4734.33 2861 4703 3022.33 4671.67 3190.67 4625 3366 4563Z" id="DejaVuSans-36" transform="scale(0.015625 0.015625)"/></defs><use width="100%" height="100%" xlink:href="#DejaVuSans-36"></use><use x="63.623" width="100%" height="100%" xlink:href="#DejaVuSans-30"></use><use x="127.246" width="100%" height="100%" xlink:href="#DejaVuSans-30"></use><use x="190.869" width="100%" height="100%" xlink:href="#DejaVuSans-2e"></use><use x="222.656" width="100%" height="100%" xlink:href="#DejaVuSans-30"></use></g></g></g><g id="ytick_5"><g id="line2d_51"><path d="M67.5 155.801 486 155.801" stroke="#808080" stroke-width="0.5" stroke-linecap="square" fill="none" clip-path="url(#paca6f00b17)"/></g><g id="line2d_52"><g><use x="67.5" y="155.801" width="100%" height="100%" xlink:href="#mf137d54d22" stroke="#000000" stroke-width="0.8"></use></g></g><g id="text_11"><g transform="matrix(0.12 0 0 -0.12 26.1462 160.36)"><defs><path d="M2034 2216C1734 2216 1498 2135.67 1326 1975 1154.67 1814.33 1069 1593.67 1069 1313 1069 1031.67 1154.67 810.667 1326 650 1498 489.333 1734 409 2034 409 2334 409 2570.33 489.667 2743 651 2916.33 813 3003 1033.67 3003 1313 3003 1593.67 2917 1814.33 2745 1975 2573.67 2135.67 2336.67 2216 2034 2216ZM1403 2484C1132.33 2550.67 921.333 2676.67 770 2862 619.333 3048 544 3274.33 544 3541 544 3913.67 676.667 4208.33 942 4425 1208 4641.67 1572 4750 2034 4750 2498.67 4750 2863.33 4641.67 3128 4425 3392.67 4208.33 3525 3913.67 3525 3541 3525 3274.33 3449.33 3048 3298 2862 3147.33 2676.67 2937.67 2550.67 2669 2484 2973 2413.33 3209.67 2274.67 3379 2068 3549 1862 3634 1610.33 3634 1313 3634 860.333 3496 513 3220 271 2944 29.6667 2548.67-91 2034-91 1520-91 1124.67 29.6667 848 271 572 513 434 860.333 434 1313 434 1610.33 519.333 1862 690 2068 861.333 2274.67 1099 2413.33 1403 2484ZM1172 3481C1172 3239.67 1247.33 3051.33 1398 2916 1549.33 2780.67 1761.33 2713 2034 2713 2305.33 2713 2517.33 2780.67 2670 2916 2823.33 3051.33 2900 3239.67 2900 3481 2900 3723 2823.33 3911.67 2670 4047 2517.33 4182.33 2305.33 4250 2034 4250 1761.33 4250 1549.33 4182.33 1398 4047 1247.33 3911.67 1172 3723 1172 3481Z" id="DejaVuSans-38" transform="scale(0.015625 0.015625)"/></defs><use width="100%" height="100%" xlink:href="#DejaVuSans-38"></use><use x="63.623" width="100%" height="100%" xlink:href="#DejaVuSans-30"></use><use x="127.246" width="100%" height="100%" xlink:href="#DejaVuSans-30"></use><use x="190.869" width="100%" height="100%" xlink:href="#DejaVuSans-2e"></use><use x="222.656" width="100%" height="100%" xlink:href="#DejaVuSans-30"></use></g></g></g><g id="ytick_6"><g id="line2d_53"><path d="M67.5 117.221 486 117.221" stroke="#808080" stroke-width="0.5" stroke-linecap="square" fill="none" clip-path="url(#paca6f00b17)"/></g><g id="line2d_54"><g><use x="67.5" y="117.221" width="100%" height="100%" xlink:href="#mf137d54d22" stroke="#000000" stroke-width="0.8"></use></g></g><g id="text_12"><g transform="matrix(0.12 0 0 -0.12 18.5113 121.78)"><use width="100%" height="100%" xlink:href="#DejaVuSans-31"></use><use x="63.623" width="100%" height="100%" xlink:href="#DejaVuSans-30"></use><use x="127.246" width="100%" height="100%" xlink:href="#DejaVuSans-30"></use><use x="190.869" width="100%" height="100%" xlink:href="#DejaVuSans-30"></use><use x="254.492" width="100%" height="100%" xlink:href="#DejaVuSans-2e"></use><use x="286.279" width="100%" height="100%" xlink:href="#DejaVuSans-30"></use></g></g></g><g id="ytick_7"><g id="line2d_55"><path d="M67.5 319.765 486 319.765" stroke="#808080" stroke-width="0.5" stroke-dasharray="1.85 0.8" fill="none" clip-path="url(#paca6f00b17)"/></g><g id="line2d_56"><defs><path d="M0 0-2 0" id="m59a8927f44" stroke="#000000" stroke-width="0.6"/></defs><g><use x="67.5" y="319.765" width="100%" height="100%" xlink:href="#m59a8927f44" stroke="#000000" stroke-width="0.6"></use></g></g></g><g id="ytick_8"><g id="line2d_57"><path d="M67.5 300.475 486 300.475" stroke="#808080" stroke-width="0.5" stroke-dasharray="1.85 0.8" fill="none" clip-path="url(#paca6f00b17)"/></g><g id="line2d_58"><g><use x="67.5" y="300.475" width="100%" height="100%" xlink:href="#m59a8927f44" stroke="#000000" stroke-width="0.6"></use></g></g></g><g id="ytick_9"><g id="line2d_59"><path d="M67.5 290.83 486 290.83" stroke="#808080" stroke-width="0.5" stroke-dasharray="1.85 0.8" fill="none" clip-path="url(#paca6f00b17)"/></g><g id="line2d_60"><g><use x="67.5" y="290.83" width="100%" height="100%" xlink:href="#m59a8927f44" stroke="#000000" stroke-width="0.6"></use></g></g></g><g id="ytick_10"><g id="line2d_61"><path d="M67.5 281.185 486 281.185" stroke="#808080" stroke-width="0.5" stroke-dasharray="1.85 0.8" fill="none" clip-path="url(#paca6f00b17)"/></g><g id="line2d_62"><g><use x="67.5" y="281.185" width="100%" height="100%" xlink:href="#m59a8927f44" stroke="#000000" stroke-width="0.6"></use></g></g></g><g id="ytick_11"><g id="line2d_63"><path d="M67.5 261.895 486 261.895" stroke="#808080" stroke-width="0.5" stroke-dasharray="1.85 0.8" fill="none" clip-path="url(#paca6f00b17)"/></g><g id="line2d_64"><g><use x="67.5" y="261.895" width="100%" height="100%" xlink:href="#m59a8927f44" stroke="#000000" stroke-width="0.6"></use></g></g></g><g id="ytick_12"><g id="line2d_65"><path d="M67.5 252.25 486 252.25" stroke="#808080" stroke-width="0.5" stroke-dasharray="1.85 0.8" fill="none" clip-path="url(#paca6f00b17)"/></g><g id="line2d_66"><g><use x="67.5" y="252.25" width="100%" height="100%" xlink:href="#m59a8927f44" stroke="#000000" stroke-width="0.6"></use></g></g></g><g id="ytick_13"><g id="line2d_67"><path d="M67.5 242.605 486 242.605" stroke="#808080" stroke-width="0.5" stroke-dasharray="1.85 0.8" fill="none" clip-path="url(#paca6f00b17)"/></g><g id="line2d_68"><g><use x="67.5" y="242.605" width="100%" height="100%" xlink:href="#m59a8927f44" stroke="#000000" stroke-width="0.6"></use></g></g></g><g id="ytick_14"><g id="line2d_69"><path d="M67.5 223.316 486 223.316" stroke="#808080" stroke-width="0.5" stroke-dasharray="1.85 0.8" fill="none" clip-path="url(#paca6f00b17)"/></g><g id="line2d_70"><g><use x="67.5" y="223.316" width="100%" height="100%" xlink:href="#m59a8927f44" stroke="#000000" stroke-width="0.6"></use></g></g></g><g id="ytick_15"><g id="line2d_71"><path d="M67.5 213.671 486 213.671" stroke="#808080" stroke-width="0.5" stroke-dasharray="1.85 0.8" fill="none" clip-path="url(#paca6f00b17)"/></g><g id="line2d_72"><g><use x="67.5" y="213.671" width="100%" height="100%" xlink:href="#m59a8927f44" stroke="#000000" stroke-width="0.6"></use></g></g></g><g id="ytick_16"><g id="line2d_73"><path d="M67.5 204.026 486 204.026" stroke="#808080" stroke-width="0.5" stroke-dasharray="1.85 0.8" fill="none" clip-path="url(#paca6f00b17)"/></g><g id="line2d_74"><g><use x="67.5" y="204.026" width="100%" height="100%" xlink:href="#m59a8927f44" stroke="#000000" stroke-width="0.6"></use></g></g></g><g id="ytick_17"><g id="line2d_75"><path d="M67.5 184.736 486 184.736" stroke="#808080" stroke-width="0.5" stroke-dasharray="1.85 0.8" fill="none" clip-path="url(#paca6f00b17)"/></g><g id="line2d_76"><g><use x="67.5" y="184.736" width="100%" height="100%" xlink:href="#m59a8927f44" stroke="#000000" stroke-width="0.6"></use></g></g></g><g id="ytick_18"><g id="line2d_77"><path d="M67.5 175.091 486 175.091" stroke="#808080" stroke-width="0.5" stroke-dasharray="1.85 0.8" fill="none" clip-path="url(#paca6f00b17)"/></g><g id="line2d_78"><g><use x="67.5" y="175.091" width="100%" height="100%" xlink:href="#m59a8927f44" stroke="#000000" stroke-width="0.6"></use></g></g></g><g id="ytick_19"><g id="line2d_79"><path d="M67.5 165.446 486 165.446" stroke="#808080" stroke-width="0.5" stroke-dasharray="1.85 0.8" fill="none" clip-path="url(#paca6f00b17)"/></g><g id="line2d_80"><g><use x="67.5" y="165.446" width="100%" height="100%" xlink:href="#m59a8927f44" stroke="#000000" stroke-width="0.6"></use></g></g></g><g id="ytick_20"><g id="line2d_81"><path d="M67.5 146.156 486 146.156" stroke="#808080" stroke-width="0.5" stroke-dasharray="1.85 0.8" fill="none" clip-path="url(#paca6f00b17)"/></g><g id="line2d_82"><g><use x="67.5" y="146.156" width="100%" height="100%" xlink:href="#m59a8927f44" stroke="#000000" stroke-width="0.6"></use></g></g></g><g id="ytick_21"><g id="line2d_83"><path d="M67.5 136.511 486 136.511" stroke="#808080" stroke-width="0.5" stroke-dasharray="1.85 0.8" fill="none" clip-path="url(#paca6f00b17)"/></g><g id="line2d_84"><g><use x="67.5" y="136.511" width="100%" height="100%" xlink:href="#m59a8927f44" stroke="#000000" stroke-width="0.6"></use></g></g></g><g id="ytick_22"><g id="line2d_85"><path d="M67.5 126.866 486 126.866" stroke="#808080" stroke-width="0.5" stroke-dasharray="1.85 0.8" fill="none" clip-path="url(#paca6f00b17)"/></g><g id="line2d_86"><g><use x="67.5" y="126.866" width="100%" height="100%" xlink:href="#m59a8927f44" stroke="#000000" stroke-width="0.6"></use></g></g></g><g id="ytick_23"><g id="line2d_87"><path d="M67.5 107.576 486 107.576" stroke="#808080" stroke-width="0.5" stroke-dasharray="1.85 0.8" fill="none" clip-path="url(#paca6f00b17)"/></g><g id="line2d_88"><g><use x="67.5" y="107.576" width="100%" height="100%" xlink:href="#m59a8927f44" stroke="#000000" stroke-width="0.6"></use></g></g></g><g id="ytick_24"><g id="line2d_89"><path d="M67.5 97.9311 486 97.9311" stroke="#808080" stroke-width="0.5" stroke-dasharray="1.85 0.8" fill="none" clip-path="url(#paca6f00b17)"/></g><g id="line2d_90"><g><use x="67.5" y="97.9311" width="100%" height="100%" xlink:href="#m59a8927f44" stroke="#000000" stroke-width="0.6"></use></g></g></g><g id="text_13"><g transform="matrix(7.34788e-18 -0.12 -0.12 -7.34788e-18 12.0156 273.408)"><defs><path d="M1081 4666 2438 4666C3158.67 4666 3702.67 4513.33 4070 4208 4438 3902.67 4622 3449 4622 2847 4622 2449 4552 2066 4412 1698 4272.67 1330.67 4080 1021 3834 769 3586.67 510.333 3272.33 317.333 2891 190 2509.67 63.3333 2058.67 0 1538 0L172 0 1081 4666ZM1613 4147 909 519 1734 519C2440.67 519 2987.67 722 3375 1128 3762.33 1534.67 3956 2107.67 3956 2847 3956 3295 3831 3623.67 3581 3833 3331 4042.33 2939.33 4147 2406 4147L1613 4147Z" id="DejaVuSans-Oblique-44" transform="scale(0.015625 0.015625)"/><path d="M3078 2063C3084.67 2096.33 3089.33 2130.67 3092 2166 3095.33 2201.33 3097 2236.67 3097 2272 3097 2526 3022.33 2727 2873 2875 2724.33 3023 2522 3097 2266 3097 1980.67 3097 1728.33 3006.67 1509 2826 1290.33 2646 1125 2390.33 1013 2059L3078 2063ZM3578 1613 903 1613C890.333 1533.67 882 1471 878 1425 874 1379 872 1339.33 872 1306 872 1016.67 961 792.667 1139 634 1317 476 1568.67 397 1894 397 2144 397 2380.33 425 2603 481 2826.33 537.667 3033.67 620 3225 728L3116 159C2909.33 75.6667 2696 13.3333 2476-28 2256.67-70 2033.33-91 1806-91 1320.67-91 947.333 25 686 257 424.667 489.667 294 819.667 294 1247 294 1611.67 359 1950.67 489 2264 619 2577.33 810.333 2857 1063 3103 1225 3257 1418 3375.67 1642 3459 1866 3542.33 2104 3584 2356 3584 2752 3584 3067 3465.33 3301 3228 3535.67 2990.67 3653 2672 3653 2272 3653 2176 3646.67 2073.33 3634 1964 3622 1854.67 3603.33 1737.67 3578 1613Z" id="DejaVuSans-Oblique-65" transform="scale(0.015625 0.015625)"/><path d="M459 3500 1069 3500 1581 525 3256 3500 3866 3500 1875 0 1100 0 459 3500Z" id="DejaVuSans-Oblique-76" transform="scale(0.015625 0.015625)"/><path d="M1625-91C1214.33-91 889.667 35.6667 651 289 413 542.333 294 887.667 294 1325 294 1579 335 1837.67 417 2101 499.667 2365 606.667 2586.67 738 2766 944 3044.67 1174 3250.67 1428 3384 1682 3517.33 1969.67 3584 2291 3584 2689 3584 3010.33 3460 3255 3212 3499.67 2964.67 3622 2641 3622 2241 3622 1963.67 3581.33 1687.33 3500 1412 3418.67 1137.33 3312.33 909.333 3181 728 2977 448.667 2748 242.333 2494 109 2240-24.3333 1950.33-91 1625-91ZM891 1344C891 1027.33 957 790.333 1089 633 1221.67 475.667 1422.33 397 1691 397 2076.33 397 2395.33 565 2648 901 2901.33 1237.67 3028 1664.33 3028 2181 3028 2483 2960.33 2711 2825 2865 2689.67 3019.67 2490.67 3097 2228 3097 2011.33 3097 1818.67 3046.33 1650 2945 1481.33 2844.33 1330.33 2690.67 1197 2484 1099 2330 1023.33 2154 970 1956 917.333 1758 891 1554 891 1344Z" id="DejaVuSans-Oblique-6f" transform="scale(0.015625 0.015625)"/><path d="M3431 3366 3316 2797C3178 2897 3031.33 2972 2876 3022 2721.33 3072 2560.67 3097 2394 3097 2210.67 3097 2036 3064.67 1870 3000 1704.67 2935.33 1565.67 2843.67 1453 2725 1273.67 2543.67 1135 2331 1037 2087 939.667 1843.67 891 1591.67 891 1331 891 1016.33 969.667 782 1127 628 1284.33 474 1523.33 397 1844 397 2002 397 2170 421 2348 469 2526.67 517 2712.67 588.667 2906 684L2797 116C2630.33 47.3333 2459-4.33333 2283-39 2107-73.6667 1926.33-91 1741-91 1276.33-91 919 25 669 257 419 489.667 294 821.667 294 1253 294 1615.67 359 1949.67 489 2255 619 2560.33 812.333 2834.67 1069 3078 1243.67 3244.67 1448.67 3370.67 1684 3456 1920 3541.33 2177.33 3584 2456 3584 2618.67 3584 2780 3565.67 2940 3529 3100.67 3493 3264.33 3438.67 3431 3366Z" id="DejaVuSans-Oblique-63" transform="scale(0.015625 0.015625)"/><path d="M3200 3397 3091 2853C2939 2936.33 2778.33 2998.67 2609 3040 2440.33 3082 2266.67 3103 2088 3103 1785.33 3103 1547 3051.33 1373 2948 1199.67 2845.33 1113 2705.33 1113 2528 1113 2322 1315 2163.67 1719 2053 1750.33 2045 1773.33 2038.67 1788 2034L1972 1978C2355.33 1872 2611 1760.67 2739 1644 2867 1527.33 2931 1368 2931 1166 2931 794.667 2783.67 492.333 2489 259 2194.33 25.6667 1808.33-91 1331-91 1145.67-91 951-73 747-37 543-1.66667 318 53.3333 72 128L184 722C394.667 613.333 602 531 806 475 1010.67 419 1206.67 391 1394 391 1675.33 391 1904 451.333 2080 572 2256 692.667 2344 845.667 2344 1031 2344 1231 2112.67 1392.67 1650 1516L1591 1531 1394 1581C1102 1658.33 888.333 1760 753 1886 617.667 2012 550 2173 550 2369 550 2741.67 690 3037.33 970 3256 1250.67 3474.67 1631.67 3584 2113 3584 2302.33 3584 2487 3568.33 2667 3537 2847.67 3506.33 3025.33 3459.67 3200 3397Z" id="DejaVuSans-Oblique-73" transform="scale(0.015625 0.015625)"/><path d="M1172 4863 1747 4863 1197 2028 3169 3500 3916 3500 1716 1825 3322 0 2625 0 1131 1709 800 0 225 0 1172 4863Z" id="DejaVuSans-Oblique-6b" transform="scale(0.015625 0.015625)"/><path d="M1081 4666 2541 4666C2965.67 4666 3289.33 4567 3512 4369 3735.33 4171 3847 3881.33 3847 3500 3847 2987.33 3682.33 2588.33 3353 2303 3023.67 2017.67 2561.33 1875 1966 1875L1172 1875 806 0 172 0 1081 4666ZM1613 4147 1275 2394 2069 2394C2427 2394 2701.67 2485.67 2893 2669 3085 2852.33 3181 3114.67 3181 3456 3181 3674.67 3116 3844.33 2986 3965 2856 4086.33 2673.33 4147 2438 4147L1613 4147Z" id="DejaVuSans-Oblique-50" transform="scale(0.015625 0.015625)"/></defs><use width="100%" height="100%" xlink:href="#DejaVuSans-Oblique-44" transform="matrix(1 0 0 1 0 0.015625)"></use><use width="100%" height="100%" xlink:href="#DejaVuSans-Oblique-65" transform="translate(77.002 0.015625)"></use><use width="100%" height="100%" xlink:href="#DejaVuSans-Oblique-76" transform="translate(138.525 0.015625)"></use><use width="100%" height="100%" xlink:href="#DejaVuSans-Oblique-69" transform="translate(197.705 0.015625)"></use><use width="100%" height="100%" xlink:href="#DejaVuSans-Oblique-61" transform="translate(225.488 0.015625)"></use><use width="100%" height="100%" xlink:href="#DejaVuSans-Oblique-74" transform="translate(286.768 0.015625)"></use><use width="100%" height="100%" xlink:href="#DejaVuSans-Oblique-6f" transform="translate(325.977 0.015625)"></use><use width="100%" height="100%" xlink:href="#DejaVuSans-Oblique-72" transform="translate(387.158 0.015625)"></use><use width="100%" height="100%" xlink:href="#DejaVuSans-Oblique-69" transform="translate(428.271 0.015625)"></use><use width="100%" height="100%" xlink:href="#DejaVuSans-Oblique-63" transform="translate(456.055 0.015625)"></use><use width="100%" height="100%" xlink:href="#DejaVuSans-Oblique-53" transform="translate(543.506 0.015625)"></use><use width="100%" height="100%" xlink:href="#DejaVuSans-Oblique-74" transform="translate(606.982 0.015625)"></use><use width="100%" height="100%" xlink:href="#DejaVuSans-Oblique-72" transform="translate(646.191 0.015625)"></use><use width="100%" height="100%" xlink:href="#DejaVuSans-Oblique-65" transform="translate(687.304 0.015625)"></use><use width="100%" height="100%" xlink:href="#DejaVuSans-Oblique-73" transform="translate(748.828 0.015625)"></use><use width="100%" height="100%" xlink:href="#DejaVuSans-Oblique-73" transform="translate(800.927 0.015625)"></use><use width="100%" height="100%" xlink:href="#DejaVuSans-28" transform="translate(853.027 0.015625)"></use><use width="100%" height="100%" xlink:href="#DejaVuSans-Oblique-6b" transform="translate(892.041 0.015625)"></use><use width="100%" height="100%" xlink:href="#DejaVuSans-Oblique-50" transform="translate(949.951 0.015625)"></use><use width="100%" height="100%" xlink:href="#DejaVuSans-Oblique-61" transform="translate(1010.25 0.015625)"></use><use width="100%" height="100%" xlink:href="#DejaVuSans-29" transform="translate(1071.53 0.015625)"></use></g></g></g><g id="line2d_91"><path d="M67.5 309.985 68.3135 275.02 69.1271 250.838 69.9405 234.934 70.754 224.739 71.5672 217.586 72.3803 212.817 73.1932 209.598 74.006 207.164 74.8193 206.117 76.4463 203.036 77.2599 202.295 78.0735 201.115 78.887 201.017 79.7013 200.584 80.5161 199.886 81.3312 200.63 82.1466 199.885 82.9618 198.309 83.7767 195.964 84.5917 196.619 85.4073 196.45 86.2232 194.208 87.0391 192.92 87.8551 191.172 88.6711 191.336 89.4872 189.58 90.3087 188.238 91.1375 187.73 91.9662 185.94 92.7978 185.621 93.6337 184.935 94.4695 184.953 96.9469 181.347 97.7622 181.326 98.577 183.48 99.392 182.519 100.207 181.976 101.021 184.065 101.836 182.614 102.646 181.516 103.457 181.781 104.269 180.407 105.08 180.24 105.893 179.545 106.705 179.402 108.33 181.356 109.968 178.218 110.799 177.892 111.62 179.912 112.433 180.041 113.246 178.046 114.059 179.198 114.872 179.024 115.683 177.423 117.31 177.521 118.123 175.894 118.937 173.118 119.751 172.849 120.564 173.496 121.377 172.975 122.19 175.247 123.003 172.35 123.821 170.425 124.638 170.495 125.456 169.333 126.274 167.706 127.092 167.205 127.911 166.437 128.73 167.87 129.549 168.098 131.184 164.686 131.997 162.619 132.809 163.383 133.62 162.335 134.432 163.194 135.245 161.327 136.058 160.985 136.871 159.696 137.683 160.103 138.516 158.797 139.38 157.667 140.244 156.901 141.106 156.674 141.966 156.109 142.824 155.708 143.677 156.229 144.526 154.793 145.373 152.68 146.215 151.33 147.055 152.14 147.892 152.507 148.742 154.086 149.592 153.402 151.291 152.452 152.141 151.658 152.99 152.369 153.816 151.97 155.456 148.676 156.275 151.706 157.915 152.769 158.747 154.119 159.581 151.216 161.25 150.285 162.085 149.431 162.92 150.786 163.755 149.667 164.589 151.458 166.259 152.694 167.088 151.009 167.906 151.563 168.725 150.97 169.545 151.246 170.364 150.84 171.184 149.651 172.003 149.411 172.822 147.654 173.641 146.862 174.46 147.54 175.28 146.794 177.734 142.776 178.552 143.12 180.187 142.804 181.823 141.561 182.64 140.955 183.458 140.14 184.275 138.445 185.093 136.115 185.911 137.384 186.733 137.3 189.198 135.887 190.015 136.728 190.833 136.145 192.468 135.831 193.286 136.504 194.104 136.117 194.922 138.428 196.557 136.171 197.375 138.994 198.192 138.459 199.01 139.286 199.827 139.058 200.645 138.327 201.462 137.977 202.283 138.36 203.105 137.351 203.922 136.788 204.738 136.501 205.555 137.081 206.372 136.072 207.188 134.634 208.005 135.677 208.821 135.46 209.638 135.512 210.456 134.714 211.291 133.379 212.952 132.422 213.774 133.786 215.417 131.722 216.243 131.809 217.08 131.095 217.917 131.751 218.753 130.841 219.589 131.756 220.426 132.432 221.256 132.311 222.076 130.915 222.895 131.539 223.715 130.064 224.543 130.394 225.38 129.048 226.217 130.078 227.054 130.72 227.891 130.06 228.728 130.339 229.565 130.96 230.402 130.807 231.239 129.075 232.076 128.869 232.913 126.762 233.75 127.111 234.586 127.797 235.422 128.279 236.259 128.916 237.095 131.498 238.744 131.549 239.568 130.947 240.393 131.215 241.218 130.044 242.044 129.68 242.87 130.216 243.696 129.544 245.349 129.296 246.176 128.199 247.003 127.809 247.83 128.227 248.657 128.512 249.485 128.288 250.312 127.214 251.14 126.583 251.964 124.753 252.791 124.284 253.611 123.118 254.434 123.25 255.263 124.615 256.089 126.238 256.911 125.924 258.553 124.418 259.375 123.394 260.196 124.111 261.018 122.39 261.839 122.626 262.661 123.843 264.305 125.756 265.126 125.839 265.948 125.073 266.77 126.42 267.592 124.54 268.418 126.082 269.239 125.942 270.061 125.928 270.882 126.464 271.704 125.751 272.523 127.355 274.156 124.253 274.974 125.472 275.791 124.947 276.609 125.44 277.427 124.556 278.246 124.357 279.066 126.054 280.704 124.238 281.524 123.328 283.162 123.011 283.982 123.536 284.801 124.598 285.621 123.926 286.441 124.374 287.261 123.497 288.081 122.983 288.901 123.762 289.721 125.804 290.54 126.037 291.359 126.07 292.178 126.925 292.997 128.423 293.817 127.434 294.636 125.095 295.456 123.281 296.292 123.065 297.133 123.276 297.979 124.786 298.839 124.583 299.699 125.406 302.163 122.887 302.983 121.712 303.803 122.246 304.627 123.307 305.483 122.764 306.338 121.227 307.193 121.053 308.033 121.56 308.856 123.552 309.694 122.374 310.512 124.049 311.33 126.316 312.147 126.278 312.964 125.641 313.781 123.892 314.619 123.504 315.461 123.597 316.304 123.376 317.15 121.011 317.976 121.077 318.793 121.702 319.61 123.648 320.427 123.666 321.244 122.39 322.064 122.283 322.902 123.522 324.574 121.505 325.417 119.992 326.26 119.45 327.102 119.09 327.944 119.212 328.79 119.076 329.632 119.158 332.176 117.452 333.024 115.586 333.863 115.623 334.703 118.293 335.544 118.44 336.384 117.647 337.224 115.995 338.064 115.824 338.903 117.961 339.743 115.732 340.582 114.656 341.422 116.71 342.272 115.989 343.128 118.538 343.98 117.48 344.832 118.175 346.494 119.867 347.318 119.402 348.143 118.267 348.967 118.235 349.791 116.818 350.615 117.036 351.439 115.856 352.263 117.217 353.086 116.659 353.91 117.429 354.734 119.454 355.558 118.552 356.382 116.741 357.206 115.998 358.032 115.456 358.857 115.236 359.683 115.896 360.508 116.747 361.333 117.784 362.158 117.998 362.983 116.848 363.809 116.283 364.636 115.863 365.446 114.629 366.255 114.225 367.063 115.522 367.872 116.198 368.686 115.519 369.499 115.414 370.31 116.454 371.128 115.287 371.963 117.997 372.797 117.295 373.625 116.962 374.453 117.467 375.28 117.423 376.108 119.47 376.936 117.374 377.764 116.185 378.591 116.161 379.419 118.059 380.247 121.262 381.076 118.971 381.904 118.476 382.733 120.856 383.561 119.015 384.39 118.799 385.216 119.836 386.031 118.718 386.847 118.829 387.664 117.168 388.482 118.021 389.3 117.208 390.119 116.61 390.939 116.843 391.76 115.42 392.581 116.995 393.402 115.004 394.224 115.235 395.045 115.867 395.864 114.609 396.684 116.228 397.504 116.319 398.324 115.62 399.143 114.432 399.961 115.479 400.781 114.504 401.602 114.557 402.423 116.317 403.244 116.32 404.065 114.793 405.708 115.655 406.53 114.76 407.354 113.616 408.178 115.385 408.995 115.274 409.802 114.542 410.614 113.107 411.435 113.025 412.255 113.547 413.083 112.773 413.909 112.818 414.734 113 416.389 112.893 417.215 111.457 418.043 111.738 418.877 112.483 420.542 114.68 421.371 112.343 422.196 111.513 423.046 111.84 423.9 112.976 424.732 110.867 425.565 109.682 426.397 108.841 427.229 112.197 428.055 109.19 428.878 110.707 429.697 109.667 430.517 110.144 431.337 111.099 432.159 111.105 432.981 111.738 434.621 110.779 435.444 109.332 436.266 108.938 437.087 108.307 437.905 109.773 438.732 109.665 439.561 109.403 440.375 110.341 441.19 113.807 442.004 115.663 442.819 114.155 443.64 111.899 445.281 108.672 446.101 108.767 446.923 108.109 447.744 109.406 448.565 108.117 449.385 109.554 450.207 107.966 451.029 107.11 452.671 110.787 453.487 110.693 454.31 112.068 455.132 111.216 455.947 109.626 456.77 110.548 457.592 110.434 458.408 109.565 459.236 110.247 460.064 109.755 460.89 110.555 461.705 112.56 462.525 111.598 463.352 112.231 464.169 111.149 465.816 110.866 466.629 111.225 467.44 110.224 468.252 109.603 469.066 110.428 469.879 110.561 470.692 111.887 471.504 110.978 472.319 110.903 473.132 111.009 473.945 113.126 474.758 113.352 475.571 113.192 476.384 114.227 477.197 114.777 478.01 112.405 480.479 112.498 481.306 112.773 482.132 112.41 482.958 112.484 483.785 110.054 484.611 112.581 485.437 113.359 485.437 113.359" stroke="#D62728" stroke-width="2" stroke-dasharray="2 0" fill="none" clip-path="url(#paca6f00b17)"/></g><g id="line2d_92"><path d="M67.5 309.985 68.3136 254.233 69.1275 230.268 69.9419 218.948 70.7566 212.745 71.5721 210.591 72.3931 208.76 74.0702 205.394 74.9086 206.452 75.7466 205.56 77.4221 200.335 78.2561 199.101 79.0831 199.442 79.9225 197.995 80.7618 197.896 82.4321 196.333 83.2562 193.858 84.0802 193.69 84.9035 190.735 85.7293 190.491 86.5705 191.167 87.4166 191.031 88.2636 187.928 89.1124 186.953 89.9606 184.698 91.6267 186.407 92.4571 186.615 94.1179 184.263 94.9477 182.302 95.7931 181.485 97.4817 178.655 98.321 180.961 99.1695 178.797 100.018 178.862 100.865 179.087 101.713 176.331 102.561 178.745 103.408 178.555 104.256 179.417 105.112 175.105 105.968 175.092 106.809 176.739 107.661 177.17 108.511 176.8 109.332 175.572 110.153 175.389 110.993 174.552 111.832 174.299 112.661 173.86 113.494 172.181 114.328 172.598 115.159 170.744 115.991 172.019 116.823 170.55 117.655 170.166 118.487 169.954 119.32 168.51 120.158 165.633 121.004 164.976 121.859 163.289 122.694 162.58 123.527 162.645 124.362 162.089 125.199 162.802 126.036 162.126 126.878 162.215 127.72 161.218 128.563 158.952 129.404 157.978 130.247 160.218 131.091 160.838 131.937 160.155 132.785 159.914 133.632 158.831 134.486 159.002 135.339 158.137 136.154 159.437 136.967 159.206 137.794 159.739 138.608 160.864 139.422 161.607 140.23 158.664 141.86 156.376 142.677 156.095 143.494 155.96 144.312 156.513 145.123 154.904 145.936 156.732 146.749 154.314 147.565 155.984 148.383 156.157 149.189 155.716 149.992 155.782 150.794 157.581 151.596 156.878 152.396 159.256 153.196 159.897 153.996 156.487 155.604 157.099 156.432 155.917 157.26 156.672 158.103 155.718 158.939 155.893 159.766 154.671 160.577 154.405 161.395 154.478 162.212 153.836 163.026 153.424 163.831 154.436 164.639 152.773 165.44 154.065 166.241 153.463 167.042 152.684 167.843 150.584 168.644 151.351 169.444 151.099 170.245 151.268 171.046 152.062 171.847 150.263 172.648 150.001 173.448 152.18 175.047 150.965 175.847 151.841 177.447 151.701 178.248 150.001 179.848 151.04 180.636 149.833 181.416 150.823 182.196 149.702 182.977 149.899 183.758 149.731 184.54 148.75 185.322 148.463 186.104 147.376 186.909 149.576 187.708 148.597 188.495 150.472 189.277 150.718 190.058 151.191 190.839 149.949 191.62 149.142 192.399 147.713 193.178 147.516 193.957 149.248 194.736 148.788 195.529 148.908 196.308 147.776 197.086 146.861 197.865 147.584 199.419 148.126 201.154 148.304 202.023 148.1 202.896 148.772 203.769 148.637 204.643 148.7 205.516 151.475 206.374 149.993 207.231 148.885 208.084 149.647 208.932 147.073 209.783 145.498 210.639 145.832 211.484 146.607 212.328 146.667 213.173 146.116 214.018 145.978 214.863 146.502 215.708 146.852 217.395 144.113 218.235 142.586 219.075 143.735 219.915 143.916 221.61 142.673 222.463 141.867 223.316 142.434 224.169 142.396 225.021 143.28 225.873 142.646 226.73 143.243 227.57 142.102 228.407 142.447 229.245 143.966 230.082 144.332 230.918 143.321 231.754 144.409 232.589 142.892 234.259 140.681 235.092 141.133 235.924 141.859 236.756 140.691 237.587 141.134 238.42 141.123 239.253 142.834 240.084 142.253 240.916 141.305 241.748 141.803 242.582 141.223 244.251 144.061 245.086 143.269 245.922 143.121 246.758 144.178 247.594 144.062 248.43 145.478 249.266 143.927 250.101 144.199 250.937 144.016 251.773 144.83 252.61 143.017 253.446 142.271 254.282 143.754 255.119 143.958 255.956 143.731 256.794 142.803 257.631 143.022 258.469 143.909 259.306 142.179 260.142 142.928 260.979 144.519 261.815 143.627 262.647 144.516 263.472 143.459 264.297 145.655 265.133 146.479 265.97 146.189 267.65 144.891 269.335 144.296 270.177 145.147 271.026 145.026 271.871 144.494 272.72 143.311 274.416 144.614 275.265 145.931 276.114 144.235 277.817 143.369 278.67 142.152 279.523 141.644 280.375 141.627 281.226 142.665 282.922 143.744 283.743 146.322 284.564 144.704 285.387 145.223 286.209 144.426 287.032 143.972 287.857 144.522 288.684 143.23 289.511 142.924 290.34 141.965 291.17 144.218 292.002 144.364 292.835 144.11 293.67 144.584 294.502 144.098 296.157 144.628 296.975 144.507 297.794 144.17 298.614 144.506 300.259 146.474 301.112 147.882 301.961 147.038 302.822 145.145 303.665 145.027 304.506 146.044 305.348 144.105 306.189 144.026 307.03 146.737 307.87 146.359 308.708 145.363 309.546 147.046 310.382 144.468 311.216 143.075 312.048 142.665 312.878 144.069 314.543 142.68 315.384 142.859 316.225 142.065 317.067 140.989 317.908 142.693 318.75 142.64 319.59 144.119 320.42 142.932 321.25 143.476 322.08 143.528 322.912 143.269 323.749 143.314 324.584 143.829 325.413 143.765 326.24 144.435 327.075 144.416 327.912 143.813 328.742 144.522 329.572 147.456 330.399 146.04 332.051 145.337 332.883 147.034 334.547 146.67 335.374 147.232 336.2 147.154 337.027 144.835 337.856 146.495 338.683 149.252 339.51 146.85 340.336 146.867 342.005 146.155 342.842 148.709 343.681 148.53 344.544 148.08 345.412 149.556 346.28 147.98 347.147 148.738 347.981 147.544 348.81 147.258 349.64 148.496 350.465 149.932 351.291 150.202 352.119 148.151 352.948 148.921 353.813 150.138 354.678 148.36 355.543 149.977 356.41 149.824 357.263 148.166 358.089 148.107 358.899 149.107 359.739 148.757 360.56 149.02 361.372 149.418 362.219 150.024 363.065 150.271 363.908 150.909 364.735 148.794 365.58 148.462 366.425 150.193 367.264 148.256 368.079 147.112 368.892 148.849 369.701 150.877 370.511 150.18 371.32 150.597 372.129 149.945 372.937 150.007 373.746 150.294 374.554 149.554 375.377 149.36 376.215 150.206 377.052 150.31 377.859 150.62 378.669 150.108 379.494 150.353 380.319 150.864 381.145 148.802 381.971 149.12 382.805 146.595 383.652 147.167 384.5 148.16 385.357 146.657 386.213 147.689 387.067 148.25 387.922 148.556 388.757 148.45 389.605 147.679 391.307 150.131 392.149 151.145 392.986 150.239 394.653 150.764 395.486 152.075 396.319 152.206 397.992 151.579 398.83 153.852 399.67 154.102 400.517 152.366 401.365 150.896 402.214 150.093 403.066 150.482 403.913 150.473 404.779 149.843 405.656 149.619 406.53 149.26 407.394 147.925 408.237 146.285 409.079 147.495 409.921 148.138 410.765 147.562 411.608 148.535 412.457 150.134 413.317 152.877 414.183 151.674 415.061 149.946 415.917 149.916 416.761 150.533 417.604 150.945 418.448 150.625 419.291 151.735 420.135 150.507 420.978 149.613 421.822 151.459 422.664 150.015 423.506 153.182 424.349 153.834 425.191 152.375 427.722 152.477 428.568 149.388 429.415 150.297 430.266 150.879 431.116 151.128 431.922 150.035 432.715 149.819 433.504 148.916 434.316 149.765 435.154 149.197 435.944 151.223 436.734 152.015 437.524 150.921 438.313 150.826 439.135 149.377 440.006 149.47 440.854 148.989 442.515 152.02 443.347 150.411 444.16 151.003 444.974 153.578 445.788 151.7 446.603 151.127 447.418 149.26 448.233 149.682 449.049 149.013 449.865 150.796 450.682 151.085 451.499 149.952 452.317 149.551 453.135 150.298 453.952 149.066 454.77 149.652 455.594 148.709 456.435 150.284 457.25 148.901 458.085 150.694 458.919 151.406 459.742 151.546 460.583 150.23 462.242 150.194 463.071 152.782 463.898 152.568 464.732 150.88 465.578 153.223 466.424 151.631 467.265 153.416 468.101 152.686 469.773 152.502 470.619 150.838 472.315 148.383 473.163 149.875 474.011 150.678 474.859 150.361 475.708 150.8 476.541 151.614 477.376 149.956 478.203 151.598 479.03 150.763 479.858 152.554 480.686 151.685 481.513 151.708 482.341 151.464 483.166 149.916 483.979 151.579 484.789 150.24 485.599 149.633 485.599 149.633" stroke="#1F77B4" stroke-width="2" stroke-dasharray="6 4" fill="none" clip-path="url(#paca6f00b17)"/></g><g id="line2d_93"><defs><path d="M-3 -0 3 3 3-3Z" id="m66f61a4a8c" stroke="#D62728" stroke-linejoin="miter"/></defs><path d="M67.5407 310.068 68.3542 275.217 69.1676 253.322 69.9807 239.98 71.6077 222.666 72.421 215.395 73.2341 213.635 74.045 210.412 75.6406 206.274 76.4686 204.533 77.3054 200.923 78.1418 199.339 80.625 195.802 81.4526 195.435 82.2799 192.999 83.1076 192.141 83.9355 192.083 84.7638 190.073 85.5924 190.012 86.421 187.717 87.2489 188.343 88.0769 185.341 88.9052 186.135 89.7339 185.125 90.5695 185.079 91.4042 183.769 92.238 184.184 93.0719 182.48 93.9057 182.979 94.7383 182.403 95.572 184.588 97.248 180.885 98.0814 180.663 99.752 179.337 100.576 176.558 101.397 173.386 102.218 172.23 103.861 169.014 104.682 168.244 105.506 168.49 106.336 168.296 107.166 167.822 107.997 168.493 108.827 168.594 109.651 167.272 110.47 166.485 111.286 168.138 112.103 166.387 112.921 166.166 113.738 164.738 115.375 162.932 116.219 161.664 117.066 160.943 117.912 160.451 118.758 160.173 119.605 157.288 120.451 158.673 121.299 158.159 122.144 160.616 122.985 160.821 123.833 159.866 124.681 159.387 125.529 157.597 126.377 157.313 127.225 157.211 128.074 154.321 128.907 155.391 129.728 154.874 130.523 152.861 131.318 154.613 132.113 154.039 132.907 156.547 133.697 156.112 134.482 154.937 135.266 152.39 136.052 153.739 136.837 151.561 138.408 150.78 139.194 149.881 139.98 150.422 140.766 150.386 141.553 149.774 142.339 149.548 143.126 148.029 143.912 147.727 144.697 146.366 145.483 145.786 146.268 142.867 147.056 144.308 147.844 144.131 148.633 141.357 149.422 141.945 150.211 141.099 151 139.173 151.788 137.681 152.575 138.265 153.355 137.474 154.135 137.126 154.915 136.013 155.695 136.032 156.474 135.153 157.253 134.751 158.031 133.596 158.809 134.105 159.587 135.079 160.374 134.694 161.161 135.372 161.948 136.876 162.734 137.294 163.518 137.001 164.301 135.044 165.078 134.42 165.831 132.902 166.583 132.949 167.354 133.481 168.143 132.764 168.936 132.881 169.729 133.223 170.522 131.276 171.31 131.474 172.091 131.071 172.873 131.534 173.653 130.534 174.432 133.059 175.21 131.114 175.988 132.638 176.766 129.915 177.542 132.385 178.317 131.279 179.867 129.765 180.656 131.009 181.441 129.358 182.195 128.335 182.926 128.907 183.69 129.063 184.462 128.458 185.234 127.383 186.006 126.503 186.778 125.969 187.55 126.021 188.321 125.497 189.863 125.701 190.634 124.741 191.41 124.175 192.195 124.978 192.98 125.498 194.55 125.518 195.336 122.906 196.121 123.054 196.907 122.187 197.693 122.288 198.478 123.813 199.264 124.423 200.05 123.37 200.836 125.2 201.621 125.601 202.407 125.723 203.977 123.779 204.762 125.293 205.546 126.529 206.331 124.652 207.116 123.315 207.9 123.683 208.685 125.351 209.47 125.303 210.255 123.404 211.04 125.033 211.825 123.848 212.609 121.249 214.178 118.655 214.99 119.542 215.825 121.459 216.661 119.995 217.475 119.973 218.259 120.98 219.043 120.89 219.827 120.957 220.611 120.525 221.403 121.189 222.212 120.489 223.028 120.474 223.846 119.743 224.665 120.671 225.485 120.422 226.306 119.271 227.126 117.739 227.946 118.605 228.766 118.053 229.586 118.289 230.406 116.98 231.225 116.154 232.045 115.689 232.865 116.207 233.683 118.076 234.501 118.536 235.321 117.718 236.14 116.349 236.959 115.839 237.778 116.759 238.597 116.987 239.419 117.783 240.242 117.469 241.065 117.463 241.888 115.605 242.711 114.921 243.534 115.601 244.357 115.832 245.18 115.916 246.004 115.047 246.827 115.479 247.648 113.885 248.457 116.385 249.265 117.099 250.073 117.268 250.884 116.22 251.706 116.019 252.529 116.847 254.174 115.168 254.997 116.393 255.809 116.215 256.616 117.059 257.423 116.675 258.23 115.963 259.037 116.139 260.651 113.059 261.458 111.83 262.265 111.485 263.072 111.925 263.879 113.791 264.687 114.315 265.496 113.702 266.304 113.568 267.112 114.15 267.92 114.165 268.729 113.369 269.537 114.878 270.346 113.59 271.155 112.716 271.964 111.002 272.773 112.225 274.39 111.799 275.198 112.368 276.006 112.536 276.814 112.16 277.621 111.957 278.428 113.064 279.235 112.965 280.042 112.635 280.848 112.536 281.652 113.741 282.455 112.51 283.258 111.517 284.061 111.226 284.864 110.098 285.666 111.966 286.469 114.733 287.272 113.459 288.877 115.176 289.679 115.175 290.481 113.935 291.323 113.257 292.169 111.96 293.01 111.435 293.821 112.195 294.625 113.241 295.427 112.584 297.032 114.855 297.834 114.443 298.636 115.487 299.438 116.091 300.24 116.183 301.041 117.73 301.844 117.1 302.646 117.341 303.449 113.314 304.254 113.769 305.075 113.948 305.897 114.664 306.719 114.575 307.541 113.189 308.354 114.539 310.01 113.015 310.839 112.9 311.667 111.75 312.496 112.219 313.325 111.897 314.154 113.209 314.983 112.458 315.813 111.034 317.471 110.325 318.3 110.504 319.128 110.819 319.957 110.904 320.788 111.689 321.616 111.155 322.444 111.165 323.279 110.378 324.113 109.871 324.946 111.931 325.779 111.337 326.614 109.394 327.45 110.443 328.286 110.503 329.122 108.259 329.958 108.622 330.794 109.692 331.629 108.969 332.464 109.014 333.295 108.242 334.107 108.59 334.942 109.783 335.778 110.348 336.614 109.831 337.449 110.752 338.284 110.795 339.12 109.941 339.956 108.728 340.792 107.995 341.629 107.602 342.465 110.034 343.302 108.326 344.138 107.908 344.975 109.996 345.81 109.423 346.644 108.622 347.475 108.568 348.284 109.162 349.092 111.977 349.901 112.546 350.712 110.99 351.544 110.058 352.377 108.313 353.21 108.043 354.043 108.447 354.875 106.86 355.706 105.95 356.53 106.341 357.33 108.096 358.126 108.239 358.921 109.548 359.716 111.219 360.51 110.491 361.304 109.265 362.098 109.346 363.685 110.049 364.478 111.572 365.271 110.498 366.065 108.952 366.86 108.998 367.656 108.577 369.259 108.243 370.076 109.887 370.893 111.179 371.709 110.614 372.525 111.344 373.342 110.506 374.159 110.846 374.975 111.902 375.792 109.671 376.608 110.675 377.424 109.188 378.24 109.419 379.052 111.232 379.862 111.463 380.673 113.418 381.484 111.905 382.294 110.769 383.105 108.804 383.915 109.124 384.726 108.369 385.542 110.406 387.17 109.603 387.982 110.999 388.793 109.609 389.604 109.315 390.414 109.905 391.225 109.49 392.036 110.842 392.846 109.352 393.657 108.099 394.469 108.288 395.282 106.756 396.093 106.645 396.902 104.977 397.711 104.7 398.521 103.937 399.331 104.797 400.141 104.054 400.953 104.753 401.765 104.155 402.578 103.925 403.392 106.301 404.206 105.5 405.835 105.495 406.65 105.764 407.466 103.796 408.281 105.001 409.095 104.765 409.909 104.945 410.722 106.523 411.536 105.798 412.349 104.593 413.165 103.784 413.998 105.397 414.838 103.801 415.682 106.665 416.525 106.851 417.365 103.428 418.204 104.105 419.043 106.595 419.872 105.486 420.711 104.779 421.549 106.098 422.387 105.796 423.225 104.724 424.063 105.5 424.901 106.025 425.739 104.632 426.577 104.441 427.416 104.449 428.249 105.04 429.071 105.834 429.891 107.587 430.71 106.517 431.541 105.66 432.372 105.534 433.204 105.021 434.035 106.575 434.867 107.325 436.532 106.576 437.364 105.048 438.197 104.209 439.02 104.203 440.684 106.601 441.511 107.133 442.321 106.035 443.131 105.155 443.942 105.625 444.753 105.13 445.57 106.884 446.388 106.708 447.207 106.278 448.026 106.872 448.844 106.578 449.662 108.223 450.479 109.069 451.296 107.563 452.112 106.9 452.928 104.766 453.743 104.898 454.559 104.849 455.374 105.432 456.189 105.508 457.004 107.643 457.802 108.699 458.592 108.587 459.383 108.678 460.173 107.994 460.964 106.635 461.756 106.303 462.561 107.058 463.391 106.966 464.22 105.2 465.05 106.8 465.87 108.976 467.534 106.003 468.365 105.948 469.197 106.537 470.025 105.813 470.855 107.992 471.682 106.219 472.512 106.91 474.173 107.461 474.998 106.891 475.811 108.422 476.633 106.281 477.46 106.977 478.272 105.422 479.084 106.047 479.908 108.563 480.723 109.416 481.534 107.949 482.352 110.761 483.186 108.842 484.019 108.284 484.85 108.624 485.682 108.588 485.682 108.588" stroke="#D62728" stroke-width="0.6" stroke-linecap="square" fill="none" clip-path="url(#paca6f00b17)"/><g clip-path="url(#paca6f00b17)"><use x="67.5407" y="310.068" width="100%" height="100%" xlink:href="#m66f61a4a8c" stroke="#D62728" stroke-linejoin="miter" fill-opacity="0"></use><use x="69.1676" y="253.322" width="100%" height="100%" xlink:href="#m66f61a4a8c" stroke="#D62728" stroke-linejoin="miter" fill-opacity="0"></use><use x="72.421" y="215.395" width="100%" height="100%" xlink:href="#m66f61a4a8c" stroke="#D62728" stroke-linejoin="miter" fill-opacity="0"></use><use x="95.572" y="184.588" width="100%" height="100%" xlink:href="#m66f61a4a8c" stroke="#D62728" stroke-linejoin="miter" fill-opacity="0"></use><use x="122.144" y="160.616" width="100%" height="100%" xlink:href="#m66f61a4a8c" stroke="#D62728" stroke-linejoin="miter" fill-opacity="0"></use><use x="147.844" y="144.131" width="100%" height="100%" xlink:href="#m66f61a4a8c" stroke="#D62728" stroke-linejoin="miter" fill-opacity="0"></use><use x="176.766" y="129.915" width="100%" height="100%" xlink:href="#m66f61a4a8c" stroke="#D62728" stroke-linejoin="miter" fill-opacity="0"></use><use x="206.331" y="124.652" width="100%" height="100%" xlink:href="#m66f61a4a8c" stroke="#D62728" stroke-linejoin="miter" fill-opacity="0"></use><use x="236.14" y="116.349" width="100%" height="100%" xlink:href="#m66f61a4a8c" stroke="#D62728" stroke-linejoin="miter" fill-opacity="0"></use><use x="268.729" y="113.369" width="100%" height="100%" xlink:href="#m66f61a4a8c" stroke="#D62728" stroke-linejoin="miter" fill-opacity="0"></use><use x="300.24" y="116.183" width="100%" height="100%" xlink:href="#m66f61a4a8c" stroke="#D62728" stroke-linejoin="miter" fill-opacity="0"></use><use x="330.794" y="109.692" width="100%" height="100%" xlink:href="#m66f61a4a8c" stroke="#D62728" stroke-linejoin="miter" fill-opacity="0"></use><use x="360.51" y="110.491" width="100%" height="100%" xlink:href="#m66f61a4a8c" stroke="#D62728" stroke-linejoin="miter" fill-opacity="0"></use><use x="390.414" y="109.905" width="100%" height="100%" xlink:href="#m66f61a4a8c" stroke="#D62728" stroke-linejoin="miter" fill-opacity="0"></use><use x="418.204" y="104.105" width="100%" height="100%" xlink:href="#m66f61a4a8c" stroke="#D62728" stroke-linejoin="miter" fill-opacity="0"></use><use x="450.479" y="109.069" width="100%" height="100%" xlink:href="#m66f61a4a8c" stroke="#D62728" stroke-linejoin="miter" fill-opacity="0"></use><use x="479.084" y="106.047" width="100%" height="100%" xlink:href="#m66f61a4a8c" stroke="#D62728" stroke-linejoin="miter" fill-opacity="0"></use></g></g><g id="line2d_94"><defs><path d="M3 0-3-3-3 3Z" id="m4671cb8977" stroke="#1F77B4" stroke-linejoin="miter"/></defs><path d="M67.5407 310.016 68.3542 257.477 69.1688 236.329 69.9907 227.08 70.8275 223.907 71.6646 224.007 72.5019 220.511 73.3392 212.314 74.177 216.068 75.0143 212.498 75.8513 211.023 76.6889 209.027 77.5263 206.055 78.3635 202.437 79.2001 200.349 80.038 198.991 80.8679 201.21 81.6697 200.44 82.4722 196.629 83.2755 196.709 84.0791 195.803 84.8823 195.526 85.7229 190.809 86.5595 190.141 87.3637 191.58 88.1692 187.82 88.9749 187.57 89.7812 188.5 90.5883 187.155 91.3954 182.637 92.2056 188.166 93.0134 185.179 93.8199 185.335 94.6555 182.117 95.4955 181.217 96.3182 182.447 97.1384 181.272 97.9588 177.536 98.7793 178.725 100.444 178.518 101.268 175.522 102.104 175.012 102.94 171.631 103.777 173.824 104.614 171.331 105.45 169.777 106.281 169.052 107.114 167.293 107.949 166.971 108.787 166.959 109.625 165.042 110.462 163.438 111.299 166.081 112.106 164.359 112.943 164.002 113.78 164.869 114.583 164.036 115.398 160.118 116.241 161.056 117.082 160.829 117.922 158.945 118.762 159.177 119.603 159.953 120.444 162.389 121.285 161.038 122.126 158.682 122.961 157.552 123.799 157.071 124.633 158.169 125.435 158.049 126.251 156.854 127.091 156.783 127.931 153.745 128.772 155.281 129.611 153.882 130.427 155.364 131.244 155.319 132.062 153.209 132.878 152.951 133.695 153.792 134.512 152.583 135.328 153.321 136.145 155.563 136.964 154.3 137.805 154.541 138.65 154.149 139.494 153.259 140.318 153.754 141.142 151.864 141.96 153.352 143.587 152.222 144.401 152.466 145.214 151.711 146.027 152.175 146.84 152.18 147.652 154.326 148.464 150.324 149.274 150.785 150.086 151.46 150.896 151.506 151.7 149.942 152.503 149.743 153.307 153.105 154.11 151.548 154.913 150.83 155.704 151.769 156.498 150.943 157.291 151.494 158.08 149.429 158.863 151.16 159.645 150.481 160.427 148.982 161.208 148.991 161.989 148.662 162.769 150.039 163.549 149.281 164.33 149.954 165.11 149.956 165.891 147.918 166.675 146.837 167.511 147.794 168.348 146.788 169.179 147.449 170.006 144.47 171.659 147.716 172.485 145.331 173.311 144.874 174.137 144.105 175.803 147.52 176.612 147.444 177.435 148.76 178.221 148.368 179.024 146.871 179.869 146.151 180.694 147.99 181.532 148.363 182.361 149.481 183.183 147.241 183.997 146.806 184.812 147.716 185.627 147.086 186.422 146.859 187.218 146.32 188.013 146.473 188.808 148.157 189.602 148.634 190.395 147.607 191.2 145.266 192.013 145.68 192.819 145.715 193.625 146.53 194.443 147.007 195.26 148.06 196.089 150.087 196.917 148.92 197.746 148.154 198.572 148.514 199.395 148.508 200.219 147.488 201.042 147.602 201.86 146.814 202.672 145.297 203.484 146.38 204.298 143.756 205.112 144.106 205.927 142.398 206.742 145.037 207.559 145.135 208.376 143.347 209.188 146.963 209.99 141.629 210.793 144.777 211.597 145.05 212.401 144.889 214.01 142.948 214.816 145.908 215.606 146.23 216.395 149.277 217.186 147.151 217.976 148.491 218.766 146.535 219.566 143.292 220.371 144.378 221.175 147.343 221.98 142.242 222.769 145.6 223.558 143.919 224.348 141.807 225.137 142.722 225.929 143.829 226.721 145.962 227.512 145.166 228.302 141.755 229.115 144.3 229.909 145.36 230.71 143.439 231.512 144.777 232.3 144.284 233.087 147.037 234.659 144.328 235.445 144.37 236.22 145.131 237.002 144.871 237.786 146.847 238.57 142.908 239.355 141.717 240.138 139.143 240.896 143.457 241.665 141.944 242.423 144.303 243.181 143.463 243.939 144.34 244.697 147.387 245.471 147.715 246.249 145.111 247.014 144.428 247.771 141.936 248.529 145.812 249.286 145.727 250.044 145.529 250.802 146.42 251.576 146.003 252.332 145.234 253.111 146.59 253.912 141.712 254.702 144.851 255.464 144.076 256.233 144.198 257.016 139.188 257.772 140.832 258.528 146.812 259.285 144.437 260.041 146.97 260.822 146.868 261.6 147.103 262.414 147.753 263.218 147.398 264.02 144.4 264.82 145.998 265.576 144.625 266.333 146.729 267.09 145.481 267.847 145.716 269.362 142.603 270.119 144.043 270.876 144.306 271.634 143.849 273.149 142.165 273.907 142.536 274.666 143.475 275.425 143.095 276.214 144.766 277.019 143.722 277.778 145.234 278.578 147.699 279.373 149.541 280.934 146.849 281.696 146.715 282.491 144.604 283.252 146.254 284.013 145.527 284.775 150.737 285.537 145.898 286.3 148.501 287.063 146.403 287.826 145.766 288.59 146.616 290.14 149.492 290.917 149.239 291.687 147.049 292.457 147.714 294.015 148.385 294.814 148.317 295.614 149.837 296.415 148.054 297.218 149.849 298.021 148.299 298.848 149.279 299.679 148.718 301.306 148.254 302.11 150.325 302.914 149.421 303.719 149.255 304.523 150.998 305.325 151.305 306.129 151.246 306.917 148.08 307.71 151.513 308.497 147.666 309.32 150.638 310.128 149.846 310.952 151.48 311.776 151.266 312.6 150.921 313.424 147.239 314.25 147.249 315.078 148.195 315.909 142.1 316.734 146.702 317.541 148.121 318.341 149.295 319.142 148.476 319.943 146.6 320.742 147.258 321.55 149.281 322.344 148.068 323.139 144.969 323.934 146.903 324.73 145.897 325.525 146.599 326.322 143.84 327.133 144.589 327.936 143.132 328.744 145.952 329.544 146.068 330.316 148.141 331.087 145.931 331.867 146.701 332.654 148.132 333.421 147.059 334.189 146.709 334.962 147.619 335.734 147.565 336.51 147.781 337.282 147.437 338.051 148.634 338.82 146.557 339.598 144.866 340.408 145.249 341.219 144.22 342.004 147.278 342.78 148.244 343.555 148.023 344.331 147.551 345.112 145.695 345.909 146.132 347.529 144.231 348.339 149.331 349.124 147.387 349.934 147.103 350.751 148.707 351.572 147.676 352.375 148.989 353.173 148.325 353.961 148.851 354.758 148.46 356.357 146.733 357.158 149.387 357.958 143.316 358.76 144.431 359.561 146.64 360.363 147.046 361.165 144.488 361.967 147.685 362.769 148.231 363.571 147.524 364.374 148.85 365.177 147.383 365.979 146.184 366.781 146.214 367.582 148.03 368.386 148.598 369.987 147.195 370.792 149.56 371.615 146.585 372.448 148.65 373.259 147.467 374.084 148.603 374.908 148.917 375.733 148.903 377.399 147.08 378.208 151.427 379.025 149.099 379.849 148.02 380.684 147.785 381.508 148.106 382.331 148.151 383.155 150.466 383.974 146.722 384.778 149.874 385.588 150.04 386.404 152.354 387.227 151.666 388.002 149.651 388.785 152.885 389.56 151.849 390.336 152.252 391.13 149.538 391.96 147.624 392.791 146.72 393.624 148.434 394.448 149.714 395.258 150.111 396.06 150.185 396.863 146.691 397.666 150.593 398.471 147.454 399.273 149.581 400.081 148.321 400.907 149.721 401.733 148.61 402.523 149.724 403.297 148.514 404.071 150.128 404.859 149.884 405.654 149.069 406.458 151.173 407.253 151.143 408.047 150.604 408.842 150.505 409.662 148.947 410.462 149.211 411.256 149.655 412.879 149.085 413.689 147.224 414.495 148.25 415.304 149.926 416.084 148.154 416.892 149.65 417.711 148.386 418.534 145.359 419.358 146.097 420.182 147.537 421.006 148.68 421.812 146.228 422.603 149.284 423.394 148.169 424.191 147.947 425.014 150.84 425.835 149.199 426.656 149.489 427.477 148.512 428.298 148.362 429.12 150.714 429.941 147.386 430.762 148.78 431.583 148.2 432.405 147.139 433.233 147.401 434.054 146.155 434.877 148.23 435.701 148.369 436.474 151.121 437.247 151.072 438.02 150.15 438.793 149.895 439.565 150.933 440.355 149.725 441.176 145.501 441.969 149.865 443.517 146.737 444.293 148.48 445.101 148.753 445.909 149.538 446.689 148.79 447.462 150.962 448.236 149.959 449.782 149.588 450.561 151.404 451.398 148.218 452.224 149.068 452.998 148.472 453.77 148.241 454.542 149.402 455.314 145.232 456.087 149.967 456.859 148.831 457.633 144.734 458.406 146.937 459.179 150.551 459.951 148.582 460.727 149.969 461.5 148.508 462.272 150.311 463.044 148.204 463.816 150.361 464.589 151.206 465.382 153.835 466.181 151.599 466.987 151.273 467.774 147.812 468.559 146.71 469.348 150.209 470.155 151.202 470.962 150.277 471.769 177.219 472.576 154.312 473.384 153.616 474.192 154.324 475 152.836 475.804 152.97 476.611 153.836 477.418 153.007 478.224 152.603 479.024 148.901 479.831 149.508 483.072 154.682 483.872 155.277 484.677 153.135 485.483 149.821 485.483 149.821" stroke="#1F77B4" stroke-width="0.2" stroke-linecap="square" fill="none" clip-path="url(#paca6f00b17)"/><g clip-path="url(#paca6f00b17)"><use x="67.5407" y="310.016" width="100%" height="100%" xlink:href="#m4671cb8977" stroke="#1F77B4" stroke-linejoin="miter" fill-opacity="0"></use><use x="68.3542" y="257.477" width="100%" height="100%" xlink:href="#m4671cb8977" stroke="#1F77B4" stroke-linejoin="miter" fill-opacity="0"></use><use x="73.3392" y="212.314" width="100%" height="100%" xlink:href="#m4671cb8977" stroke="#1F77B4" stroke-linejoin="miter" fill-opacity="0"></use><use x="88.1692" y="187.82" width="100%" height="100%" xlink:href="#m4671cb8977" stroke="#1F77B4" stroke-linejoin="miter" fill-opacity="0"></use><use x="106.281" y="169.052" width="100%" height="100%" xlink:href="#m4671cb8977" stroke="#1F77B4" stroke-linejoin="miter" fill-opacity="0"></use><use x="131.244" y="155.319" width="100%" height="100%" xlink:href="#m4671cb8977" stroke="#1F77B4" stroke-linejoin="miter" fill-opacity="0"></use><use x="158.08" y="149.429" width="100%" height="100%" xlink:href="#m4671cb8977" stroke="#1F77B4" stroke-linejoin="miter" fill-opacity="0"></use><use x="183.997" y="146.806" width="100%" height="100%" xlink:href="#m4671cb8977" stroke="#1F77B4" stroke-linejoin="miter" fill-opacity="0"></use><use x="209.99" y="141.629" width="100%" height="100%" xlink:href="#m4671cb8977" stroke="#1F77B4" stroke-linejoin="miter" fill-opacity="0"></use><use x="226.721" y="145.962" width="100%" height="100%" xlink:href="#m4671cb8977" stroke="#1F77B4" stroke-linejoin="miter" fill-opacity="0"></use><use x="245.471" y="147.715" width="100%" height="100%" xlink:href="#m4671cb8977" stroke="#1F77B4" stroke-linejoin="miter" fill-opacity="0"></use><use x="263.218" y="147.398" width="100%" height="100%" xlink:href="#m4671cb8977" stroke="#1F77B4" stroke-linejoin="miter" fill-opacity="0"></use><use x="284.775" y="150.737" width="100%" height="100%" xlink:href="#m4671cb8977" stroke="#1F77B4" stroke-linejoin="miter" fill-opacity="0"></use><use x="307.71" y="151.513" width="100%" height="100%" xlink:href="#m4671cb8977" stroke="#1F77B4" stroke-linejoin="miter" fill-opacity="0"></use><use x="326.322" y="143.84" width="100%" height="100%" xlink:href="#m4671cb8977" stroke="#1F77B4" stroke-linejoin="miter" fill-opacity="0"></use><use x="349.934" y="147.103" width="100%" height="100%" xlink:href="#m4671cb8977" stroke="#1F77B4" stroke-linejoin="miter" fill-opacity="0"></use><use x="371.615" y="146.585" width="100%" height="100%" xlink:href="#m4671cb8977" stroke="#1F77B4" stroke-linejoin="miter" fill-opacity="0"></use><use x="392.791" y="146.72" width="100%" height="100%" xlink:href="#m4671cb8977" stroke="#1F77B4" stroke-linejoin="miter" fill-opacity="0"></use><use x="416.084" y="148.154" width="100%" height="100%" xlink:href="#m4671cb8977" stroke="#1F77B4" stroke-linejoin="miter" fill-opacity="0"></use><use x="439.565" y="150.933" width="100%" height="100%" xlink:href="#m4671cb8977" stroke="#1F77B4" stroke-linejoin="miter" fill-opacity="0"></use><use x="457.633" y="144.734" width="100%" height="100%" xlink:href="#m4671cb8977" stroke="#1F77B4" stroke-linejoin="miter" fill-opacity="0"></use><use x="470.962" y="150.277" width="100%" height="100%" xlink:href="#m4671cb8977" stroke="#1F77B4" stroke-linejoin="miter" fill-opacity="0"></use><use x="478.224" y="152.603" width="100%" height="100%" xlink:href="#m4671cb8977" stroke="#1F77B4" stroke-linejoin="miter" fill-opacity="0"></use></g></g><g id="patch_3"><path d="M67.5 320.4 67.5 93.096" stroke="#000000" stroke-width="0.8" stroke-linecap="square" stroke-linejoin="miter" fill="none"/></g><g id="patch_4"><path d="M486 320.4 486 93.096" stroke="#000000" stroke-width="0.8" stroke-linecap="square" stroke-linejoin="miter" fill="none"/></g><g id="patch_5"><path d="M67.5 320.4 486 320.4" stroke="#000000" stroke-width="0.8" stroke-linecap="square" stroke-linejoin="miter" fill="none"/></g><g id="patch_6"><path d="M67.5 93.096 486 93.096" stroke="#000000" stroke-width="0.8" stroke-linecap="square" stroke-linejoin="miter" fill="none"/></g><g id="legend_1"><g id="patch_7"><path d="M75.9 80.0614 310.62 80.0614C312.22 80.0614 313.02 79.2614 313.02 77.6614L313.02 8.30136C313.02 6.70136 312.22 5.90136 310.62 5.90136L75.9 5.90136C74.3 5.90136 73.5 6.70136 73.5 8.30136L73.5 77.6614C73.5 79.2614 74.3 80.0614 75.9 80.0614Z" stroke="#CCCCCC" stroke-linejoin="miter" fill="#FFFFFF" opacity="0.5"/></g><g id="line2d_95"><path d="M78.3 15.6214 90.3 15.6214 102.3 15.6214" stroke="#D62728" stroke-width="2" stroke-dasharray="2 0" fill="none"/></g><g id="text_14"><g transform="matrix(0.12 0 0 -0.12 111.9 19.8214)"><defs><path d="M4447 4306 4319 3641C4119 3843 3907 3993 3683 4091 3459 4189 3216.67 4238 2956 4238 2600 4238 2287 4152.33 2017 3981 1747.67 3810.33 1515 3550 1319 3200 1193.67 2975.33 1098 2737.33 1032 2486 966.667 2234.67 934 1982 934 1728 934 1303.33 1044 979.333 1264 756 1484 533.333 1803.33 422 2222 422 2511.33 422 2789.33 468.333 3056 561 3322.67 653.667 3582 792.667 3834 978L3688 231C3440 125 3189.33 45 2936-9 2682.67-63.6667 2429-91 2175-91 1577-91 1109.67 71.3333 773 396 437 721.333 269 1173.67 269 1753 269 2123.67 333 2488 461 2846 589 3204.67 773 3532 1013 3828 1267 4142.67 1557 4375 1883 4525 2209 4675 2588.67 4750 3022 4750 3288.67 4750 3541.33 4713 3780 4639 4018.67 4565 4241 4454 4447 4306Z" id="DejaVuSans-Oblique-43" transform="scale(0.015625 0.015625)"/><path d="M5747 2113 5338 0 4763 0 5166 2094C5182.67 2183.33 5195 2260.33 5203 2325 5211.67 2389.67 5216 2445 5216 2491 5216 2678.33 5163.67 2824 5059 2928 4955 3032 4809.33 3084 4622 3084 4342.67 3084 4093.67 2979.33 3875 2770 3656.33 2560.67 3514.67 2288.33 3450 1953L3066 0 2491 0 2900 2094C2916.67 2170.67 2929 2241.67 2937 2307 2945.67 2373 2950 2432 2950 2484 2950 2674 2898 2821.33 2794 2926 2690 3031.33 2546.33 3084 2363 3084 2079.67 3084 1828.33 2979.33 1609 2770 1390.33 2560.67 1248.67 2288.33 1184 1953L800 0 225 0 909 3500 1484 3500 1375 2956C1531 3160.67 1713.67 3316.33 1923 3423 2133 3530.33 2357.67 3584 2597 3584 2851 3584 3059.67 3517.33 3223 3384 3387 3250.67 3485.67 3065.33 3519 2828 3693.67 3074 3896 3261.33 4126 3390 4356.67 3519.33 4600 3584 4856 3584 5156 3584 5387.67 3497.67 5551 3325 5715 3152.33 5797 2907.67 5797 2591 5797 2522.33 5792.67 2446.67 5784 2364 5776 2282 5763.67 2198.33 5747 2113Z" id="DejaVuSans-Oblique-6d" transform="scale(0.015625 0.015625)"/><path d="M3175 2156C3175 2462.67 3108.33 2697 2975 2859 2841.67 3021.67 2650 3103 2400 3103 2229.33 3103 2066.33 3059.33 1911 2972 1755.67 2884.67 1617.67 2757.67 1497 2591 1378.33 2426.33 1283.33 2227.33 1212 1994 1141.33 1760.67 1106 1529.33 1106 1300 1106 1008.67 1172.67 784.333 1306 627 1439.33 469.667 1629 391 1875 391 2056.33 391 2224.67 433.667 2380 519 2535.33 604.333 2668 728.333 2778 891 2896.67 1061.67 2992.33 1262.67 3065 1494 3138.33 1725.33 3175 1946 3175 2156ZM1394 2969C1548 3171 1729.67 3324 1939 3428 2148.33 3532 2381.33 3584 2638 3584 2996 3584 3274 3466.67 3472 3232 3670 2998 3769 2669.67 3769 2247 3769 1901 3707.33 1571.33 3584 1258 3461.33 944.667 3284.33 664 3053 416 2899 251.333 2725 125.667 2531 39 2337.67-47.6667 2133.67-91 1919-91 1671-91 1462.67-39.3333 1294 64 1125.33 167.333 999.333 321 916 525L556-1331-19-1331 922 3500 1497 3500 1394 2969Z" id="DejaVuSans-Oblique-70" transform="scale(0.015625 0.015625)"/><path d="M750 794 1409 794 1409 256 897-744 494-744 750 256 750 794Z" id="DejaVuSans-2c" transform="scale(0.015625 0.015625)"/><path d="M1613 4147 1294 2491 2106 2491C2424.67 2491 2682.33 2579 2879 2755 3076.33 2931 3175 3160.67 3175 3444 3175 3670.67 3108.67 3844.33 2976 3965 2844 4086.33 2654 4147 2406 4147L1613 4147ZM2772 2241C2905.33 2209.67 3016.33 2132.33 3105 2009 3193.67 1886.33 3296.33 1641.67 3413 1275L3809 0 3144 0 2778 1197C2684.67 1505 2576.33 1711 2453 1815 2330.33 1919.67 2142 1972 1888 1972L1191 1972 806 0 172 0 1081 4666 2503 4666C2934.33 4666 3265 4568.33 3495 4373 3725.67 4178.33 3841 3897.67 3841 3531 3841 3206.33 3743 2925 3547 2687 3351 2449.67 3092.67 2301 2772 2241Z" id="DejaVuSans-Oblique-52" transform="scale(0.015625 0.015625)"/><path d="M3816 3500 3219 434C3104.33-159.333 2885-601.667 2561-893 2237-1185 1801-1331 1253-1331 1051-1331 863.333-1316 690-1286 517.333-1256 356-1209.67 206-1147L313-588C454.333-679.333 604-746.667 762-790 920.667-834 1089.67-856 1269-856 1633.67-856 1933-756.333 2167-557 2401.67-358.333 2556.33-72.6667 2631 300L2681 563C2521 379.667 2334.67 240 2122 144 1909.33 48 1680 0 1434 0 1080 0 801.333 117 598 351 395.333 585.667 294 908.333 294 1319 294 1641.67 355.333 1957.67 478 2267 601.333 2576.33 774.333 2851 997 3091 1145 3249 1317.33 3370.67 1514 3456 1710.67 3541.33 1916.33 3584 2131 3584 2366.33 3584 2571.33 3529.33 2746 3420 2921.33 3310.67 3052 3156 3138 2956L3238 3500 3816 3500ZM2950 2216C2950 2499.33 2883.33 2718 2750 2872 2616.67 3026 2427 3103 2181 3103 2029 3103 1884.33 3072.67 1747 3012 1609.67 2952 1492 2867.67 1394 2759 1235.33 2580.33 1111.67 2369.67 1023 2127 935 1884.33 891 1633.67 891 1375 891 1087.67 958 866.667 1092 712 1226.67 558 1420 481 1672 481 2036.67 481 2340.67 646 2584 976 2828 1306.67 2950 1720 2950 2216Z" id="DejaVuSans-Oblique-67" transform="scale(0.015625 0.015625)"/><path d="M2675 525C2521 323 2338.67 169.667 2128 65 1918-39 1684.67-91 1428-91 1078-91 801.333 28.3333 598 267 395.333 505.667 294 832.333 294 1247 294 1593 355.333 1922.67 478 2236 601.333 2549.33 779.667 2830 1013 3078 1167 3242.67 1340.67 3368 1534 3454 1728 3540.67 1931.33 3584 2144 3584 2368.67 3584 2567 3529.67 2739 3421 2911 3313 3044 3158 3138 2956L3513 4863 4091 4863 3144 0 2566 0 2675 525ZM891 1350C891 1048 959 812.667 1095 644 1231.67 475.333 1421 391 1663 391 1841.67 391 2007.67 434 2161 520 2314.33 606.667 2449.33 734.333 2566 903 2688.67 1078.33 2785.33 1280.33 2856 1509 2927.33 1738.33 2963 1964.67 2963 2188 2963 2477.33 2894.67 2703 2758 2865 2621.33 3027.67 2433.33 3109 2194 3109 2012.67 3109 1843.67 3066.33 1687 2981 1531 2895.67 1398 2773 1288 2613 1166.67 2439.67 1070 2238.33 998 2009 926.667 1780.33 891 1560.67 891 1350Z" id="DejaVuSans-Oblique-64" transform="scale(0.015625 0.015625)"/><path d="M1081 4666 2694 4666C3131.33 4666 3458.33 4584.67 3675 4422 3891.67 4259.33 4000 4014.67 4000 3688 4000 3388 3906.67 3129 3720 2911 3534 2693 3290 2561.33 2988 2516 3246 2457.33 3439.67 2345.67 3569 2181 3698.33 2016.33 3763 1796.67 3763 1522 3763 1053.33 3589.33 682.333 3242 409 2895.33 136.333 2421 0 1819 0L172 0 1081 4666ZM1234 2228 903 519 1919 519C2300.33 519 2594 606.333 2800 781 3006 956.333 3109 1203.33 3109 1522 3109 1768 3040.67 1947 2904 2059 2768 2171.67 2549 2228 2247 2228L1234 2228ZM1606 4147 1331 2741 2272 2741C2607.33 2741 2869.33 2813.67 3058 2959 3246.67 3105 3341 3307.33 3341 3566 3341 3768 3277.33 3915.33 3150 4008 3022.67 4100.67 2819.67 4147 2541 4147L1606 4147Z" id="DejaVuSans-Oblique-42" transform="scale(0.015625 0.015625)"/><path d="M428 1388 838 3500 1416 3500 1006 1409C985.333 1307 970.333 1219.67 961 1147 951.667 1074.33 947 1014 947 966 947 788.667 1001 651.333 1109 554 1217.67 457.333 1371 409 1569 409 1877 409 2143.33 513 2368 721 2593.33 929.667 2740.33 1210.33 2809 1563L3194 3500 3769 3500 3091 0 2516 0 2631 550C2469 346 2276 188 2052 76 1828-35.3333 1590-91 1338-91 1031.33-91 792.667-7 622 161 451.333 329 366 563 366 863 366 925 371 1003 381 1097 391.667 1191 407.333 1288 428 1388Z" id="DejaVuSans-Oblique-75" transform="scale(0.015625 0.015625)"/><path d="M1588-325C1321.33-773 1104-1052.67 936-1164 768-1275.33 554-1331 294-1331L-159-1331-63-850 269-850C429-850 565.333-806.333 678-719 790.667-631.667 916.667-460.667 1056-206L1234 128 459 3500 1069 3500 1650 819 3256 3500 3859 3500 1588-325Z" id="DejaVuSans-Oblique-79" transform="scale(0.015625 0.015625)"/></defs><use width="100%" height="100%" xlink:href="#DejaVuSans-Oblique-43" transform="matrix(1 0 0 1 0 0.015625)"></use><use width="100%" height="100%" xlink:href="#DejaVuSans-Oblique-6f" transform="translate(69.8242 0.015625)"></use><use width="100%" height="100%" xlink:href="#DejaVuSans-Oblique-6d" transform="translate(131.006 0.015625)"></use><use width="100%" height="100%" xlink:href="#DejaVuSans-Oblique-70" transform="translate(228.418 0.015625)"></use><use width="100%" height="100%" xlink:href="#DejaVuSans-Oblique-72" transform="translate(291.895 0.015625)"></use><use width="100%" height="100%" xlink:href="#DejaVuSans-Oblique-65" transform="translate(333.008 0.015625)"></use><use width="100%" height="100%" xlink:href="#DejaVuSans-Oblique-73" transform="translate(394.531 0.015625)"></use><use width="100%" height="100%" xlink:href="#DejaVuSans-Oblique-73" transform="translate(446.631 0.015625)"></use><use width="100%" height="100%" xlink:href="#DejaVuSans-Oblique-69" transform="translate(498.73 0.015625)"></use><use width="100%" height="100%" xlink:href="#DejaVuSans-Oblique-6f" transform="translate(526.514 0.015625)"></use><use width="100%" height="100%" xlink:href="#DejaVuSans-Oblique-6e" transform="translate(587.695 0.015625)"></use><use width="100%" height="100%" xlink:href="#DejaVuSans-2c" transform="translate(651.074 0.015625)"></use><use width="100%" height="100%" xlink:href="#DejaVuSans-Oblique-52" transform="translate(734.814 0.015625)"></use><use width="100%" height="100%" xlink:href="#DejaVuSans-Oblique-69" transform="translate(804.297 0.015625)"></use><use width="100%" height="100%" xlink:href="#DejaVuSans-Oblique-67" transform="translate(832.08 0.015625)"></use><use width="100%" height="100%" xlink:href="#DejaVuSans-Oblique-69" transform="translate(895.556 0.015625)"></use><use width="100%" height="100%" xlink:href="#DejaVuSans-Oblique-64" transform="translate(923.34 0.015625)"></use><use width="100%" height="100%" xlink:href="#DejaVuSans-Oblique-42" transform="translate(1019.29 0.015625)"></use><use width="100%" height="100%" xlink:href="#DejaVuSans-Oblique-6f" transform="translate(1087.89 0.015625)"></use><use width="100%" height="100%" xlink:href="#DejaVuSans-Oblique-75" transform="translate(1149.07 0.015625)"></use><use width="100%" height="100%" xlink:href="#DejaVuSans-Oblique-6e" transform="translate(1212.45 0.015625)"></use><use width="100%" height="100%" xlink:href="#DejaVuSans-Oblique-64" transform="translate(1275.83 0.015625)"></use><use width="100%" height="100%" xlink:href="#DejaVuSans-Oblique-61" transform="translate(1339.31 0.015625)"></use><use width="100%" height="100%" xlink:href="#DejaVuSans-Oblique-72" transform="translate(1400.59 0.015625)"></use><use width="100%" height="100%" xlink:href="#DejaVuSans-Oblique-79" transform="translate(1441.7 0.015625)"></use></g></g><g id="line2d_96"><path d="M78.3 33.2614 90.3 33.2614 102.3 33.2614" stroke="#1F77B4" stroke-width="2" stroke-dasharray="6 4" fill="none"/></g><g id="text_15"><g transform="matrix(0.12 0 0 -0.12 111.9 37.4614)"><defs><path d="M1081 4666 4031 4666 3928 4134 1606 4134 1338 2753 3566 2753 3463 2222 1234 2222 909 531 3284 531 3181 0 172 0 1081 4666Z" id="DejaVuSans-Oblique-45" transform="scale(0.015625 0.015625)"/></defs><use width="100%" height="100%" xlink:href="#DejaVuSans-Oblique-45" transform="matrix(1 0 0 1 0 0.015625)"></use><use width="100%" height="100%" xlink:href="#DejaVuSans-Oblique-78" transform="translate(63.1836 0.015625)"></use><use width="100%" height="100%" xlink:href="#DejaVuSans-Oblique-74" transform="translate(122.363 0.015625)"></use><use width="100%" height="100%" xlink:href="#DejaVuSans-Oblique-65" transform="translate(161.572 0.015625)"></use><use width="100%" height="100%" xlink:href="#DejaVuSans-Oblique-6e" transform="translate(223.096 0.015625)"></use><use width="100%" height="100%" xlink:href="#DejaVuSans-Oblique-73" transform="translate(286.475 0.015625)"></use><use width="100%" height="100%" xlink:href="#DejaVuSans-Oblique-69" transform="translate(338.574 0.015625)"></use><use width="100%" height="100%" xlink:href="#DejaVuSans-Oblique-6f" transform="translate(366.357 0.015625)"></use><use width="100%" height="100%" xlink:href="#DejaVuSans-Oblique-6e" transform="translate(427.539 0.015625)"></use><use width="100%" height="100%" xlink:href="#DejaVuSans-2c" transform="translate(490.918 0.015625)"></use><use width="100%" height="100%" xlink:href="#DejaVuSans-Oblique-52" transform="translate(574.658 0.015625)"></use><use width="100%" height="100%" xlink:href="#DejaVuSans-Oblique-69" transform="translate(644.14 0.015625)"></use><use width="100%" height="100%" xlink:href="#DejaVuSans-Oblique-67" transform="translate(671.924 0.015625)"></use><use width="100%" height="100%" xlink:href="#DejaVuSans-Oblique-69" transform="translate(735.4 0.015625)"></use><use width="100%" height="100%" xlink:href="#DejaVuSans-Oblique-64" transform="translate(763.183 0.015625)"></use><use width="100%" height="100%" xlink:href="#DejaVuSans-Oblique-42" transform="translate(859.13 0.015625)"></use><use width="100%" height="100%" xlink:href="#DejaVuSans-Oblique-6f" transform="translate(927.734 0.015625)"></use><use width="100%" height="100%" xlink:href="#DejaVuSans-Oblique-75" transform="translate(988.915 0.015625)"></use><use width="100%" height="100%" xlink:href="#DejaVuSans-Oblique-6e" transform="translate(1052.29 0.015625)"></use><use width="100%" height="100%" xlink:href="#DejaVuSans-Oblique-64" transform="translate(1115.67 0.015625)"></use><use width="100%" height="100%" xlink:href="#DejaVuSans-Oblique-61" transform="translate(1179.15 0.015625)"></use><use width="100%" height="100%" xlink:href="#DejaVuSans-Oblique-72" transform="translate(1240.43 0.015625)"></use><use width="100%" height="100%" xlink:href="#DejaVuSans-Oblique-79" transform="translate(1281.54 0.015625)"></use></g></g><g id="line2d_97"><path d="M78.3 50.9014 90.3 50.9014 102.3 50.9014" stroke="#D62728" stroke-width="0.6" stroke-linecap="square" fill="none"/><g><use x="90.3" y="50.9014" width="100%" height="100%" xlink:href="#m66f61a4a8c" stroke="#D62728" stroke-linejoin="miter" fill-opacity="0"></use></g></g><g id="text_16"><g transform="matrix(0.12 0 0 -0.12 111.9 55.1014)"><defs><path d="M1081 4666 3756 4666 3653 4134 1606 4134 1338 2759 3188 2759 3084 2228 1234 2228 800 0 172 0 1081 4666Z" id="DejaVuSans-Oblique-46" transform="scale(0.015625 0.015625)"/><path d="M3169 2138C3169 2440 3099.67 2676.33 2961 2847 2822.33 3017.67 2631.33 3103 2388 3103 2210.67 3103 2044.33 3059.67 1889 2973 1733.67 2887 1598.67 2761.67 1484 2597 1363.33 2424.33 1268 2223.67 1198 1995 1128.67 1767 1094 1539.67 1094 1313 1094 1025 1162 799.333 1298 636 1434.67 472.667 1623 391 1863 391 2043.67 391 2211 433 2365 517 2519.67 601.667 2655.33 726.333 2772 891 2890.67 1061.67 2986.33 1260.33 3059 1487 3132.33 1714.33 3169 1931.33 3169 2138ZM1381 2969C1523 3160.33 1700.67 3310.67 1914 3420 2127.33 3529.33 2350.67 3584 2584 3584 2942.67 3584 3227.67 3463 3439 3221 3650.33 2979.67 3756 2653 3756 2241 3756 1903 3694 1575.67 3570 1259 3446 942.333 3269.67 661.333 3041 416 2891 253.333 2718 128 2522 40 2326-47.3333 2120.67-91 1906-91 1679.33-91 1482.67-39 1316 65 1149.33 169.667 1013.67 325 909 531L806 0 231 0 1178 4863 1753 4863 1381 2969Z" id="DejaVuSans-Oblique-62" transform="scale(0.015625 0.015625)"/></defs><use width="100%" height="100%" xlink:href="#DejaVuSans-Oblique-43" transform="matrix(1 0 0 1 0 0.015625)"></use><use width="100%" height="100%" xlink:href="#DejaVuSans-Oblique-6f" transform="translate(69.8242 0.015625)"></use><use width="100%" height="100%" xlink:href="#DejaVuSans-Oblique-6d" transform="translate(131.006 0.015625)"></use><use width="100%" height="100%" xlink:href="#DejaVuSans-Oblique-70" transform="translate(228.418 0.015625)"></use><use width="100%" height="100%" xlink:href="#DejaVuSans-Oblique-72" transform="translate(291.895 0.015625)"></use><use width="100%" height="100%" xlink:href="#DejaVuSans-Oblique-65" transform="translate(333.008 0.015625)"></use><use width="100%" height="100%" xlink:href="#DejaVuSans-Oblique-73" transform="translate(394.531 0.015625)"></use><use width="100%" height="100%" xlink:href="#DejaVuSans-Oblique-73" transform="translate(446.631 0.015625)"></use><use width="100%" height="100%" xlink:href="#DejaVuSans-Oblique-69" transform="translate(498.73 0.015625)"></use><use width="100%" height="100%" xlink:href="#DejaVuSans-Oblique-6f" transform="translate(526.514 0.015625)"></use><use width="100%" height="100%" xlink:href="#DejaVuSans-Oblique-6e" transform="translate(587.695 0.015625)"></use><use width="100%" height="100%" xlink:href="#DejaVuSans-2c" transform="translate(651.074 0.015625)"></use><use width="100%" height="100%" xlink:href="#DejaVuSans-Oblique-46" transform="translate(734.814 0.015625)"></use><use width="100%" height="100%" xlink:href="#DejaVuSans-Oblique-6c" transform="translate(792.334 0.015625)"></use><use width="100%" height="100%" xlink:href="#DejaVuSans-Oblique-65" transform="translate(820.117 0.015625)"></use><use width="100%" height="100%" xlink:href="#DejaVuSans-Oblique-78" transform="translate(881.64 0.015625)"></use><use width="100%" height="100%" xlink:href="#DejaVuSans-Oblique-69" transform="translate(940.82 0.015625)"></use><use width="100%" height="100%" xlink:href="#DejaVuSans-Oblique-62" transform="translate(968.603 0.015625)"></use><use width="100%" height="100%" xlink:href="#DejaVuSans-Oblique-6c" transform="translate(1032.08 0.015625)"></use><use width="100%" height="100%" xlink:href="#DejaVuSans-Oblique-65" transform="translate(1059.86 0.015625)"></use><use width="100%" height="100%" xlink:href="#DejaVuSans-Oblique-42" transform="translate(1153.86 0.015625)"></use><use width="100%" height="100%" xlink:href="#DejaVuSans-Oblique-6f" transform="translate(1222.46 0.015625)"></use><use width="100%" height="100%" xlink:href="#DejaVuSans-Oblique-75" transform="translate(1283.64 0.015625)"></use><use width="100%" height="100%" xlink:href="#DejaVuSans-Oblique-6e" transform="translate(1347.02 0.015625)"></use><use width="100%" height="100%" xlink:href="#DejaVuSans-Oblique-64" transform="translate(1410.4 0.015625)"></use><use width="100%" height="100%" xlink:href="#DejaVuSans-Oblique-61" transform="translate(1473.88 0.015625)"></use><use width="100%" height="100%" xlink:href="#DejaVuSans-Oblique-72" transform="translate(1535.16 0.015625)"></use><use width="100%" height="100%" xlink:href="#DejaVuSans-Oblique-79" transform="translate(1576.27 0.015625)"></use></g></g><g id="line2d_98"><path d="M78.3 68.5414 90.3 68.5414 102.3 68.5414" stroke="#1F77B4" stroke-width="0.2" stroke-linecap="square" fill="none"/><g><use x="90.3" y="68.5414" width="100%" height="100%" xlink:href="#m4671cb8977" stroke="#1F77B4" stroke-linejoin="miter" fill-opacity="0"></use></g></g><g id="text_17"><g transform="matrix(0.12 0 0 -0.12 111.9 72.7414)"><use width="100%" height="100%" xlink:href="#DejaVuSans-Oblique-45" transform="matrix(1 0 0 1 0 0.015625)"></use><use width="100%" height="100%" xlink:href="#DejaVuSans-Oblique-78" transform="translate(63.1836 0.015625)"></use><use width="100%" height="100%" xlink:href="#DejaVuSans-Oblique-74" transform="translate(122.363 0.015625)"></use><use width="100%" height="100%" xlink:href="#DejaVuSans-Oblique-65" transform="translate(161.572 0.015625)"></use><use width="100%" height="100%" xlink:href="#DejaVuSans-Oblique-6e" transform="translate(223.096 0.015625)"></use><use width="100%" height="100%" xlink:href="#DejaVuSans-Oblique-73" transform="translate(286.475 0.015625)"></use><use width="100%" height="100%" xlink:href="#DejaVuSans-Oblique-69" transform="translate(338.574 0.015625)"></use><use width="100%" height="100%" xlink:href="#DejaVuSans-Oblique-6f" transform="translate(366.357 0.015625)"></use><use width="100%" height="100%" xlink:href="#DejaVuSans-Oblique-6e" transform="translate(427.539 0.015625)"></use><use width="100%" height="100%" xlink:href="#DejaVuSans-2c" transform="translate(490.918 0.015625)"></use><use width="100%" height="100%" xlink:href="#DejaVuSans-Oblique-46" transform="translate(574.658 0.015625)"></use><use width="100%" height="100%" xlink:href="#DejaVuSans-Oblique-6c" transform="translate(632.177 0.015625)"></use><use width="100%" height="100%" xlink:href="#DejaVuSans-Oblique-65" transform="translate(659.961 0.015625)"></use><use width="100%" height="100%" xlink:href="#DejaVuSans-Oblique-78" transform="translate(721.484 0.015625)"></use><use width="100%" height="100%" xlink:href="#DejaVuSans-Oblique-69" transform="translate(780.664 0.015625)"></use><use width="100%" height="100%" xlink:href="#DejaVuSans-Oblique-62" transform="translate(808.447 0.015625)"></use><use width="100%" height="100%" xlink:href="#DejaVuSans-Oblique-6c" transform="translate(871.924 0.015625)"></use><use width="100%" height="100%" xlink:href="#DejaVuSans-Oblique-65" transform="translate(899.707 0.015625)"></use><use width="100%" height="100%" xlink:href="#DejaVuSans-Oblique-42" transform="translate(993.701 0.015625)"></use><use width="100%" height="100%" xlink:href="#DejaVuSans-Oblique-6f" transform="translate(1062.3 0.015625)"></use><use width="100%" height="100%" xlink:href="#DejaVuSans-Oblique-75" transform="translate(1123.49 0.015625)"></use><use width="100%" height="100%" xlink:href="#DejaVuSans-Oblique-6e" transform="translate(1186.86 0.015625)"></use><use width="100%" height="100%" xlink:href="#DejaVuSans-Oblique-64" transform="translate(1250.24 0.015625)"></use><use width="100%" height="100%" xlink:href="#DejaVuSans-Oblique-61" transform="translate(1313.72 0.015625)"></use><use width="100%" height="100%" xlink:href="#DejaVuSans-Oblique-72" transform="translate(1375 0.015625)"></use><use width="100%" height="100%" xlink:href="#DejaVuSans-Oblique-79" transform="translate(1416.11 0.015625)"></use></g></g></g></g></g></svg>