<svg width="768" height="528" viewBox="0 0 576 396" xmlns="http://www.w3.org/2000/svg" xmlns:xlink="http://www.w3.org/1999/xlink" stroke-linejoin="round" overflow="hidden"><defs></defs><defs><clipPath id="p8099f4f226"><rect x="72" y="47.52" width="446.4" height="304.92"/></clipPath></defs><g id="figure_1"><g id="patch_1"><path d="M0 396 576 396 576 0 0 0Z" fill="#FFFFFF"/></g><g id="axes_1"><g id="patch_2"><path d="M72 352.44 518.4 352.44 518.4 47.52 72 47.52Z" fill="#FFFFFF"/></g><g id="matplotlib.axis_1"><g id="xtick_1"><g id="line2d_1"><path d="M116.793 352.44 116.793 47.52" stroke="#808080" stroke-width="0.5" stroke-linecap="square" fill="none" clip-path="url(#p8099f4f226)"/></g><g id="line2d_2"><defs><path d="M0 0 0 3.5" id="mfedcb077e3" stroke="#000000" stroke-width="0.8"/></defs><g><use x="116.793" y="352.44" width="100%" height="100%" xlink:href="#mfedcb077e3" stroke="#000000" stroke-width="0.8"></use></g></g><g id="text_1"><g transform="matrix(0.13 0 0 -0.13 102.298 369.318)"><defs><path d="M2034 4250C1709.33 4250 1465 4090 1301 3770 1137.67 3450.67 1056 2970 1056 2328 1056 1688.67 1137.67 1209 1301 889 1465 569 1709.33 409 2034 409 2361.33 409 2606.67 569 2770 889 2934 1209 3016 1688.67 3016 2328 3016 2970 2934 3450.67 2770 3770 2606.67 4090 2361.33 4250 2034 4250ZM2034 4750C2557.33 4750 2957 4543 3233 4129 3509 3715.67 3647 3115.33 3647 2328 3647 1542.67 3509 943 3233 529 2957 115.667 2557.33-91 2034-91 1511.33-91 1112 115.667 836 529 560 943 422 1542.67 422 2328 422 3115.33 560 3715.67 836 4129 1112 4543 1511.33 4750 2034 4750Z" id="DejaVuSans-30" transform="scale(0.015625 0.015625)"/><path d="M684 794 1344 794 1344 0 684 0 684 794Z" id="DejaVuSans-2e" transform="scale(0.015625 0.015625)"/><path d="M794 531 1825 531 1825 4091 703 3866 703 4441 1819 4666 2450 4666 2450 531 3481 531 3481 0 794 0 794 531Z" id="DejaVuSans-31" transform="scale(0.015625 0.015625)"/></defs><use width="100%" height="100%" xlink:href="#DejaVuSans-30" transform="matrix(1 0 0 1 0 0.78125)"></use><use width="100%" height="100%" xlink:href="#DejaVuSans-2e" transform="translate(63.623 0.78125)"></use><use width="100%" height="100%" xlink:href="#DejaVuSans-30" transform="translate(95.4102 0.78125)"></use><use width="100%" height="100%" xlink:href="#DejaVuSans-31" transform="translate(159.033 0.78125)"></use></g></g></g><g id="xtick_2"><g id="line2d_3"><path d="M161.587 352.44 161.587 47.52" stroke="#808080" stroke-width="0.5" stroke-linecap="square" fill="none" clip-path="url(#p8099f4f226)"/></g><g id="line2d_4"><g><use x="161.587" y="352.44" width="100%" height="100%" xlink:href="#mfedcb077e3" stroke="#000000" stroke-width="0.8"></use></g></g><g id="text_2"><g transform="matrix(0.13 0 0 -0.13 147.092 369.318)"><defs><path d="M1228 531 3431 531 3431 0 469 0 469 531C708.333 779 1034.67 1111.67 1448 1529 1862 1947 2122 2216.67 2228 2338 2430 2564.67 2571 2756.67 2651 2914 2731.67 3071.33 2772 3226 2772 3378 2772 3626 2685 3828 2511 3984 2337 4140.67 2110.33 4219 1831 4219 1633 4219 1424 4184.67 1204 4116 984.667 4047.33 750 3943 500 3803L500 4441C754 4543 991.333 4620 1212 4672 1433.33 4724 1635.67 4750 1819 4750 2302.33 4750 2687.67 4629 2975 4387 3262.33 4145.67 3406 3823 3406 3419 3406 3227 3370 3045 3298 2873 3226.67 2701.67 3096 2499.33 2906 2266 2854 2205.33 2688.33 2030.67 2409 1742 2130.33 1453.33 1736.67 1049.67 1228 531Z" id="DejaVuSans-32" transform="scale(0.015625 0.015625)"/></defs><use width="100%" height="100%" xlink:href="#DejaVuSans-30" transform="matrix(1 0 0 1 0 0.78125)"></use><use width="100%" height="100%" xlink:href="#DejaVuSans-2e" transform="translate(63.623 0.78125)"></use><use width="100%" height="100%" xlink:href="#DejaVuSans-30" transform="translate(95.4102 0.78125)"></use><use width="100%" height="100%" xlink:href="#DejaVuSans-32" transform="translate(159.033 0.78125)"></use></g></g></g><g id="xtick_3"><g id="line2d_5"><path d="M220.8 352.44 220.8 47.52" stroke="#808080" stroke-width="0.5" stroke-linecap="square" fill="none" clip-path="url(#p8099f4f226)"/></g><g id="line2d_6"><g><use x="220.8" y="352.44" width="100%" height="100%" xlink:href="#mfedcb077e3" stroke="#000000" stroke-width="0.8"></use></g></g><g id="text_3"><g transform="matrix(0.13 0 0 -0.13 206.305 369.318)"><defs><path d="M691 4666 3169 4666 3169 4134 1269 4134 1269 2991C1360.33 3022.33 1451.67 3045.67 1543 3061 1635 3076.33 1727 3084 1819 3084 2339.67 3084 2752 2941.33 3056 2656 3360.67 2370.67 3513 1984.33 3513 1497 3513 995 3356.67 604.667 3044 326 2731.33 48 2290.67-91 1722-91 1526-91 1326.33-74.3333 1123-41 920.333-7.66667 710.667 42.3333 494 109L494 744C681.333 642 875 566 1075 516 1275 466 1486.33 441 1709 441 2069.67 441 2355 535.667 2565 725 2775.67 914.333 2881 1171.67 2881 1497 2881 1821.67 2775.67 2078.67 2565 2268 2355 2458 2069.67 2553 1709 2553 1540.33 2553 1372 2534.33 1204 2497 1036.67 2459.67 865.667 2401.33 691 2322L691 4666Z" id="DejaVuSans-35" transform="scale(0.015625 0.015625)"/></defs><use width="100%" height="100%" xlink:href="#DejaVuSans-30" transform="matrix(1 0 0 1 0 0.78125)"></use><use width="100%" height="100%" xlink:href="#DejaVuSans-2e" transform="translate(63.623 0.78125)"></use><use width="100%" height="100%" xlink:href="#DejaVuSans-30" transform="translate(95.4102 0.78125)"></use><use width="100%" height="100%" xlink:href="#DejaVuSans-35" transform="translate(159.033 0.78125)"></use></g></g></g><g id="xtick_4"><g id="line2d_7"><path d="M265.593 352.44 265.593 47.52" stroke="#808080" stroke-width="0.5" stroke-linecap="square" fill="none" clip-path="url(#p8099f4f226)"/></g><g id="line2d_8"><g><use x="265.593" y="352.44" width="100%" height="100%" xlink:href="#mfedcb077e3" stroke="#000000" stroke-width="0.8"></use></g></g><g id="text_4"><g transform="matrix(0.13 0 0 -0.13 251.098 369.318)"><use width="100%" height="100%" xlink:href="#DejaVuSans-30" transform="matrix(1 0 0 1 0 0.78125)"></use><use width="100%" height="100%" xlink:href="#DejaVuSans-2e" transform="translate(63.623 0.78125)"></use><use width="100%" height="100%" xlink:href="#DejaVuSans-31" transform="translate(95.4102 0.78125)"></use><use width="100%" height="100%" xlink:href="#DejaVuSans-30" transform="translate(159.033 0.78125)"></use></g></g></g><g id="xtick_5"><g id="line2d_9"><path d="M310.387 352.44 310.387 47.52" stroke="#808080" stroke-width="0.5" stroke-linecap="square" fill="none" clip-path="url(#p8099f4f226)"/></g><g id="line2d_10"><g><use x="310.387" y="352.44" width="100%" height="100%" xlink:href="#mfedcb077e3" stroke="#000000" stroke-width="0.8"></use></g></g><g id="text_5"><g transform="matrix(0.13 0 0 -0.13 296.217 369.318)"><use width="100%" height="100%" xlink:href="#DejaVuSans-30" transform="matrix(1 0 0 1 0 0.78125)"></use><use width="100%" height="100%" xlink:href="#DejaVuSans-2e" transform="translate(63.623 0.78125)"></use><use width="100%" height="100%" xlink:href="#DejaVuSans-32" transform="translate(89.9102 0.78125)"></use><use width="100%" height="100%" xlink:href="#DejaVuSans-30" transform="translate(153.533 0.78125)"></use></g></g></g><g id="xtick_6"><g id="line2d_11"><path d="M369.6 352.44 369.6 47.52" stroke="#808080" stroke-width="0.5" stroke-linecap="square" fill="none" clip-path="url(#p8099f4f226)"/></g><g id="line2d_12"><g><use x="369.6" y="352.44" width="100%" height="100%" xlink:href="#mfedcb077e3" stroke="#000000" stroke-width="0.8"></use></g></g><g id="text_6"><g transform="matrix(0.13 0 0 -0.13 355.105 369.318)"><use width="100%" height="100%" xlink:href="#DejaVuSans-30" transform="matrix(1 0 0 1 0 0.78125)"></use><use width="100%" height="100%" xlink:href="#DejaVuSans-2e" transform="translate(63.623 0.78125)"></use><use width="100%" height="100%" xlink:href="#DejaVuSans-35" transform="translate(95.4102 0.78125)"></use><use width="100%" height="100%" xlink:href="#DejaVuSans-30" transform="translate(159.033 0.78125)"></use></g></g></g><g id="xtick_7"><g id="line2d_13"><path d="M414.393 352.44 414.393 47.52" stroke="#808080" stroke-width="0.5" stroke-linecap="square" fill="none" clip-path="url(#p8099f4f226)"/></g><g id="line2d_14"><g><use x="414.393" y="352.44" width="100%" height="100%" xlink:href="#mfedcb077e3" stroke="#000000" stroke-width="0.8"></use></g></g><g id="text_7"><g transform="matrix(0.13 0 0 -0.13 399.898 369.318)"><use width="100%" height="100%" xlink:href="#DejaVuSans-31" transform="matrix(1 0 0 1 0 0.78125)"></use><use width="100%" height="100%" xlink:href="#DejaVuSans-2e" transform="translate(63.623 0.78125)"></use><use width="100%" height="100%" xlink:href="#DejaVuSans-30" transform="translate(95.4102 0.78125)"></use><use width="100%" height="100%" xlink:href="#DejaVuSans-30" transform="translate(159.033 0.78125)"></use></g></g></g><g id="xtick_8"><g id="line2d_15"><path d="M459.187 352.44 459.187 47.52" stroke="#808080" stroke-width="0.5" stroke-linecap="square" fill="none" clip-path="url(#p8099f4f226)"/></g><g id="line2d_16"><g><use x="459.187" y="352.44" width="100%" height="100%" xlink:href="#mfedcb077e3" stroke="#000000" stroke-width="0.8"></use></g></g><g id="text_8"><g transform="matrix(0.13 0 0 -0.13 444.692 369.318)"><use width="100%" height="100%" xlink:href="#DejaVuSans-32" transform="matrix(1 0 0 1 0 0.78125)"></use><use width="100%" height="100%" xlink:href="#DejaVuSans-2e" transform="translate(63.623 0.78125)"></use><use width="100%" height="100%" xlink:href="#DejaVuSans-30" transform="translate(95.4102 0.78125)"></use><use width="100%" height="100%" xlink:href="#DejaVuSans-30" transform="translate(159.033 0.78125)"></use></g></g></g><g id="xtick_9"><g id="line2d_17"><path d="M518.4 352.44 518.4 47.52" stroke="#808080" stroke-width="0.5" stroke-linecap="square" fill="none" clip-path="url(#p8099f4f226)"/></g><g id="line2d_18"><g><use x="518.4" y="352.44" width="100%" height="100%" xlink:href="#mfedcb077e3" stroke="#000000" stroke-width="0.8"></use></g></g><g id="text_9"><g transform="matrix(0.13 0 0 -0.13 503.905 369.318)"><use width="100%" height="100%" xlink:href="#DejaVuSans-35" transform="matrix(1 0 0 1 0 0.78125)"></use><use width="100%" height="100%" xlink:href="#DejaVuSans-2e" transform="translate(63.623 0.78125)"></use><use width="100%" height="100%" xlink:href="#DejaVuSans-30" transform="translate(95.4102 0.78125)"></use><use width="100%" height="100%" xlink:href="#DejaVuSans-30" transform="translate(159.033 0.78125)"></use></g></g></g><g id="xtick_10"><g id="line2d_19"><path d="M72 352.44 72 47.52" stroke="#B0B0B0" stroke-width="0.5" stroke-linecap="square" fill="none" clip-path="url(#p8099f4f226)"/></g><g id="line2d_20"><defs><path d="M0 0 0 2" id="m51961f2b4b" stroke="#000000" stroke-width="0.6"/></defs><g><use x="72" y="352.44" width="100%" height="100%" xlink:href="#m51961f2b4b" stroke="#000000" stroke-width="0.6"></use></g></g></g><g id="xtick_11"><g id="line2d_21"><path d="M83.7822 352.44 83.7822 47.52" stroke="#B0B0B0" stroke-width="0.5" stroke-linecap="square" fill="none" clip-path="url(#p8099f4f226)"/></g><g id="line2d_22"><g><use x="83.7822" y="352.44" width="100%" height="100%" xlink:href="#m51961f2b4b" stroke="#000000" stroke-width="0.6"></use></g></g></g><g id="xtick_12"><g id="line2d_23"><path d="M93.7439 352.44 93.7439 47.52" stroke="#B0B0B0" stroke-width="0.5" stroke-linecap="square" fill="none" clip-path="url(#p8099f4f226)"/></g><g id="line2d_24"><g><use x="93.7439" y="352.44" width="100%" height="100%" xlink:href="#m51961f2b4b" stroke="#000000" stroke-width="0.6"></use></g></g></g><g id="xtick_13"><g id="line2d_25"><path d="M102.373 352.44 102.373 47.52" stroke="#B0B0B0" stroke-width="0.5" stroke-linecap="square" fill="none" clip-path="url(#p8099f4f226)"/></g><g id="line2d_26"><g><use x="102.373" y="352.44" width="100%" height="100%" xlink:href="#m51961f2b4b" stroke="#000000" stroke-width="0.6"></use></g></g></g><g id="xtick_14"><g id="line2d_27"><path d="M109.985 352.44 109.985 47.52" stroke="#B0B0B0" stroke-width="0.5" stroke-linecap="square" fill="none" clip-path="url(#p8099f4f226)"/></g><g id="line2d_28"><g><use x="109.985" y="352.44" width="100%" height="100%" xlink:href="#m51961f2b4b" stroke="#000000" stroke-width="0.6"></use></g></g></g><g id="xtick_15"><g id="line2d_29"><path d="M187.789 352.44 187.789 47.52" stroke="#B0B0B0" stroke-width="0.5" stroke-linecap="square" fill="none" clip-path="url(#p8099f4f226)"/></g><g id="line2d_30"><g><use x="187.789" y="352.44" width="100%" height="100%" xlink:href="#m51961f2b4b" stroke="#000000" stroke-width="0.6"></use></g></g></g><g id="xtick_16"><g id="line2d_31"><path d="M206.38 352.44 206.38 47.52" stroke="#B0B0B0" stroke-width="0.5" stroke-linecap="square" fill="none" clip-path="url(#p8099f4f226)"/></g><g id="line2d_32"><g><use x="206.38" y="352.44" width="100%" height="100%" xlink:href="#m51961f2b4b" stroke="#000000" stroke-width="0.6"></use></g></g></g><g id="xtick_17"><g id="line2d_33"><path d="M232.582 352.44 232.582 47.52" stroke="#B0B0B0" stroke-width="0.5" stroke-linecap="square" fill="none" clip-path="url(#p8099f4f226)"/></g><g id="line2d_34"><g><use x="232.582" y="352.44" width="100%" height="100%" xlink:href="#m51961f2b4b" stroke="#000000" stroke-width="0.6"></use></g></g></g><g id="xtick_18"><g id="line2d_35"><path d="M242.544 352.44 242.544 47.52" stroke="#B0B0B0" stroke-width="0.5" stroke-linecap="square" fill="none" clip-path="url(#p8099f4f226)"/></g><g id="line2d_36"><g><use x="242.544" y="352.44" width="100%" height="100%" xlink:href="#m51961f2b4b" stroke="#000000" stroke-width="0.6"></use></g></g></g><g id="xtick_19"><g id="line2d_37"><path d="M251.173 352.44 251.173 47.52" stroke="#B0B0B0" stroke-width="0.5" stroke-linecap="square" fill="none" clip-path="url(#p8099f4f226)"/></g><g id="line2d_38"><g><use x="251.173" y="352.44" width="100%" height="100%" xlink:href="#m51961f2b4b" stroke="#000000" stroke-width="0.6"></use></g></g></g><g id="xtick_20"><g id="line2d_39"><path d="M258.785 352.44 258.785 47.52" stroke="#B0B0B0" stroke-width="0.5" stroke-linecap="square" fill="none" clip-path="url(#p8099f4f226)"/></g><g id="line2d_40"><g><use x="258.785" y="352.44" width="100%" height="100%" xlink:href="#m51961f2b4b" stroke="#000000" stroke-width="0.6"></use></g></g></g><g id="xtick_21"><g id="line2d_41"><path d="M336.589 352.44 336.589 47.52" stroke="#B0B0B0" stroke-width="0.5" stroke-linecap="square" fill="none" clip-path="url(#p8099f4f226)"/></g><g id="line2d_42"><g><use x="336.589" y="352.44" width="100%" height="100%" xlink:href="#m51961f2b4b" stroke="#000000" stroke-width="0.6"></use></g></g></g><g id="xtick_22"><g id="line2d_43"><path d="M355.18 352.44 355.18 47.52" stroke="#B0B0B0" stroke-width="0.5" stroke-linecap="square" fill="none" clip-path="url(#p8099f4f226)"/></g><g id="line2d_44"><g><use x="355.18" y="352.44" width="100%" height="100%" xlink:href="#m51961f2b4b" stroke="#000000" stroke-width="0.6"></use></g></g></g><g id="xtick_23"><g id="line2d_45"><path d="M381.382 352.44 381.382 47.52" stroke="#B0B0B0" stroke-width="0.5" stroke-linecap="square" fill="none" clip-path="url(#p8099f4f226)"/></g><g id="line2d_46"><g><use x="381.382" y="352.44" width="100%" height="100%" xlink:href="#m51961f2b4b" stroke="#000000" stroke-width="0.6"></use></g></g></g><g id="xtick_24"><g id="line2d_47"><path d="M391.344 352.44 391.344 47.52" stroke="#B0B0B0" stroke-width="0.5" stroke-linecap="square" fill="none" clip-path="url(#p8099f4f226)"/></g><g id="line2d_48"><g><use x="391.344" y="352.44" width="100%" height="100%" xlink:href="#m51961f2b4b" stroke="#000000" stroke-width="0.6"></use></g></g></g><g id="xtick_25"><g id="line2d_49"><path d="M399.973 352.44 399.973 47.52" stroke="#B0B0B0" stroke-width="0.5" stroke-linecap="square" fill="none" clip-path="url(#p8099f4f226)"/></g><g id="line2d_50"><g><use x="399.973" y="352.44" width="100%" height="100%" xlink:href="#m51961f2b4b" stroke="#000000" stroke-width="0.6"></use></g></g></g><g id="xtick_26"><g id="line2d_51"><path d="M407.585 352.44 407.585 47.52" stroke="#B0B0B0" stroke-width="0.5" stroke-linecap="square" fill="none" clip-path="url(#p8099f4f226)"/></g><g id="line2d_52"><g><use x="407.585" y="352.44" width="100%" height="100%" xlink:href="#m51961f2b4b" stroke="#000000" stroke-width="0.6"></use></g></g></g><g id="xtick_27"><g id="line2d_53"><path d="M485.389 352.44 485.389 47.52" stroke="#B0B0B0" stroke-width="0.5" stroke-linecap="square" fill="none" clip-path="url(#p8099f4f226)"/></g><g id="line2d_54"><g><use x="485.389" y="352.44" width="100%" height="100%" xlink:href="#m51961f2b4b" stroke="#000000" stroke-width="0.6"></use></g></g></g><g id="xtick_28"><g id="line2d_55"><path d="M503.98 352.44 503.98 47.52" stroke="#B0B0B0" stroke-width="0.5" stroke-linecap="square" fill="none" clip-path="url(#p8099f4f226)"/></g><g id="line2d_56"><g><use x="503.98" y="352.44" width="100%" height="100%" xlink:href="#m51961f2b4b" stroke="#000000" stroke-width="0.6"></use></g></g></g><g id="text_10"><g transform="matrix(0.14 0 0 -0.14 223.73 386.659)"><defs><path d="M1081 4666 2541 4666C2965.67 4666 3289.33 4567 3512 4369 3735.33 4171 3847 3881.33 3847 3500 3847 2987.33 3682.33 2588.33 3353 2303 3023.67 2017.67 2561.33 1875 1966 1875L1172 1875 806 0 172 0 1081 4666ZM1613 4147 1275 2394 2069 2394C2427 2394 2701.67 2485.67 2893 2669 3085 2852.33 3181 3114.67 3181 3456 3181 3674.67 3116 3844.33 2986 3965 2856 4086.33 2673.33 4147 2438 4147L1613 4147Z" id="DejaVuSans-Oblique-50" transform="scale(0.015625 0.015625)"/><path d="M3438 1997 3047 0 2472 0 2578 531C2409.33 323 2217 167.333 2001 64 1785.67-39.3333 1545.67-91 1281-91 983-91 738.667 0 548 182 358 364.667 263 598.667 263 884 263 1292.67 426 1615.67 752 1853 1078 2090.33 1527.33 2209 2100 2209L2900 2209 2931 2363C2935.67 2379.67 2939 2397.67 2941 2417 2943 2437 2944 2467.67 2944 2509 2944 2695 2868.33 2839.33 2717 2942 2566.33 3045.33 2354.33 3097 2081 3097 1893.67 3097 1701.33 3073 1504 3025 1307.33 2977 1105 2905 897 2809L997 3341C1213.67 3422.33 1425.67 3483 1633 3523 1840.33 3563.67 2040.67 3584 2234 3584 2646.67 3584 2960.67 3494.33 3176 3315 3392 3136.33 3500 2876 3500 2534 3500 2465.33 3494.67 2384.67 3484 2292 3474 2199.33 3458.67 2101 3438 1997ZM2816 1759 2241 1759C1769.67 1759 1421 1696 1195 1570 969 1444 856 1248.67 856 984 856 800.667 913.667 657 1029 553 1145 449 1305 397 1509 397 1821.67 397 2094.67 509 2328 733 2561.33 957 2715.67 1256.33 2791 1631L2816 1759Z" id="DejaVuSans-Oblique-61" transform="scale(0.015625 0.015625)"/><path d="M2853 2969C2795 3000.33 2728.33 3024.33 2653 3041 2578.33 3057.67 2498.33 3066 2413 3066 2106.33 3066 1838.33 2949.67 1609 2717 1380.33 2485 1228.33 2174 1153 1784L800 0 225 0 909 3500 1484 3500 1375 2956C1527 3158 1708.67 3313 1920 3421 2132 3529.67 2357.67 3584 2597 3584 2659.67 3584 2721 3580.33 2781 3573 2841.67 3566.33 2902.33 3554.67 2963 3538L2853 2969Z" id="DejaVuSans-Oblique-72" transform="scale(0.015625 0.015625)"/><path d="M2706 3500 2619 3053 1472 3053 1100 1153C1087.33 1082.33 1078 1023 1072 975 1066 927 1063 889.667 1063 863 1063 729.667 1103 632.667 1183 572 1263 511.333 1391.67 481 1569 481L2150 481 2053 0 1503 0C1161.67 0 907 66.6667 739 200 571.667 333.333 488 535.333 488 806 488 854 491 906.667 497 964 503 1021.33 512.333 1084.33 525 1153L897 3053 409 3053 500 3500 978 3500 1172 4494 1747 4494 1556 3500 2706 3500Z" id="DejaVuSans-Oblique-74" transform="scale(0.015625 0.015625)"/><path d="M1172 4863 1747 4863 1606 4134 1031 4134 1172 4863ZM909 3500 1484 3500 800 0 225 0 909 3500Z" id="DejaVuSans-Oblique-69" transform="scale(0.015625 0.015625)"/><path d="M3431 3366 3316 2797C3178 2897 3031.33 2972 2876 3022 2721.33 3072 2560.67 3097 2394 3097 2210.67 3097 2036 3064.67 1870 3000 1704.67 2935.33 1565.67 2843.67 1453 2725 1273.67 2543.67 1135 2331 1037 2087 939.667 1843.67 891 1591.67 891 1331 891 1016.33 969.667 782 1127 628 1284.33 474 1523.33 397 1844 397 2002 397 2170 421 2348 469 2526.67 517 2712.67 588.667 2906 684L2797 116C2630.33 47.3333 2459-4.33333 2283-39 2107-73.6667 1926.33-91 1741-91 1276.33-91 919 25 669 257 419 489.667 294 821.667 294 1253 294 1615.67 359 1949.67 489 2255 619 2560.33 812.333 2834.67 1069 3078 1243.67 3244.67 1448.67 3370.67 1684 3456 1920 3541.33 2177.33 3584 2456 3584 2618.67 3584 2780 3565.67 2940 3529 3100.67 3493 3264.33 3438.67 3431 3366Z" id="DejaVuSans-Oblique-63" transform="scale(0.015625 0.015625)"/><path d="M1172 4863 1747 4863 800 0 225 0 1172 4863Z" id="DejaVuSans-Oblique-6c" transform="scale(0.015625 0.015625)"/><path d="M3078 2063C3084.67 2096.33 3089.33 2130.67 3092 2166 3095.33 2201.33 3097 2236.67 3097 2272 3097 2526 3022.33 2727 2873 2875 2724.33 3023 2522 3097 2266 3097 1980.67 3097 1728.33 3006.67 1509 2826 1290.33 2646 1125 2390.33 1013 2059L3078 2063ZM3578 1613 903 1613C890.333 1533.67 882 1471 878 1425 874 1379 872 1339.33 872 1306 872 1016.67 961 792.667 1139 634 1317 476 1568.67 397 1894 397 2144 397 2380.33 425 2603 481 2826.33 537.667 3033.67 620 3225 728L3116 159C2909.33 75.6667 2696 13.3333 2476-28 2256.67-70 2033.33-91 1806-91 1320.67-91 947.333 25 686 257 424.667 489.667 294 819.667 294 1247 294 1611.67 359 1950.67 489 2264 619 2577.33 810.333 2857 1063 3103 1225 3257 1418 3375.67 1642 3459 1866 3542.33 2104 3584 2356 3584 2752 3584 3067 3465.33 3301 3228 3535.67 2990.67 3653 2672 3653 2272 3653 2176 3646.67 2073.33 3634 1964 3622 1854.67 3603.33 1737.67 3578 1613Z" id="DejaVuSans-Oblique-65" transform="scale(0.015625 0.015625)"/><path d="M3200 3397 3091 2853C2939 2936.33 2778.33 2998.67 2609 3040 2440.33 3082 2266.67 3103 2088 3103 1785.33 3103 1547 3051.33 1373 2948 1199.67 2845.33 1113 2705.33 1113 2528 1113 2322 1315 2163.67 1719 2053 1750.33 2045 1773.33 2038.67 1788 2034L1972 1978C2355.33 1872 2611 1760.67 2739 1644 2867 1527.33 2931 1368 2931 1166 2931 794.667 2783.67 492.333 2489 259 2194.33 25.6667 1808.33-91 1331-91 1145.67-91 951-73 747-37 543-1.66667 318 53.3333 72 128L184 722C394.667 613.333 602 531 806 475 1010.67 419 1206.67 391 1394 391 1675.33 391 1904 451.333 2080 572 2256 692.667 2344 845.667 2344 1031 2344 1231 2112.67 1392.67 1650 1516L1591 1531 1394 1581C1102 1658.33 888.333 1760 753 1886 617.667 2012 550 2173 550 2369 550 2741.67 690 3037.33 970 3256 1250.67 3474.67 1631.67 3584 2113 3584 2302.33 3584 2487 3568.33 2667 3537 2847.67 3506.33 3025.33 3459.67 3200 3397Z" id="DejaVuSans-Oblique-73" transform="scale(0.015625 0.015625)"/><path d="M744 3500 3475 3500 3372 2975 738 459 2913 459 2822 0-19 0 84 525 2719 3041 653 3041 744 3500Z" id="DejaVuSans-Oblique-7a" transform="scale(0.015625 0.015625)"/><path d="M750 794 1409 794 1409 256 897-744 494-744 750 256 750 794Z" id="DejaVuSans-2c" transform="scale(0.015625 0.015625)"/><path d="M2675 525C2521 323 2338.67 169.667 2128 65 1918-39 1684.67-91 1428-91 1078-91 801.333 28.3333 598 267 395.333 505.667 294 832.333 294 1247 294 1593 355.333 1922.67 478 2236 601.333 2549.33 779.667 2830 1013 3078 1167 3242.67 1340.67 3368 1534 3454 1728 3540.67 1931.33 3584 2144 3584 2368.67 3584 2567 3529.67 2739 3421 2911 3313 3044 3158 3138 2956L3513 4863 4091 4863 3144 0 2566 0 2675 525ZM891 1350C891 1048 959 812.667 1095 644 1231.67 475.333 1421 391 1663 391 1841.67 391 2007.67 434 2161 520 2314.33 606.667 2449.33 734.333 2566 903 2688.67 1078.33 2785.33 1280.33 2856 1509 2927.33 1738.33 2963 1964.67 2963 2188 2963 2477.33 2894.67 2703 2758 2865 2621.33 3027.67 2433.33 3109 2194 3109 2012.67 3109 1843.67 3066.33 1687 2981 1531 2895.67 1398 2773 1288 2613 1166.67 2439.67 1070 2238.33 998 2009 926.667 1780.33 891 1560.67 891 1350Z" id="DejaVuSans-Oblique-64" transform="scale(0.015625 0.015625)"/><path d="M1984 4856C1705.33 4377.33 1498 3903.33 1362 3434 1226.67 2965.33 1159 2490.33 1159 2009 1159 1528.33 1227.33 1052 1364 580 1500.67 108 1707.33-366.667 1984-844L1484-844C1172-354 938.333 127.333 783 600 627.667 1072.67 550 1542.33 550 2009 550 2473.67 627 2941.33 781 3412 935.667 3883.33 1170 4364.67 1484 4856L1984 4856Z" id="DejaVuSans-28" transform="scale(0.015625 0.015625)"/><path d="M5747 2113 5338 0 4763 0 5166 2094C5182.67 2183.33 5195 2260.33 5203 2325 5211.67 2389.67 5216 2445 5216 2491 5216 2678.33 5163.67 2824 5059 2928 4955 3032 4809.33 3084 4622 3084 4342.67 3084 4093.67 2979.33 3875 2770 3656.33 2560.67 3514.67 2288.33 3450 1953L3066 0 2491 0 2900 2094C2916.67 2170.67 2929 2241.67 2937 2307 2945.67 2373 2950 2432 2950 2484 2950 2674 2898 2821.33 2794 2926 2690 3031.33 2546.33 3084 2363 3084 2079.67 3084 1828.33 2979.33 1609 2770 1390.33 2560.67 1248.67 2288.33 1184 1953L800 0 225 0 909 3500 1484 3500 1375 2956C1531 3160.67 1713.67 3316.33 1923 3423 2133 3530.33 2357.67 3584 2597 3584 2851 3584 3059.67 3517.33 3223 3384 3387 3250.67 3485.67 3065.33 3519 2828 3693.67 3074 3896 3261.33 4126 3390 4356.67 3519.33 4600 3584 4856 3584 5156 3584 5387.67 3497.67 5551 3325 5715 3152.33 5797 2907.67 5797 2591 5797 2522.33 5792.67 2446.67 5784 2364 5776 2282 5763.67 2198.33 5747 2113Z" id="DejaVuSans-Oblique-6d" transform="scale(0.015625 0.015625)"/><path d="M513 4856 1013 4856C1325 4364.67 1558.67 3883.33 1714 3412 1869.33 2941.33 1947 2473.67 1947 2009 1947 1542.33 1869.33 1072.67 1714 600 1558.67 127.333 1325-354 1013-844L513-844C789.667-366.667 996.333 108 1133 580 1269.67 1052 1338 1528.33 1338 2009 1338 2490.33 1269.67 2965.33 1133 3434 996.333 3903.33 789.667 4377.33 513 4856Z" id="DejaVuSans-29" transform="scale(0.015625 0.015625)"/></defs><use width="100%" height="100%" xlink:href="#DejaVuSans-Oblique-50" transform="matrix(1 0 0 1 0 0.015625)"></use><use width="100%" height="100%" xlink:href="#DejaVuSans-Oblique-61" transform="translate(60.3027 0.015625)"></use><use width="100%" height="100%" xlink:href="#DejaVuSans-Oblique-72" transform="translate(121.582 0.015625)"></use><use width="100%" height="100%" xlink:href="#DejaVuSans-Oblique-74" transform="translate(162.695 0.015625)"></use><use width="100%" height="100%" xlink:href="#DejaVuSans-Oblique-69" transform="translate(201.904 0.015625)"></use><use width="100%" height="100%" xlink:href="#DejaVuSans-Oblique-63" transform="translate(229.688 0.015625)"></use><use width="100%" height="100%" xlink:href="#DejaVuSans-Oblique-6c" transform="translate(284.668 0.015625)"></use><use width="100%" height="100%" xlink:href="#DejaVuSans-Oblique-65" transform="translate(312.451 0.015625)"></use><use width="100%" height="100%" xlink:href="#DejaVuSans-Oblique-73" transform="translate(406.445 0.015625)"></use><use width="100%" height="100%" xlink:href="#DejaVuSans-Oblique-69" transform="translate(458.545 0.015625)"></use><use width="100%" height="100%" xlink:href="#DejaVuSans-Oblique-7a" transform="translate(486.328 0.015625)"></use><use width="100%" height="100%" xlink:href="#DejaVuSans-Oblique-65" transform="translate(538.818 0.015625)"></use><use width="100%" height="100%" xlink:href="#DejaVuSans-2c" transform="translate(600.341 0.015625)"></use><use width="100%" height="100%" xlink:href="#DejaVuSans-Oblique-64" transform="translate(651.611 0.015625)"></use><use width="100%" height="100%" xlink:href="#DejaVuSans-28" transform="translate(747.558 0.015625)"></use><use width="100%" height="100%" xlink:href="#DejaVuSans-Oblique-6d" transform="translate(786.572 0.015625)"></use><use width="100%" height="100%" xlink:href="#DejaVuSans-Oblique-6d" transform="translate(883.984 0.015625)"></use><use width="100%" height="100%" xlink:href="#DejaVuSans-29" transform="translate(981.396 0.015625)"></use></g></g></g><g id="matplotlib.axis_2"><g id="ytick_1"><g id="line2d_57"><path d="M72 341.147 518.4 341.147" stroke="#808080" stroke-width="0.5" stroke-linecap="square" fill="none" clip-path="url(#p8099f4f226)"/></g><g id="line2d_58"><defs><path d="M0 0-3.5 0" id="m042e64789c" stroke="#000000" stroke-width="0.8"/></defs><g><use x="72" y="341.147" width="100%" height="100%" xlink:href="#m042e64789c" stroke="#000000" stroke-width="0.8"></use></g></g><g id="text_11"><g transform="matrix(0.13 0 0 -0.13 56.68 346.086)"><use width="100%" height="100%" xlink:href="#DejaVuSans-30" transform="matrix(1 0 0 1 0 0.78125)"></use></g></g></g><g id="ytick_2"><g id="line2d_59"><path d="M72 284.68 518.4 284.68" stroke="#808080" stroke-width="0.5" stroke-linecap="square" fill="none" clip-path="url(#p8099f4f226)"/></g><g id="line2d_60"><g><use x="72" y="284.68" width="100%" height="100%" xlink:href="#m042e64789c" stroke="#000000" stroke-width="0.8"></use></g></g><g id="text_12"><g transform="matrix(0.13 0 0 -0.13 48.36 289.619)"><use width="100%" height="100%" xlink:href="#DejaVuSans-32" transform="matrix(1 0 0 1 0 0.78125)"></use><use width="100%" height="100%" xlink:href="#DejaVuSans-30" transform="translate(63.623 0.78125)"></use></g></g></g><g id="ytick_3"><g id="line2d_61"><path d="M72 228.213 518.4 228.213" stroke="#808080" stroke-width="0.5" stroke-linecap="square" fill="none" clip-path="url(#p8099f4f226)"/></g><g id="line2d_62"><g><use x="72" y="228.213" width="100%" height="100%" xlink:href="#m042e64789c" stroke="#000000" stroke-width="0.8"></use></g></g><g id="text_13"><g transform="matrix(0.13 0 0 -0.13 48.36 233.152)"><defs><path d="M2419 4116 825 1625 2419 1625 2419 4116ZM2253 4666 3047 4666 3047 1625 3713 1625 3713 1100 3047 1100 3047 0 2419 0 2419 1100 313 1100 313 1709 2253 4666Z" id="DejaVuSans-34" transform="scale(0.015625 0.015625)"/></defs><use width="100%" height="100%" xlink:href="#DejaVuSans-34" transform="matrix(1 0 0 1 0 0.78125)"></use><use width="100%" height="100%" xlink:href="#DejaVuSans-30" transform="translate(63.623 0.78125)"></use></g></g></g><g id="ytick_4"><g id="line2d_63"><path d="M72 171.747 518.4 171.747" stroke="#808080" stroke-width="0.5" stroke-linecap="square" fill="none" clip-path="url(#p8099f4f226)"/></g><g id="line2d_64"><g><use x="72" y="171.747" width="100%" height="100%" xlink:href="#m042e64789c" stroke="#000000" stroke-width="0.8"></use></g></g><g id="text_14"><g transform="matrix(0.13 0 0 -0.13 48.36 176.686)"><defs><path d="M2113 2584C1829.67 2584 1605 2487 1439 2293 1273.67 2099.67 1191 1834.33 1191 1497 1191 1161.67 1273.67 896.333 1439 701 1605 506.333 1829.67 409 2113 409 2396.33 409 2620.67 506.333 2786 701 2951.33 896.333 3034 1161.67 3034 1497 3034 1834.33 2951.33 2099.67 2786 2293 2620.67 2487 2396.33 2584 2113 2584ZM3366 4563 3366 3988C3207.33 4062.67 3047.33 4119.67 2886 4159 2724.67 4199 2564.67 4219 2406 4219 1989.33 4219 1671 4078.33 1451 3797 1231.67 3515.67 1106.33 3090.67 1075 2522 1197.67 2703.33 1351.67 2842.33 1537 2939 1723 3035.67 1927.33 3084 2150 3084 2618.67 3084 2989 2941.67 3261 2657 3533 2373 3669 1986.33 3669 1497 3669 1017.67 3527.33 633 3244 343 2960.67 53.6667 2583.67-91 2113-91 1573-91 1160.33 115.667 875 529 589.667 943 447 1542.67 447 2328 447 3065.33 622 3653.33 972 4092 1322 4530.67 1791.67 4750 2381 4750 2539.67 4750 2699.67 4734.33 2861 4703 3022.33 4671.67 3190.67 4625 3366 4563Z" id="DejaVuSans-36" transform="scale(0.015625 0.015625)"/></defs><use width="100%" height="100%" xlink:href="#DejaVuSans-36" transform="matrix(1 0 0 1 0 0.78125)"></use><use width="100%" height="100%" xlink:href="#DejaVuSans-30" transform="translate(63.623 0.78125)"></use></g></g></g><g id="ytick_5"><g id="line2d_65"><path d="M72 115.28 518.4 115.28" stroke="#808080" stroke-width="0.5" stroke-linecap="square" fill="none" clip-path="url(#p8099f4f226)"/></g><g id="line2d_66"><g><use x="72" y="115.28" width="100%" height="100%" xlink:href="#m042e64789c" stroke="#000000" stroke-width="0.8"></use></g></g><g id="text_15"><g transform="matrix(0.13 0 0 -0.13 48.36 120.219)"><defs><path d="M2034 2216C1734 2216 1498 2135.67 1326 1975 1154.67 1814.33 1069 1593.67 1069 1313 1069 1031.67 1154.67 810.667 1326 650 1498 489.333 1734 409 2034 409 2334 409 2570.33 489.667 2743 651 2916.33 813 3003 1033.67 3003 1313 3003 1593.67 2917 1814.33 2745 1975 2573.67 2135.67 2336.67 2216 2034 2216ZM1403 2484C1132.33 2550.67 921.333 2676.67 770 2862 619.333 3048 544 3274.33 544 3541 544 3913.67 676.667 4208.33 942 4425 1208 4641.67 1572 4750 2034 4750 2498.67 4750 2863.33 4641.67 3128 4425 3392.67 4208.33 3525 3913.67 3525 3541 3525 3274.33 3449.33 3048 3298 2862 3147.33 2676.67 2937.67 2550.67 2669 2484 2973 2413.33 3209.67 2274.67 3379 2068 3549 1862 3634 1610.33 3634 1313 3634 860.333 3496 513 3220 271 2944 29.6667 2548.67-91 2034-91 1520-91 1124.67 29.6667 848 271 572 513 434 860.333 434 1313 434 1610.33 519.333 1862 690 2068 861.333 2274.67 1099 2413.33 1403 2484ZM1172 3481C1172 3239.67 1247.33 3051.33 1398 2916 1549.33 2780.67 1761.33 2713 2034 2713 2305.33 2713 2517.33 2780.67 2670 2916 2823.33 3051.33 2900 3239.67 2900 3481 2900 3723 2823.33 3911.67 2670 4047 2517.33 4182.33 2305.33 4250 2034 4250 1761.33 4250 1549.33 4182.33 1398 4047 1247.33 3911.67 1172 3723 1172 3481Z" id="DejaVuSans-38" transform="scale(0.015625 0.015625)"/></defs><use width="100%" height="100%" xlink:href="#DejaVuSans-38" transform="matrix(1 0 0 1 0 0.78125)"></use><use width="100%" height="100%" xlink:href="#DejaVuSans-30" transform="translate(63.623 0.78125)"></use></g></g></g><g id="ytick_6"><g id="line2d_67"><path d="M72 58.8133 518.4 58.8133" stroke="#808080" stroke-width="0.5" stroke-linecap="square" fill="none" clip-path="url(#p8099f4f226)"/></g><g id="line2d_68"><g><use x="72" y="58.8133" width="100%" height="100%" xlink:href="#m042e64789c" stroke="#000000" stroke-width="0.8"></use></g></g><g id="text_16"><g transform="matrix(0.13 0 0 -0.13 40.17 63.7523)"><use width="100%" height="100%" xlink:href="#DejaVuSans-31" transform="matrix(1 0 0 1 0 0.78125)"></use><use width="100%" height="100%" xlink:href="#DejaVuSans-30" transform="translate(63.623 0.78125)"></use><use width="100%" height="100%" xlink:href="#DejaVuSans-30" transform="translate(127.246 0.78125)"></use></g></g></g><g id="ytick_7"><g id="line2d_69"><path d="M72 352.44 518.4 352.44" stroke="#B0B0B0" stroke-width="0.5" stroke-linecap="square" fill="none" clip-path="url(#p8099f4f226)"/></g><g id="line2d_70"><defs><path d="M0 0-2 0" id="md13d3d751e" stroke="#000000" stroke-width="0.6"/></defs><g><use x="72" y="352.44" width="100%" height="100%" xlink:href="#md13d3d751e" stroke="#000000" stroke-width="0.6"></use></g></g></g><g id="ytick_8"><g id="line2d_71"><path d="M72 329.853 518.4 329.853" stroke="#B0B0B0" stroke-width="0.5" stroke-linecap="square" fill="none" clip-path="url(#p8099f4f226)"/></g><g id="line2d_72"><g><use x="72" y="329.853" width="100%" height="100%" xlink:href="#md13d3d751e" stroke="#000000" stroke-width="0.6"></use></g></g></g><g id="ytick_9"><g id="line2d_73"><path d="M72 318.56 518.4 318.56" stroke="#B0B0B0" stroke-width="0.5" stroke-linecap="square" fill="none" clip-path="url(#p8099f4f226)"/></g><g id="line2d_74"><g><use x="72" y="318.56" width="100%" height="100%" xlink:href="#md13d3d751e" stroke="#000000" stroke-width="0.6"></use></g></g></g><g id="ytick_10"><g id="line2d_75"><path d="M72 307.267 518.4 307.267" stroke="#B0B0B0" stroke-width="0.5" stroke-linecap="square" fill="none" clip-path="url(#p8099f4f226)"/></g><g id="line2d_76"><g><use x="72" y="307.267" width="100%" height="100%" xlink:href="#md13d3d751e" stroke="#000000" stroke-width="0.6"></use></g></g></g><g id="ytick_11"><g id="line2d_77"><path d="M72 295.973 518.4 295.973" stroke="#B0B0B0" stroke-width="0.5" stroke-linecap="square" fill="none" clip-path="url(#p8099f4f226)"/></g><g id="line2d_78"><g><use x="72" y="295.973" width="100%" height="100%" xlink:href="#md13d3d751e" stroke="#000000" stroke-width="0.6"></use></g></g></g><g id="ytick_12"><g id="line2d_79"><path d="M72 273.387 518.4 273.387" stroke="#B0B0B0" stroke-width="0.5" stroke-linecap="square" fill="none" clip-path="url(#p8099f4f226)"/></g><g id="line2d_80"><g><use x="72" y="273.387" width="100%" height="100%" xlink:href="#md13d3d751e" stroke="#000000" stroke-width="0.6"></use></g></g></g><g id="ytick_13"><g id="line2d_81"><path d="M72 262.093 518.4 262.093" stroke="#B0B0B0" stroke-width="0.5" stroke-linecap="square" fill="none" clip-path="url(#p8099f4f226)"/></g><g id="line2d_82"><g><use x="72" y="262.093" width="100%" height="100%" xlink:href="#md13d3d751e" stroke="#000000" stroke-width="0.6"></use></g></g></g><g id="ytick_14"><g id="line2d_83"><path d="M72 250.8 518.4 250.8" stroke="#B0B0B0" stroke-width="0.5" stroke-linecap="square" fill="none" clip-path="url(#p8099f4f226)"/></g><g id="line2d_84"><g><use x="72" y="250.8" width="100%" height="100%" xlink:href="#md13d3d751e" stroke="#000000" stroke-width="0.6"></use></g></g></g><g id="ytick_15"><g id="line2d_85"><path d="M72 239.507 518.4 239.507" stroke="#B0B0B0" stroke-width="0.5" stroke-linecap="square" fill="none" clip-path="url(#p8099f4f226)"/></g><g id="line2d_86"><g><use x="72" y="239.507" width="100%" height="100%" xlink:href="#md13d3d751e" stroke="#000000" stroke-width="0.6"></use></g></g></g><g id="ytick_16"><g id="line2d_87"><path d="M72 216.92 518.4 216.92" stroke="#B0B0B0" stroke-width="0.5" stroke-linecap="square" fill="none" clip-path="url(#p8099f4f226)"/></g><g id="line2d_88"><g><use x="72" y="216.92" width="100%" height="100%" xlink:href="#md13d3d751e" stroke="#000000" stroke-width="0.6"></use></g></g></g><g id="ytick_17"><g id="line2d_89"><path d="M72 205.627 518.4 205.627" stroke="#B0B0B0" stroke-width="0.5" stroke-linecap="square" fill="none" clip-path="url(#p8099f4f226)"/></g><g id="line2d_90"><g><use x="72" y="205.627" width="100%" height="100%" xlink:href="#md13d3d751e" stroke="#000000" stroke-width="0.6"></use></g></g></g><g id="ytick_18"><g id="line2d_91"><path d="M72 194.333 518.4 194.333" stroke="#B0B0B0" stroke-width="0.5" stroke-linecap="square" fill="none" clip-path="url(#p8099f4f226)"/></g><g id="line2d_92"><g><use x="72" y="194.333" width="100%" height="100%" xlink:href="#md13d3d751e" stroke="#000000" stroke-width="0.6"></use></g></g></g><g id="ytick_19"><g id="line2d_93"><path d="M72 183.04 518.4 183.04" stroke="#B0B0B0" stroke-width="0.5" stroke-linecap="square" fill="none" clip-path="url(#p8099f4f226)"/></g><g id="line2d_94"><g><use x="72" y="183.04" width="100%" height="100%" xlink:href="#md13d3d751e" stroke="#000000" stroke-width="0.6"></use></g></g></g><g id="ytick_20"><g id="line2d_95"><path d="M72 160.453 518.4 160.453" stroke="#B0B0B0" stroke-width="0.5" stroke-linecap="square" fill="none" clip-path="url(#p8099f4f226)"/></g><g id="line2d_96"><g><use x="72" y="160.453" width="100%" height="100%" xlink:href="#md13d3d751e" stroke="#000000" stroke-width="0.6"></use></g></g></g><g id="ytick_21"><g id="line2d_97"><path d="M72 149.16 518.4 149.16" stroke="#B0B0B0" stroke-width="0.5" stroke-linecap="square" fill="none" clip-path="url(#p8099f4f226)"/></g><g id="line2d_98"><g><use x="72" y="149.16" width="100%" height="100%" xlink:href="#md13d3d751e" stroke="#000000" stroke-width="0.6"></use></g></g></g><g id="ytick_22"><g id="line2d_99"><path d="M72 137.867 518.4 137.867" stroke="#B0B0B0" stroke-width="0.5" stroke-linecap="square" fill="none" clip-path="url(#p8099f4f226)"/></g><g id="line2d_100"><g><use x="72" y="137.867" width="100%" height="100%" xlink:href="#md13d3d751e" stroke="#000000" stroke-width="0.6"></use></g></g></g><g id="ytick_23"><g id="line2d_101"><path d="M72 126.573 518.4 126.573" stroke="#B0B0B0" stroke-width="0.5" stroke-linecap="square" fill="none" clip-path="url(#p8099f4f226)"/></g><g id="line2d_102"><g><use x="72" y="126.573" width="100%" height="100%" xlink:href="#md13d3d751e" stroke="#000000" stroke-width="0.6"></use></g></g></g><g id="ytick_24"><g id="line2d_103"><path d="M72 103.987 518.4 103.987" stroke="#B0B0B0" stroke-width="0.5" stroke-linecap="square" fill="none" clip-path="url(#p8099f4f226)"/></g><g id="line2d_104"><g><use x="72" y="103.987" width="100%" height="100%" xlink:href="#md13d3d751e" stroke="#000000" stroke-width="0.6"></use></g></g></g><g id="ytick_25"><g id="line2d_105"><path d="M72 92.6933 518.4 92.6933" stroke="#B0B0B0" stroke-width="0.5" stroke-linecap="square" fill="none" clip-path="url(#p8099f4f226)"/></g><g id="line2d_106"><g><use x="72" y="92.6933" width="100%" height="100%" xlink:href="#md13d3d751e" stroke="#000000" stroke-width="0.6"></use></g></g></g><g id="ytick_26"><g id="line2d_107"><path d="M72 81.4 518.4 81.4" stroke="#B0B0B0" stroke-width="0.5" stroke-linecap="square" fill="none" clip-path="url(#p8099f4f226)"/></g><g id="line2d_108"><g><use x="72" y="81.4" width="100%" height="100%" xlink:href="#md13d3d751e" stroke="#000000" stroke-width="0.6"></use></g></g></g><g id="ytick_27"><g id="line2d_109"><path d="M72 70.1067 518.4 70.1067" stroke="#B0B0B0" stroke-width="0.5" stroke-linecap="square" fill="none" clip-path="url(#p8099f4f226)"/></g><g id="line2d_110"><g><use x="72" y="70.1067" width="100%" height="100%" xlink:href="#md13d3d751e" stroke="#000000" stroke-width="0.6"></use></g></g></g><g id="ytick_28"><g id="line2d_111"><path d="M72 47.52 518.4 47.52" stroke="#B0B0B0" stroke-width="0.5" stroke-linecap="square" fill="none" clip-path="url(#p8099f4f226)"/></g><g id="line2d_112"><g><use x="72" y="47.52" width="100%" height="100%" xlink:href="#md13d3d751e" stroke="#000000" stroke-width="0.6"></use></g></g></g><g id="text_17"><g transform="matrix(8.57253e-18 -0.14 -0.14 -8.57253e-18 33.23 272.5)"><defs><path d="M3566 2113 3156 0 2578 0 2988 2091C3006.67 2189 3021 2275.33 3031 2350 3041.67 2425.33 3047 2484.67 3047 2528 3047 2703.33 2991.67 2839.67 2881 2937 2771 3035 2617 3084 2419 3084 2110.33 3084 1844.67 2981.33 1622 2776 1399.33 2571.33 1253.33 2293 1184 1941L800 0 225 0 903 3500 1478 3500 1363 2950C1523 3152 1715.33 3308 1940 3418 2165.33 3528.67 2402 3584 2650 3584 2958.67 3584 3197.67 3500.67 3367 3334 3537 3167.33 3622 2933 3622 2631 3622 2556.33 3617.33 2476.33 3608 2391 3598.67 2305.67 3584.67 2213 3566 2113Z" id="DejaVuSans-Oblique-6e" transform="scale(0.015625 0.015625)"/><path d="M3816 3500 3219 434C3104.33-159.333 2885-601.667 2561-893 2237-1185 1801-1331 1253-1331 1051-1331 863.333-1316 690-1286 517.333-1256 356-1209.67 206-1147L313-588C454.333-679.333 604-746.667 762-790 920.667-834 1089.67-856 1269-856 1633.67-856 1933-756.333 2167-557 2401.67-358.333 2556.33-72.6667 2631 300L2681 563C2521 379.667 2334.67 240 2122 144 1909.33 48 1680 0 1434 0 1080 0 801.333 117 598 351 395.333 585.667 294 908.333 294 1319 294 1641.67 355.333 1957.67 478 2267 601.333 2576.33 774.333 2851 997 3091 1145 3249 1317.33 3370.67 1514 3456 1710.67 3541.33 1916.33 3584 2131 3584 2366.33 3584 2571.33 3529.33 2746 3420 2921.33 3310.67 3052 3156 3138 2956L3238 3500 3816 3500ZM2950 2216C2950 2499.33 2883.33 2718 2750 2872 2616.67 3026 2427 3103 2181 3103 2029 3103 1884.33 3072.67 1747 3012 1609.67 2952 1492 2867.67 1394 2759 1235.33 2580.33 1111.67 2369.67 1023 2127 935 1884.33 891 1633.67 891 1375 891 1087.67 958 866.667 1092 712 1226.67 558 1420 481 1672 481 2036.67 481 2340.67 646 2584 976 2828 1306.67 2950 1720 2950 2216Z" id="DejaVuSans-Oblique-67" transform="scale(0.015625 0.015625)"/><path d="M3059 4863 2969 4384 2419 4384C2210.33 4384 2058.67 4343 1964 4261 1869.33 4179 1799 4028.33 1753 3809L1691 3500 2638 3500 2553 3053 1606 3053 1013 0 434 0 1031 3053 481 3053 563 3500 1113 3500 1159 3744C1238.33 4156.67 1377.33 4446.33 1576 4613 1775.33 4779.67 2088.67 4863 2516 4863L3059 4863Z" id="DejaVuSans-Oblique-66" transform="scale(0.015625 0.015625)"/><path d="M4653 2053C4471.67 2053 4329.33 1976 4226 1822 4123.33 1668 4072 1453.33 4072 1178 4072 907.333 4123.33 694.333 4226 539 4329.33 383.667 4471.67 306 4653 306 4830.33 306 4970.33 383.667 5073 539 5176.33 694.333 5228 907.333 5228 1178 5228 1451.33 5176.33 1665.33 5073 1820 4970.33 1975.33 4830.33 2053 4653 2053ZM4653 2450C4982.33 2450 5243.67 2335.33 5437 2106 5631 1877.33 5728 1568 5728 1178 5728 788.667 5630.67 479.667 5436 251 5241.33 23 4980.33-91 4653-91 4319.67-91 4056 23 3862 251 3668.67 479.667 3572 788.667 3572 1178 3572 1570 3669.33 1880 3864 2108 4058.67 2336 4321.67 2450 4653 2450ZM1428 4353C1248.67 4353 1107.33 4275.33 1004 4120 901.333 3965.33 850 3752.33 850 3481 850 3206.33 901 2991.67 1003 2837 1105 2683 1246.67 2606 1428 2606 1609.33 2606 1751.33 2683 1854 2837 1957.33 2991.67 2009 3206.33 2009 3481 2009 3749.67 1957 3962 1853 4118 1749 4274.67 1607.33 4353 1428 4353ZM4250 4750 4750 4750 1831-91 1331-91 4250 4750ZM1428 4750C1757.33 4750 2019.67 4636 2215 4408 2411 4180 2509 3871 2509 3481 2509 3087.67 2411.67 2777.33 2217 2550 2022.33 2322.67 1759.33 2209 1428 2209 1096.67 2209 834.667 2323 642 2551 449.333 2779.67 353 3089.67 353 3481 353 3869 449.667 4177.33 643 4406 837 4635.33 1098.67 4750 1428 4750Z" id="DejaVuSans-25" transform="scale(0.015625 0.015625)"/></defs><use width="100%" height="100%" xlink:href="#DejaVuSans-Oblique-50" transform="matrix(1 0 0 1 0 0.015625)"></use><use width="100%" height="100%" xlink:href="#DejaVuSans-Oblique-65" transform="translate(60.3027 0.015625)"></use><use width="100%" height="100%" xlink:href="#DejaVuSans-Oblique-72" transform="translate(121.826 0.015625)"></use><use width="100%" height="100%" xlink:href="#DejaVuSans-Oblique-63" transform="translate(162.939 0.015625)"></use><use width="100%" height="100%" xlink:href="#DejaVuSans-Oblique-65" transform="translate(217.92 0.015625)"></use><use width="100%" height="100%" xlink:href="#DejaVuSans-Oblique-6e" transform="translate(279.443 0.015625)"></use><use width="100%" height="100%" xlink:href="#DejaVuSans-Oblique-74" transform="translate(342.822 0.015625)"></use><use width="100%" height="100%" xlink:href="#DejaVuSans-Oblique-61" transform="translate(382.031 0.015625)"></use><use width="100%" height="100%" xlink:href="#DejaVuSans-Oblique-67" transform="translate(443.311 0.015625)"></use><use width="100%" height="100%" xlink:href="#DejaVuSans-Oblique-65" transform="translate(506.787 0.015625)"></use><use width="100%" height="100%" xlink:href="#DejaVuSans-Oblique-66" transform="translate(600.781 0.015625)"></use><use width="100%" height="100%" xlink:href="#DejaVuSans-Oblique-69" transform="translate(635.986 0.015625)"></use><use width="100%" height="100%" xlink:href="#DejaVuSans-Oblique-6e" transform="translate(663.769 0.015625)"></use><use width="100%" height="100%" xlink:href="#DejaVuSans-Oblique-65" transform="translate(727.148 0.015625)"></use><use width="100%" height="100%" xlink:href="#DejaVuSans-Oblique-72" transform="translate(788.672 0.015625)"></use><use width="100%" height="100%" xlink:href="#DejaVuSans-28" transform="translate(862.255 0.015625)"></use><use width="100%" height="100%" xlink:href="#DejaVuSans-25" transform="translate(901.269 0.015625)"></use><use width="100%" height="100%" xlink:href="#DejaVuSans-29" transform="translate(996.288 0.015625)"></use></g></g></g><g id="line2d_113"><path d="M265.593 341.147 266.886 338.224 268.153 335.076 269.396 332.348 270.615 329.405 271.812 326.511 272.987 323.5 274.141 320.851 275.275 317.986 276.389 315.405 277.484 312.414 278.561 309.422 279.621 306.802 280.663 303.898 281.689 300.985 282.698 297.964 283.693 295.364 284.672 292.665 285.636 289.732 286.587 286.946 287.523 284.023 288.447 281.178 289.357 278.274 290.254 275.293 291.14 272.203 292.013 269.222 292.875 266.24 293.725 263.522 294.564 260.96 295.393 258.037 296.211 254.782 297.018 251.771 297.816 248.847 298.604 246.13 299.383 243.05 300.152 240.195 300.913 237.262 301.664 234.32 302.407 231.455 303.141 228.649 303.867 225.707 304.585 223.038 305.295 220.134 305.998 217.23 306.693 214.346 307.38 211.228 308.061 208.432 308.734 205.479 309.4 202.761 310.059 199.907 310.712 196.944 311.358 194.275 311.998 191.372 312.632 188.674 313.259 185.653 313.881 182.935 314.496 180.188 315.106 177.48 315.71 174.693 316.308 171.907 316.901 169.023 317.488 166.276 318.07 163.284 318.647 160.586 319.219 157.477 319.786 154.583 320.348 151.748 320.905 149.04 321.458 146.117 322.005 143.272 322.548 140.544 323.087 137.856 323.621 134.639 324.151 131.921 324.676 129.311 325.197 126.535 325.714 123.543 326.227 120.287 326.736 117.227 327.241 114.5 327.742 111.665 328.239 108.702 328.732 105.857 329.222 103.374 329.708 100.608 330.19 97.6062 330.669 94.8101 331.144 92.1021 331.615 89.5309 332.084 86.5295 332.549 83.8899 333.01 81.084 333.469 78.6301 333.924 75.8927 334.376 72.9989 334.824 70.2224 335.27 67.1917 335.713 64.2588 336.152 61.365 336.589 58.8133" stroke="#1F77B4" stroke-width="1.5" stroke-linecap="square" fill="none" clip-path="url(#p8099f4f226)"/></g><g id="line2d_114"><path d="M265.593 341.147 295.966 312.913 310.387 256.447 327.341 87.0467 336.589 70.1067 346.551 58.8133" stroke="#FF7F0E" stroke-width="1.5" stroke-linecap="square" fill="none" clip-path="url(#p8099f4f226)"/></g><g id="patch_3"><path d="M72 352.44 72 47.52" stroke="#000000" stroke-width="0.8" stroke-linecap="square" stroke-linejoin="miter" fill="none"/></g><g id="patch_4"><path d="M518.4 352.44 518.4 47.52" stroke="#000000" stroke-width="0.8" stroke-linecap="square" stroke-linejoin="miter" fill="none"/></g><g id="patch_5"><path d="M72 352.44 518.4 352.44" stroke="#000000" stroke-width="0.8" stroke-linecap="square" stroke-linejoin="miter" fill="none"/></g><g id="patch_6"><path d="M72 47.52 518.4 47.52" stroke="#000000" stroke-width="0.8" stroke-linecap="square" stroke-linejoin="miter" fill="none"/></g><g id="text_18"><g transform="matrix(0.14 0 0 -0.14 336.589 129.397)"><defs><path d="M1081 4666 2438 4666C3158.67 4666 3702.67 4513.33 4070 4208 4438 3902.67 4622 3449 4622 2847 4622 2449 4552 2066 4412 1698 4272.67 1330.67 4080 1021 3834 769 3586.67 510.333 3272.33 317.333 2891 190 2509.67 63.3333 2058.67 0 1538 0L172 0 1081 4666ZM1613 4147 909 519 1734 519C2440.67 519 2987.67 722 3375 1128 3762.33 1534.67 3956 2107.67 3956 2847 3956 3295 3831 3623.67 3581 3833 3331 4042.33 2939.33 4147 2406 4147L1613 4147Z" id="DejaVuSans-Oblique-44" transform="scale(0.015625 0.015625)"/><path d="M3841 3500 2234 1784 3219 0 2559 0 1819 1388 531 0-166 0 1556 1844 641 3500 1300 3500 1972 2234 3144 3500 3841 3500Z" id="DejaVuSans-Oblique-78" transform="scale(0.015625 0.015625)"/><path d="M678 2906 4684 2906 4684 2381 678 2381 678 2906ZM678 1631 4684 1631 4684 1100 678 1100 678 1631Z" id="DejaVuSans-3d" transform="scale(0.015625 0.015625)"/><path d="M2597 2516C2899 2451.33 3134.67 2316.67 3304 2112 3474 1908 3559 1656 3559 1356 3559 896 3400.67 539.667 3084 287 2767.33 35 2317.33-91 1734-91 1538.67-91 1337.33-71.6667 1130-33 922.667 5.66667 708.667 63.6667 488 141L488 750C662.667 648 854 571 1062 519 1270.67 467 1488.67 441 1716 441 2111.33 441 2412.67 519 2620 675 2827.33 831 2931 1058 2931 1356 2931 1631.33 2834.67 1846.33 2642 2001 2449.33 2156.33 2181.33 2234 1838 2234L1294 2234 1294 2753 1863 2753C2173 2753 2410.33 2815 2575 2939 2739.67 3063 2822 3241.67 2822 3475 2822 3714.33 2737 3898 2567 4026 2397.67 4154.67 2154.67 4219 1838 4219 1664.67 4219 1479 4200 1281 4162 1083 4124.67 865.333 4066.67 628 3988L628 4550C868 4616.67 1092.67 4666.67 1302 4700 1511.33 4733.33 1708.67 4750 1894 4750 2373.33 4750 2752.33 4641 3031 4423 3310.33 4205.67 3450 3911.67 3450 3541 3450 3282.33 3376 3064 3228 2886 3080 2708 2869.67 2584.67 2597 2516Z" id="DejaVuSans-33" transform="scale(0.015625 0.015625)"/></defs><use width="100%" height="100%" xlink:href="#DejaVuSans-Oblique-44" transform="matrix(1 0 0 1 0 0.78125)"></use><use width="100%" height="100%" xlink:href="#DejaVuSans-Oblique-6d" transform="matrix(0.7 0 0 0.7 77.002 -15.625)"></use><use width="100%" height="100%" xlink:href="#DejaVuSans-Oblique-61" transform="matrix(0.7 0 0 0.7 145.19 -15.625)"></use><use width="100%" height="100%" xlink:href="#DejaVuSans-Oblique-78" transform="matrix(0.7 0 0 0.7 188.086 -15.625)"></use><use width="100%" height="100%" xlink:href="#DejaVuSans-3d" transform="translate(251.729 0.78125)"></use><use width="100%" height="100%" xlink:href="#DejaVuSans-30" transform="translate(355 0.78125)"></use><use width="100%" height="100%" xlink:href="#DejaVuSans-2e" transform="translate(418.623 0.78125)"></use><use width="100%" height="100%" xlink:href="#DejaVuSans-33" transform="translate(450.41 0.78125)"></use><use width="100%" height="100%" xlink:href="#DejaVuSans-Oblique-6d" transform="translate(512.283 0.78125)"></use><use width="100%" height="100%" xlink:href="#DejaVuSans-Oblique-6d" transform="translate(609.695 0.78125)"></use></g></g><g id="text_19"><g transform="matrix(0.14 0 0 -0.14 336.589 151.983)"><use width="100%" height="100%" xlink:href="#DejaVuSans-Oblique-44" transform="matrix(1 0 0 1 0 0.78125)"></use><use width="100%" height="100%" xlink:href="#DejaVuSans-35" transform="matrix(0.7 0 0 0.7 77.002 -15.625)"></use><use width="100%" height="100%" xlink:href="#DejaVuSans-30" transform="matrix(0.7 0 0 0.7 121.538 -15.625)"></use><use width="100%" height="100%" xlink:href="#DejaVuSans-3d" transform="translate(188.291 0.78125)"></use><use width="100%" height="100%" xlink:href="#DejaVuSans-30" transform="translate(291.562 0.78125)"></use><use width="100%" height="100%" xlink:href="#DejaVuSans-2e" transform="translate(355.186 0.78125)"></use><use width="100%" height="100%" xlink:href="#DejaVuSans-32" transform="translate(381.473 0.78125)"></use><use width="100%" height="100%" xlink:href="#DejaVuSans-Oblique-6d" transform="translate(443.346 0.78125)"></use><use width="100%" height="100%" xlink:href="#DejaVuSans-Oblique-6d" transform="translate(540.758 0.78125)"></use></g></g><g id="text_20"><g transform="matrix(0.14 0 0 -0.14 336.589 174.57)"><use width="100%" height="100%" xlink:href="#DejaVuSans-Oblique-44" transform="matrix(1 0 0 1 0 0.78125)"></use><use width="100%" height="100%" xlink:href="#DejaVuSans-Oblique-6d" transform="matrix(0.7 0 0 0.7 77.002 -15.625)"></use><use width="100%" height="100%" xlink:href="#DejaVuSans-Oblique-69" transform="matrix(0.7 0 0 0.7 145.19 -15.625)"></use><use width="100%" height="100%" xlink:href="#DejaVuSans-Oblique-6e" transform="matrix(0.7 0 0 0.7 164.639 -15.625)"></use><use width="100%" height="100%" xlink:href="#DejaVuSans-3d" transform="translate(231.221 0.78125)"></use><use width="100%" height="100%" xlink:href="#DejaVuSans-30" transform="translate(334.492 0.78125)"></use><use width="100%" height="100%" xlink:href="#DejaVuSans-2e" transform="translate(398.115 0.78125)"></use><use width="100%" height="100%" xlink:href="#DejaVuSans-31" transform="translate(429.902 0.78125)"></use><use width="100%" height="100%" xlink:href="#DejaVuSans-Oblique-6d" transform="translate(493.525 0.78125)"></use><use width="100%" height="100%" xlink:href="#DejaVuSans-Oblique-6d" transform="translate(590.938 0.78125)"></use></g></g><g id="legend_1"><g id="patch_7"><path d="M377.61 96.14 509.3 96.14C511.033 96.14 511.9 95.2733 511.9 93.54L511.9 56.62C511.9 54.8867 511.033 54.02 509.3 54.02L377.61 54.02C375.877 54.02 375.01 54.8867 375.01 56.62L375.01 93.54C375.01 95.2733 375.877 96.14 377.61 96.14Z" stroke="#CCCCCC" stroke-linejoin="miter" fill="#FFFFFF" opacity="0.8"/></g><g id="line2d_115"><path d="M380.21 64.55 393.21 64.55 406.21 64.55" stroke="#1F77B4" stroke-width="1.5" stroke-linecap="square" fill="none"/></g><g id="text_21"><g transform="matrix(0.13 0 0 -0.13 416.61 69.1)"><defs><path d="M1081 4666 4031 4666 3928 4134 1606 4134 1338 2753 3566 2753 3463 2222 1234 2222 909 531 3284 531 3181 0 172 0 1081 4666Z" id="DejaVuSans-Oblique-45" transform="scale(0.015625 0.015625)"/><path d="M1081 4666 2028 4666 2572 1522 4378 4666 5350 4666 4441 0 3828 0 4622 4091 2791 897 2175 897 1581 4103 788 0 172 0 1081 4666Z" id="DejaVuSans-Oblique-4d" transform="scale(0.015625 0.015625)"/><path d="M2356 4666 3072 4666 3938 0 3278 0 3084 1197 984 1197 325 0-341 0 2356 4666ZM2584 4044 1275 1722 2988 1722 2584 4044Z" id="DejaVuSans-Oblique-41" transform="scale(0.015625 0.015625)"/><path d="M1588-325C1321.33-773 1104-1052.67 936-1164 768-1275.33 554-1331 294-1331L-159-1331-63-850 269-850C429-850 565.333-806.333 678-719 790.667-631.667 916.667-460.667 1056-206L1234 128 459 3500 1069 3500 1650 819 3256 3500 3859 3500 1588-325Z" id="DejaVuSans-Oblique-79" transform="scale(0.015625 0.015625)"/></defs><use width="100%" height="100%" xlink:href="#DejaVuSans-Oblique-44" transform="matrix(1 0 0 1 0 0.015625)"></use><use width="100%" height="100%" xlink:href="#DejaVuSans-Oblique-45" transform="translate(77.002 0.015625)"></use><use width="100%" height="100%" xlink:href="#DejaVuSans-Oblique-4d" transform="translate(140.186 0.015625)"></use><use width="100%" height="100%" xlink:href="#DejaVuSans-Oblique-41" transform="translate(258.935 0.015625)"></use><use width="100%" height="100%" xlink:href="#DejaVuSans-Oblique-6e" transform="translate(327.343 0.015625)"></use><use width="100%" height="100%" xlink:href="#DejaVuSans-Oblique-61" transform="translate(390.722 0.015625)"></use><use width="100%" height="100%" xlink:href="#DejaVuSans-Oblique-6c" transform="translate(452.002 0.015625)"></use><use width="100%" height="100%" xlink:href="#DejaVuSans-Oblique-79" transform="translate(479.785 0.015625)"></use><use width="100%" height="100%" xlink:href="#DejaVuSans-Oblique-73" transform="translate(538.965 0.015625)"></use><use width="100%" height="100%" xlink:href="#DejaVuSans-Oblique-69" transform="translate(591.064 0.015625)"></use><use width="100%" height="100%" xlink:href="#DejaVuSans-Oblique-73" transform="translate(618.847 0.015625)"></use></g></g><g id="line2d_116"><path d="M380.21 83.66 393.21 83.66 406.21 83.66" stroke="#FF7F0E" stroke-width="1.5" stroke-linecap="square" fill="none"/></g><g id="text_22"><g transform="matrix(0.13 0 0 -0.13 416.61 88.21)"><defs><path d="M378 4666 4325 4666 4225 4134 2559 4134 1759 0 1125 0 1925 4134 275 4134 378 4666Z" id="DejaVuSans-Oblique-54" transform="scale(0.015625 0.015625)"/><path d="M1625-91C1214.33-91 889.667 35.6667 651 289 413 542.333 294 887.667 294 1325 294 1579 335 1837.67 417 2101 499.667 2365 606.667 2586.67 738 2766 944 3044.67 1174 3250.67 1428 3384 1682 3517.33 1969.67 3584 2291 3584 2689 3584 3010.33 3460 3255 3212 3499.67 2964.67 3622 2641 3622 2241 3622 1963.67 3581.33 1687.33 3500 1412 3418.67 1137.33 3312.33 909.333 3181 728 2977 448.667 2748 242.333 2494 109 2240-24.3333 1950.33-91 1625-91ZM891 1344C891 1027.33 957 790.333 1089 633 1221.67 475.667 1422.33 397 1691 397 2076.33 397 2395.33 565 2648 901 2901.33 1237.67 3028 1664.33 3028 2181 3028 2483 2960.33 2711 2825 2865 2689.67 3019.67 2490.67 3097 2228 3097 2011.33 3097 1818.67 3046.33 1650 2945 1481.33 2844.33 1330.33 2690.67 1197 2484 1099 2330 1023.33 2154 970 1956 917.333 1758 891 1554 891 1344Z" id="DejaVuSans-Oblique-6f" transform="scale(0.015625 0.015625)"/><path d="M428 1388 838 3500 1416 3500 1006 1409C985.333 1307 970.333 1219.67 961 1147 951.667 1074.33 947 1014 947 966 947 788.667 1001 651.333 1109 554 1217.67 457.333 1371 409 1569 409 1877 409 2143.33 513 2368 721 2593.33 929.667 2740.33 1210.33 2809 1563L3194 3500 3769 3500 3091 0 2516 0 2631 550C2469 346 2276 188 2052 76 1828-35.3333 1590-91 1338-91 1031.33-91 792.667-7 622 161 451.333 329 366 563 366 863 366 925 371 1003 381 1097 391.667 1191 407.333 1288 428 1388Z" id="DejaVuSans-Oblique-75" transform="scale(0.015625 0.015625)"/><path d="M3859 4513 3738 3897C3527.33 4009.67 3318.33 4094.67 3111 4152 2903.67 4209.33 2703 4238 2509 4238 2132.33 4238 1832.33 4155.67 1609 3991 1386.33 3826.33 1275 3607.33 1275 3334 1275 3184 1316 3069 1398 2989 1480.67 2909 1692.67 2823 2034 2731L2413 2638C2839.67 2527.33 3136.33 2387 3303 2217 3469.67 2047.67 3553 1809.67 3553 1503 3553 1032.33 3368 649 2998 353 2628.67 57 2142-91 1538-91 1290-91 1041-66.3333 791-17 541 31.6667 290 106 38 206L166 856C397.333 712.667 629 604.333 861 531 1093 458.333 1324.67 422 1556 422 1950 422 2265.67 509.333 2503 684 2740.33 859.333 2859 1087.67 2859 1369 2859 1556.33 2811.67 1698.33 2717 1795 2622.33 1892.33 2418.67 1980.33 2106 2059L1728 2156C1296.67 2268.67 1002.33 2398.33 845 2545 687.667 2692.33 609 2898.33 609 3163 609 3627 787.667 4007.33 1145 4304 1502.33 4601.33 1967.67 4750 2541 4750 2763.67 4750 2984.33 4730 3203 4690 3421.67 4650.67 3640.33 4591.67 3859 4513Z" id="DejaVuSans-Oblique-53" transform="scale(0.015625 0.015625)"/></defs><use width="100%" height="100%" xlink:href="#DejaVuSans-Oblique-54" transform="matrix(1 0 0 1 0 0.015625)"></use><use width="100%" height="100%" xlink:href="#DejaVuSans-Oblique-6f" transform="translate(61.084 0.015625)"></use><use width="100%" height="100%" xlink:href="#DejaVuSans-Oblique-79" transform="translate(122.266 0.015625)"></use><use width="100%" height="100%" xlink:href="#DejaVuSans-Oblique-6f" transform="translate(181.445 0.015625)"></use><use width="100%" height="100%" xlink:href="#DejaVuSans-Oblique-75" transform="translate(242.627 0.015625)"></use><use width="100%" height="100%" xlink:href="#DejaVuSans-Oblique-72" transform="translate(306.006 0.015625)"></use><use width="100%" height="100%" xlink:href="#DejaVuSans-Oblique-61" transform="translate(347.119 0.015625)"></use><use width="100%" height="100%" xlink:href="#DejaVuSans-Oblique-53" transform="translate(440.869 0.015625)"></use><use width="100%" height="100%" xlink:href="#DejaVuSans-Oblique-61" transform="translate(504.345 0.015625)"></use><use width="100%" height="100%" xlink:href="#DejaVuSans-Oblique-6e" transform="translate(565.625 0.015625)"></use><use width="100%" height="100%" xlink:href="#DejaVuSans-Oblique-64" transform="translate(629.004 0.015625)"></use></g></g></g></g></g></svg>