<svg width="768" height="480" viewBox="0 0 576 360" xmlns="http://www.w3.org/2000/svg" xmlns:xlink="http://www.w3.org/1999/xlink" stroke-linejoin="round" overflow="hidden"><defs></defs><defs><clipPath id="p7932248975"><rect x="72" y="43.2" width="446.4" height="277.2"/></clipPath></defs><g id="figure_1"><g id="patch_1"><path d="M0 360 576 360 576 0 0 0 0 360Z" fill="none"/></g><g id="axes_1"><g id="patch_2"><path d="M72 320.4 518.4 320.4 518.4 43.2 72 43.2 72 320.4Z" fill="none"/></g><g id="PathCollection_1"><defs><path d="M0 3C0.795609 3 1.55874 2.6839 2.12132 2.12132 2.6839 1.55874 3 0.795609 3 -0 3-0.795609 2.6839-1.55874 2.12132-2.12132 1.55874-2.6839 0.795609-3 0-3-0.795609-3-1.55874-2.6839-2.12132-2.12132-2.6839-1.55874-3-0.795609-3 0-3 0.795609-2.6839 1.55874-2.12132 2.12132-1.55874 2.6839-0.795609 3 0 3Z" id="C0_0_3737572992"/></defs><g clip-path="url(#p7932248975)"><use x="92.2909" y="302.656" width="100%" height="100%" xlink:href="#C0_0_3737572992" stroke="#D62728" stroke-opacity="0.9" fill="none"></use></g><g clip-path="url(#p7932248975)"><use x="166.078" y="274.988" width="100%" height="100%" xlink:href="#C0_0_3737572992" stroke="#D62728" stroke-opacity="0.9" fill="none"></use></g><g clip-path="url(#p7932248975)"><use x="202.973" y="268.334" width="100%" height="100%" xlink:href="#C0_0_3737572992" stroke="#D62728" stroke-opacity="0.9" fill="none"></use></g><g clip-path="url(#p7932248975)"><use x="239.863" y="251.555" width="100%" height="100%" xlink:href="#C0_0_3737572992" stroke="#D62728" stroke-opacity="0.9" fill="none"></use></g><g clip-path="url(#p7932248975)"><use x="276.743" y="234.078" width="100%" height="100%" xlink:href="#C0_0_3737572992" stroke="#D62728" stroke-opacity="0.9" fill="none"></use></g><g clip-path="url(#p7932248975)"><use x="313.607" y="220.398" width="100%" height="100%" xlink:href="#C0_0_3737572992" stroke="#D62728" stroke-opacity="0.9" fill="none"></use></g><g clip-path="url(#p7932248975)"><use x="350.5" y="196.754" width="100%" height="100%" xlink:href="#C0_0_3737572992" stroke="#D62728" stroke-opacity="0.9" fill="none"></use></g><g clip-path="url(#p7932248975)"><use x="387.41" y="172.672" width="100%" height="100%" xlink:href="#C0_0_3737572992" stroke="#D62728" stroke-opacity="0.9" fill="none"></use></g><g clip-path="url(#p7932248975)"><use x="424.325" y="139.957" width="100%" height="100%" xlink:href="#C0_0_3737572992" stroke="#D62728" stroke-opacity="0.9" fill="none"></use></g><g clip-path="url(#p7932248975)"><use x="461.217" y="100.556" width="100%" height="100%" xlink:href="#C0_0_3737572992" stroke="#D62728" stroke-opacity="0.9" fill="none"></use></g><g clip-path="url(#p7932248975)"><use x="498.109" y="63.4432" width="100%" height="100%" xlink:href="#C0_0_3737572992" stroke="#D62728" stroke-opacity="0.9" fill="none"></use></g></g><g id="PathCollection_2"><path d="M92.2909 308.739 95.2909 302.739 89.2909 302.739 92.2909 308.739Z" stroke="#1F77B4" stroke-opacity="0.9" fill="none" clip-path="url(#p7932248975)"/><path d="M202.973 271.448 205.973 265.448 199.973 265.448 202.973 271.448Z" stroke="#1F77B4" stroke-opacity="0.9" fill="none" clip-path="url(#p7932248975)"/><path d="M239.863 261.257 242.863 255.257 236.863 255.257 239.863 261.257Z" stroke="#1F77B4" stroke-opacity="0.9" fill="none" clip-path="url(#p7932248975)"/><path d="M276.743 243.439 279.743 237.439 273.743 237.439 276.743 243.439Z" stroke="#1F77B4" stroke-opacity="0.9" fill="none" clip-path="url(#p7932248975)"/><path d="M313.607 226.156 316.607 220.156 310.607 220.156 313.607 226.156Z" stroke="#1F77B4" stroke-opacity="0.9" fill="none" clip-path="url(#p7932248975)"/><path d="M350.5 199.186 353.5 193.186 347.5 193.186 350.5 199.186Z" stroke="#1F77B4" stroke-opacity="0.9" fill="none" clip-path="url(#p7932248975)"/><path d="M387.41 175.136 390.41 169.136 384.41 169.136 387.41 175.136Z" stroke="#1F77B4" stroke-opacity="0.9" fill="none" clip-path="url(#p7932248975)"/><path d="M461.217 108.652 464.217 102.652 458.217 102.652 461.217 108.652Z" stroke="#1F77B4" stroke-opacity="0.9" fill="none" clip-path="url(#p7932248975)"/><path d="M498.109 61.2991 501.109 55.2991 495.109 55.2991 498.109 61.2991Z" stroke="#1F77B4" stroke-opacity="0.9" fill="none" clip-path="url(#p7932248975)"/></g><g id="PathCollection_3"><defs><path d="M-3 3 3 3 3-3-3-3Z" id="C1_0_416c18a1ee"/></defs><g clip-path="url(#p7932248975)"><use x="92.2909" y="306.275" width="100%" height="100%" xlink:href="#C1_0_416c18a1ee" stroke="#FF7F0E" stroke-opacity="0.9" fill="none"></use></g><g clip-path="url(#p7932248975)"><use x="166.078" y="284.091" width="100%" height="100%" xlink:href="#C1_0_416c18a1ee" stroke="#FF7F0E" stroke-opacity="0.9" fill="none"></use></g><g clip-path="url(#p7932248975)"><use x="202.973" y="274.793" width="100%" height="100%" xlink:href="#C1_0_416c18a1ee" stroke="#FF7F0E" stroke-opacity="0.9" fill="none"></use></g><g clip-path="url(#p7932248975)"><use x="239.863" y="259.539" width="100%" height="100%" xlink:href="#C1_0_416c18a1ee" stroke="#FF7F0E" stroke-opacity="0.9" fill="none"></use></g><g clip-path="url(#p7932248975)"><use x="276.743" y="243.473" width="100%" height="100%" xlink:href="#C1_0_416c18a1ee" stroke="#FF7F0E" stroke-opacity="0.9" fill="none"></use></g><g clip-path="url(#p7932248975)"><use x="313.607" y="223.708" width="100%" height="100%" xlink:href="#C1_0_416c18a1ee" stroke="#FF7F0E" stroke-opacity="0.9" fill="none"></use></g><g clip-path="url(#p7932248975)"><use x="350.5" y="205.355" width="100%" height="100%" xlink:href="#C1_0_416c18a1ee" stroke="#FF7F0E" stroke-opacity="0.9" fill="none"></use></g><g clip-path="url(#p7932248975)"><use x="387.41" y="171.439" width="100%" height="100%" xlink:href="#C1_0_416c18a1ee" stroke="#FF7F0E" stroke-opacity="0.9" fill="none"></use></g><g clip-path="url(#p7932248975)"><use x="424.325" y="140.379" width="100%" height="100%" xlink:href="#C1_0_416c18a1ee" stroke="#FF7F0E" stroke-opacity="0.9" fill="none"></use></g><g clip-path="url(#p7932248975)"><use x="461.217" y="105.716" width="100%" height="100%" xlink:href="#C1_0_416c18a1ee" stroke="#FF7F0E" stroke-opacity="0.9" fill="none"></use></g><g clip-path="url(#p7932248975)"><use x="498.109" y="59.4512" width="100%" height="100%" xlink:href="#C1_0_416c18a1ee" stroke="#FF7F0E" stroke-opacity="0.9" fill="none"></use></g></g><g id="PathCollection_4"><path d="M92.2909 304.8 89.2909 310.8 95.2909 310.8 92.2909 304.8Z" stroke="#2CA02C" stroke-opacity="0.9" fill="none" clip-path="url(#p7932248975)"/><path d="M202.973 268.58 199.973 274.58 205.973 274.58 202.973 268.58Z" stroke="#2CA02C" stroke-opacity="0.9" fill="none" clip-path="url(#p7932248975)"/><path d="M239.863 253.066 236.863 259.066 242.863 259.066 239.863 253.066Z" stroke="#2CA02C" stroke-opacity="0.9" fill="none" clip-path="url(#p7932248975)"/><path d="M276.743 233.852 273.743 239.852 279.743 239.852 276.743 233.852Z" stroke="#2CA02C" stroke-opacity="0.9" fill="none" clip-path="url(#p7932248975)"/><path d="M313.607 215.905 310.607 221.905 316.607 221.905 313.607 215.905Z" stroke="#2CA02C" stroke-opacity="0.9" fill="none" clip-path="url(#p7932248975)"/><path d="M350.5 193.673 347.5 199.673 353.5 199.673 350.5 193.673Z" stroke="#2CA02C" stroke-opacity="0.9" fill="none" clip-path="url(#p7932248975)"/><path d="M387.41 171.116 384.41 177.116 390.41 177.116 387.41 171.116Z" stroke="#2CA02C" stroke-opacity="0.9" fill="none" clip-path="url(#p7932248975)"/><path d="M461.217 94.1482 458.217 100.148 464.217 100.148 461.217 94.1482Z" stroke="#2CA02C" stroke-opacity="0.9" fill="none" clip-path="url(#p7932248975)"/><path d="M498.109 52.8 495.109 58.8 501.109 58.8 498.109 52.8Z" stroke="#2CA02C" stroke-opacity="0.9" fill="none" clip-path="url(#p7932248975)"/></g><g id="PathCollection_5"><defs><path d="M0 4.24264 4.24264 -0 0-4.24264-4.24264 0Z" id="C2_0_fffe237f25"/></defs><g clip-path="url(#p7932248975)"><use x="92.2909" y="304.262" width="100%" height="100%" xlink:href="#C2_0_fffe237f25" stroke="#9467BD" stroke-opacity="0.9" fill="none"></use></g><g clip-path="url(#p7932248975)"><use x="166.078" y="294.964" width="100%" height="100%" xlink:href="#C2_0_fffe237f25" stroke="#9467BD" stroke-opacity="0.9" fill="none"></use></g><g clip-path="url(#p7932248975)"><use x="202.973" y="271.953" width="100%" height="100%" xlink:href="#C2_0_fffe237f25" stroke="#9467BD" stroke-opacity="0.9" fill="none"></use></g><g clip-path="url(#p7932248975)"><use x="239.863" y="258.078" width="100%" height="100%" xlink:href="#C2_0_fffe237f25" stroke="#9467BD" stroke-opacity="0.9" fill="none"></use></g><g clip-path="url(#p7932248975)"><use x="276.743" y="238.524" width="100%" height="100%" xlink:href="#C2_0_fffe237f25" stroke="#9467BD" stroke-opacity="0.9" fill="none"></use></g><g clip-path="url(#p7932248975)"><use x="313.607" y="227.229" width="100%" height="100%" xlink:href="#C2_0_fffe237f25" stroke="#9467BD" stroke-opacity="0.9" fill="none"></use></g><g clip-path="url(#p7932248975)"><use x="350.5" y="201.395" width="100%" height="100%" xlink:href="#C2_0_fffe237f25" stroke="#9467BD" stroke-opacity="0.9" fill="none"></use></g><g clip-path="url(#p7932248975)"><use x="387.41" y="174.782" width="100%" height="100%" xlink:href="#C2_0_fffe237f25" stroke="#9467BD" stroke-opacity="0.9" fill="none"></use></g><g clip-path="url(#p7932248975)"><use x="424.325" y="137.636" width="100%" height="100%" xlink:href="#C2_0_fffe237f25" stroke="#9467BD" stroke-opacity="0.9" fill="none"></use></g><g clip-path="url(#p7932248975)"><use x="461.217" y="105.002" width="100%" height="100%" xlink:href="#C2_0_fffe237f25" stroke="#9467BD" stroke-opacity="0.9" fill="none"></use></g><g clip-path="url(#p7932248975)"><use x="498.109" y="61.8529" width="100%" height="100%" xlink:href="#C2_0_fffe237f25" stroke="#9467BD" stroke-opacity="0.9" fill="none"></use></g></g><g id="matplotlib.axis_1"><g id="xtick_1"><g id="line2d_1"><path d="M130.65 320.4 130.65 43.2" stroke="#808080" stroke-width="0.5" stroke-linecap="square" fill="none" clip-path="url(#p7932248975)"/></g><g id="line2d_2"><defs><path d="M0 0 0 3.5" id="m9a110d3262" stroke="#000000" stroke-width="0.8"/></defs><g><use x="130.65" y="320.4" width="100%" height="100%" xlink:href="#m9a110d3262" stroke="#000000" stroke-width="0.8"></use></g></g><g id="text_1"><g transform="matrix(0.12 0 0 -0.12 120.09 336.518)"><defs><path d="M794 531 1825 531 1825 4091 703 3866 703 4441 1819 4666 2450 4666 2450 531 3481 531 3481 0 794 0 794 531Z" id="DejaVuSans-31" transform="scale(0.015625 0.015625)"/><path d="M2034 4250C1709.33 4250 1465 4090 1301 3770 1137.67 3450.67 1056 2970 1056 2328 1056 1688.67 1137.67 1209 1301 889 1465 569 1709.33 409 2034 409 2361.33 409 2606.67 569 2770 889 2934 1209 3016 1688.67 3016 2328 3016 2970 2934 3450.67 2770 3770 2606.67 4090 2361.33 4250 2034 4250ZM2034 4750C2557.33 4750 2957 4543 3233 4129 3509 3715.67 3647 3115.33 3647 2328 3647 1542.67 3509 943 3233 529 2957 115.667 2557.33-91 2034-91 1511.33-91 1112 115.667 836 529 560 943 422 1542.67 422 2328 422 3115.33 560 3715.67 836 4129 1112 4543 1511.33 4750 2034 4750Z" id="DejaVuSans-30" transform="scale(0.015625 0.015625)"/><path d="M2597 2516C2899 2451.33 3134.67 2316.67 3304 2112 3474 1908 3559 1656 3559 1356 3559 896 3400.67 539.667 3084 287 2767.33 35 2317.33-91 1734-91 1538.67-91 1337.33-71.6667 1130-33 922.667 5.66667 708.667 63.6667 488 141L488 750C662.667 648 854 571 1062 519 1270.67 467 1488.67 441 1716 441 2111.33 441 2412.67 519 2620 675 2827.33 831 2931 1058 2931 1356 2931 1631.33 2834.67 1846.33 2642 2001 2449.33 2156.33 2181.33 2234 1838 2234L1294 2234 1294 2753 1863 2753C2173 2753 2410.33 2815 2575 2939 2739.67 3063 2822 3241.67 2822 3475 2822 3714.33 2737 3898 2567 4026 2397.67 4154.67 2154.67 4219 1838 4219 1664.67 4219 1479 4200 1281 4162 1083 4124.67 865.333 4066.67 628 3988L628 4550C868 4616.67 1092.67 4666.67 1302 4700 1511.33 4733.33 1708.67 4750 1894 4750 2373.33 4750 2752.33 4641 3031 4423 3310.33 4205.67 3450 3911.67 3450 3541 3450 3282.33 3376 3064 3228 2886 3080 2708 2869.67 2584.67 2597 2516Z" id="DejaVuSans-33" transform="scale(0.015625 0.015625)"/></defs><use width="100%" height="100%" xlink:href="#DejaVuSans-31" transform="matrix(1 0 0 1 0 0.765625)"></use><use width="100%" height="100%" xlink:href="#DejaVuSans-30" transform="translate(63.623 0.765625)"></use><use width="100%" height="100%" xlink:href="#DejaVuSans-33" transform="matrix(0.7 0 0 0.7 128.203 39.0469)"></use></g></g></g><g id="xtick_2"><g id="line2d_3"><path d="M390.363 320.4 390.363 43.2" stroke="#808080" stroke-width="0.5" stroke-linecap="square" fill="none" clip-path="url(#p7932248975)"/></g><g id="line2d_4"><g><use x="390.363" y="320.4" width="100%" height="100%" xlink:href="#m9a110d3262" stroke="#000000" stroke-width="0.8"></use></g></g><g id="text_2"><g transform="matrix(0.12 0 0 -0.12 379.803 336.518)"><defs><path d="M2419 4116 825 1625 2419 1625 2419 4116ZM2253 4666 3047 4666 3047 1625 3713 1625 3713 1100 3047 1100 3047 0 2419 0 2419 1100 313 1100 313 1709 2253 4666Z" id="DejaVuSans-34" transform="scale(0.015625 0.015625)"/></defs><use width="100%" height="100%" xlink:href="#DejaVuSans-31" transform="matrix(1 0 0 1 0 0.684375)"></use><use width="100%" height="100%" xlink:href="#DejaVuSans-30" transform="translate(63.623 0.684375)"></use><use width="100%" height="100%" xlink:href="#DejaVuSans-34" transform="matrix(0.7 0 0 0.7 128.203 38.9656)"></use></g></g></g><g id="xtick_3"><g id="line2d_5"><path d="M73.0331 320.4 73.0331 43.2" stroke="#808080" stroke-width="0.5" stroke-dasharray="1.85 0.8" fill="none" clip-path="url(#p7932248975)"/></g><g id="line2d_6"><defs><path d="M0 0 0 2" id="m935fbf0d82" stroke="#000000" stroke-width="0.6"/></defs><g><use x="73.0331" y="320.4" width="100%" height="100%" xlink:href="#m935fbf0d82" stroke="#000000" stroke-width="0.6"></use></g></g></g><g id="xtick_4"><g id="line2d_7"><path d="M90.42 320.4 90.42 43.2" stroke="#808080" stroke-width="0.5" stroke-dasharray="1.85 0.8" fill="none" clip-path="url(#p7932248975)"/></g><g id="line2d_8"><g><use x="90.42" y="320.4" width="100%" height="100%" xlink:href="#m935fbf0d82" stroke="#000000" stroke-width="0.6"></use></g></g></g><g id="xtick_5"><g id="line2d_9"><path d="M105.481 320.4 105.481 43.2" stroke="#808080" stroke-width="0.5" stroke-dasharray="1.85 0.8" fill="none" clip-path="url(#p7932248975)"/></g><g id="line2d_10"><g><use x="105.481" y="320.4" width="100%" height="100%" xlink:href="#m935fbf0d82" stroke="#000000" stroke-width="0.6"></use></g></g></g><g id="xtick_6"><g id="line2d_11"><path d="M118.766 320.4 118.766 43.2" stroke="#808080" stroke-width="0.5" stroke-dasharray="1.85 0.8" fill="none" clip-path="url(#p7932248975)"/></g><g id="line2d_12"><g><use x="118.766" y="320.4" width="100%" height="100%" xlink:href="#m935fbf0d82" stroke="#000000" stroke-width="0.6"></use></g></g></g><g id="xtick_7"><g id="line2d_13"><path d="M208.831 320.4 208.831 43.2" stroke="#808080" stroke-width="0.5" stroke-dasharray="1.85 0.8" fill="none" clip-path="url(#p7932248975)"/></g><g id="line2d_14"><g><use x="208.831" y="320.4" width="100%" height="100%" xlink:href="#m935fbf0d82" stroke="#000000" stroke-width="0.6"></use></g></g></g><g id="xtick_8"><g id="line2d_15"><path d="M254.565 320.4 254.565 43.2" stroke="#808080" stroke-width="0.5" stroke-dasharray="1.85 0.8" fill="none" clip-path="url(#p7932248975)"/></g><g id="line2d_16"><g><use x="254.565" y="320.4" width="100%" height="100%" xlink:href="#m935fbf0d82" stroke="#000000" stroke-width="0.6"></use></g></g></g><g id="xtick_9"><g id="line2d_17"><path d="M287.013 320.4 287.013 43.2" stroke="#808080" stroke-width="0.5" stroke-dasharray="1.85 0.8" fill="none" clip-path="url(#p7932248975)"/></g><g id="line2d_18"><g><use x="287.013" y="320.4" width="100%" height="100%" xlink:href="#m935fbf0d82" stroke="#000000" stroke-width="0.6"></use></g></g></g><g id="xtick_10"><g id="line2d_19"><path d="M312.182 320.4 312.182 43.2" stroke="#808080" stroke-width="0.5" stroke-dasharray="1.85 0.8" fill="none" clip-path="url(#p7932248975)"/></g><g id="line2d_20"><g><use x="312.182" y="320.4" width="100%" height="100%" xlink:href="#m935fbf0d82" stroke="#000000" stroke-width="0.6"></use></g></g></g><g id="xtick_11"><g id="line2d_21"><path d="M332.746 320.4 332.746 43.2" stroke="#808080" stroke-width="0.5" stroke-dasharray="1.85 0.8" fill="none" clip-path="url(#p7932248975)"/></g><g id="line2d_22"><g><use x="332.746" y="320.4" width="100%" height="100%" xlink:href="#m935fbf0d82" stroke="#000000" stroke-width="0.6"></use></g></g></g><g id="xtick_12"><g id="line2d_23"><path d="M350.133 320.4 350.133 43.2" stroke="#808080" stroke-width="0.5" stroke-dasharray="1.85 0.8" fill="none" clip-path="url(#p7932248975)"/></g><g id="line2d_24"><g><use x="350.133" y="320.4" width="100%" height="100%" xlink:href="#m935fbf0d82" stroke="#000000" stroke-width="0.6"></use></g></g></g><g id="xtick_13"><g id="line2d_25"><path d="M365.194 320.4 365.194 43.2" stroke="#808080" stroke-width="0.5" stroke-dasharray="1.85 0.8" fill="none" clip-path="url(#p7932248975)"/></g><g id="line2d_26"><g><use x="365.194" y="320.4" width="100%" height="100%" xlink:href="#m935fbf0d82" stroke="#000000" stroke-width="0.6"></use></g></g></g><g id="xtick_14"><g id="line2d_27"><path d="M378.479 320.4 378.479 43.2" stroke="#808080" stroke-width="0.5" stroke-dasharray="1.85 0.8" fill="none" clip-path="url(#p7932248975)"/></g><g id="line2d_28"><g><use x="378.479" y="320.4" width="100%" height="100%" xlink:href="#m935fbf0d82" stroke="#000000" stroke-width="0.6"></use></g></g></g><g id="xtick_15"><g id="line2d_29"><path d="M468.544 320.4 468.544 43.2" stroke="#808080" stroke-width="0.5" stroke-dasharray="1.85 0.8" fill="none" clip-path="url(#p7932248975)"/></g><g id="line2d_30"><g><use x="468.544" y="320.4" width="100%" height="100%" xlink:href="#m935fbf0d82" stroke="#000000" stroke-width="0.6"></use></g></g></g><g id="xtick_16"><g id="line2d_31"><path d="M514.277 320.4 514.277 43.2" stroke="#808080" stroke-width="0.5" stroke-dasharray="1.85 0.8" fill="none" clip-path="url(#p7932248975)"/></g><g id="line2d_32"><g><use x="514.277" y="320.4" width="100%" height="100%" xlink:href="#m935fbf0d82" stroke="#000000" stroke-width="0.6"></use></g></g></g><g id="text_3"><g transform="matrix(0.14 0 0 -0.14 270.42 353.654)"><defs><path d="M3175 2156C3175 2462.67 3108.33 2697 2975 2859 2841.67 3021.67 2650 3103 2400 3103 2229.33 3103 2066.33 3059.33 1911 2972 1755.67 2884.67 1617.67 2757.67 1497 2591 1378.33 2426.33 1283.33 2227.33 1212 1994 1141.33 1760.67 1106 1529.33 1106 1300 1106 1008.67 1172.67 784.333 1306 627 1439.33 469.667 1629 391 1875 391 2056.33 391 2224.67 433.667 2380 519 2535.33 604.333 2668 728.333 2778 891 2896.67 1061.67 2992.33 1262.67 3065 1494 3138.33 1725.33 3175 1946 3175 2156ZM1394 2969C1548 3171 1729.67 3324 1939 3428 2148.33 3532 2381.33 3584 2638 3584 2996 3584 3274 3466.67 3472 3232 3670 2998 3769 2669.67 3769 2247 3769 1901 3707.33 1571.33 3584 1258 3461.33 944.667 3284.33 664 3053 416 2899 251.333 2725 125.667 2531 39 2337.67-47.6667 2133.67-91 1919-91 1671-91 1462.67-39.3333 1294 64 1125.33 167.333 999.333 321 916 525L556-1331-19-1331 922 3500 1497 3500 1394 2969Z" id="DejaVuSans-Oblique-70" transform="scale(0.015625 0.015625)"/><path d="M1984 4856C1705.33 4377.33 1498 3903.33 1362 3434 1226.67 2965.33 1159 2490.33 1159 2009 1159 1528.33 1227.33 1052 1364 580 1500.67 108 1707.33-366.667 1984-844L1484-844C1172-354 938.333 127.333 783 600 627.667 1072.67 550 1542.33 550 2009 550 2473.67 627 2941.33 781 3412 935.667 3883.33 1170 4364.67 1484 4856L1984 4856Z" id="DejaVuSans-28" transform="scale(0.015625 0.015625)"/><path d="M1172 4863 1747 4863 1197 2028 3169 3500 3916 3500 1716 1825 3322 0 2625 0 1131 1709 800 0 225 0 1172 4863Z" id="DejaVuSans-Oblique-6b" transform="scale(0.015625 0.015625)"/><path d="M1081 4666 2541 4666C2965.67 4666 3289.33 4567 3512 4369 3735.33 4171 3847 3881.33 3847 3500 3847 2987.33 3682.33 2588.33 3353 2303 3023.67 2017.67 2561.33 1875 1966 1875L1172 1875 806 0 172 0 1081 4666ZM1613 4147 1275 2394 2069 2394C2427 2394 2701.67 2485.67 2893 2669 3085 2852.33 3181 3114.67 3181 3456 3181 3674.67 3116 3844.33 2986 3965 2856 4086.33 2673.33 4147 2438 4147L1613 4147Z" id="DejaVuSans-Oblique-50" transform="scale(0.015625 0.015625)"/><path d="M3438 1997 3047 0 2472 0 2578 531C2409.33 323 2217 167.333 2001 64 1785.67-39.3333 1545.67-91 1281-91 983-91 738.667 0 548 182 358 364.667 263 598.667 263 884 263 1292.67 426 1615.67 752 1853 1078 2090.33 1527.33 2209 2100 2209L2900 2209 2931 2363C2935.67 2379.67 2939 2397.67 2941 2417 2943 2437 2944 2467.67 2944 2509 2944 2695 2868.33 2839.33 2717 2942 2566.33 3045.33 2354.33 3097 2081 3097 1893.67 3097 1701.33 3073 1504 3025 1307.33 2977 1105 2905 897 2809L997 3341C1213.67 3422.33 1425.67 3483 1633 3523 1840.33 3563.67 2040.67 3584 2234 3584 2646.67 3584 2960.67 3494.33 3176 3315 3392 3136.33 3500 2876 3500 2534 3500 2465.33 3494.67 2384.67 3484 2292 3474 2199.33 3458.67 2101 3438 1997ZM2816 1759 2241 1759C1769.67 1759 1421 1696 1195 1570 969 1444 856 1248.67 856 984 856 800.667 913.667 657 1029 553 1145 449 1305 397 1509 397 1821.67 397 2094.67 509 2328 733 2561.33 957 2715.67 1256.33 2791 1631L2816 1759Z" id="DejaVuSans-Oblique-61" transform="scale(0.015625 0.015625)"/><path d="M513 4856 1013 4856C1325 4364.67 1558.67 3883.33 1714 3412 1869.33 2941.33 1947 2473.67 1947 2009 1947 1542.33 1869.33 1072.67 1714 600 1558.67 127.333 1325-354 1013-844L513-844C789.667-366.667 996.333 108 1133 580 1269.67 1052 1338 1528.33 1338 2009 1338 2490.33 1269.67 2965.33 1133 3434 996.333 3903.33 789.667 4377.33 513 4856Z" id="DejaVuSans-29" transform="scale(0.015625 0.015625)"/></defs><use width="100%" height="100%" xlink:href="#DejaVuSans-Oblique-70" transform="matrix(1 0 0 1 0 0.015625)"></use><use width="100%" height="100%" xlink:href="#DejaVuSans-28" transform="translate(95.9469 0.015625)"></use><use width="100%" height="100%" xlink:href="#DejaVuSans-Oblique-6b" transform="translate(134.961 0.015625)"></use><use width="100%" height="100%" xlink:href="#DejaVuSans-Oblique-50" transform="translate(192.871 0.015625)"></use><use width="100%" height="100%" xlink:href="#DejaVuSans-Oblique-61" transform="translate(253.174 0.015625)"></use><use width="100%" height="100%" xlink:href="#DejaVuSans-29" transform="translate(314.453 0.015625)"></use></g></g></g><g id="matplotlib.axis_2"><g id="ytick_1"><g id="line2d_33"><path d="M72 307.081 518.4 307.081" stroke="#808080" stroke-width="0.5" stroke-linecap="square" fill="none" clip-path="url(#p7932248975)"/></g><g id="line2d_34"><defs><path d="M0 0-3.5 0" id="m8aeefdbe93" stroke="#000000" stroke-width="0.8"/></defs><g><use x="72" y="307.081" width="100%" height="100%" xlink:href="#m8aeefdbe93" stroke="#000000" stroke-width="0.8"></use></g></g><g id="text_4"><g transform="matrix(0.12 0 0 -0.12 38.2812 311.64)"><defs><path d="M684 794 1344 794 1344 0 684 0 684 794Z" id="DejaVuSans-2e" transform="scale(0.015625 0.015625)"/></defs><use width="100%" height="100%" xlink:href="#DejaVuSans-33"></use><use x="63.623" width="100%" height="100%" xlink:href="#DejaVuSans-2e"></use><use x="95.4102" width="100%" height="100%" xlink:href="#DejaVuSans-34"></use><use x="159.033" width="100%" height="100%" xlink:href="#DejaVuSans-30"></use></g></g></g><g id="ytick_2"><g id="line2d_35"><path d="M72 260.217 518.4 260.217" stroke="#808080" stroke-width="0.5" stroke-linecap="square" fill="none" clip-path="url(#p7932248975)"/></g><g id="line2d_36"><g><use x="72" y="260.217" width="100%" height="100%" xlink:href="#m8aeefdbe93" stroke="#000000" stroke-width="0.8"></use></g></g><g id="text_5"><g transform="matrix(0.12 0 0 -0.12 38.2812 264.776)"><defs><path d="M2113 2584C1829.67 2584 1605 2487 1439 2293 1273.67 2099.67 1191 1834.33 1191 1497 1191 1161.67 1273.67 896.333 1439 701 1605 506.333 1829.67 409 2113 409 2396.33 409 2620.67 506.333 2786 701 2951.33 896.333 3034 1161.67 3034 1497 3034 1834.33 2951.33 2099.67 2786 2293 2620.67 2487 2396.33 2584 2113 2584ZM3366 4563 3366 3988C3207.33 4062.67 3047.33 4119.67 2886 4159 2724.67 4199 2564.67 4219 2406 4219 1989.33 4219 1671 4078.33 1451 3797 1231.67 3515.67 1106.33 3090.67 1075 2522 1197.67 2703.33 1351.67 2842.33 1537 2939 1723 3035.67 1927.33 3084 2150 3084 2618.67 3084 2989 2941.67 3261 2657 3533 2373 3669 1986.33 3669 1497 3669 1017.67 3527.33 633 3244 343 2960.67 53.6667 2583.67-91 2113-91 1573-91 1160.33 115.667 875 529 589.667 943 447 1542.67 447 2328 447 3065.33 622 3653.33 972 4092 1322 4530.67 1791.67 4750 2381 4750 2539.67 4750 2699.67 4734.33 2861 4703 3022.33 4671.67 3190.67 4625 3366 4563Z" id="DejaVuSans-36" transform="scale(0.015625 0.015625)"/></defs><use width="100%" height="100%" xlink:href="#DejaVuSans-33"></use><use x="63.623" width="100%" height="100%" xlink:href="#DejaVuSans-2e"></use><use x="95.4102" width="100%" height="100%" xlink:href="#DejaVuSans-36"></use><use x="159.033" width="100%" height="100%" xlink:href="#DejaVuSans-30"></use></g></g></g><g id="ytick_3"><g id="line2d_37"><path d="M72 213.353 518.4 213.353" stroke="#808080" stroke-width="0.5" stroke-linecap="square" fill="none" clip-path="url(#p7932248975)"/></g><g id="line2d_38"><g><use x="72" y="213.353" width="100%" height="100%" xlink:href="#m8aeefdbe93" stroke="#000000" stroke-width="0.8"></use></g></g><g id="text_6"><g transform="matrix(0.12 0 0 -0.12 38.2812 217.912)"><defs><path d="M2034 2216C1734 2216 1498 2135.67 1326 1975 1154.67 1814.33 1069 1593.67 1069 1313 1069 1031.67 1154.67 810.667 1326 650 1498 489.333 1734 409 2034 409 2334 409 2570.33 489.667 2743 651 2916.33 813 3003 1033.67 3003 1313 3003 1593.67 2917 1814.33 2745 1975 2573.67 2135.67 2336.67 2216 2034 2216ZM1403 2484C1132.33 2550.67 921.333 2676.67 770 2862 619.333 3048 544 3274.33 544 3541 544 3913.67 676.667 4208.33 942 4425 1208 4641.67 1572 4750 2034 4750 2498.67 4750 2863.33 4641.67 3128 4425 3392.67 4208.33 3525 3913.67 3525 3541 3525 3274.33 3449.33 3048 3298 2862 3147.33 2676.67 2937.67 2550.67 2669 2484 2973 2413.33 3209.67 2274.67 3379 2068 3549 1862 3634 1610.33 3634 1313 3634 860.333 3496 513 3220 271 2944 29.6667 2548.67-91 2034-91 1520-91 1124.67 29.6667 848 271 572 513 434 860.333 434 1313 434 1610.33 519.333 1862 690 2068 861.333 2274.67 1099 2413.33 1403 2484ZM1172 3481C1172 3239.67 1247.33 3051.33 1398 2916 1549.33 2780.67 1761.33 2713 2034 2713 2305.33 2713 2517.33 2780.67 2670 2916 2823.33 3051.33 2900 3239.67 2900 3481 2900 3723 2823.33 3911.67 2670 4047 2517.33 4182.33 2305.33 4250 2034 4250 1761.33 4250 1549.33 4182.33 1398 4047 1247.33 3911.67 1172 3723 1172 3481Z" id="DejaVuSans-38" transform="scale(0.015625 0.015625)"/></defs><use width="100%" height="100%" xlink:href="#DejaVuSans-33"></use><use x="63.623" width="100%" height="100%" xlink:href="#DejaVuSans-2e"></use><use x="95.4102" width="100%" height="100%" xlink:href="#DejaVuSans-38"></use><use x="159.033" width="100%" height="100%" xlink:href="#DejaVuSans-30"></use></g></g></g><g id="ytick_4"><g id="line2d_39"><path d="M72 166.489 518.4 166.489" stroke="#808080" stroke-width="0.5" stroke-linecap="square" fill="none" clip-path="url(#p7932248975)"/></g><g id="line2d_40"><g><use x="72" y="166.489" width="100%" height="100%" xlink:href="#m8aeefdbe93" stroke="#000000" stroke-width="0.8"></use></g></g><g id="text_7"><g transform="matrix(0.12 0 0 -0.12 38.2812 171.048)"><use width="100%" height="100%" xlink:href="#DejaVuSans-34"></use><use x="63.623" width="100%" height="100%" xlink:href="#DejaVuSans-2e"></use><use x="95.4102" width="100%" height="100%" xlink:href="#DejaVuSans-30"></use><use x="159.033" width="100%" height="100%" xlink:href="#DejaVuSans-30"></use></g></g></g><g id="ytick_5"><g id="line2d_41"><path d="M72 119.625 518.4 119.625" stroke="#808080" stroke-width="0.5" stroke-linecap="square" fill="none" clip-path="url(#p7932248975)"/></g><g id="line2d_42"><g><use x="72" y="119.625" width="100%" height="100%" xlink:href="#m8aeefdbe93" stroke="#000000" stroke-width="0.8"></use></g></g><g id="text_8"><g transform="matrix(0.12 0 0 -0.12 38.2812 124.184)"><defs><path d="M1228 531 3431 531 3431 0 469 0 469 531C708.333 779 1034.67 1111.67 1448 1529 1862 1947 2122 2216.67 2228 2338 2430 2564.67 2571 2756.67 2651 2914 2731.67 3071.33 2772 3226 2772 3378 2772 3626 2685 3828 2511 3984 2337 4140.67 2110.33 4219 1831 4219 1633 4219 1424 4184.67 1204 4116 984.667 4047.33 750 3943 500 3803L500 4441C754 4543 991.333 4620 1212 4672 1433.33 4724 1635.67 4750 1819 4750 2302.33 4750 2687.67 4629 2975 4387 3262.33 4145.67 3406 3823 3406 3419 3406 3227 3370 3045 3298 2873 3226.67 2701.67 3096 2499.33 2906 2266 2854 2205.33 2688.33 2030.67 2409 1742 2130.33 1453.33 1736.67 1049.67 1228 531Z" id="DejaVuSans-32" transform="scale(0.015625 0.015625)"/></defs><use width="100%" height="100%" xlink:href="#DejaVuSans-34"></use><use x="63.623" width="100%" height="100%" xlink:href="#DejaVuSans-2e"></use><use x="95.4102" width="100%" height="100%" xlink:href="#DejaVuSans-32"></use><use x="159.033" width="100%" height="100%" xlink:href="#DejaVuSans-30"></use></g></g></g><g id="ytick_6"><g id="line2d_43"><path d="M72 72.7612 518.4 72.7612" stroke="#808080" stroke-width="0.5" stroke-linecap="square" fill="none" clip-path="url(#p7932248975)"/></g><g id="line2d_44"><g><use x="72" y="72.7612" width="100%" height="100%" xlink:href="#m8aeefdbe93" stroke="#000000" stroke-width="0.8"></use></g></g><g id="text_9"><g transform="matrix(0.12 0 0 -0.12 38.2812 77.3203)"><use width="100%" height="100%" xlink:href="#DejaVuSans-34"></use><use x="63.623" width="100%" height="100%" xlink:href="#DejaVuSans-2e"></use><use x="95.4102" width="100%" height="100%" xlink:href="#DejaVuSans-34"></use><use x="159.033" width="100%" height="100%" xlink:href="#DejaVuSans-30"></use></g></g></g><g id="text_10"><g transform="matrix(8.57253e-18 -0.14 -0.14 -8.57253e-18 31.3697 269.51)"><defs><path d="M4447 4306 4319 3641C4119 3843 3907 3993 3683 4091 3459 4189 3216.67 4238 2956 4238 2600 4238 2287 4152.33 2017 3981 1747.67 3810.33 1515 3550 1319 3200 1193.67 2975.33 1098 2737.33 1032 2486 966.667 2234.67 934 1982 934 1728 934 1303.33 1044 979.333 1264 756 1484 533.333 1803.33 422 2222 422 2511.33 422 2789.33 468.333 3056 561 3322.67 653.667 3582 792.667 3834 978L3688 231C3440 125 3189.33 45 2936-9 2682.67-63.6667 2429-91 2175-91 1577-91 1109.67 71.3333 773 396 437 721.333 269 1173.67 269 1753 269 2123.67 333 2488 461 2846 589 3204.67 773 3532 1013 3828 1267 4142.67 1557 4375 1883 4525 2209 4675 2588.67 4750 3022 4750 3288.67 4750 3541.33 4713 3780 4639 4018.67 4565 4241 4454 4447 4306Z" id="DejaVuSans-Oblique-43" transform="scale(0.015625 0.015625)"/><path d="M1625-91C1214.33-91 889.667 35.6667 651 289 413 542.333 294 887.667 294 1325 294 1579 335 1837.67 417 2101 499.667 2365 606.667 2586.67 738 2766 944 3044.67 1174 3250.67 1428 3384 1682 3517.33 1969.67 3584 2291 3584 2689 3584 3010.33 3460 3255 3212 3499.67 2964.67 3622 2641 3622 2241 3622 1963.67 3581.33 1687.33 3500 1412 3418.67 1137.33 3312.33 909.333 3181 728 2977 448.667 2748 242.333 2494 109 2240-24.3333 1950.33-91 1625-91ZM891 1344C891 1027.33 957 790.333 1089 633 1221.67 475.667 1422.33 397 1691 397 2076.33 397 2395.33 565 2648 901 2901.33 1237.67 3028 1664.33 3028 2181 3028 2483 2960.33 2711 2825 2865 2689.67 3019.67 2490.67 3097 2228 3097 2011.33 3097 1818.67 3046.33 1650 2945 1481.33 2844.33 1330.33 2690.67 1197 2484 1099 2330 1023.33 2154 970 1956 917.333 1758 891 1554 891 1344Z" id="DejaVuSans-Oblique-6f" transform="scale(0.015625 0.015625)"/><path d="M2853 2969C2795 3000.33 2728.33 3024.33 2653 3041 2578.33 3057.67 2498.33 3066 2413 3066 2106.33 3066 1838.33 2949.67 1609 2717 1380.33 2485 1228.33 2174 1153 1784L800 0 225 0 909 3500 1484 3500 1375 2956C1527 3158 1708.67 3313 1920 3421 2132 3529.67 2357.67 3584 2597 3584 2659.67 3584 2721 3580.33 2781 3573 2841.67 3566.33 2902.33 3554.67 2963 3538L2853 2969Z" id="DejaVuSans-Oblique-72" transform="scale(0.015625 0.015625)"/><path d="M2675 525C2521 323 2338.67 169.667 2128 65 1918-39 1684.67-91 1428-91 1078-91 801.333 28.3333 598 267 395.333 505.667 294 832.333 294 1247 294 1593 355.333 1922.67 478 2236 601.333 2549.33 779.667 2830 1013 3078 1167 3242.67 1340.67 3368 1534 3454 1728 3540.67 1931.33 3584 2144 3584 2368.67 3584 2567 3529.67 2739 3421 2911 3313 3044 3158 3138 2956L3513 4863 4091 4863 3144 0 2566 0 2675 525ZM891 1350C891 1048 959 812.667 1095 644 1231.67 475.333 1421 391 1663 391 1841.67 391 2007.67 434 2161 520 2314.33 606.667 2449.33 734.333 2566 903 2688.67 1078.33 2785.33 1280.33 2856 1509 2927.33 1738.33 2963 1964.67 2963 2188 2963 2477.33 2894.67 2703 2758 2865 2621.33 3027.67 2433.33 3109 2194 3109 2012.67 3109 1843.67 3066.33 1687 2981 1531 2895.67 1398 2773 1288 2613 1166.67 2439.67 1070 2238.33 998 2009 926.667 1780.33 891 1560.67 891 1350Z" id="DejaVuSans-Oblique-64" transform="scale(0.015625 0.015625)"/><path d="M1172 4863 1747 4863 1606 4134 1031 4134 1172 4863ZM909 3500 1484 3500 800 0 225 0 909 3500Z" id="DejaVuSans-Oblique-69" transform="scale(0.015625 0.015625)"/><path d="M3566 2113 3156 0 2578 0 2988 2091C3006.67 2189 3021 2275.33 3031 2350 3041.67 2425.33 3047 2484.67 3047 2528 3047 2703.33 2991.67 2839.67 2881 2937 2771 3035 2617 3084 2419 3084 2110.33 3084 1844.67 2981.33 1622 2776 1399.33 2571.33 1253.33 2293 1184 1941L800 0 225 0 903 3500 1478 3500 1363 2950C1523 3152 1715.33 3308 1940 3418 2165.33 3528.67 2402 3584 2650 3584 2958.67 3584 3197.67 3500.67 3367 3334 3537 3167.33 3622 2933 3622 2631 3622 2556.33 3617.33 2476.33 3608 2391 3598.67 2305.67 3584.67 2213 3566 2113Z" id="DejaVuSans-Oblique-6e" transform="scale(0.015625 0.015625)"/><path d="M2706 3500 2619 3053 1472 3053 1100 1153C1087.33 1082.33 1078 1023 1072 975 1066 927 1063 889.667 1063 863 1063 729.667 1103 632.667 1183 572 1263 511.333 1391.67 481 1569 481L2150 481 2053 0 1503 0C1161.67 0 907 66.6667 739 200 571.667 333.333 488 535.333 488 806 488 854 491 906.667 497 964 503 1021.33 512.333 1084.33 525 1153L897 3053 409 3053 500 3500 978 3500 1172 4494 1747 4494 1556 3500 2706 3500Z" id="DejaVuSans-Oblique-74" transform="scale(0.015625 0.015625)"/><path d="M1081 4666 1931 4666 3219 666 4000 4666 4616 4666 3706 0 2853 0 1569 4025 788 0 172 0 1081 4666Z" id="DejaVuSans-Oblique-4e" transform="scale(0.015625 0.015625)"/><path d="M428 1388 838 3500 1416 3500 1006 1409C985.333 1307 970.333 1219.67 961 1147 951.667 1074.33 947 1014 947 966 947 788.667 1001 651.333 1109 554 1217.67 457.333 1371 409 1569 409 1877 409 2143.33 513 2368 721 2593.33 929.667 2740.33 1210.33 2809 1563L3194 3500 3769 3500 3091 0 2516 0 2631 550C2469 346 2276 188 2052 76 1828-35.3333 1590-91 1338-91 1031.33-91 792.667-7 622 161 451.333 329 366 563 366 863 366 925 371 1003 381 1097 391.667 1191 407.333 1288 428 1388Z" id="DejaVuSans-Oblique-75" transform="scale(0.015625 0.015625)"/><path d="M5747 2113 5338 0 4763 0 5166 2094C5182.67 2183.33 5195 2260.33 5203 2325 5211.67 2389.67 5216 2445 5216 2491 5216 2678.33 5163.67 2824 5059 2928 4955 3032 4809.33 3084 4622 3084 4342.67 3084 4093.67 2979.33 3875 2770 3656.33 2560.67 3514.67 2288.33 3450 1953L3066 0 2491 0 2900 2094C2916.67 2170.67 2929 2241.67 2937 2307 2945.67 2373 2950 2432 2950 2484 2950 2674 2898 2821.33 2794 2926 2690 3031.33 2546.33 3084 2363 3084 2079.67 3084 1828.33 2979.33 1609 2770 1390.33 2560.67 1248.67 2288.33 1184 1953L800 0 225 0 909 3500 1484 3500 1375 2956C1531 3160.67 1713.67 3316.33 1923 3423 2133 3530.33 2357.67 3584 2597 3584 2851 3584 3059.67 3517.33 3223 3384 3387 3250.67 3485.67 3065.33 3519 2828 3693.67 3074 3896 3261.33 4126 3390 4356.67 3519.33 4600 3584 4856 3584 5156 3584 5387.67 3497.67 5551 3325 5715 3152.33 5797 2907.67 5797 2591 5797 2522.33 5792.67 2446.67 5784 2364 5776 2282 5763.67 2198.33 5747 2113Z" id="DejaVuSans-Oblique-6d" transform="scale(0.015625 0.015625)"/><path d="M3169 2138C3169 2440 3099.67 2676.33 2961 2847 2822.33 3017.67 2631.33 3103 2388 3103 2210.67 3103 2044.33 3059.67 1889 2973 1733.67 2887 1598.67 2761.67 1484 2597 1363.33 2424.33 1268 2223.67 1198 1995 1128.67 1767 1094 1539.67 1094 1313 1094 1025 1162 799.333 1298 636 1434.67 472.667 1623 391 1863 391 2043.67 391 2211 433 2365 517 2519.67 601.667 2655.33 726.333 2772 891 2890.67 1061.67 2986.33 1260.33 3059 1487 3132.33 1714.33 3169 1931.33 3169 2138ZM1381 2969C1523 3160.33 1700.67 3310.67 1914 3420 2127.33 3529.33 2350.67 3584 2584 3584 2942.67 3584 3227.67 3463 3439 3221 3650.33 2979.67 3756 2653 3756 2241 3756 1903 3694 1575.67 3570 1259 3446 942.333 3269.67 661.333 3041 416 2891 253.333 2718 128 2522 40 2326-47.3333 2120.67-91 1906-91 1679.33-91 1482.67-39 1316 65 1149.33 169.667 1013.67 325 909 531L806 0 231 0 1178 4863 1753 4863 1381 2969Z" id="DejaVuSans-Oblique-62" transform="scale(0.015625 0.015625)"/><path d="M3078 2063C3084.67 2096.33 3089.33 2130.67 3092 2166 3095.33 2201.33 3097 2236.67 3097 2272 3097 2526 3022.33 2727 2873 2875 2724.33 3023 2522 3097 2266 3097 1980.67 3097 1728.33 3006.67 1509 2826 1290.33 2646 1125 2390.33 1013 2059L3078 2063ZM3578 1613 903 1613C890.333 1533.67 882 1471 878 1425 874 1379 872 1339.33 872 1306 872 1016.67 961 792.667 1139 634 1317 476 1568.67 397 1894 397 2144 397 2380.33 425 2603 481 2826.33 537.667 3033.67 620 3225 728L3116 159C2909.33 75.6667 2696 13.3333 2476-28 2256.67-70 2033.33-91 1806-91 1320.67-91 947.333 25 686 257 424.667 489.667 294 819.667 294 1247 294 1611.67 359 1950.67 489 2264 619 2577.33 810.333 2857 1063 3103 1225 3257 1418 3375.67 1642 3459 1866 3542.33 2104 3584 2356 3584 2752 3584 3067 3465.33 3301 3228 3535.67 2990.67 3653 2672 3653 2272 3653 2176 3646.67 2073.33 3634 1964 3622 1854.67 3603.33 1737.67 3578 1613Z" id="DejaVuSans-Oblique-65" transform="scale(0.015625 0.015625)"/></defs><use width="100%" height="100%" xlink:href="#DejaVuSans-Oblique-43" transform="matrix(1 0 0 1 0 0.015625)"></use><use width="100%" height="100%" xlink:href="#DejaVuSans-Oblique-6f" transform="translate(69.8242 0.015625)"></use><use width="100%" height="100%" xlink:href="#DejaVuSans-Oblique-6f" transform="translate(131.006 0.015625)"></use><use width="100%" height="100%" xlink:href="#DejaVuSans-Oblique-72" transform="translate(192.188 0.015625)"></use><use width="100%" height="100%" xlink:href="#DejaVuSans-Oblique-64" transform="translate(233.301 0.015625)"></use><use width="100%" height="100%" xlink:href="#DejaVuSans-Oblique-69" transform="translate(296.777 0.015625)"></use><use width="100%" height="100%" xlink:href="#DejaVuSans-Oblique-6e" transform="translate(324.561 0.015625)"></use><use width="100%" height="100%" xlink:href="#DejaVuSans-Oblique-61" transform="translate(387.939 0.015625)"></use><use width="100%" height="100%" xlink:href="#DejaVuSans-Oblique-74" transform="translate(449.219 0.015625)"></use><use width="100%" height="100%" xlink:href="#DejaVuSans-Oblique-69" transform="translate(488.428 0.015625)"></use><use width="100%" height="100%" xlink:href="#DejaVuSans-Oblique-6f" transform="translate(516.211 0.015625)"></use><use width="100%" height="100%" xlink:href="#DejaVuSans-Oblique-6e" transform="translate(577.393 0.015625)"></use><use width="100%" height="100%" xlink:href="#DejaVuSans-Oblique-4e" transform="translate(673.242 0.015625)"></use><use width="100%" height="100%" xlink:href="#DejaVuSans-Oblique-75" transform="translate(748.047 0.015625)"></use><use width="100%" height="100%" xlink:href="#DejaVuSans-Oblique-6d" transform="translate(811.425 0.015625)"></use><use width="100%" height="100%" xlink:href="#DejaVuSans-Oblique-62" transform="translate(908.838 0.015625)"></use><use width="100%" height="100%" xlink:href="#DejaVuSans-Oblique-65" transform="translate(972.314 0.015625)"></use><use width="100%" height="100%" xlink:href="#DejaVuSans-Oblique-72" transform="translate(1033.84 0.015625)"></use><use width="100%" height="100%" xlink:href="#DejaVuSans-Oblique-43" transform="translate(1107.42 0.015625)"></use><use width="100%" height="100%" xlink:href="#DejaVuSans-Oblique-4e" transform="translate(1177.25 0.015625)"></use></g></g></g><g id="patch_3"><path d="M72 320.4 72 43.2" stroke="#000000" stroke-width="0.8" stroke-linecap="square" stroke-linejoin="miter" fill="none"/></g><g id="patch_4"><path d="M518.4 320.4 518.4 43.2" stroke="#000000" stroke-width="0.8" stroke-linecap="square" stroke-linejoin="miter" fill="none"/></g><g id="patch_5"><path d="M72 320.4 518.4 320.4" stroke="#000000" stroke-width="0.8" stroke-linecap="square" stroke-linejoin="miter" fill="none"/></g><g id="patch_6"><path d="M72 43.2 518.4 43.2" stroke="#000000" stroke-width="0.8" stroke-linecap="square" stroke-linejoin="miter" fill="none"/></g><g id="legend_1"><g id="patch_7"><path d="M78 140.869 326.64 140.869 326.64 49.2 78 49.2Z" stroke="#CCCCCC" stroke-linejoin="miter" fill="#FFFFFF" opacity="0.5"/></g><g id="PathCollection_6"><path d="M94.8 62.9681C95.5956 62.9681 96.3587 62.652 96.9213 62.0894 97.4839 61.5269 97.8 60.7637 97.8 59.9681 97.8 59.1725 97.4839 58.4094 96.9213 57.8468 96.3587 57.2842 95.5956 56.9681 94.8 56.9681 94.0044 56.9681 93.2413 57.2842 92.6787 57.8468 92.1161 58.4094 91.8 59.1725 91.8 59.9681 91.8 60.7637 92.1161 61.5269 92.6787 62.0894 93.2413 62.652 94.0044 62.9681 94.8 62.9681L94.8 62.9681Z" stroke="#D62728" stroke-opacity="0.9" fill="none"/></g><g id="text_11"><g transform="matrix(0.12 0 0 -0.12 116.4 63.1181)"><defs><path d="M750 794 1409 794 1409 256 897-744 494-744 750 256 750 794Z" id="DejaVuSans-2c" transform="scale(0.015625 0.015625)"/><path d="M2913 2219 925 2219C835.667 1595.67 836.667 1152 928 888 1042.67 562.667 1255.33 400 1566 400 1878 400 2153 563.667 2391 891 2599 1178.33 2773 1621 2913 2219ZM3009 2750C3065.67 3342 3057.33 3742 2984 3950 2870 4279.33 2659.67 4444 2353 4444 2034.33 4444 1758.33 4281.33 1525 3956 1341.67 3694 1178 3292 1034 2750L3009 2750ZM2444 4913C2944 4913 3294 4692 3494 4250 3694 3810.67 3718 3201.33 3566 2422 3416 1644.67 3154.33 1035.33 2781 594 2410.33 150 1975-72 1475-72 973-72 623 150 425 594 227 1035.33 203 1644.67 353 2422 505 3201.33 765.333 3810.67 1134 4250 1505.33 4692 1942 4913 2444 4913Z" id="DejaVuSans-Oblique-3b8" transform="scale(0.015625 0.015625)"/><path d="M678 2906 4684 2906 4684 2381 678 2381 678 2906ZM678 1631 4684 1631 4684 1100 678 1100 678 1631Z" id="DejaVuSans-3d" transform="scale(0.015625 0.015625)"/><path d="M1600 4347C1433.33 4347 1292.67 4289 1178 4173 1063.33 4057.67 1006 3916.67 1006 3750 1006 3585.33 1063.33 3446.33 1178 3333 1292.67 3219.67 1433.33 3163 1600 3163 1766.67 3163 1907.33 3219.67 2022 3333 2136.67 3446.33 2194 3585.33 2194 3750 2194 3914.67 2136 4055.33 2020 4172 1904.67 4288.67 1764.67 4347 1600 4347ZM1600 4750C1733.33 4750 1861.33 4724.33 1984 4673 2107.33 4622.33 2213.67 4549 2303 4453 2399 4359.67 2471 4253.33 2519 4134 2567 4015.33 2591 3887.33 2591 3750 2591 3475.33 2494.67 3242.67 2302 3052 2109.33 2861.33 1873.33 2766 1594 2766 1312.67 2766 1078 2859.67 890 3047 702.667 3234.33 609 3468.67 609 3750 609 4029.33 704.667 4265.67 896 4459 1088 4653 1322.67 4750 1600 4750Z" id="DejaVuSans-b0" transform="scale(0.015625 0.015625)"/></defs><use width="100%" height="100%" xlink:href="#DejaVuSans-Oblique-43" transform="matrix(1 0 0 1 0 0.234375)"></use><use width="100%" height="100%" xlink:href="#DejaVuSans-Oblique-6f" transform="translate(69.8242 0.234375)"></use><use width="100%" height="100%" xlink:href="#DejaVuSans-Oblique-6f" transform="translate(131.006 0.234375)"></use><use width="100%" height="100%" xlink:href="#DejaVuSans-Oblique-72" transform="translate(192.188 0.234375)"></use><use width="100%" height="100%" xlink:href="#DejaVuSans-Oblique-64" transform="translate(233.301 0.234375)"></use><use width="100%" height="100%" xlink:href="#DejaVuSans-Oblique-69" transform="translate(296.777 0.234375)"></use><use width="100%" height="100%" xlink:href="#DejaVuSans-Oblique-6e" transform="translate(324.561 0.234375)"></use><use width="100%" height="100%" xlink:href="#DejaVuSans-Oblique-61" transform="translate(387.939 0.234375)"></use><use width="100%" height="100%" xlink:href="#DejaVuSans-Oblique-74" transform="translate(449.219 0.234375)"></use><use width="100%" height="100%" xlink:href="#DejaVuSans-Oblique-69" transform="translate(488.428 0.234375)"></use><use width="100%" height="100%" xlink:href="#DejaVuSans-Oblique-6f" transform="translate(516.211 0.234375)"></use><use width="100%" height="100%" xlink:href="#DejaVuSans-Oblique-6e" transform="translate(577.393 0.234375)"></use><use width="100%" height="100%" xlink:href="#DejaVuSans-Oblique-4e" transform="translate(673.242 0.234375)"></use><use width="100%" height="100%" xlink:href="#DejaVuSans-Oblique-75" transform="translate(748.047 0.234375)"></use><use width="100%" height="100%" xlink:href="#DejaVuSans-Oblique-6d" transform="translate(811.425 0.234375)"></use><use width="100%" height="100%" xlink:href="#DejaVuSans-Oblique-62" transform="translate(908.838 0.234375)"></use><use width="100%" height="100%" xlink:href="#DejaVuSans-Oblique-65" transform="translate(972.314 0.234375)"></use><use width="100%" height="100%" xlink:href="#DejaVuSans-Oblique-72" transform="translate(1033.84 0.234375)"></use><use width="100%" height="100%" xlink:href="#DejaVuSans-2c" transform="translate(1074.95 0.234375)"></use><use width="100%" height="100%" xlink:href="#DejaVuSans-Oblique-3b8" transform="translate(1158.69 0.234375)"></use><use width="100%" height="100%" xlink:href="#DejaVuSans-3d" transform="translate(1271.83 0.234375)"></use><use width="100%" height="100%" xlink:href="#DejaVuSans-36" transform="translate(1375.1 0.234375)"></use><use width="100%" height="100%" xlink:href="#DejaVuSans-30" transform="translate(1438.72 0.234375)"></use><use width="100%" height="100%" xlink:href="#DejaVuSans-2e" transform="translate(1502.34 0.234375)"></use><use width="100%" height="100%" xlink:href="#DejaVuSans-30" transform="translate(1534.13 0.234375)"></use><use width="100%" height="100%" xlink:href="#DejaVuSans-b0" transform="translate(1597.75 0.234375)"></use></g></g><g id="PathCollection_7"><path d="M94.8 80.5819 97.8 74.5819 91.8 74.5819 94.8 80.5819Z" stroke="#1F77B4" stroke-opacity="0.9" fill="none"/></g><g id="text_12"><g transform="matrix(0.12 0 0 -0.12 116.4 80.7319)"><defs><path d="M525 4666 3525 4666 3525 4397 1831 0 1172 0 2766 4134 525 4134 525 4666Z" id="DejaVuSans-37" transform="scale(0.015625 0.015625)"/><path d="M691 4666 3169 4666 3169 4134 1269 4134 1269 2991C1360.33 3022.33 1451.67 3045.67 1543 3061 1635 3076.33 1727 3084 1819 3084 2339.67 3084 2752 2941.33 3056 2656 3360.67 2370.67 3513 1984.33 3513 1497 3513 995 3356.67 604.667 3044 326 2731.33 48 2290.67-91 1722-91 1526-91 1326.33-74.3333 1123-41 920.333-7.66667 710.667 42.3333 494 109L494 744C681.333 642 875 566 1075 516 1275 466 1486.33 441 1709 441 2069.67 441 2355 535.667 2565 725 2775.67 914.333 2881 1171.67 2881 1497 2881 1821.67 2775.67 2078.67 2565 2268 2355 2458 2069.67 2553 1709 2553 1540.33 2553 1372 2534.33 1204 2497 1036.67 2459.67 865.667 2401.33 691 2322L691 4666Z" id="DejaVuSans-35" transform="scale(0.015625 0.015625)"/></defs><use width="100%" height="100%" xlink:href="#DejaVuSans-Oblique-43" transform="matrix(1 0 0 1 0 0.234375)"></use><use width="100%" height="100%" xlink:href="#DejaVuSans-Oblique-6f" transform="translate(69.8242 0.234375)"></use><use width="100%" height="100%" xlink:href="#DejaVuSans-Oblique-6f" transform="translate(131.006 0.234375)"></use><use width="100%" height="100%" xlink:href="#DejaVuSans-Oblique-72" transform="translate(192.188 0.234375)"></use><use width="100%" height="100%" xlink:href="#DejaVuSans-Oblique-64" transform="translate(233.301 0.234375)"></use><use width="100%" height="100%" xlink:href="#DejaVuSans-Oblique-69" transform="translate(296.777 0.234375)"></use><use width="100%" height="100%" xlink:href="#DejaVuSans-Oblique-6e" transform="translate(324.561 0.234375)"></use><use width="100%" height="100%" xlink:href="#DejaVuSans-Oblique-61" transform="translate(387.939 0.234375)"></use><use width="100%" height="100%" xlink:href="#DejaVuSans-Oblique-74" transform="translate(449.219 0.234375)"></use><use width="100%" height="100%" xlink:href="#DejaVuSans-Oblique-69" transform="translate(488.428 0.234375)"></use><use width="100%" height="100%" xlink:href="#DejaVuSans-Oblique-6f" transform="translate(516.211 0.234375)"></use><use width="100%" height="100%" xlink:href="#DejaVuSans-Oblique-6e" transform="translate(577.393 0.234375)"></use><use width="100%" height="100%" xlink:href="#DejaVuSans-Oblique-4e" transform="translate(673.242 0.234375)"></use><use width="100%" height="100%" xlink:href="#DejaVuSans-Oblique-75" transform="translate(748.047 0.234375)"></use><use width="100%" height="100%" xlink:href="#DejaVuSans-Oblique-6d" transform="translate(811.425 0.234375)"></use><use width="100%" height="100%" xlink:href="#DejaVuSans-Oblique-62" transform="translate(908.838 0.234375)"></use><use width="100%" height="100%" xlink:href="#DejaVuSans-Oblique-65" transform="translate(972.314 0.234375)"></use><use width="100%" height="100%" xlink:href="#DejaVuSans-Oblique-72" transform="translate(1033.84 0.234375)"></use><use width="100%" height="100%" xlink:href="#DejaVuSans-2c" transform="translate(1074.95 0.234375)"></use><use width="100%" height="100%" xlink:href="#DejaVuSans-Oblique-3b8" transform="translate(1158.69 0.234375)"></use><use width="100%" height="100%" xlink:href="#DejaVuSans-3d" transform="translate(1271.83 0.234375)"></use><use width="100%" height="100%" xlink:href="#DejaVuSans-37" transform="translate(1375.1 0.234375)"></use><use width="100%" height="100%" xlink:href="#DejaVuSans-35" transform="translate(1438.72 0.234375)"></use><use width="100%" height="100%" xlink:href="#DejaVuSans-2e" transform="translate(1502.34 0.234375)"></use><use width="100%" height="100%" xlink:href="#DejaVuSans-30" transform="translate(1534.13 0.234375)"></use><use width="100%" height="100%" xlink:href="#DejaVuSans-b0" transform="translate(1597.75 0.234375)"></use></g></g><g id="PathCollection_8"><path d="M91.8 98.1956 97.8 98.1956 97.8 92.1956 91.8 92.1956 91.8 98.1956Z" stroke="#FF7F0E" stroke-opacity="0.9" fill="none"/></g><g id="text_13"><g transform="matrix(0.12 0 0 -0.12 116.4 98.3456)"><defs><path d="M703 97 703 672C861.667 596.667 1022 539.333 1184 500 1346.67 460.667 1506.33 441 1663 441 2079.67 441 2397.67 581 2617 861 2837 1141 2962.67 1566.67 2994 2138 2873.33 1958.67 2720 1821 2534 1725 2348.67 1629 2143.67 1581 1919 1581 1452.33 1581 1083 1722 811 2004 539 2286.67 403 2673 403 3163 403 3641.67 544.667 4025.67 828 4315 1111.33 4605 1488.33 4750 1959 4750 2499 4750 2911 4543 3195 4129 3479.67 3715.67 3622 3115.33 3622 2328 3622 1592.67 3447.33 1005.67 3098 567 2749.33 128.333 2280.33-91 1691-91 1532.33-91 1371.67-75.3333 1209-44 1047-12.6667 878.333 34.3333 703 97ZM1959 2075C2242.33 2075 2466.67 2171.67 2632 2365 2798 2559 2881 2825 2881 3163 2881 3498.33 2798 3763.33 2632 3958 2466.67 4152.67 2242.33 4250 1959 4250 1675.67 4250 1451.33 4152.67 1286 3958 1120.67 3763.33 1038 3498.33 1038 3163 1038 2825 1120.67 2559 1286 2365 1451.33 2171.67 1675.67 2075 1959 2075Z" id="DejaVuSans-39" transform="scale(0.015625 0.015625)"/></defs><use width="100%" height="100%" xlink:href="#DejaVuSans-Oblique-43" transform="matrix(1 0 0 1 0 0.234375)"></use><use width="100%" height="100%" xlink:href="#DejaVuSans-Oblique-6f" transform="translate(69.8242 0.234375)"></use><use width="100%" height="100%" xlink:href="#DejaVuSans-Oblique-6f" transform="translate(131.006 0.234375)"></use><use width="100%" height="100%" xlink:href="#DejaVuSans-Oblique-72" transform="translate(192.188 0.234375)"></use><use width="100%" height="100%" xlink:href="#DejaVuSans-Oblique-64" transform="translate(233.301 0.234375)"></use><use width="100%" height="100%" xlink:href="#DejaVuSans-Oblique-69" transform="translate(296.777 0.234375)"></use><use width="100%" height="100%" xlink:href="#DejaVuSans-Oblique-6e" transform="translate(324.561 0.234375)"></use><use width="100%" height="100%" xlink:href="#DejaVuSans-Oblique-61" transform="translate(387.939 0.234375)"></use><use width="100%" height="100%" xlink:href="#DejaVuSans-Oblique-74" transform="translate(449.219 0.234375)"></use><use width="100%" height="100%" xlink:href="#DejaVuSans-Oblique-69" transform="translate(488.428 0.234375)"></use><use width="100%" height="100%" xlink:href="#DejaVuSans-Oblique-6f" transform="translate(516.211 0.234375)"></use><use width="100%" height="100%" xlink:href="#DejaVuSans-Oblique-6e" transform="translate(577.393 0.234375)"></use><use width="100%" height="100%" xlink:href="#DejaVuSans-Oblique-4e" transform="translate(673.242 0.234375)"></use><use width="100%" height="100%" xlink:href="#DejaVuSans-Oblique-75" transform="translate(748.047 0.234375)"></use><use width="100%" height="100%" xlink:href="#DejaVuSans-Oblique-6d" transform="translate(811.425 0.234375)"></use><use width="100%" height="100%" xlink:href="#DejaVuSans-Oblique-62" transform="translate(908.838 0.234375)"></use><use width="100%" height="100%" xlink:href="#DejaVuSans-Oblique-65" transform="translate(972.314 0.234375)"></use><use width="100%" height="100%" xlink:href="#DejaVuSans-Oblique-72" transform="translate(1033.84 0.234375)"></use><use width="100%" height="100%" xlink:href="#DejaVuSans-2c" transform="translate(1074.95 0.234375)"></use><use width="100%" height="100%" xlink:href="#DejaVuSans-Oblique-3b8" transform="translate(1158.69 0.234375)"></use><use width="100%" height="100%" xlink:href="#DejaVuSans-3d" transform="translate(1271.83 0.234375)"></use><use width="100%" height="100%" xlink:href="#DejaVuSans-39" transform="translate(1375.1 0.234375)"></use><use width="100%" height="100%" xlink:href="#DejaVuSans-30" transform="translate(1438.72 0.234375)"></use><use width="100%" height="100%" xlink:href="#DejaVuSans-2e" transform="translate(1502.34 0.234375)"></use><use width="100%" height="100%" xlink:href="#DejaVuSans-30" transform="translate(1534.13 0.234375)"></use><use width="100%" height="100%" xlink:href="#DejaVuSans-b0" transform="translate(1597.75 0.234375)"></use></g></g><g id="PathCollection_9"><path d="M94.8 109.809 91.8 115.809 97.8 115.809 94.8 109.809Z" stroke="#2CA02C" stroke-opacity="0.9" fill="none"/></g><g id="text_14"><g transform="matrix(0.12 0 0 -0.12 116.4 115.959)"><use width="100%" height="100%" xlink:href="#DejaVuSans-Oblique-43" transform="matrix(1 0 0 1 0 0.234375)"></use><use width="100%" height="100%" xlink:href="#DejaVuSans-Oblique-6f" transform="translate(69.8242 0.234375)"></use><use width="100%" height="100%" xlink:href="#DejaVuSans-Oblique-6f" transform="translate(131.006 0.234375)"></use><use width="100%" height="100%" xlink:href="#DejaVuSans-Oblique-72" transform="translate(192.188 0.234375)"></use><use width="100%" height="100%" xlink:href="#DejaVuSans-Oblique-64" transform="translate(233.301 0.234375)"></use><use width="100%" height="100%" xlink:href="#DejaVuSans-Oblique-69" transform="translate(296.777 0.234375)"></use><use width="100%" height="100%" xlink:href="#DejaVuSans-Oblique-6e" transform="translate(324.561 0.234375)"></use><use width="100%" height="100%" xlink:href="#DejaVuSans-Oblique-61" transform="translate(387.939 0.234375)"></use><use width="100%" height="100%" xlink:href="#DejaVuSans-Oblique-74" transform="translate(449.219 0.234375)"></use><use width="100%" height="100%" xlink:href="#DejaVuSans-Oblique-69" transform="translate(488.428 0.234375)"></use><use width="100%" height="100%" xlink:href="#DejaVuSans-Oblique-6f" transform="translate(516.211 0.234375)"></use><use width="100%" height="100%" xlink:href="#DejaVuSans-Oblique-6e" transform="translate(577.393 0.234375)"></use><use width="100%" height="100%" xlink:href="#DejaVuSans-Oblique-4e" transform="translate(673.242 0.234375)"></use><use width="100%" height="100%" xlink:href="#DejaVuSans-Oblique-75" transform="translate(748.047 0.234375)"></use><use width="100%" height="100%" xlink:href="#DejaVuSans-Oblique-6d" transform="translate(811.425 0.234375)"></use><use width="100%" height="100%" xlink:href="#DejaVuSans-Oblique-62" transform="translate(908.838 0.234375)"></use><use width="100%" height="100%" xlink:href="#DejaVuSans-Oblique-65" transform="translate(972.314 0.234375)"></use><use width="100%" height="100%" xlink:href="#DejaVuSans-Oblique-72" transform="translate(1033.84 0.234375)"></use><use width="100%" height="100%" xlink:href="#DejaVuSans-2c" transform="translate(1074.95 0.234375)"></use><use width="100%" height="100%" xlink:href="#DejaVuSans-Oblique-3b8" transform="translate(1158.69 0.234375)"></use><use width="100%" height="100%" xlink:href="#DejaVuSans-3d" transform="translate(1271.83 0.234375)"></use><use width="100%" height="100%" xlink:href="#DejaVuSans-31" transform="translate(1375.1 0.234375)"></use><use width="100%" height="100%" xlink:href="#DejaVuSans-30" transform="translate(1438.72 0.234375)"></use><use width="100%" height="100%" xlink:href="#DejaVuSans-35" transform="translate(1502.34 0.234375)"></use><use width="100%" height="100%" xlink:href="#DejaVuSans-2e" transform="translate(1565.97 0.234375)"></use><use width="100%" height="100%" xlink:href="#DejaVuSans-30" transform="translate(1597.75 0.234375)"></use><use width="100%" height="100%" xlink:href="#DejaVuSans-b0" transform="translate(1661.38 0.234375)"></use></g></g><g id="PathCollection_10"><path d="M94.8 134.666 99.0426 130.423 94.8 126.18 90.5574 130.423 94.8 134.666Z" stroke="#9467BD" stroke-opacity="0.9" fill="none"/></g><g id="text_15"><g transform="matrix(0.12 0 0 -0.12 116.4 133.573)"><use width="100%" height="100%" xlink:href="#DejaVuSans-Oblique-43" transform="matrix(1 0 0 1 0 0.234375)"></use><use width="100%" height="100%" xlink:href="#DejaVuSans-Oblique-6f" transform="translate(69.8242 0.234375)"></use><use width="100%" height="100%" xlink:href="#DejaVuSans-Oblique-6f" transform="translate(131.006 0.234375)"></use><use width="100%" height="100%" xlink:href="#DejaVuSans-Oblique-72" transform="translate(192.188 0.234375)"></use><use width="100%" height="100%" xlink:href="#DejaVuSans-Oblique-64" transform="translate(233.301 0.234375)"></use><use width="100%" height="100%" xlink:href="#DejaVuSans-Oblique-69" transform="translate(296.777 0.234375)"></use><use width="100%" height="100%" xlink:href="#DejaVuSans-Oblique-6e" transform="translate(324.561 0.234375)"></use><use width="100%" height="100%" xlink:href="#DejaVuSans-Oblique-61" transform="translate(387.939 0.234375)"></use><use width="100%" height="100%" xlink:href="#DejaVuSans-Oblique-74" transform="translate(449.219 0.234375)"></use><use width="100%" height="100%" xlink:href="#DejaVuSans-Oblique-69" transform="translate(488.428 0.234375)"></use><use width="100%" height="100%" xlink:href="#DejaVuSans-Oblique-6f" transform="translate(516.211 0.234375)"></use><use width="100%" height="100%" xlink:href="#DejaVuSans-Oblique-6e" transform="translate(577.393 0.234375)"></use><use width="100%" height="100%" xlink:href="#DejaVuSans-Oblique-4e" transform="translate(673.242 0.234375)"></use><use width="100%" height="100%" xlink:href="#DejaVuSans-Oblique-75" transform="translate(748.047 0.234375)"></use><use width="100%" height="100%" xlink:href="#DejaVuSans-Oblique-6d" transform="translate(811.425 0.234375)"></use><use width="100%" height="100%" xlink:href="#DejaVuSans-Oblique-62" transform="translate(908.838 0.234375)"></use><use width="100%" height="100%" xlink:href="#DejaVuSans-Oblique-65" transform="translate(972.314 0.234375)"></use><use width="100%" height="100%" xlink:href="#DejaVuSans-Oblique-72" transform="translate(1033.84 0.234375)"></use><use width="100%" height="100%" xlink:href="#DejaVuSans-2c" transform="translate(1074.95 0.234375)"></use><use width="100%" height="100%" xlink:href="#DejaVuSans-Oblique-3b8" transform="translate(1158.69 0.234375)"></use><use width="100%" height="100%" xlink:href="#DejaVuSans-3d" transform="translate(1271.83 0.234375)"></use><use width="100%" height="100%" xlink:href="#DejaVuSans-31" transform="translate(1375.1 0.234375)"></use><use width="100%" height="100%" xlink:href="#DejaVuSans-32" transform="translate(1438.72 0.234375)"></use><use width="100%" height="100%" xlink:href="#DejaVuSans-30" transform="translate(1502.34 0.234375)"></use><use width="100%" height="100%" xlink:href="#DejaVuSans-2e" transform="translate(1565.97 0.234375)"></use><use width="100%" height="100%" xlink:href="#DejaVuSans-30" transform="translate(1597.75 0.234375)"></use><use width="100%" height="100%" xlink:href="#DejaVuSans-b0" transform="translate(1661.38 0.234375)"></use></g></g></g></g></g></svg>